<svg width="871" height="743" viewBox="0 0 871 743" fill="none" xmlns="http://www.w3.org/2000/svg">
<rect x="151" y="42" width="5" height="611" rx="2.5" fill="#505459"/>
<rect x="871" y="649" width="5.00004" height="720" rx="2.50002" transform="rotate(90 871 649)" fill="#505459"/>
<path d="M57.9219 80.8594H52.1094L52.0781 77.8281H57.0625C57.9167 77.8281 58.6302 77.7083 59.2031 77.4688C59.776 77.2292 60.2083 76.8802 60.5 76.4219C60.8021 75.9635 60.9531 75.4063 60.9531 74.75C60.9531 74.0208 60.8125 73.4271 60.5312 72.9688C60.2604 72.5104 59.8333 72.1771 59.25 71.9688C58.6667 71.75 57.9271 71.6406 57.0312 71.6406H53.5V91H49.2031V68.25H57.0312C58.3229 68.25 59.474 68.375 60.4844 68.625C61.5052 68.8646 62.3698 69.2396 63.0781 69.75C63.7865 70.2604 64.3229 70.901 64.6875 71.6719C65.0625 72.4427 65.25 73.3594 65.25 74.4219C65.25 75.3594 65.0312 76.224 64.5938 77.0156C64.1667 77.7969 63.5052 78.4323 62.6094 78.9219C61.724 79.4115 60.599 79.6927 59.2344 79.7656L57.9219 80.8594ZM57.7344 91L50.8438 91L52.6406 87.625L57.7344 87.625C58.5885 87.625 59.2917 87.4844 59.8438 87.2031C60.4062 86.9219 60.8229 86.5365 61.0938 86.0469C61.375 85.5469 61.5156 84.974 61.5156 84.3281C61.5156 83.6198 61.3906 83.0052 61.1406 82.4844C60.901 81.9635 60.5156 81.5625 59.9844 81.2813C59.4635 81 58.776 80.8594 57.9219 80.8594H53.4531L53.4844 77.8281H59.1719L60.1562 79C61.4688 79.0104 62.5365 79.2708 63.3594 79.7813C64.1927 80.2917 64.8073 80.9479 65.2031 81.75C65.599 82.5521 65.7969 83.4167 65.7969 84.3438C65.7969 85.8021 65.4792 87.026 64.8438 88.0156C64.2188 89.0052 63.3021 89.75 62.0938 90.25C60.8958 90.75 59.4427 91 57.7344 91ZM69.5156 68.25H77.7812C79.5104 68.25 80.9948 68.5104 82.2344 69.0313C83.474 69.5521 84.4271 70.3229 85.0938 71.3438C85.7604 72.3646 86.0938 73.6198 86.0938 75.1094C86.0938 76.2865 85.8854 77.3073 85.4688 78.1719C85.0521 79.0365 84.4635 79.7604 83.7031 80.3438C82.9531 80.9271 82.0677 81.3854 81.0469 81.7188L79.7031 82.4063H72.4062L72.375 79.0156H77.8281C78.7135 79.0156 79.4479 78.8594 80.0312 78.5469C80.6146 78.2344 81.0521 77.8021 81.3438 77.25C81.6458 76.6979 81.7969 76.0677 81.7969 75.3594C81.7969 74.599 81.651 73.9427 81.3594 73.3906C81.0677 72.8281 80.625 72.3958 80.0312 72.0938C79.4375 71.7917 78.6875 71.6406 77.7812 71.6406H73.8125V91H69.5156V68.25ZM82.3594 91L77.0938 80.8125L81.6406 80.7969L86.9688 90.7813V91H82.3594ZM103.172 83.5156H107.469C107.354 85.0365 106.932 86.3854 106.203 87.5625C105.474 88.7292 104.458 89.6458 103.156 90.3125C101.854 90.9792 100.276 91.3125 98.4219 91.3125C96.9948 91.3125 95.7083 91.0625 94.5625 90.5625C93.4271 90.0521 92.4531 89.3281 91.6406 88.3906C90.8385 87.4427 90.224 86.3073 89.7969 84.9844C89.3698 83.651 89.1562 82.1563 89.1562 80.5V78.7656C89.1562 77.1094 89.375 75.6146 89.8125 74.2813C90.25 72.9479 90.875 71.8125 91.6875 70.875C92.5104 69.9271 93.4948 69.1979 94.6406 68.6875C95.7969 68.1771 97.0885 67.9219 98.5156 67.9219C100.37 67.9219 101.938 68.2656 103.219 68.9531C104.5 69.6302 105.495 70.5625 106.203 71.75C106.911 72.9375 107.339 74.3021 107.484 75.8438H103.188C103.104 74.8854 102.896 74.0729 102.562 73.4063C102.24 72.7396 101.75 72.2344 101.094 71.8906C100.448 71.5365 99.5885 71.3594 98.5156 71.3594C97.6823 71.3594 96.9479 71.5156 96.3125 71.8281C95.6875 72.1406 95.1667 72.6094 94.75 73.2344C94.3333 73.849 94.0208 74.6198 93.8125 75.5469C93.6042 76.4635 93.5 77.526 93.5 78.7344V80.5C93.5 81.6563 93.5938 82.6927 93.7812 83.6094C93.9688 84.526 94.2604 85.3021 94.6562 85.9375C95.0521 86.5729 95.5625 87.0573 96.1875 87.3906C96.8125 87.724 97.5573 87.8906 98.4219 87.8906C99.474 87.8906 100.328 87.724 100.984 87.3906C101.651 87.0573 102.156 86.5677 102.5 85.9219C102.854 85.276 103.078 84.474 103.172 83.5156ZM119.844 71.7031L113.359 91H108.812L117.312 68.25H120.219L119.844 71.7031ZM125.266 91L118.75 71.7031L118.359 68.25H121.281L129.828 91H125.266ZM124.969 82.5469V85.9375H112.766V82.5469H124.969Z" fill="#505459"/>
<path d="M59.5625 140H54.6562L54.6875 136.625H59.5625C60.8854 136.625 61.9948 136.333 62.8906 135.75C63.7865 135.156 64.4635 134.307 64.9219 133.203C65.3802 132.089 65.6094 130.755 65.6094 129.203V128.031C65.6094 126.833 65.4792 125.776 65.2188 124.859C64.9583 123.943 64.5729 123.172 64.0625 122.547C63.5625 121.922 62.9427 121.448 62.2031 121.125C61.4635 120.802 60.6146 120.641 59.6562 120.641H54.5625V117.25H59.6562C61.1771 117.25 62.5625 117.505 63.8125 118.016C65.0729 118.526 66.1615 119.26 67.0781 120.219C68.0052 121.167 68.7135 122.302 69.2031 123.625C69.7031 124.948 69.9531 126.427 69.9531 128.062V129.203C69.9531 130.828 69.7031 132.307 69.2031 133.641C68.7135 134.964 68.0052 136.099 67.0781 137.047C66.1615 137.995 65.0677 138.724 63.7969 139.234C62.526 139.745 61.1146 140 59.5625 140ZM57.0625 117.25L57.0625 140H52.7656L52.7656 117.25H57.0625ZM88.0469 136.625V140H76.6094V136.625H88.0469ZM77.9062 117.25V140H73.6094V117.25H77.9062ZM99.6406 129.859H93.8281L93.7969 126.828H98.7812C99.6354 126.828 100.349 126.708 100.922 126.469C101.495 126.229 101.927 125.88 102.219 125.422C102.521 124.964 102.672 124.406 102.672 123.75C102.672 123.021 102.531 122.427 102.25 121.969C101.979 121.51 101.552 121.177 100.969 120.969C100.385 120.75 99.6458 120.641 98.75 120.641H95.2188V140H90.9219V117.25H98.75C100.042 117.25 101.193 117.375 102.203 117.625C103.224 117.865 104.089 118.24 104.797 118.75C105.505 119.26 106.042 119.901 106.406 120.672C106.781 121.443 106.969 122.359 106.969 123.422C106.969 124.359 106.75 125.224 106.312 126.016C105.885 126.797 105.224 127.432 104.328 127.922C103.443 128.411 102.318 128.693 100.953 128.766L99.6406 129.859ZM99.4531 140H92.5625L94.3594 136.625H99.4531C100.307 136.625 101.01 136.484 101.562 136.203C102.125 135.922 102.542 135.536 102.812 135.047C103.094 134.547 103.234 133.974 103.234 133.328C103.234 132.62 103.109 132.005 102.859 131.484C102.62 130.964 102.234 130.562 101.703 130.281C101.182 130 100.495 129.859 99.6406 129.859H95.1719L95.2031 126.828H100.891L101.875 128C103.188 128.01 104.255 128.271 105.078 128.781C105.911 129.292 106.526 129.948 106.922 130.75C107.318 131.552 107.516 132.417 107.516 133.344C107.516 134.802 107.198 136.026 106.562 137.016C105.938 138.005 105.021 138.75 103.812 139.25C102.615 139.75 101.161 140 99.4531 140ZM124.547 132.516L128.844 132.516C128.729 134.036 128.307 135.385 127.578 136.562C126.849 137.729 125.833 138.646 124.531 139.312C123.229 139.979 121.651 140.312 119.797 140.312C118.37 140.312 117.083 140.062 115.938 139.562C114.802 139.052 113.828 138.328 113.016 137.391C112.214 136.443 111.599 135.307 111.172 133.984C110.745 132.651 110.531 131.156 110.531 129.5V127.766C110.531 126.109 110.75 124.615 111.188 123.281C111.625 121.948 112.25 120.813 113.062 119.875C113.885 118.927 114.87 118.198 116.016 117.688C117.172 117.177 118.464 116.922 119.891 116.922C121.745 116.922 123.312 117.266 124.594 117.953C125.875 118.63 126.87 119.563 127.578 120.75C128.286 121.938 128.714 123.302 128.859 124.844H124.562C124.479 123.885 124.271 123.073 123.938 122.406C123.615 121.74 123.125 121.234 122.469 120.891C121.823 120.536 120.964 120.359 119.891 120.359C119.057 120.359 118.323 120.516 117.688 120.828C117.062 121.141 116.542 121.609 116.125 122.234C115.708 122.849 115.396 123.62 115.188 124.547C114.979 125.464 114.875 126.526 114.875 127.734V129.5C114.875 130.656 114.969 131.693 115.156 132.609C115.344 133.526 115.635 134.302 116.031 134.938C116.427 135.573 116.938 136.057 117.562 136.391C118.188 136.724 118.932 136.891 119.797 136.891C120.849 136.891 121.703 136.724 122.359 136.391C123.026 136.057 123.531 135.568 123.875 134.922C124.229 134.276 124.453 133.474 124.547 132.516Z" fill="#505459"/>
<path d="M67.3438 184.625V188H55.25V184.625H67.3438ZM56.5625 165.25L56.5625 188H52.2656L52.2656 165.25H56.5625ZM65.7656 174.641V177.938H55.25V174.641H65.7656ZM67.2969 165.25V168.641H55.25V165.25H67.2969ZM82.2344 182.094C82.2344 181.656 82.1667 181.266 82.0312 180.922C81.9062 180.568 81.6719 180.25 81.3281 179.969C80.9948 179.677 80.5208 179.396 79.9062 179.125C79.3021 178.844 78.5208 178.552 77.5625 178.25C76.5 177.917 75.5104 177.542 74.5938 177.125C73.6771 176.708 72.8698 176.224 72.1719 175.672C71.4844 175.12 70.9479 174.484 70.5625 173.766C70.1771 173.036 69.9844 172.193 69.9844 171.234C69.9844 170.297 70.1823 169.443 70.5781 168.672C70.9844 167.901 71.5573 167.24 72.2969 166.688C73.0365 166.125 73.9062 165.693 74.9062 165.391C75.9167 165.089 77.0312 164.938 78.25 164.938C79.9375 164.938 81.3958 165.245 82.625 165.859C83.8646 166.474 84.8229 167.307 85.5 168.359C86.1771 169.411 86.5156 170.594 86.5156 171.906H82.2344C82.2344 171.198 82.0833 170.573 81.7812 170.031C81.4896 169.49 81.0417 169.062 80.4375 168.75C79.8438 168.438 79.0938 168.281 78.1875 168.281C77.3125 168.281 76.5833 168.411 76 168.672C75.4271 168.932 74.9948 169.286 74.7031 169.734C74.4219 170.182 74.2812 170.682 74.2812 171.234C74.2812 171.651 74.3802 172.026 74.5781 172.359C74.776 172.682 75.0729 172.99 75.4688 173.281C75.8646 173.562 76.3542 173.828 76.9375 174.078C77.5312 174.318 78.2188 174.557 79 174.797C80.25 175.172 81.3438 175.589 82.2812 176.047C83.2292 176.505 84.0156 177.026 84.6406 177.609C85.276 178.193 85.75 178.849 86.0625 179.578C86.3854 180.307 86.5469 181.135 86.5469 182.062C86.5469 183.042 86.3542 183.917 85.9688 184.688C85.5833 185.458 85.0312 186.115 84.3125 186.656C83.5938 187.198 82.7292 187.609 81.7188 187.891C80.7188 188.172 79.599 188.312 78.3594 188.312C77.2552 188.312 76.1615 188.167 75.0781 187.875C74.0052 187.573 73.0312 187.125 72.1562 186.531C71.2812 185.927 70.5833 185.167 70.0625 184.25C69.5417 183.323 69.2812 182.24 69.2812 181H73.5938C73.5938 181.719 73.7083 182.333 73.9375 182.844C74.1771 183.344 74.5104 183.755 74.9375 184.078C75.375 184.391 75.8854 184.62 76.4688 184.766C77.0521 184.911 77.6823 184.984 78.3594 184.984C79.2344 184.984 79.9531 184.865 80.5156 184.625C81.0885 184.375 81.5156 184.031 81.7969 183.594C82.0885 183.156 82.2344 182.656 82.2344 182.094ZM103.172 180.516H107.469C107.354 182.036 106.932 183.385 106.203 184.562C105.474 185.729 104.458 186.646 103.156 187.312C101.854 187.979 100.276 188.312 98.4219 188.312C96.9948 188.312 95.7083 188.062 94.5625 187.562C93.4271 187.052 92.4531 186.328 91.6406 185.391C90.8385 184.443 90.224 183.307 89.7969 181.984C89.3698 180.651 89.1562 179.156 89.1562 177.5V175.766C89.1562 174.109 89.375 172.615 89.8125 171.281C90.25 169.948 90.875 168.812 91.6875 167.875C92.5104 166.927 93.4948 166.198 94.6406 165.688C95.7969 165.177 97.0885 164.922 98.5156 164.922C100.37 164.922 101.938 165.266 103.219 165.953C104.5 166.63 105.495 167.562 106.203 168.75C106.911 169.938 107.339 171.302 107.484 172.844H103.188C103.104 171.885 102.896 171.073 102.562 170.406C102.24 169.74 101.75 169.234 101.094 168.891C100.448 168.536 99.5885 168.359 98.5156 168.359C97.6823 168.359 96.9479 168.516 96.3125 168.828C95.6875 169.141 95.1667 169.609 94.75 170.234C94.3333 170.849 94.0208 171.62 93.8125 172.547C93.6042 173.464 93.5 174.526 93.5 175.734V177.5C93.5 178.656 93.5938 179.693 93.7812 180.609C93.9688 181.526 94.2604 182.302 94.6562 182.938C95.0521 183.573 95.5625 184.057 96.1875 184.391C96.8125 184.724 97.5573 184.891 98.4219 184.891C99.474 184.891 100.328 184.724 100.984 184.391C101.651 184.057 102.156 183.568 102.5 182.922C102.854 182.276 103.078 181.474 103.172 180.516ZM119.844 168.703L113.359 188H108.812L117.312 165.25L120.219 165.25L119.844 168.703ZM125.266 188L118.75 168.703L118.359 165.25L121.281 165.25L129.828 188H125.266ZM124.969 179.547V182.938H112.766V179.547H124.969Z" fill="#505459"/>
<path d="M61.4844 222.641V226.016H49.5156V222.641H61.4844ZM50.6875 213.25L50.6875 236H46.3906L46.3906 213.25H50.6875ZM64.6719 213.25V236H60.375L60.375 213.25H64.6719ZM87.3281 213.25V236H83.0156L73.3438 220.219V236H69.0469V213.25H73.3438L83.0469 229.047V213.25H87.3281ZM103.609 230.094C103.609 229.656 103.542 229.266 103.406 228.922C103.281 228.568 103.047 228.25 102.703 227.969C102.37 227.677 101.896 227.396 101.281 227.125C100.677 226.844 99.8958 226.552 98.9375 226.25C97.875 225.917 96.8854 225.542 95.9688 225.125C95.0521 224.708 94.2448 224.224 93.5469 223.672C92.8594 223.12 92.3229 222.484 91.9375 221.766C91.5521 221.036 91.3594 220.193 91.3594 219.234C91.3594 218.297 91.5573 217.443 91.9531 216.672C92.3594 215.901 92.9323 215.24 93.6719 214.688C94.4115 214.125 95.2812 213.693 96.2812 213.391C97.2917 213.089 98.4062 212.938 99.625 212.938C101.312 212.938 102.771 213.245 104 213.859C105.24 214.474 106.198 215.307 106.875 216.359C107.552 217.411 107.891 218.594 107.891 219.906H103.609C103.609 219.198 103.458 218.573 103.156 218.031C102.865 217.49 102.417 217.062 101.812 216.75C101.219 216.438 100.469 216.281 99.5625 216.281C98.6875 216.281 97.9583 216.411 97.375 216.672C96.8021 216.932 96.3698 217.286 96.0781 217.734C95.7969 218.182 95.6562 218.682 95.6562 219.234C95.6562 219.651 95.7552 220.026 95.9531 220.359C96.151 220.682 96.4479 220.99 96.8438 221.281C97.2396 221.562 97.7292 221.828 98.3125 222.078C98.9062 222.318 99.5938 222.557 100.375 222.797C101.625 223.172 102.719 223.589 103.656 224.047C104.604 224.505 105.391 225.026 106.016 225.609C106.651 226.193 107.125 226.849 107.438 227.578C107.76 228.307 107.922 229.135 107.922 230.062C107.922 231.042 107.729 231.917 107.344 232.688C106.958 233.458 106.406 234.115 105.688 234.656C104.969 235.198 104.104 235.609 103.094 235.891C102.094 236.172 100.974 236.312 99.7344 236.312C98.6302 236.312 97.5365 236.167 96.4531 235.875C95.3802 235.573 94.4062 235.125 93.5312 234.531C92.6562 233.927 91.9583 233.167 91.4375 232.25C90.9167 231.323 90.6562 230.24 90.6562 229H94.9688C94.9688 229.719 95.0833 230.333 95.3125 230.844C95.5521 231.344 95.8854 231.755 96.3125 232.078C96.75 232.391 97.2604 232.62 97.8438 232.766C98.4271 232.911 99.0573 232.984 99.7344 232.984C100.609 232.984 101.328 232.865 101.891 232.625C102.464 232.375 102.891 232.031 103.172 231.594C103.464 231.156 103.609 230.656 103.609 230.094ZM124.547 228.516L128.844 228.516C128.729 230.036 128.307 231.385 127.578 232.562C126.849 233.729 125.833 234.646 124.531 235.312C123.229 235.979 121.651 236.312 119.797 236.312C118.37 236.312 117.083 236.062 115.938 235.562C114.802 235.052 113.828 234.328 113.016 233.391C112.214 232.443 111.599 231.307 111.172 229.984C110.745 228.651 110.531 227.156 110.531 225.5V223.766C110.531 222.109 110.75 220.615 111.188 219.281C111.625 217.948 112.25 216.812 113.062 215.875C113.885 214.927 114.87 214.198 116.016 213.688C117.172 213.177 118.464 212.922 119.891 212.922C121.745 212.922 123.312 213.266 124.594 213.953C125.875 214.63 126.87 215.563 127.578 216.75C128.286 217.938 128.714 219.302 128.859 220.844H124.562C124.479 219.885 124.271 219.073 123.938 218.406C123.615 217.74 123.125 217.234 122.469 216.891C121.823 216.536 120.964 216.359 119.891 216.359C119.057 216.359 118.323 216.516 117.688 216.828C117.062 217.141 116.542 217.609 116.125 218.234C115.708 218.849 115.396 219.62 115.188 220.547C114.979 221.464 114.875 222.526 114.875 223.734V225.5C114.875 226.656 114.969 227.693 115.156 228.609C115.344 229.526 115.635 230.302 116.031 230.938C116.427 231.573 116.938 232.057 117.562 232.391C118.188 232.724 118.932 232.891 119.797 232.891C120.849 232.891 121.703 232.724 122.359 232.391C123.026 232.057 123.531 231.568 123.875 230.922C124.229 230.276 124.453 229.474 124.547 228.516Z" fill="#505459"/>
<path d="M65.6875 262.25V285H61.3906L61.3906 262.25H65.6875ZM79.3438 262.25L70.2188 273.344L65 278.922L64.2344 274.75L67.8594 270.047L74.0781 262.25H79.3438ZM74.5625 285L67.4844 274.344L70.5625 271.562L79.6719 285H74.5625ZM86.25 262.25V285H81.9531V262.25H86.25ZM90.8906 262.25H99.1562C100.885 262.25 102.37 262.51 103.609 263.031C104.849 263.552 105.802 264.323 106.469 265.344C107.135 266.365 107.469 267.62 107.469 269.109C107.469 270.286 107.26 271.307 106.844 272.172C106.427 273.036 105.839 273.76 105.078 274.344C104.328 274.927 103.443 275.385 102.422 275.719L101.078 276.406H93.7812L93.75 273.016H99.2031C100.089 273.016 100.823 272.859 101.406 272.547C101.99 272.234 102.427 271.802 102.719 271.25C103.021 270.698 103.172 270.068 103.172 269.359C103.172 268.599 103.026 267.943 102.734 267.391C102.443 266.828 102 266.396 101.406 266.094C100.812 265.792 100.062 265.641 99.1562 265.641H95.1875V285H90.8906V262.25ZM103.734 285L98.4688 274.812L103.016 274.797L108.344 284.781V285H103.734ZM124.547 277.516H128.844C128.729 279.036 128.307 280.385 127.578 281.562C126.849 282.729 125.833 283.646 124.531 284.312C123.229 284.979 121.651 285.312 119.797 285.312C118.37 285.312 117.083 285.062 115.938 284.562C114.802 284.052 113.828 283.328 113.016 282.391C112.214 281.443 111.599 280.307 111.172 278.984C110.745 277.651 110.531 276.156 110.531 274.5V272.766C110.531 271.109 110.75 269.615 111.188 268.281C111.625 266.948 112.25 265.812 113.062 264.875C113.885 263.927 114.87 263.198 116.016 262.688C117.172 262.177 118.464 261.922 119.891 261.922C121.745 261.922 123.312 262.266 124.594 262.953C125.875 263.63 126.87 264.562 127.578 265.75C128.286 266.938 128.714 268.302 128.859 269.844H124.562C124.479 268.885 124.271 268.073 123.938 267.406C123.615 266.74 123.125 266.234 122.469 265.891C121.823 265.536 120.964 265.359 119.891 265.359C119.057 265.359 118.323 265.516 117.688 265.828C117.062 266.141 116.542 266.609 116.125 267.234C115.708 267.849 115.396 268.62 115.188 269.547C114.979 270.464 114.875 271.526 114.875 272.734V274.5C114.875 275.656 114.969 276.693 115.156 277.609C115.344 278.526 115.635 279.302 116.031 279.938C116.427 280.573 116.938 281.057 117.562 281.391C118.188 281.724 118.932 281.891 119.797 281.891C120.849 281.891 121.703 281.724 122.359 281.391C123.026 281.057 123.531 280.568 123.875 279.922C124.229 279.276 124.453 278.474 124.547 277.516Z" fill="#505459"/>
<path d="M62.2969 329.625V333H50.8594V329.625H62.2969ZM52.1562 310.25L52.1562 333H47.8594L47.8594 310.25H52.1562ZM74.5312 313.703L68.0469 333H63.5L72 310.25H74.9062L74.5312 313.703ZM79.9531 333L73.4375 313.703L73.0469 310.25H75.9688L84.5156 333H79.9531ZM79.6562 324.547V327.938H67.4531V324.547H79.6562ZM88.7344 310.25H92.4531L98.6719 327.375L104.875 310.25H108.609L100.156 333H97.1719L88.7344 310.25ZM86.8594 310.25H90.5L91.1562 325.984V333H86.8594V310.25ZM106.828 310.25H110.484V333H106.188V325.984L106.828 310.25ZM129.297 329.625V333H117.859V329.625H129.297ZM119.156 310.25V333H114.859V310.25H119.156Z" fill="#505459"/>
<path d="M66.9844 377.625V381H55.5469V377.625H66.9844ZM56.8438 358.25L56.8437 381H52.5469L52.5469 358.25H56.8438ZM81.9219 358.25H86.2188V373.359C86.2188 375.099 85.8438 376.562 85.0938 377.75C84.3438 378.927 83.3229 379.818 82.0312 380.422C80.7396 381.016 79.2708 381.312 77.625 381.312C75.9583 381.312 74.474 381.016 73.1719 380.422C71.8698 379.818 70.849 378.927 70.1094 377.75C69.3698 376.562 69 375.099 69 373.359V358.25H73.2969V373.359C73.2969 374.422 73.474 375.292 73.8281 375.969C74.1823 376.635 74.6823 377.13 75.3281 377.453C75.974 377.776 76.7396 377.938 77.625 377.938C78.5208 377.938 79.2865 377.776 79.9219 377.453C80.5677 377.13 81.0625 376.635 81.4062 375.969C81.75 375.292 81.9219 374.422 81.9219 373.359V358.25ZM99 361.703L92.5156 381H87.9688L96.4688 358.25H99.375L99 361.703ZM104.422 381L97.9062 361.703L97.5156 358.25H100.438L108.984 381H104.422ZM104.125 372.547V375.938H91.9219V372.547H104.125ZM118.125 381H113.219L113.25 377.625H118.125C119.448 377.625 120.557 377.333 121.453 376.75C122.349 376.156 123.026 375.307 123.484 374.203C123.943 373.089 124.172 371.755 124.172 370.203V369.031C124.172 367.833 124.042 366.776 123.781 365.859C123.521 364.943 123.135 364.172 122.625 363.547C122.125 362.922 121.505 362.448 120.766 362.125C120.026 361.802 119.177 361.641 118.219 361.641H113.125V358.25H118.219C119.74 358.25 121.125 358.505 122.375 359.016C123.635 359.526 124.724 360.26 125.641 361.219C126.568 362.167 127.276 363.302 127.766 364.625C128.266 365.948 128.516 367.427 128.516 369.062V370.203C128.516 371.828 128.266 373.307 127.766 374.641C127.276 375.964 126.568 377.099 125.641 378.047C124.724 378.995 123.63 379.724 122.359 380.234C121.089 380.745 119.677 381 118.125 381ZM115.625 358.25V381H111.328V358.25H115.625Z" fill="#505459"/>
<path d="M68.3906 426.625V430H56.9531V426.625H68.3906ZM58.25 407.25L58.25 430H53.9531L53.9531 407.25H58.25ZM83.3281 407.25H87.625V422.359C87.625 424.099 87.25 425.562 86.5 426.75C85.75 427.927 84.7292 428.818 83.4375 429.422C82.1458 430.016 80.6771 430.312 79.0312 430.312C77.3646 430.312 75.8802 430.016 74.5781 429.422C73.276 428.818 72.2552 427.927 71.5156 426.75C70.776 425.562 70.4062 424.099 70.4062 422.359V407.25H74.7031V422.359C74.7031 423.422 74.8802 424.292 75.2344 424.969C75.5885 425.635 76.0885 426.13 76.7344 426.453C77.3802 426.776 78.1458 426.938 79.0312 426.938C79.9271 426.938 80.6927 426.776 81.3281 426.453C81.974 426.13 82.4688 425.635 82.8125 424.969C83.1562 424.292 83.3281 423.422 83.3281 422.359V407.25ZM103.609 424.094C103.609 423.656 103.542 423.266 103.406 422.922C103.281 422.568 103.047 422.25 102.703 421.969C102.37 421.677 101.896 421.396 101.281 421.125C100.677 420.844 99.8958 420.552 98.9375 420.25C97.875 419.917 96.8854 419.542 95.9688 419.125C95.0521 418.708 94.2448 418.224 93.5469 417.672C92.8594 417.12 92.3229 416.484 91.9375 415.766C91.5521 415.036 91.3594 414.193 91.3594 413.234C91.3594 412.297 91.5573 411.443 91.9531 410.672C92.3594 409.901 92.9323 409.24 93.6719 408.688C94.4115 408.125 95.2812 407.693 96.2812 407.391C97.2917 407.089 98.4062 406.938 99.625 406.938C101.312 406.938 102.771 407.245 104 407.859C105.24 408.474 106.198 409.307 106.875 410.359C107.552 411.411 107.891 412.594 107.891 413.906H103.609C103.609 413.198 103.458 412.573 103.156 412.031C102.865 411.49 102.417 411.062 101.812 410.75C101.219 410.438 100.469 410.281 99.5625 410.281C98.6875 410.281 97.9583 410.411 97.375 410.672C96.8021 410.932 96.3698 411.286 96.0781 411.734C95.7969 412.182 95.6562 412.682 95.6562 413.234C95.6562 413.651 95.7552 414.026 95.9531 414.359C96.151 414.682 96.4479 414.99 96.8438 415.281C97.2396 415.562 97.7292 415.828 98.3125 416.078C98.9062 416.318 99.5938 416.557 100.375 416.797C101.625 417.172 102.719 417.589 103.656 418.047C104.604 418.505 105.391 419.026 106.016 419.609C106.651 420.193 107.125 420.849 107.438 421.578C107.76 422.307 107.922 423.135 107.922 424.062C107.922 425.042 107.729 425.917 107.344 426.688C106.958 427.458 106.406 428.115 105.688 428.656C104.969 429.198 104.104 429.609 103.094 429.891C102.094 430.172 100.974 430.312 99.7344 430.312C98.6302 430.312 97.5365 430.167 96.4531 429.875C95.3802 429.573 94.4062 429.125 93.5312 428.531C92.6562 427.927 91.9583 427.167 91.4375 426.25C90.9167 425.323 90.6562 424.24 90.6562 423H94.9688C94.9688 423.719 95.0833 424.333 95.3125 424.844C95.5521 425.344 95.8854 425.755 96.3125 426.078C96.75 426.391 97.2604 426.62 97.8438 426.766C98.4271 426.911 99.0573 426.984 99.7344 426.984C100.609 426.984 101.328 426.865 101.891 426.625C102.464 426.375 102.891 426.031 103.172 425.594C103.464 425.156 103.609 424.656 103.609 424.094ZM124.547 422.516H128.844C128.729 424.036 128.307 425.385 127.578 426.562C126.849 427.729 125.833 428.646 124.531 429.312C123.229 429.979 121.651 430.312 119.797 430.312C118.37 430.312 117.083 430.062 115.938 429.562C114.802 429.052 113.828 428.328 113.016 427.391C112.214 426.443 111.599 425.307 111.172 423.984C110.745 422.651 110.531 421.156 110.531 419.5V417.766C110.531 416.109 110.75 414.615 111.188 413.281C111.625 411.948 112.25 410.812 113.062 409.875C113.885 408.927 114.87 408.198 116.016 407.688C117.172 407.177 118.464 406.922 119.891 406.922C121.745 406.922 123.312 407.266 124.594 407.953C125.875 408.63 126.87 409.562 127.578 410.75C128.286 411.938 128.714 413.302 128.859 414.844H124.562C124.479 413.885 124.271 413.073 123.938 412.406C123.615 411.74 123.125 411.234 122.469 410.891C121.823 410.536 120.964 410.359 119.891 410.359C119.057 410.359 118.323 410.516 117.688 410.828C117.062 411.141 116.542 411.609 116.125 412.234C115.708 412.849 115.396 413.62 115.188 414.547C114.979 415.464 114.875 416.526 114.875 417.734V419.5C114.875 420.656 114.969 421.693 115.156 422.609C115.344 423.526 115.635 424.302 116.031 424.938C116.427 425.573 116.938 426.057 117.562 426.391C118.188 426.724 118.932 426.891 119.797 426.891C120.849 426.891 121.703 426.724 122.359 426.391C123.026 426.057 123.531 425.568 123.875 424.922C124.229 424.276 124.453 423.474 124.547 422.516Z" fill="#505459"/>
<path d="M57.8281 469.703H51.9688V466.328H57.8281C58.7865 466.328 59.5625 466.172 60.1562 465.859C60.7604 465.536 61.2031 465.099 61.4844 464.547C61.7656 463.984 61.9062 463.344 61.9062 462.625C61.9062 461.927 61.7656 461.276 61.4844 460.672C61.2031 460.068 60.7604 459.578 60.1562 459.203C59.5625 458.828 58.7865 458.641 57.8281 458.641H53.375L53.375 478H49.0781L49.0781 455.25H57.8281C59.599 455.25 61.1094 455.568 62.3594 456.203C63.6198 456.828 64.5781 457.698 65.2344 458.812C65.901 459.917 66.2344 461.177 66.2344 462.594C66.2344 464.062 65.901 465.328 65.2344 466.391C64.5781 467.453 63.6198 468.271 62.3594 468.844C61.1094 469.417 59.599 469.703 57.8281 469.703ZM69.6094 455.25H77.875C79.6042 455.25 81.0885 455.51 82.3281 456.031C83.5677 456.552 84.5208 457.323 85.1875 458.344C85.8542 459.365 86.1875 460.62 86.1875 462.109C86.1875 463.286 85.9792 464.307 85.5625 465.172C85.1458 466.036 84.5573 466.76 83.7969 467.344C83.0469 467.927 82.1615 468.385 81.1406 468.719L79.7969 469.406H72.5L72.4688 466.016H77.9219C78.8073 466.016 79.5417 465.859 80.125 465.547C80.7083 465.234 81.1458 464.802 81.4375 464.25C81.7396 463.698 81.8906 463.068 81.8906 462.359C81.8906 461.599 81.7448 460.943 81.4531 460.391C81.1615 459.828 80.7188 459.396 80.125 459.094C79.5312 458.792 78.7812 458.641 77.875 458.641H73.9062V478H69.6094V455.25ZM82.4531 478L77.1875 467.812L81.7344 467.797L87.0625 477.781V478H82.4531ZM99 458.703L92.5156 478H87.9688L96.4688 455.25H99.375L99 458.703ZM104.422 478L97.9062 458.703L97.5156 455.25H100.438L108.984 478H104.422ZM104.125 469.547V472.938H91.9219V469.547H104.125ZM118.125 478H113.219L113.25 474.625H118.125C119.448 474.625 120.557 474.333 121.453 473.75C122.349 473.156 123.026 472.307 123.484 471.203C123.943 470.089 124.172 468.755 124.172 467.203V466.031C124.172 464.833 124.042 463.776 123.781 462.859C123.521 461.943 123.135 461.172 122.625 460.547C122.125 459.922 121.505 459.448 120.766 459.125C120.026 458.802 119.177 458.641 118.219 458.641H113.125V455.25H118.219C119.74 455.25 121.125 455.505 122.375 456.016C123.635 456.526 124.724 457.26 125.641 458.219C126.568 459.167 127.276 460.302 127.766 461.625C128.266 462.948 128.516 464.427 128.516 466.062V467.203C128.516 468.828 128.266 470.307 127.766 471.641C127.276 472.964 126.568 474.099 125.641 475.047C124.724 475.995 123.63 476.724 122.359 477.234C121.089 477.745 119.677 478 118.125 478ZM115.625 455.25V478H111.328V455.25H115.625Z" fill="#505459"/>
<path d="M64.2344 520.094C64.2344 519.656 64.1667 519.266 64.0312 518.922C63.9062 518.568 63.6719 518.25 63.3281 517.969C62.9948 517.677 62.5208 517.396 61.9062 517.125C61.3021 516.844 60.5208 516.552 59.5625 516.25C58.5 515.917 57.5104 515.542 56.5938 515.125C55.6771 514.708 54.8698 514.224 54.1719 513.672C53.4844 513.12 52.9479 512.484 52.5625 511.766C52.1771 511.036 51.9844 510.193 51.9844 509.234C51.9844 508.297 52.1823 507.443 52.5781 506.672C52.9844 505.901 53.5573 505.24 54.2969 504.688C55.0365 504.125 55.9062 503.693 56.9062 503.391C57.9167 503.089 59.0312 502.938 60.25 502.938C61.9375 502.938 63.3958 503.245 64.625 503.859C65.8646 504.474 66.8229 505.307 67.5 506.359C68.1771 507.411 68.5156 508.594 68.5156 509.906H64.2344C64.2344 509.198 64.0833 508.573 63.7812 508.031C63.4896 507.49 63.0417 507.062 62.4375 506.75C61.8438 506.438 61.0938 506.281 60.1875 506.281C59.3125 506.281 58.5833 506.411 58 506.672C57.4271 506.932 56.9948 507.286 56.7031 507.734C56.4219 508.182 56.2812 508.682 56.2812 509.234C56.2812 509.651 56.3802 510.026 56.5781 510.359C56.776 510.682 57.0729 510.99 57.4688 511.281C57.8646 511.562 58.3542 511.828 58.9375 512.078C59.5312 512.318 60.2188 512.557 61 512.797C62.25 513.172 63.3438 513.589 64.2812 514.047C65.2292 514.505 66.0156 515.026 66.6406 515.609C67.276 516.193 67.75 516.849 68.0625 517.578C68.3854 518.307 68.5469 519.135 68.5469 520.062C68.5469 521.042 68.3542 521.917 67.9688 522.688C67.5833 523.458 67.0312 524.115 66.3125 524.656C65.5938 525.198 64.7292 525.609 63.7187 525.891C62.7187 526.172 61.599 526.312 60.3594 526.312C59.2552 526.312 58.1615 526.167 57.0781 525.875C56.0052 525.573 55.0312 525.125 54.1562 524.531C53.2812 523.927 52.5833 523.167 52.0625 522.25C51.5417 521.323 51.2812 520.24 51.2812 519H55.5938C55.5938 519.719 55.7083 520.333 55.9375 520.844C56.1771 521.344 56.5104 521.755 56.9375 522.078C57.375 522.391 57.8854 522.62 58.4687 522.766C59.0521 522.911 59.6823 522.984 60.3594 522.984C61.2344 522.984 61.9531 522.865 62.5156 522.625C63.0885 522.375 63.5156 522.031 63.7969 521.594C64.0885 521.156 64.2344 520.656 64.2344 520.094ZM81.625 503.25V526H77.3438V503.25H81.625ZM88.6875 503.25V506.641H70.3594V503.25H88.6875ZM99 506.703L92.5156 526H87.9688L96.4688 503.25H99.375L99 506.703ZM104.422 526L97.9062 506.703L97.5156 503.25H100.438L108.984 526H104.422ZM104.125 517.547V520.938H91.9219V517.547H104.125ZM118.125 526H113.219L113.25 522.625H118.125C119.448 522.625 120.557 522.333 121.453 521.75C122.349 521.156 123.026 520.307 123.484 519.203C123.943 518.089 124.172 516.755 124.172 515.203V514.031C124.172 512.833 124.042 511.776 123.781 510.859C123.521 509.943 123.135 509.172 122.625 508.547C122.125 507.922 121.505 507.448 120.766 507.125C120.026 506.802 119.177 506.641 118.219 506.641H113.125V503.25H118.219C119.74 503.25 121.125 503.505 122.375 504.016C123.635 504.526 124.724 505.26 125.641 506.219C126.568 507.167 127.276 508.302 127.766 509.625C128.266 510.948 128.516 512.427 128.516 514.062V515.203C128.516 516.828 128.266 518.307 127.766 519.641C127.276 520.964 126.568 522.099 125.641 523.047C124.724 523.995 123.63 524.724 122.359 525.234C121.089 525.745 119.677 526 118.125 526ZM115.625 503.25V526H111.328V503.25H115.625Z" fill="#505459"/>
<path d="M57.2812 552.25L57.2812 575H53L53 552.25H57.2812ZM64.3438 552.25V555.641H46.0156V552.25H64.3438ZM82.2969 561.641V565.016H70.3281V561.641H82.2969ZM71.5 552.25V575H67.2031V552.25H71.5ZM85.4844 552.25V575H81.1875V552.25H85.4844ZM103.172 567.516H107.469C107.354 569.036 106.932 570.385 106.203 571.562C105.474 572.729 104.458 573.646 103.156 574.312C101.854 574.979 100.276 575.312 98.4219 575.312C96.9948 575.312 95.7083 575.062 94.5625 574.562C93.4271 574.052 92.4531 573.328 91.6406 572.391C90.8385 571.443 90.224 570.307 89.7969 568.984C89.3698 567.651 89.1562 566.156 89.1562 564.5V562.766C89.1562 561.109 89.375 559.615 89.8125 558.281C90.25 556.948 90.875 555.812 91.6875 554.875C92.5104 553.927 93.4948 553.198 94.6406 552.688C95.7969 552.177 97.0885 551.922 98.5156 551.922C100.37 551.922 101.938 552.266 103.219 552.953C104.5 553.63 105.495 554.562 106.203 555.75C106.911 556.938 107.339 558.302 107.484 559.844H103.188C103.104 558.885 102.896 558.073 102.562 557.406C102.24 556.74 101.75 556.234 101.094 555.891C100.448 555.536 99.5885 555.359 98.5156 555.359C97.6823 555.359 96.9479 555.516 96.3125 555.828C95.6875 556.141 95.1667 556.609 94.75 557.234C94.3333 557.849 94.0208 558.62 93.8125 559.547C93.6042 560.464 93.5 561.526 93.5 562.734V564.5C93.5 565.656 93.5938 566.693 93.7812 567.609C93.9688 568.526 94.2604 569.302 94.6562 569.938C95.0521 570.573 95.5625 571.057 96.1875 571.391C96.8125 571.724 97.5573 571.891 98.4219 571.891C99.474 571.891 100.328 571.724 100.984 571.391C101.651 571.057 102.156 570.568 102.5 569.922C102.854 569.276 103.078 568.474 103.172 567.516ZM119.844 555.703L113.359 575H108.812L117.312 552.25H120.219L119.844 555.703ZM125.266 575L118.75 555.703L118.359 552.25H121.281L129.828 575H125.266ZM124.969 566.547V569.938H112.766V566.547H124.969Z" fill="#505459"/>
<path d="M63.8594 600.25H68.1562V615.359C68.1562 617.099 67.7812 618.562 67.0312 619.75C66.2812 620.927 65.2604 621.818 63.9687 622.422C62.6771 623.016 61.2083 623.312 59.5625 623.312C57.8958 623.312 56.4115 623.016 55.1094 622.422C53.8073 621.818 52.7865 620.927 52.0469 619.75C51.3073 618.562 50.9375 617.099 50.9375 615.359V600.25H55.2344V615.359C55.2344 616.422 55.4115 617.292 55.7656 617.969C56.1198 618.635 56.6198 619.13 57.2656 619.453C57.9115 619.776 58.6771 619.938 59.5625 619.938C60.4583 619.938 61.224 619.776 61.8594 619.453C62.5052 619.13 63 618.635 63.3438 617.969C63.6875 617.292 63.8594 616.422 63.8594 615.359V600.25ZM85.5469 615.516H89.8438C89.7292 617.036 89.3073 618.385 88.5781 619.562C87.849 620.729 86.8333 621.646 85.5312 622.312C84.2292 622.979 82.651 623.312 80.7969 623.312C79.3698 623.312 78.0833 623.062 76.9375 622.562C75.8021 622.052 74.8281 621.328 74.0156 620.391C73.2135 619.443 72.599 618.307 72.1719 616.984C71.7448 615.651 71.5312 614.156 71.5312 612.5V610.766C71.5312 609.109 71.75 607.615 72.1875 606.281C72.625 604.948 73.25 603.812 74.0625 602.875C74.8854 601.927 75.8698 601.198 77.0156 600.688C78.1719 600.177 79.4635 599.922 80.8906 599.922C82.7448 599.922 84.3125 600.266 85.5938 600.953C86.875 601.63 87.8698 602.562 88.5781 603.75C89.2865 604.938 89.7135 606.302 89.8594 607.844H85.5625C85.4792 606.885 85.2708 606.073 84.9375 605.406C84.6146 604.74 84.125 604.234 83.4688 603.891C82.8229 603.536 81.9635 603.359 80.8906 603.359C80.0573 603.359 79.3229 603.516 78.6875 603.828C78.0625 604.141 77.5417 604.609 77.125 605.234C76.7083 605.849 76.3958 606.62 76.1875 607.547C75.9792 608.464 75.875 609.526 75.875 610.734V612.5C75.875 613.656 75.9688 614.693 76.1562 615.609C76.3438 616.526 76.6354 617.302 77.0312 617.938C77.4271 618.573 77.9375 619.057 78.5625 619.391C79.1875 619.724 79.9323 619.891 80.7969 619.891C81.849 619.891 82.7031 619.724 83.3594 619.391C84.026 619.057 84.5312 618.568 84.875 617.922C85.2292 617.276 85.4531 616.474 85.5469 615.516ZM108.25 619.625V623H96.1562V619.625H108.25ZM97.4688 600.25V623H93.1719V600.25H97.4688ZM106.672 609.641V612.938H96.1562V609.641H106.672ZM108.203 600.25V603.641H96.1562V600.25H108.203ZM124.547 615.516H128.844C128.729 617.036 128.307 618.385 127.578 619.562C126.849 620.729 125.833 621.646 124.531 622.312C123.229 622.979 121.651 623.312 119.797 623.312C118.37 623.312 117.083 623.062 115.938 622.562C114.802 622.052 113.828 621.328 113.016 620.391C112.214 619.443 111.599 618.307 111.172 616.984C110.745 615.651 110.531 614.156 110.531 612.5V610.766C110.531 609.109 110.75 607.615 111.188 606.281C111.625 604.948 112.25 603.812 113.062 602.875C113.885 601.927 114.87 601.198 116.016 600.688C117.172 600.177 118.464 599.922 119.891 599.922C121.745 599.922 123.312 600.266 124.594 600.953C125.875 601.63 126.87 602.562 127.578 603.75C128.286 604.938 128.714 606.302 128.859 607.844H124.562C124.479 606.885 124.271 606.073 123.938 605.406C123.615 604.74 123.125 604.234 122.469 603.891C121.823 603.536 120.964 603.359 119.891 603.359C119.057 603.359 118.323 603.516 117.688 603.828C117.062 604.141 116.542 604.609 116.125 605.234C115.708 605.849 115.396 606.62 115.188 607.547C114.979 608.464 114.875 609.526 114.875 610.734V612.5C114.875 613.656 114.969 614.693 115.156 615.609C115.344 616.526 115.635 617.302 116.031 617.938C116.427 618.573 116.938 619.057 117.562 619.391C118.188 619.724 118.932 619.891 119.797 619.891C120.849 619.891 121.703 619.724 122.359 619.391C123.026 619.057 123.531 618.568 123.875 617.922C124.229 617.276 124.453 616.474 124.547 615.516Z" fill="#505459"/>
<path d="M483.203 702.516H487.5C487.385 704.036 486.964 705.385 486.234 706.562C485.505 707.729 484.49 708.646 483.188 709.312C481.885 709.979 480.307 710.312 478.453 710.312C477.026 710.312 475.74 710.062 474.594 709.562C473.458 709.052 472.484 708.328 471.672 707.391C470.87 706.443 470.255 705.307 469.828 703.984C469.401 702.651 469.188 701.156 469.188 699.5V697.766C469.188 696.109 469.406 694.615 469.844 693.281C470.281 691.948 470.906 690.812 471.719 689.875C472.542 688.927 473.526 688.198 474.672 687.688C475.828 687.177 477.12 686.922 478.547 686.922C480.401 686.922 481.969 687.266 483.25 687.953C484.531 688.63 485.526 689.562 486.234 690.75C486.943 691.938 487.37 693.302 487.516 694.844H483.219C483.135 693.885 482.927 693.073 482.594 692.406C482.271 691.74 481.781 691.234 481.125 690.891C480.479 690.536 479.62 690.359 478.547 690.359C477.714 690.359 476.979 690.516 476.344 690.828C475.719 691.141 475.198 691.609 474.781 692.234C474.365 692.849 474.052 693.62 473.844 694.547C473.635 695.464 473.531 696.526 473.531 697.734V699.5C473.531 700.656 473.625 701.693 473.812 702.609C474 703.526 474.292 704.302 474.688 704.938C475.083 705.573 475.594 706.057 476.219 706.391C476.844 706.724 477.589 706.891 478.453 706.891C479.505 706.891 480.359 706.724 481.016 706.391C481.682 706.057 482.188 705.568 482.531 704.922C482.885 704.276 483.109 703.474 483.203 702.516ZM489.781 701.719V701.391C489.781 700.151 489.958 699.01 490.312 697.969C490.667 696.917 491.182 696.005 491.859 695.234C492.536 694.464 493.365 693.865 494.344 693.438C495.323 693 496.438 692.781 497.688 692.781C498.958 692.781 500.083 693 501.062 693.438C502.052 693.865 502.885 694.464 503.562 695.234C504.24 696.005 504.755 696.917 505.109 697.969C505.464 699.01 505.641 700.151 505.641 701.391V701.719C505.641 702.948 505.464 704.089 505.109 705.141C504.755 706.182 504.24 707.094 503.562 707.875C502.885 708.646 502.057 709.245 501.078 709.672C500.099 710.099 498.979 710.312 497.719 710.312C496.469 710.312 495.349 710.099 494.359 709.672C493.37 709.245 492.536 708.646 491.859 707.875C491.182 707.094 490.667 706.182 490.312 705.141C489.958 704.089 489.781 702.948 489.781 701.719ZM493.906 701.391V701.719C493.906 702.458 493.979 703.151 494.125 703.797C494.271 704.443 494.495 705.01 494.797 705.5C495.099 705.99 495.49 706.375 495.969 706.656C496.458 706.927 497.042 707.062 497.719 707.062C498.385 707.062 498.958 706.927 499.438 706.656C499.917 706.375 500.307 705.99 500.609 705.5C500.922 705.01 501.151 704.443 501.297 703.797C501.443 703.151 501.516 702.458 501.516 701.719V701.391C501.516 700.661 501.443 699.979 501.297 699.344C501.151 698.698 500.922 698.13 500.609 697.641C500.307 697.141 499.911 696.75 499.422 696.469C498.943 696.177 498.365 696.031 497.688 696.031C497.021 696.031 496.448 696.177 495.969 696.469C495.49 696.75 495.099 697.141 494.797 697.641C494.495 698.13 494.271 698.698 494.125 699.344C493.979 699.979 493.906 700.661 493.906 701.391ZM518.703 705.984V693.094H522.859V710H518.953L518.703 705.984ZM519.234 702.484L520.516 702.453C520.516 703.589 520.391 704.635 520.141 705.594C519.891 706.552 519.5 707.385 518.969 708.094C518.448 708.792 517.786 709.339 516.984 709.734C516.182 710.12 515.234 710.312 514.141 710.312C513.307 710.312 512.547 710.198 511.859 709.969C511.172 709.729 510.578 709.359 510.078 708.859C509.589 708.349 509.208 707.698 508.938 706.906C508.667 706.104 508.531 705.141 508.531 704.016V693.094H512.656V704.047C512.656 704.609 512.719 705.078 512.844 705.453C512.979 705.828 513.161 706.135 513.391 706.375C513.63 706.604 513.906 706.771 514.219 706.875C514.542 706.969 514.885 707.016 515.25 707.016C516.25 707.016 517.036 706.818 517.609 706.422C518.193 706.016 518.609 705.474 518.859 704.797C519.109 704.109 519.234 703.339 519.234 702.484ZM530.562 696.703V710H526.438V693.094H530.312L530.562 696.703ZM529.906 700.938H528.688C528.698 699.708 528.865 698.594 529.188 697.594C529.51 696.594 529.964 695.734 530.547 695.016C531.141 694.297 531.844 693.745 532.656 693.359C533.469 692.974 534.375 692.781 535.375 692.781C536.188 692.781 536.922 692.896 537.578 693.125C538.234 693.354 538.797 693.719 539.266 694.219C539.745 694.719 540.109 695.375 540.359 696.188C540.62 696.99 540.75 697.979 540.75 699.156V710H536.594V699.125C536.594 698.354 536.479 697.745 536.25 697.297C536.031 696.849 535.708 696.531 535.281 696.344C534.865 696.156 534.349 696.062 533.734 696.062C533.099 696.062 532.542 696.193 532.062 696.453C531.594 696.703 531.198 697.052 530.875 697.5C530.562 697.948 530.323 698.464 530.156 699.047C529.99 699.63 529.906 700.26 529.906 700.938ZM552.391 693.094V696.062H542.703V693.094H552.391ZM545.297 688.938H549.438V705.125C549.438 705.625 549.505 706.01 549.641 706.281C549.776 706.552 549.979 706.734 550.25 706.828C550.521 706.922 550.844 706.969 551.219 706.969C551.49 706.969 551.74 706.953 551.969 706.922C552.198 706.891 552.391 706.859 552.547 706.828L552.562 709.922C552.219 710.036 551.828 710.13 551.391 710.203C550.964 710.276 550.479 710.312 549.938 710.312C549.01 710.312 548.198 710.156 547.5 709.844C546.802 709.521 546.26 709.005 545.875 708.297C545.49 707.578 545.297 706.63 545.297 705.453V688.938Z" fill="#505459"/>
<path d="M312.951 24.5801H317.785C317.656 26.291 317.182 27.8086 316.361 29.1328C315.541 30.4453 314.398 31.4766 312.934 32.2266C311.469 32.9766 309.693 33.3516 307.607 33.3516C306.002 33.3516 304.555 33.0703 303.266 32.5078C301.988 31.9336 300.893 31.1191 299.979 30.0645C299.076 28.998 298.385 27.7207 297.904 26.2324C297.424 24.7324 297.184 23.0508 297.184 21.1875V19.2363C297.184 17.373 297.43 15.6914 297.922 14.1914C298.414 12.6914 299.117 11.4141 300.031 10.3594C300.957 9.29297 302.064 8.47266 303.354 7.89844C304.654 7.32422 306.107 7.03711 307.713 7.03711C309.799 7.03711 311.562 7.42383 313.004 8.19727C314.445 8.95898 315.564 10.0078 316.361 11.3438C317.158 12.6797 317.639 14.2148 317.803 15.9492H312.969C312.875 14.8711 312.641 13.957 312.266 13.207C311.902 12.457 311.352 11.8887 310.613 11.502C309.887 11.1035 308.92 10.9043 307.713 10.9043C306.775 10.9043 305.949 11.0801 305.234 11.4316C304.531 11.7832 303.945 12.3105 303.477 13.0137C303.008 13.7051 302.656 14.5723 302.422 15.6152C302.188 16.6465 302.07 17.8418 302.07 19.2012V21.1875C302.07 22.4883 302.176 23.6543 302.387 24.6855C302.598 25.7168 302.926 26.5898 303.371 27.3047C303.816 28.0195 304.391 28.5645 305.094 28.9395C305.797 29.3145 306.635 29.502 307.607 29.502C308.791 29.502 309.752 29.3145 310.49 28.9395C311.24 28.5645 311.809 28.0137 312.195 27.2871C312.594 26.5605 312.846 25.6582 312.951 24.5801ZM320.352 23.6836V23.3145C320.352 21.9199 320.551 20.6367 320.949 19.4648C321.348 18.2813 321.928 17.2559 322.689 16.3887C323.451 15.5215 324.383 14.8477 325.484 14.3672C326.586 13.875 327.84 13.6289 329.246 13.6289C330.676 13.6289 331.941 13.875 333.043 14.3672C334.156 14.8477 335.094 15.5215 335.855 16.3887C336.617 17.2559 337.197 18.2813 337.596 19.4648C337.994 20.6367 338.193 21.9199 338.193 23.3145V23.6836C338.193 25.0664 337.994 26.3496 337.596 27.5332C337.197 28.7051 336.617 29.7305 335.855 30.6094C335.094 31.4766 334.162 32.1504 333.061 32.6309C331.959 33.1113 330.699 33.3516 329.281 33.3516C327.875 33.3516 326.615 33.1113 325.502 32.6309C324.389 32.1504 323.451 31.4766 322.689 30.6094C321.928 29.7305 321.348 28.7051 320.949 27.5332C320.551 26.3496 320.352 25.0664 320.352 23.6836ZM324.992 23.3145V23.6836C324.992 24.5156 325.074 25.2949 325.238 26.0215C325.402 26.748 325.654 27.3867 325.994 27.9375C326.334 28.4883 326.773 28.9219 327.312 29.2383C327.863 29.543 328.52 29.6953 329.281 29.6953C330.031 29.6953 330.676 29.543 331.215 29.2383C331.754 28.9219 332.193 28.4883 332.533 27.9375C332.885 27.3867 333.143 26.748 333.307 26.0215C333.471 25.2949 333.553 24.5156 333.553 23.6836V23.3145C333.553 22.4941 333.471 21.7266 333.307 21.0117C333.143 20.2852 332.885 19.6465 332.533 19.0957C332.193 18.5332 331.748 18.0938 331.197 17.7773C330.658 17.4492 330.008 17.2852 329.246 17.2852C328.496 17.2852 327.852 17.4492 327.312 17.7773C326.773 18.0938 326.334 18.5332 325.994 19.0957C325.654 19.6465 325.402 20.2852 325.238 21.0117C325.074 21.7266 324.992 22.4941 324.992 23.3145ZM352.889 28.4824V13.9805L357.564 13.9805V33H353.17L352.889 28.4824ZM353.486 24.5449L354.928 24.5098C354.928 25.7871 354.787 26.9648 354.506 28.043C354.225 29.1211 353.785 30.0586 353.188 30.8555C352.602 31.6406 351.857 32.2559 350.955 32.7012C350.053 33.1348 348.986 33.3516 347.756 33.3516C346.818 33.3516 345.963 33.2227 345.189 32.9648C344.416 32.6953 343.748 32.2793 343.186 31.7168C342.635 31.1426 342.207 30.4102 341.902 29.5195C341.598 28.6172 341.445 27.5332 341.445 26.2676V13.9805L346.086 13.9805V26.3027C346.086 26.9355 346.156 27.4629 346.297 27.8848C346.449 28.3066 346.654 28.6523 346.912 28.9219C347.182 29.1797 347.492 29.3672 347.844 29.4844C348.207 29.5898 348.594 29.6426 349.004 29.6426C350.129 29.6426 351.014 29.4199 351.658 28.9746C352.314 28.5176 352.783 27.9082 353.064 27.1465C353.346 26.373 353.486 25.5059 353.486 24.5449ZM366.23 18.041V33H361.59V13.9805H365.949L366.23 18.041ZM365.492 22.8047H364.121C364.133 21.4219 364.32 20.168 364.684 19.043C365.047 17.918 365.557 16.9512 366.213 16.1426C366.881 15.334 367.672 14.7129 368.586 14.2793C369.5 13.8457 370.52 13.6289 371.645 13.6289C372.559 13.6289 373.385 13.7578 374.123 14.0156C374.861 14.2734 375.494 14.6836 376.021 15.2461C376.561 15.8086 376.971 16.5469 377.252 17.4609C377.545 18.3633 377.691 19.4766 377.691 20.8008V33H373.016V20.7656C373.016 19.8984 372.887 19.2129 372.629 18.709C372.383 18.2051 372.02 17.8477 371.539 17.6367C371.07 17.4258 370.49 17.3203 369.799 17.3203C369.084 17.3203 368.457 17.4668 367.918 17.7598C367.391 18.041 366.945 18.4336 366.582 18.9375C366.23 19.4414 365.961 20.0215 365.773 20.6777C365.586 21.334 365.492 22.043 365.492 22.8047ZM390.787 13.9805V17.3203H379.889V13.9805L390.787 13.9805ZM382.807 9.30469H387.465V27.5156C387.465 28.0781 387.541 28.5117 387.693 28.8164C387.846 29.1211 388.074 29.3262 388.379 29.4316C388.684 29.5371 389.047 29.5898 389.469 29.5898C389.773 29.5898 390.055 29.5723 390.312 29.5371C390.57 29.502 390.787 29.4668 390.963 29.4316L390.98 32.9121C390.594 33.041 390.154 33.1465 389.662 33.2285C389.182 33.3105 388.637 33.3516 388.027 33.3516C386.984 33.3516 386.07 33.1758 385.285 32.8242C384.5 32.4609 383.891 31.8809 383.457 31.084C383.023 30.2754 382.807 29.209 382.807 27.8848V9.30469ZM393.986 30.7324C393.986 30.0293 394.227 29.4375 394.707 28.957C395.188 28.4766 395.838 28.2363 396.658 28.2363C397.479 28.2363 398.129 28.4766 398.609 28.957C399.09 29.4375 399.33 30.0293 399.33 30.7324C399.33 31.4238 399.09 32.0098 398.609 32.4902C398.129 32.959 397.479 33.1934 396.658 33.1934C395.838 33.1934 395.188 32.959 394.707 32.4902C394.227 32.0098 393.986 31.4238 393.986 30.7324ZM394.004 15.9844C394.004 15.2813 394.244 14.6895 394.725 14.209C395.205 13.7285 395.855 13.4883 396.676 13.4883C397.496 13.4883 398.146 13.7285 398.627 14.209C399.107 14.6895 399.348 15.2813 399.348 15.9844C399.348 16.6758 399.107 17.2617 398.627 17.7422C398.146 18.2109 397.496 18.4453 396.676 18.4453C395.855 18.4453 395.205 18.2109 394.725 17.7422C394.244 17.2617 394.004 16.6758 394.004 15.9844ZM423.113 7.40625V33H418.297V7.40625L423.113 7.40625ZM431.059 7.40625V11.2207L410.439 11.2207V7.40625L431.059 7.40625ZM448.76 24.5801H453.594C453.465 26.291 452.99 27.8086 452.17 29.1328C451.35 30.4453 450.207 31.4766 448.742 32.2266C447.277 32.9766 445.502 33.3516 443.416 33.3516C441.811 33.3516 440.363 33.0703 439.074 32.5078C437.797 31.9336 436.701 31.1191 435.787 30.0645C434.885 28.998 434.193 27.7207 433.713 26.2324C433.232 24.7324 432.992 23.0508 432.992 21.1875V19.2363C432.992 17.373 433.238 15.6914 433.73 14.1914C434.223 12.6914 434.926 11.4141 435.84 10.3594C436.766 9.29297 437.873 8.47266 439.162 7.89844C440.463 7.32422 441.916 7.03711 443.521 7.03711C445.607 7.03711 447.371 7.42383 448.812 8.19727C450.254 8.95898 451.373 10.0078 452.17 11.3438C452.967 12.6797 453.447 14.2148 453.611 15.9492H448.777C448.684 14.8711 448.449 13.957 448.074 13.207C447.711 12.457 447.16 11.8887 446.422 11.502C445.695 11.1035 444.729 10.9043 443.521 10.9043C442.584 10.9043 441.758 11.0801 441.043 11.4316C440.34 11.7832 439.754 12.3105 439.285 13.0137C438.816 13.7051 438.465 14.5723 438.23 15.6152C437.996 16.6465 437.879 17.8418 437.879 19.2012V21.1875C437.879 22.4883 437.984 23.6543 438.195 24.6855C438.406 25.7168 438.734 26.5898 439.18 27.3047C439.625 28.0195 440.199 28.5645 440.902 28.9395C441.605 29.3145 442.443 29.502 443.416 29.502C444.6 29.502 445.561 29.3145 446.299 28.9395C447.049 28.5645 447.617 28.0137 448.004 27.2871C448.402 26.5605 448.654 25.6582 448.76 24.5801ZM477.307 19.7637V29.7305C476.932 30.2109 476.34 30.7324 475.531 31.2949C474.734 31.8574 473.691 32.3438 472.402 32.7539C471.113 33.1523 469.531 33.3516 467.656 33.3516C466.027 33.3516 464.539 33.082 463.191 32.543C461.844 31.9922 460.684 31.1895 459.711 30.1348C458.738 29.0801 457.988 27.791 457.461 26.2676C456.934 24.7441 456.67 23.0039 456.67 21.0469V19.3594C456.67 17.4023 456.916 15.6621 457.408 14.1387C457.912 12.6152 458.627 11.3262 459.553 10.2715C460.49 9.2168 461.609 8.41406 462.91 7.86328C464.223 7.3125 465.688 7.03711 467.305 7.03711C469.473 7.03711 471.254 7.39453 472.648 8.10938C474.055 8.82422 475.133 9.80859 475.883 11.0625C476.633 12.3047 477.102 13.7344 477.289 15.3516L472.578 15.3516C472.449 14.4609 472.191 13.6816 471.805 13.0137C471.418 12.334 470.867 11.8066 470.152 11.4316C469.449 11.0449 468.535 10.8516 467.41 10.8516C466.461 10.8516 465.623 11.0391 464.896 11.4141C464.17 11.7891 463.561 12.334 463.068 13.0488C462.576 13.7637 462.201 14.6484 461.943 15.7031C461.697 16.7578 461.574 17.9648 461.574 19.3242V21.0469C461.574 22.418 461.715 23.6367 461.996 24.7031C462.277 25.7578 462.682 26.6484 463.209 27.375C463.748 28.0898 464.41 28.6348 465.195 29.0098C465.992 29.373 466.895 29.5547 467.902 29.5547C468.816 29.5547 469.572 29.4785 470.17 29.3262C470.779 29.1621 471.266 28.9688 471.629 28.7461C471.992 28.5234 472.273 28.3066 472.473 28.0957V23.2969H467.393V19.7637H477.307ZM492.055 11.291L484.76 33H479.645L489.207 7.40625L492.477 7.40625L492.055 11.291ZM498.154 33L490.824 11.291L490.385 7.40625L493.672 7.40625L503.287 33H498.154ZM497.82 23.4902V27.3047H484.092V23.4902H497.82ZM525.945 28.957V6L530.621 6V33H526.402L525.945 28.957ZM513.729 23.7188V23.3496C513.729 21.8965 513.893 20.5781 514.221 19.3945C514.561 18.1992 515.053 17.1738 515.697 16.3184C516.342 15.4629 517.121 14.8008 518.035 14.332C518.961 13.8633 520.01 13.6289 521.182 13.6289C522.318 13.6289 523.309 13.8574 524.152 14.3145C525.008 14.7715 525.734 15.4219 526.332 16.2656C526.941 17.1094 527.428 18.1113 527.791 19.2715C528.154 20.4199 528.418 21.6855 528.582 23.0684V24.0703C528.418 25.418 528.154 26.6543 527.791 27.7793C527.428 28.9043 526.941 29.8887 526.332 30.7324C525.734 31.5645 525.008 32.209 524.152 32.666C523.297 33.123 522.295 33.3516 521.146 33.3516C519.986 33.3516 518.943 33.1113 518.018 32.6309C517.104 32.1504 516.324 31.4766 515.68 30.6094C515.047 29.7422 514.561 28.7227 514.221 27.5508C513.893 26.3789 513.729 25.1016 513.729 23.7188ZM518.387 23.3496V23.7188C518.387 24.5391 518.457 25.3066 518.598 26.0215C518.738 26.7363 518.967 27.3691 519.283 27.9199C519.6 28.459 520.004 28.8809 520.496 29.1855C521 29.4902 521.609 29.6426 522.324 29.6426C523.238 29.6426 523.988 29.4434 524.574 29.0449C525.172 28.6348 525.635 28.0781 525.963 27.375C526.291 26.6602 526.502 25.8574 526.596 24.9668V22.207C526.549 21.5039 526.426 20.8535 526.227 20.2559C526.039 19.6582 525.77 19.1426 525.418 18.709C525.078 18.2754 524.656 17.9355 524.152 17.6895C523.648 17.4434 523.051 17.3203 522.359 17.3203C521.645 17.3203 521.035 17.4785 520.531 17.7949C520.027 18.0996 519.617 18.5273 519.301 19.0781C518.984 19.6289 518.75 20.2676 518.598 20.9941C518.457 21.7207 518.387 22.5059 518.387 23.3496ZM539.744 13.9805V33L535.086 33V13.9805H539.744ZM534.77 9.00586C534.77 8.31445 535.004 7.74023 535.473 7.2832C535.953 6.82617 536.598 6.59766 537.406 6.59766C538.215 6.59766 538.854 6.82617 539.322 7.2832C539.803 7.74023 540.043 8.31445 540.043 9.00586C540.043 9.68555 539.803 10.2539 539.322 10.7109C538.854 11.168 538.215 11.3965 537.406 11.3965C536.598 11.3965 535.953 11.168 535.473 10.7109C535.004 10.2539 534.77 9.68555 534.77 9.00586ZM554.633 27.7969C554.633 27.3984 554.527 27.041 554.316 26.7246C554.105 26.4082 553.707 26.1211 553.121 25.8633C552.547 25.5938 551.703 25.3418 550.59 25.1074C549.605 24.8965 548.697 24.6328 547.865 24.3164C547.033 24 546.318 23.6191 545.721 23.1738C545.123 22.7168 544.654 22.1836 544.314 21.5742C543.986 20.9531 543.822 20.2383 543.822 19.4297C543.822 18.6445 543.992 17.9063 544.332 17.2148C544.672 16.5117 545.164 15.8965 545.809 15.3691C546.453 14.8301 547.238 14.4082 548.164 14.1035C549.09 13.7871 550.133 13.6289 551.293 13.6289C552.91 13.6289 554.299 13.8926 555.459 14.4199C556.631 14.9473 557.527 15.6738 558.148 16.5996C558.77 17.5137 559.08 18.5449 559.08 19.6934H554.439C554.439 19.1895 554.322 18.7324 554.088 18.3223C553.865 17.9121 553.52 17.584 553.051 17.3379C552.582 17.0801 551.99 16.9512 551.275 16.9512C550.631 16.9512 550.086 17.0566 549.641 17.2676C549.207 17.4785 548.879 17.7539 548.656 18.0938C548.434 18.4336 548.322 18.8086 548.322 19.2188C548.322 19.5234 548.381 19.7988 548.498 20.0449C548.627 20.2793 548.832 20.4961 549.113 20.6953C549.395 20.8945 549.775 21.0762 550.256 21.2402C550.748 21.4043 551.352 21.5625 552.066 21.7148C553.484 21.9961 554.721 22.3711 555.775 22.8398C556.842 23.2969 557.674 23.9063 558.271 24.668C558.869 25.4297 559.168 26.4023 559.168 27.5859C559.168 28.4297 558.986 29.2031 558.623 29.9063C558.26 30.5977 557.732 31.2012 557.041 31.7168C556.35 32.2324 555.523 32.6367 554.562 32.9297C553.602 33.2109 552.518 33.3516 551.311 33.3516C549.564 33.3516 548.088 33.041 546.881 32.4199C545.674 31.7871 544.76 30.9902 544.139 30.0293C543.518 29.0566 543.207 28.0488 543.207 27.0059H547.654C547.689 27.7441 547.889 28.3359 548.252 28.7813C548.615 29.2266 549.072 29.5488 549.623 29.748C550.186 29.9355 550.777 30.0293 551.398 30.0293C552.102 30.0293 552.693 29.9355 553.174 29.748C553.654 29.5488 554.018 29.2852 554.264 28.957C554.51 28.6172 554.633 28.2305 554.633 27.7969ZM571.244 33.3516C569.803 33.3516 568.508 33.1172 567.359 32.6484C566.211 32.1797 565.232 31.5293 564.424 30.6973C563.627 29.8535 563.012 28.875 562.578 27.7617C562.156 26.6367 561.945 25.4297 561.945 24.1406V23.4375C561.945 21.9727 562.156 20.6426 562.578 19.4473C563 18.2402 563.598 17.2031 564.371 16.3359C565.145 15.4688 566.07 14.8008 567.148 14.332C568.227 13.8633 569.416 13.6289 570.717 13.6289C572.064 13.6289 573.254 13.8574 574.285 14.3145C575.316 14.7598 576.178 15.3926 576.869 16.2129C577.561 17.0332 578.082 18.0176 578.434 19.166C578.785 20.3027 578.961 21.5625 578.961 22.9453V24.8965L564.055 24.8965V21.6973L574.391 21.6973V21.3457C574.367 20.6074 574.227 19.9336 573.969 19.3242C573.711 18.7031 573.312 18.2109 572.773 17.8477C572.234 17.4727 571.537 17.2852 570.682 17.2852C569.99 17.2852 569.387 17.4375 568.871 17.7422C568.367 18.0352 567.945 18.457 567.605 19.0078C567.277 19.5469 567.031 20.1914 566.867 20.9414C566.703 21.6914 566.621 22.5234 566.621 23.4375V24.1406C566.621 24.9375 566.727 25.6758 566.938 26.3555C567.16 27.0352 567.482 27.627 567.904 28.1309C568.338 28.623 568.854 29.0098 569.451 29.291C570.061 29.5605 570.752 29.6953 571.525 29.6953C572.498 29.6953 573.377 29.5078 574.162 29.1328C574.959 28.7461 575.65 28.1777 576.236 27.4277L578.574 29.8535C578.176 30.4395 577.637 31.002 576.957 31.541C576.289 32.0801 575.48 32.5195 574.531 32.8594C573.582 33.1875 572.486 33.3516 571.244 33.3516ZM592.549 28.957V20.1855C592.549 19.541 592.438 18.9844 592.215 18.5156C591.992 18.0469 591.652 17.6836 591.195 17.4258C590.738 17.168 590.158 17.0391 589.455 17.0391C588.834 17.0391 588.289 17.1445 587.82 17.3555C587.363 17.5664 587.012 17.8652 586.766 18.252C586.52 18.627 586.396 19.0605 586.396 19.5527H581.738C581.738 18.7676 581.926 18.0234 582.301 17.3203C582.676 16.6055 583.209 15.9727 583.9 15.4219C584.604 14.8594 585.441 14.4199 586.414 14.1035C587.398 13.7871 588.5 13.6289 589.719 13.6289C591.16 13.6289 592.443 13.875 593.568 14.3672C594.705 14.8477 595.596 15.5742 596.24 16.5469C596.896 17.5195 597.225 18.7441 597.225 20.2207V28.5176C597.225 29.4668 597.283 30.2813 597.4 30.9609C597.529 31.6289 597.717 32.209 597.963 32.7012V33H593.234C593.012 32.5195 592.842 31.9102 592.725 31.1719C592.607 30.4219 592.549 29.6836 592.549 28.957ZM593.199 21.416L593.234 24.1758H590.299C589.572 24.1758 588.934 24.252 588.383 24.4043C587.832 24.5449 587.381 24.7559 587.029 25.0371C586.678 25.3066 586.414 25.6348 586.238 26.0215C586.062 26.3965 585.975 26.8242 585.975 27.3047C585.975 27.7734 586.08 28.1953 586.291 28.5703C586.514 28.9453 586.83 29.2441 587.24 29.4668C587.662 29.6777 588.154 29.7832 588.717 29.7832C589.537 29.7832 590.252 29.6191 590.861 29.291C591.471 28.9512 591.945 28.541 592.285 28.0605C592.625 27.5801 592.807 27.123 592.83 26.6895L594.166 28.6934C594.002 29.1738 593.756 29.6836 593.428 30.2227C593.1 30.7617 592.678 31.2656 592.162 31.7344C591.646 32.2031 591.025 32.5898 590.299 32.8945C589.572 33.1992 588.729 33.3516 587.768 33.3516C586.537 33.3516 585.436 33.1055 584.463 32.6133C583.49 32.1211 582.723 31.4473 582.16 30.5918C581.598 29.7363 581.316 28.7637 581.316 27.6738C581.316 26.666 581.504 25.7754 581.879 25.002C582.254 24.2285 582.811 23.5781 583.549 23.0508C584.287 22.5117 585.201 22.1074 586.291 21.8379C587.393 21.5566 588.652 21.416 590.07 21.416H593.199ZM611.867 27.7969C611.867 27.3984 611.762 27.041 611.551 26.7246C611.34 26.4082 610.941 26.1211 610.355 25.8633C609.781 25.5938 608.938 25.3418 607.824 25.1074C606.84 24.8965 605.932 24.6328 605.1 24.3164C604.268 24 603.553 23.6191 602.955 23.1738C602.357 22.7168 601.889 22.1836 601.549 21.5742C601.221 20.9531 601.057 20.2383 601.057 19.4297C601.057 18.6445 601.227 17.9063 601.566 17.2148C601.906 16.5117 602.398 15.8965 603.043 15.3691C603.688 14.8301 604.473 14.4082 605.398 14.1035C606.324 13.7871 607.367 13.6289 608.527 13.6289C610.145 13.6289 611.533 13.8926 612.693 14.4199C613.865 14.9473 614.762 15.6738 615.383 16.5996C616.004 17.5137 616.314 18.5449 616.314 19.6934L611.674 19.6934C611.674 19.1895 611.557 18.7324 611.322 18.3223C611.1 17.9121 610.754 17.584 610.285 17.3379C609.816 17.0801 609.225 16.9512 608.51 16.9512C607.865 16.9512 607.32 17.0566 606.875 17.2676C606.441 17.4785 606.113 17.7539 605.891 18.0938C605.668 18.4336 605.557 18.8086 605.557 19.2188C605.557 19.5234 605.615 19.7988 605.732 20.0449C605.861 20.2793 606.066 20.4961 606.348 20.6953C606.629 20.8945 607.01 21.0762 607.49 21.2402C607.982 21.4043 608.586 21.5625 609.301 21.7148C610.719 21.9961 611.955 22.3711 613.01 22.8398C614.076 23.2969 614.908 23.9063 615.506 24.668C616.104 25.4297 616.402 26.4023 616.402 27.5859C616.402 28.4297 616.221 29.2031 615.857 29.9063C615.494 30.5977 614.967 31.2012 614.275 31.7168C613.584 32.2324 612.758 32.6367 611.797 32.9297C610.836 33.2109 609.752 33.3516 608.545 33.3516C606.799 33.3516 605.322 33.041 604.115 32.4199C602.908 31.7871 601.994 30.9902 601.373 30.0293C600.752 29.0566 600.441 28.0488 600.441 27.0059H604.889C604.924 27.7441 605.123 28.3359 605.486 28.7813C605.85 29.2266 606.307 29.5488 606.857 29.748C607.42 29.9355 608.012 30.0293 608.633 30.0293C609.336 30.0293 609.928 29.9355 610.408 29.748C610.889 29.5488 611.252 29.2852 611.498 28.957C611.744 28.6172 611.867 28.2305 611.867 27.7969ZM628.479 33.3516C627.037 33.3516 625.742 33.1172 624.594 32.6484C623.445 32.1797 622.467 31.5293 621.658 30.6973C620.861 29.8535 620.246 28.875 619.812 27.7617C619.391 26.6367 619.18 25.4297 619.18 24.1406V23.4375C619.18 21.9727 619.391 20.6426 619.812 19.4473C620.234 18.2402 620.832 17.2031 621.605 16.3359C622.379 15.4688 623.305 14.8008 624.383 14.332C625.461 13.8633 626.65 13.6289 627.951 13.6289C629.299 13.6289 630.488 13.8574 631.52 14.3145C632.551 14.7598 633.412 15.3926 634.104 16.2129C634.795 17.0332 635.316 18.0176 635.668 19.166C636.02 20.3027 636.195 21.5625 636.195 22.9453V24.8965H621.289V21.6973H631.625V21.3457C631.602 20.6074 631.461 19.9336 631.203 19.3242C630.945 18.7031 630.547 18.2109 630.008 17.8477C629.469 17.4727 628.771 17.2852 627.916 17.2852C627.225 17.2852 626.621 17.4375 626.105 17.7422C625.602 18.0352 625.18 18.457 624.84 19.0078C624.512 19.5469 624.266 20.1914 624.102 20.9414C623.938 21.6914 623.855 22.5234 623.855 23.4375V24.1406C623.855 24.9375 623.961 25.6758 624.172 26.3555C624.395 27.0352 624.717 27.627 625.139 28.1309C625.572 28.623 626.088 29.0098 626.686 29.291C627.295 29.5605 627.986 29.6953 628.76 29.6953C629.732 29.6953 630.611 29.5078 631.396 29.1328C632.193 28.7461 632.885 28.1777 633.471 27.4277L635.809 29.8535C635.41 30.4395 634.871 31.002 634.191 31.541C633.523 32.0801 632.715 32.5195 631.766 32.8594C630.816 33.1875 629.721 33.3516 628.479 33.3516ZM656.076 29.6953C656.732 29.6953 657.318 29.5664 657.834 29.3086C658.35 29.0508 658.76 28.6875 659.064 28.2188C659.381 27.75 659.551 27.2051 659.574 26.584H663.951C663.928 27.873 663.564 29.0273 662.861 30.0469C662.158 31.0664 661.221 31.875 660.049 32.4727C658.889 33.0586 657.588 33.3516 656.146 33.3516C654.682 33.3516 653.404 33.1055 652.314 32.6133C651.225 32.1211 650.316 31.4355 649.59 30.5566C648.875 29.6777 648.336 28.6582 647.973 27.498C647.621 26.3379 647.445 25.0957 647.445 23.7715V23.209C647.445 21.8848 647.621 20.6426 647.973 19.4824C648.336 18.3223 648.875 17.3027 649.59 16.4238C650.316 15.5449 651.225 14.8594 652.314 14.3672C653.404 13.875 654.676 13.6289 656.129 13.6289C657.664 13.6289 659.012 13.9277 660.172 14.5254C661.344 15.123 662.258 15.9668 662.914 17.0566C663.582 18.1465 663.928 19.4297 663.951 20.9063H659.574C659.551 20.2266 659.398 19.6172 659.117 19.0781C658.836 18.5391 658.438 18.1055 657.922 17.7773C657.406 17.4492 656.779 17.2852 656.041 17.2852C655.256 17.2852 654.6 17.4492 654.072 17.7773C653.557 18.1055 653.152 18.5566 652.859 19.1309C652.578 19.6934 652.379 20.3262 652.262 21.0293C652.156 21.7207 652.104 22.4473 652.104 23.209V23.7715C652.104 24.5449 652.156 25.2832 652.262 25.9863C652.379 26.6895 652.578 27.3223 652.859 27.8848C653.152 28.4355 653.557 28.875 654.072 29.2031C654.6 29.5313 655.268 29.6953 656.076 29.6953ZM666.219 23.6836V23.3145C666.219 21.9199 666.418 20.6367 666.816 19.4648C667.215 18.2813 667.795 17.2559 668.557 16.3887C669.318 15.5215 670.25 14.8477 671.352 14.3672C672.453 13.875 673.707 13.6289 675.113 13.6289C676.543 13.6289 677.809 13.875 678.91 14.3672C680.023 14.8477 680.961 15.5215 681.723 16.3887C682.484 17.2559 683.064 18.2813 683.463 19.4648C683.861 20.6367 684.061 21.9199 684.061 23.3145V23.6836C684.061 25.0664 683.861 26.3496 683.463 27.5332C683.064 28.7051 682.484 29.7305 681.723 30.6094C680.961 31.4766 680.029 32.1504 678.928 32.6309C677.826 33.1113 676.566 33.3516 675.148 33.3516C673.742 33.3516 672.482 33.1113 671.369 32.6309C670.256 32.1504 669.318 31.4766 668.557 30.6094C667.795 29.7305 667.215 28.7051 666.816 27.5332C666.418 26.3496 666.219 25.0664 666.219 23.6836ZM670.859 23.3145V23.6836C670.859 24.5156 670.941 25.2949 671.105 26.0215C671.27 26.748 671.521 27.3867 671.861 27.9375C672.201 28.4883 672.641 28.9219 673.18 29.2383C673.73 29.543 674.387 29.6953 675.148 29.6953C675.898 29.6953 676.543 29.543 677.082 29.2383C677.621 28.9219 678.061 28.4883 678.4 27.9375C678.752 27.3867 679.01 26.748 679.174 26.0215C679.338 25.2949 679.42 24.5156 679.42 23.6836V23.3145C679.42 22.4941 679.338 21.7266 679.174 21.0117C679.01 20.2852 678.752 19.6465 678.4 19.0957C678.061 18.5332 677.615 18.0938 677.064 17.7773C676.525 17.4492 675.875 17.2852 675.113 17.2852C674.363 17.2852 673.719 17.4492 673.18 17.7773C672.641 18.0938 672.201 18.5332 671.861 19.0957C671.521 19.6465 671.27 20.2852 671.105 21.0117C670.941 21.7266 670.859 22.4941 670.859 23.3145ZM698.844 28.957V6L703.52 6V33H699.301L698.844 28.957ZM686.627 23.7188V23.3496C686.627 21.8965 686.791 20.5781 687.119 19.3945C687.459 18.1992 687.951 17.1738 688.596 16.3184C689.24 15.4629 690.02 14.8008 690.934 14.332C691.859 13.8633 692.908 13.6289 694.08 13.6289C695.217 13.6289 696.207 13.8574 697.051 14.3145C697.906 14.7715 698.633 15.4219 699.23 16.2656C699.84 17.1094 700.326 18.1113 700.689 19.2715C701.053 20.4199 701.316 21.6855 701.48 23.0684V24.0703C701.316 25.418 701.053 26.6543 700.689 27.7793C700.326 28.9043 699.84 29.8887 699.23 30.7324C698.633 31.5645 697.906 32.209 697.051 32.666C696.195 33.123 695.193 33.3516 694.045 33.3516C692.885 33.3516 691.842 33.1113 690.916 32.6309C690.002 32.1504 689.223 31.4766 688.578 30.6094C687.945 29.7422 687.459 28.7227 687.119 27.5508C686.791 26.3789 686.627 25.1016 686.627 23.7188ZM691.285 23.3496V23.7188C691.285 24.5391 691.355 25.3066 691.496 26.0215C691.637 26.7363 691.865 27.3691 692.182 27.9199C692.498 28.459 692.902 28.8809 693.395 29.1855C693.898 29.4902 694.508 29.6426 695.223 29.6426C696.137 29.6426 696.887 29.4434 697.473 29.0449C698.07 28.6348 698.533 28.0781 698.861 27.375C699.189 26.6602 699.4 25.8574 699.494 24.9668V22.207C699.447 21.5039 699.324 20.8535 699.125 20.2559C698.938 19.6582 698.668 19.1426 698.316 18.709C697.977 18.2754 697.555 17.9355 697.051 17.6895C696.547 17.4434 695.949 17.3203 695.258 17.3203C694.543 17.3203 693.934 17.4785 693.43 17.7949C692.926 18.0996 692.516 18.5273 692.199 19.0781C691.883 19.6289 691.648 20.2676 691.496 20.9941C691.355 21.7207 691.285 22.5059 691.285 23.3496ZM716.264 33.3516C714.822 33.3516 713.527 33.1172 712.379 32.6484C711.23 32.1797 710.252 31.5293 709.443 30.6973C708.646 29.8535 708.031 28.875 707.598 27.7617C707.176 26.6367 706.965 25.4297 706.965 24.1406V23.4375C706.965 21.9727 707.176 20.6426 707.598 19.4473C708.02 18.2402 708.617 17.2031 709.391 16.3359C710.164 15.4688 711.09 14.8008 712.168 14.332C713.246 13.8633 714.436 13.6289 715.736 13.6289C717.084 13.6289 718.273 13.8574 719.305 14.3145C720.336 14.7598 721.197 15.3926 721.889 16.2129C722.58 17.0332 723.102 18.0176 723.453 19.166C723.805 20.3027 723.98 21.5625 723.98 22.9453V24.8965H709.074V21.6973H719.41V21.3457C719.387 20.6074 719.246 19.9336 718.988 19.3242C718.73 18.7031 718.332 18.2109 717.793 17.8477C717.254 17.4727 716.557 17.2852 715.701 17.2852C715.01 17.2852 714.406 17.4375 713.891 17.7422C713.387 18.0352 712.965 18.457 712.625 19.0078C712.297 19.5469 712.051 20.1914 711.887 20.9414C711.723 21.6914 711.641 22.5234 711.641 23.4375V24.1406C711.641 24.9375 711.746 25.6758 711.957 26.3555C712.18 27.0352 712.502 27.627 712.924 28.1309C713.357 28.623 713.873 29.0098 714.471 29.291C715.08 29.5605 715.771 29.6953 716.545 29.6953C717.518 29.6953 718.396 29.5078 719.182 29.1328C719.979 28.7461 720.67 28.1777 721.256 27.4277L723.594 29.8535C723.195 30.4395 722.656 31.002 721.977 31.541C721.309 32.0801 720.5 32.5195 719.551 32.8594C718.602 33.1875 717.506 33.3516 716.264 33.3516Z" fill="#505459"/>
<rect x="156" y="68" width="285.217" height="30" fill="#337AB7" fill-opacity="0.5"/>
<rect x="156" y="116.3" width="656" height="30" fill="#337AB7" fill-opacity="0.5"/>
<rect x="156" y="164.6" width="171.13" height="30" fill="#505459" fill-opacity="0.5"/>
<rect x="156" y="212.9" width="242.435" height="30" fill="#337AB7" fill-opacity="0.5"/>
<rect x="156" y="261.2" width="149.739" height="30" fill="#505459" fill-opacity="0.5"/>
<rect x="156" y="309.5" width="221.043" height="30" fill="#505459" fill-opacity="0.5"/>
<rect x="156" y="357.8" width="499.13" height="30" fill="#337AB7" fill-opacity="0.5"/>
<rect x="156" y="406.1" width="128.348" height="30" fill="#505459" fill-opacity="0.5"/>
<rect x="156" y="454.4" width="42.7826" height="30" fill="#505459" fill-opacity="0.5"/>
<rect x="156" y="502.7" width="228.174" height="30" fill="#505459" fill-opacity="0.5"/>
<rect x="156" y="551" width="114.087" height="30" fill="#505459" fill-opacity="0.5"/>
<rect x="156" y="599.3" width="185.391" height="30" fill="#505459" fill-opacity="0.5"/>
<path d="M298.656 84.7773V87.2148H286.363L286.234 85.3398L293.465 73.9375H295.938L293.266 78.4727L289.387 84.7773H298.656ZM296.629 73.9375V91H293.523V73.9375H296.629ZM311.816 81.0039V83.875C311.816 85.1875 311.684 86.3086 311.418 87.2383C311.152 88.168 310.77 88.9297 310.27 89.5234C309.77 90.1094 309.172 90.543 308.477 90.8242C307.781 91.0977 307.008 91.2344 306.156 91.2344C305.477 91.2344 304.844 91.1484 304.258 90.9766C303.672 90.7969 303.145 90.5234 302.676 90.1562C302.215 89.7812 301.816 89.3047 301.48 88.7266C301.152 88.1484 300.898 87.457 300.719 86.6523C300.547 85.8477 300.461 84.9219 300.461 83.875V81.0039C300.461 79.6914 300.594 78.5742 300.859 77.6523C301.133 76.7305 301.52 75.9766 302.02 75.3906C302.52 74.8047 303.117 74.3789 303.812 74.1133C304.508 73.8398 305.281 73.7031 306.133 73.7031C306.82 73.7031 307.453 73.7891 308.031 73.9609C308.617 74.1328 309.141 74.4023 309.602 74.7695C310.07 75.1289 310.469 75.5977 310.797 76.1758C311.125 76.7461 311.375 77.4336 311.547 78.2383C311.727 79.0352 311.816 79.957 311.816 81.0039ZM308.723 84.2969V80.5703C308.723 79.9141 308.684 79.3438 308.605 78.8594C308.535 78.3672 308.43 77.9492 308.289 77.6055C308.148 77.2617 307.973 76.9844 307.762 76.7734C307.551 76.5547 307.309 76.3945 307.035 76.293C306.762 76.1914 306.461 76.1406 306.133 76.1406C305.727 76.1406 305.363 76.2227 305.043 76.3867C304.723 76.543 304.453 76.793 304.234 77.1367C304.016 77.4805 303.848 77.9375 303.73 78.5078C303.621 79.0703 303.566 79.7578 303.566 80.5703V84.2969C303.566 84.9531 303.602 85.5273 303.672 86.0195C303.75 86.5117 303.859 86.9336 304 87.2852C304.148 87.6367 304.324 87.9258 304.527 88.1523C304.738 88.3711 304.98 88.5352 305.254 88.6445C305.527 88.7461 305.828 88.7969 306.156 88.7969C306.57 88.7969 306.934 88.7148 307.246 88.5508C307.566 88.3867 307.836 88.1289 308.055 87.7773C308.273 87.418 308.438 86.9531 308.547 86.3828C308.664 85.8047 308.723 85.1094 308.723 84.2969Z" fill="#337AB7"/>
<path d="M474.141 136.598H474.363C475.371 136.598 476.223 136.469 476.918 136.211C477.621 135.953 478.188 135.59 478.617 135.121C479.055 134.645 479.371 134.078 479.566 133.422C479.77 132.758 479.871 132.023 479.871 131.219V128.125C479.871 127.469 479.805 126.895 479.672 126.402C479.539 125.902 479.352 125.484 479.109 125.148C478.875 124.812 478.598 124.562 478.277 124.398C477.957 124.227 477.613 124.141 477.246 124.141C476.84 124.141 476.48 124.234 476.168 124.422C475.855 124.609 475.59 124.867 475.371 125.195C475.16 125.516 474.996 125.887 474.879 126.309C474.77 126.73 474.715 127.176 474.715 127.645C474.715 128.098 474.766 128.531 474.867 128.945C474.977 129.359 475.137 129.727 475.348 130.047C475.566 130.367 475.84 130.621 476.168 130.809C476.496 130.988 476.879 131.078 477.316 131.078C477.73 131.078 478.105 131 478.441 130.844C478.785 130.68 479.082 130.465 479.332 130.199C479.582 129.926 479.773 129.625 479.906 129.297C480.047 128.961 480.125 128.621 480.141 128.277L481.23 128.746C481.23 129.316 481.109 129.879 480.867 130.434C480.633 130.988 480.301 131.492 479.871 131.945C479.449 132.391 478.957 132.75 478.395 133.023C477.832 133.289 477.227 133.422 476.578 133.422C475.773 133.422 475.062 133.273 474.445 132.977C473.828 132.68 473.309 132.27 472.887 131.746C472.473 131.215 472.16 130.605 471.949 129.918C471.738 129.223 471.633 128.48 471.633 127.691C471.633 126.871 471.762 126.102 472.02 125.383C472.277 124.656 472.648 124.02 473.133 123.473C473.625 122.918 474.219 122.484 474.914 122.172C475.609 121.852 476.391 121.691 477.258 121.691C478.156 121.691 478.957 121.867 479.66 122.219C480.363 122.57 480.961 123.059 481.453 123.684C481.945 124.301 482.32 125.031 482.578 125.875C482.844 126.719 482.977 127.641 482.977 128.641V129.73C482.977 130.785 482.871 131.785 482.66 132.73C482.449 133.676 482.125 134.539 481.688 135.32C481.25 136.102 480.691 136.777 480.012 137.348C479.34 137.918 478.535 138.359 477.598 138.672C476.668 138.977 475.605 139.129 474.41 139.129H474.141V136.598ZM497.074 136.562V139H485.52V136.914L491.062 130.926C491.641 130.27 492.098 129.699 492.434 129.215C492.77 128.73 493.008 128.293 493.148 127.902C493.297 127.504 493.371 127.125 493.371 126.766C493.371 126.242 493.277 125.785 493.09 125.395C492.902 124.996 492.629 124.688 492.27 124.469C491.918 124.25 491.484 124.141 490.969 124.141C490.398 124.141 489.91 124.273 489.504 124.539C489.105 124.797 488.801 125.156 488.59 125.617C488.387 126.078 488.285 126.605 488.285 127.199H485.18C485.18 126.191 485.414 125.273 485.883 124.445C486.352 123.609 487.023 122.941 487.898 122.441C488.773 121.941 489.812 121.691 491.016 121.691C492.188 121.691 493.18 121.887 493.992 122.277C494.805 122.66 495.422 123.207 495.844 123.918C496.266 124.629 496.477 125.477 496.477 126.461C496.477 127.008 496.387 127.547 496.207 128.078C496.027 128.609 495.773 129.137 495.445 129.66C495.125 130.176 494.742 130.699 494.297 131.23C493.852 131.762 493.355 132.305 492.809 132.859L489.48 136.562H497.074Z" fill="#337AB7"/>
<path d="M241.363 185.562V188H229.809V185.914L235.352 179.926C235.93 179.27 236.387 178.699 236.723 178.215C237.059 177.73 237.297 177.293 237.438 176.902C237.586 176.504 237.66 176.125 237.66 175.766C237.66 175.242 237.566 174.785 237.379 174.395C237.191 173.996 236.918 173.688 236.559 173.469C236.207 173.25 235.773 173.141 235.258 173.141C234.688 173.141 234.199 173.273 233.793 173.539C233.395 173.797 233.09 174.156 232.879 174.617C232.676 175.078 232.574 175.605 232.574 176.199H229.469C229.469 175.191 229.703 174.273 230.172 173.445C230.641 172.609 231.312 171.941 232.188 171.441C233.062 170.941 234.102 170.691 235.305 170.691C236.477 170.691 237.469 170.887 238.281 171.277C239.094 171.66 239.711 172.207 240.133 172.918C240.555 173.629 240.766 174.477 240.766 175.461C240.766 176.008 240.676 176.547 240.496 177.078C240.316 177.609 240.062 178.137 239.734 178.66C239.414 179.176 239.031 179.699 238.586 180.23C238.141 180.762 237.645 181.305 237.098 181.859L233.77 185.562H241.363ZM255.367 181.777V184.215H243.074L242.945 182.34L250.176 170.938H252.648L249.977 175.473L246.098 181.777H255.367ZM253.34 170.938V188H250.234V170.938H253.34Z" fill="#505459"/>
<path d="M268.195 226.098H269.941C270.559 226.098 271.066 225.992 271.465 225.781C271.871 225.562 272.172 225.266 272.367 224.891C272.57 224.508 272.672 224.066 272.672 223.566C272.672 223.074 272.582 222.648 272.402 222.289C272.223 221.922 271.949 221.641 271.582 221.445C271.223 221.242 270.762 221.141 270.199 221.141C269.746 221.141 269.328 221.23 268.945 221.41C268.57 221.59 268.27 221.848 268.043 222.184C267.824 222.512 267.715 222.906 267.715 223.367H264.609C264.609 222.445 264.852 221.637 265.336 220.941C265.828 220.238 266.492 219.688 267.328 219.289C268.164 218.891 269.098 218.691 270.129 218.691C271.254 218.691 272.238 218.879 273.082 219.254C273.934 219.621 274.594 220.164 275.062 220.883C275.539 221.602 275.777 222.492 275.777 223.555C275.777 224.062 275.656 224.57 275.414 225.078C275.18 225.578 274.832 226.031 274.371 226.438C273.918 226.836 273.359 227.16 272.695 227.41C272.039 227.652 271.285 227.773 270.434 227.773H268.195V226.098ZM268.195 228.488V226.836H270.434C271.395 226.836 272.227 226.949 272.93 227.176C273.641 227.395 274.227 227.707 274.688 228.113C275.148 228.512 275.488 228.977 275.707 229.508C275.934 230.039 276.047 230.609 276.047 231.219C276.047 232.016 275.898 232.727 275.602 233.352C275.305 233.969 274.887 234.492 274.348 234.922C273.816 235.352 273.191 235.68 272.473 235.906C271.754 236.125 270.977 236.234 270.141 236.234C269.414 236.234 268.707 236.137 268.02 235.941C267.34 235.738 266.727 235.438 266.18 235.039C265.633 234.633 265.199 234.125 264.879 233.516C264.559 232.898 264.398 232.184 264.398 231.371H267.504C267.504 231.84 267.617 232.258 267.844 232.625C268.078 232.992 268.398 233.281 268.805 233.492C269.219 233.695 269.684 233.797 270.199 233.797C270.77 233.797 271.258 233.695 271.664 233.492C272.078 233.281 272.395 232.984 272.613 232.602C272.832 232.211 272.941 231.746 272.941 231.207C272.941 230.566 272.82 230.047 272.578 229.648C272.336 229.25 271.988 228.957 271.535 228.77C271.09 228.582 270.559 228.488 269.941 228.488H268.195ZM290.367 229.777V232.215H278.074L277.945 230.34L285.176 218.938H287.648L284.977 223.473L281.098 229.777H290.367ZM288.34 218.938V236H285.234V218.938H288.34Z" fill="#337AB7"/>
<path d="M230.363 281.562V284H218.809V281.914L224.352 275.926C224.93 275.27 225.387 274.699 225.723 274.215C226.059 273.73 226.297 273.293 226.438 272.902C226.586 272.504 226.66 272.125 226.66 271.766C226.66 271.242 226.566 270.785 226.379 270.395C226.191 269.996 225.918 269.688 225.559 269.469C225.207 269.25 224.773 269.141 224.258 269.141C223.688 269.141 223.199 269.273 222.793 269.539C222.395 269.797 222.09 270.156 221.879 270.617C221.676 271.078 221.574 271.605 221.574 272.199H218.469C218.469 271.191 218.703 270.273 219.172 269.445C219.641 268.609 220.312 267.941 221.188 267.441C222.062 266.941 223.102 266.691 224.305 266.691C225.477 266.691 226.469 266.887 227.281 267.277C228.094 267.66 228.711 268.207 229.133 268.918C229.555 269.629 229.766 270.477 229.766 271.461C229.766 272.008 229.676 272.547 229.496 273.078C229.316 273.609 229.062 274.137 228.734 274.66C228.414 275.176 228.031 275.699 227.586 276.23C227.141 276.762 226.645 277.305 226.098 277.859L222.77 281.562H230.363ZM240.488 266.891V284H237.383V270.512L233.27 271.871V269.363L240.137 266.891H240.488Z" fill="#505459"/>
<path d="M257.195 323.098H258.941C259.559 323.098 260.066 322.992 260.465 322.781C260.871 322.562 261.172 322.266 261.367 321.891C261.57 321.508 261.672 321.066 261.672 320.566C261.672 320.074 261.582 319.648 261.402 319.289C261.223 318.922 260.949 318.641 260.582 318.445C260.223 318.242 259.762 318.141 259.199 318.141C258.746 318.141 258.328 318.23 257.945 318.41C257.57 318.59 257.27 318.848 257.043 319.184C256.824 319.512 256.715 319.906 256.715 320.367H253.609C253.609 319.445 253.852 318.637 254.336 317.941C254.828 317.238 255.492 316.688 256.328 316.289C257.164 315.891 258.098 315.691 259.129 315.691C260.254 315.691 261.238 315.879 262.082 316.254C262.934 316.621 263.594 317.164 264.062 317.883C264.539 318.602 264.777 319.492 264.777 320.555C264.777 321.062 264.656 321.57 264.414 322.078C264.18 322.578 263.832 323.031 263.371 323.438C262.918 323.836 262.359 324.16 261.695 324.41C261.039 324.652 260.285 324.773 259.434 324.773H257.195V323.098ZM257.195 325.488V323.836H259.434C260.395 323.836 261.227 323.949 261.93 324.176C262.641 324.395 263.227 324.707 263.688 325.113C264.148 325.512 264.488 325.977 264.707 326.508C264.934 327.039 265.047 327.609 265.047 328.219C265.047 329.016 264.898 329.727 264.602 330.352C264.305 330.969 263.887 331.492 263.348 331.922C262.816 332.352 262.191 332.68 261.473 332.906C260.754 333.125 259.977 333.234 259.141 333.234C258.414 333.234 257.707 333.137 257.02 332.941C256.34 332.738 255.727 332.438 255.18 332.039C254.633 331.633 254.199 331.125 253.879 330.516C253.559 329.898 253.398 329.184 253.398 328.371H256.504C256.504 328.84 256.617 329.258 256.844 329.625C257.078 329.992 257.398 330.281 257.805 330.492C258.219 330.695 258.684 330.797 259.199 330.797C259.77 330.797 260.258 330.695 260.664 330.492C261.078 330.281 261.395 329.984 261.613 329.602C261.832 329.211 261.941 328.746 261.941 328.207C261.941 327.566 261.82 327.047 261.578 326.648C261.336 326.25 260.988 325.957 260.535 325.77C260.09 325.582 259.559 325.488 258.941 325.488H257.195ZM275.488 315.891V333H272.383V319.512L268.27 320.871V318.363L275.137 315.891H275.488Z" fill="#505459"/>
<path d="M405.27 363.938V365.625L398.566 381H395.297L402 366.375H393.328V363.938H405.27ZM418.816 371.004V373.875C418.816 375.188 418.684 376.309 418.418 377.238C418.152 378.168 417.77 378.93 417.27 379.523C416.77 380.109 416.172 380.543 415.477 380.824C414.781 381.098 414.008 381.234 413.156 381.234C412.477 381.234 411.844 381.148 411.258 380.977C410.672 380.797 410.145 380.523 409.676 380.156C409.215 379.781 408.816 379.305 408.48 378.727C408.152 378.148 407.898 377.457 407.719 376.652C407.547 375.848 407.461 374.922 407.461 373.875V371.004C407.461 369.691 407.594 368.574 407.859 367.652C408.133 366.73 408.52 365.977 409.02 365.391C409.52 364.805 410.117 364.379 410.812 364.113C411.508 363.84 412.281 363.703 413.133 363.703C413.82 363.703 414.453 363.789 415.031 363.961C415.617 364.133 416.141 364.402 416.602 364.77C417.07 365.129 417.469 365.598 417.797 366.176C418.125 366.746 418.375 367.434 418.547 368.238C418.727 369.035 418.816 369.957 418.816 371.004ZM415.723 374.297V370.57C415.723 369.914 415.684 369.344 415.605 368.859C415.535 368.367 415.43 367.949 415.289 367.605C415.148 367.262 414.973 366.984 414.762 366.773C414.551 366.555 414.309 366.395 414.035 366.293C413.762 366.191 413.461 366.141 413.133 366.141C412.727 366.141 412.363 366.223 412.043 366.387C411.723 366.543 411.453 366.793 411.234 367.137C411.016 367.48 410.848 367.938 410.73 368.508C410.621 369.07 410.566 369.758 410.566 370.57V374.297C410.566 374.953 410.602 375.527 410.672 376.02C410.75 376.512 410.859 376.934 411 377.285C411.148 377.637 411.324 377.926 411.527 378.152C411.738 378.371 411.98 378.535 412.254 378.645C412.527 378.746 412.828 378.797 413.156 378.797C413.57 378.797 413.934 378.715 414.246 378.551C414.566 378.387 414.836 378.129 415.055 377.777C415.273 377.418 415.438 376.953 415.547 376.383C415.664 375.805 415.723 375.109 415.723 374.297Z" fill="#337AB7"/>
<path d="M215.777 411.891V429H212.672V415.512L208.559 416.871V414.363L215.426 411.891H215.777ZM232.84 424.336C232.84 425.398 232.59 426.297 232.09 427.031C231.598 427.758 230.922 428.309 230.062 428.684C229.211 429.051 228.242 429.234 227.156 429.234C226.078 429.234 225.105 429.051 224.238 428.684C223.379 428.309 222.695 427.758 222.188 427.031C221.688 426.297 221.438 425.398 221.438 424.336C221.438 423.625 221.578 422.98 221.859 422.402C222.148 421.824 222.547 421.328 223.055 420.914C223.562 420.492 224.164 420.172 224.859 419.953C225.555 419.727 226.312 419.613 227.133 419.613C228.227 419.613 229.203 419.812 230.062 420.211C230.93 420.602 231.609 421.152 232.102 421.863C232.594 422.566 232.84 423.391 232.84 424.336ZM229.723 424.148C229.723 423.602 229.613 423.129 229.395 422.73C229.184 422.324 228.883 422.012 228.492 421.793C228.102 421.574 227.648 421.465 227.133 421.465C226.609 421.465 226.152 421.574 225.762 421.793C225.379 422.012 225.078 422.324 224.859 422.73C224.648 423.129 224.543 423.602 224.543 424.148C224.543 424.703 224.648 425.18 224.859 425.578C225.078 425.969 225.383 426.27 225.773 426.48C226.164 426.691 226.625 426.797 227.156 426.797C227.688 426.797 228.145 426.691 228.527 426.48C228.91 426.27 229.203 425.969 229.406 425.578C229.617 425.18 229.723 424.703 229.723 424.148ZM232.465 416.438C232.465 417.297 232.238 418.062 231.785 418.734C231.332 419.398 230.703 419.918 229.898 420.293C229.102 420.668 228.188 420.855 227.156 420.855C226.125 420.855 225.203 420.668 224.391 420.293C223.586 419.918 222.953 419.398 222.492 418.734C222.039 418.062 221.812 417.297 221.812 416.438C221.812 415.422 222.043 414.562 222.504 413.859C222.965 413.148 223.594 412.609 224.391 412.242C225.195 411.875 226.109 411.691 227.133 411.691C228.172 411.691 229.094 411.875 229.898 412.242C230.703 412.609 231.332 413.148 231.785 413.859C232.238 414.562 232.465 415.422 232.465 416.438ZM229.371 416.566C229.371 416.082 229.281 415.66 229.102 415.301C228.922 414.934 228.664 414.648 228.328 414.445C228 414.242 227.602 414.141 227.133 414.141C226.68 414.141 226.289 414.238 225.961 414.434C225.633 414.629 225.379 414.91 225.199 415.277C225.02 415.637 224.93 416.066 224.93 416.566C224.93 417.059 225.02 417.488 225.199 417.855C225.379 418.223 225.633 418.512 225.961 418.723C226.297 418.926 226.695 419.027 227.156 419.027C227.617 419.027 228.012 418.926 228.34 418.723C228.668 418.512 228.922 418.223 229.102 417.855C229.281 417.488 229.371 417.059 229.371 416.566Z" fill="#505459"/>
<path d="M261.195 516.098H262.941C263.559 516.098 264.066 515.992 264.465 515.781C264.871 515.562 265.172 515.266 265.367 514.891C265.57 514.508 265.672 514.066 265.672 513.566C265.672 513.074 265.582 512.648 265.402 512.289C265.223 511.922 264.949 511.641 264.582 511.445C264.223 511.242 263.762 511.141 263.199 511.141C262.746 511.141 262.328 511.23 261.945 511.41C261.57 511.59 261.27 511.848 261.043 512.184C260.824 512.512 260.715 512.906 260.715 513.367H257.609C257.609 512.445 257.852 511.637 258.336 510.941C258.828 510.238 259.492 509.688 260.328 509.289C261.164 508.891 262.098 508.691 263.129 508.691C264.254 508.691 265.238 508.879 266.082 509.254C266.934 509.621 267.594 510.164 268.062 510.883C268.539 511.602 268.777 512.492 268.777 513.555C268.777 514.062 268.656 514.57 268.414 515.078C268.18 515.578 267.832 516.031 267.371 516.438C266.918 516.836 266.359 517.16 265.695 517.41C265.039 517.652 264.285 517.773 263.434 517.773H261.195V516.098ZM261.195 518.488V516.836H263.434C264.395 516.836 265.227 516.949 265.93 517.176C266.641 517.395 267.227 517.707 267.688 518.113C268.148 518.512 268.488 518.977 268.707 519.508C268.934 520.039 269.047 520.609 269.047 521.219C269.047 522.016 268.898 522.727 268.602 523.352C268.305 523.969 267.887 524.492 267.348 524.922C266.816 525.352 266.191 525.68 265.473 525.906C264.754 526.125 263.977 526.234 263.141 526.234C262.414 526.234 261.707 526.137 261.02 525.941C260.34 525.738 259.727 525.438 259.18 525.039C258.633 524.633 258.199 524.125 257.879 523.516C257.559 522.898 257.398 522.184 257.398 521.371H260.504C260.504 521.84 260.617 522.258 260.844 522.625C261.078 522.992 261.398 523.281 261.805 523.492C262.219 523.695 262.684 523.797 263.199 523.797C263.77 523.797 264.258 523.695 264.664 523.492C265.078 523.281 265.395 522.984 265.613 522.602C265.832 522.211 265.941 521.746 265.941 521.207C265.941 520.566 265.82 520.047 265.578 519.648C265.336 519.25 264.988 518.957 264.535 518.77C264.09 518.582 263.559 518.488 262.941 518.488H261.195ZM283.074 523.562V526H271.52V523.914L277.062 517.926C277.641 517.27 278.098 516.699 278.434 516.215C278.77 515.73 279.008 515.293 279.148 514.902C279.297 514.504 279.371 514.125 279.371 513.766C279.371 513.242 279.277 512.785 279.09 512.395C278.902 511.996 278.629 511.688 278.27 511.469C277.918 511.25 277.484 511.141 276.969 511.141C276.398 511.141 275.91 511.273 275.504 511.539C275.105 511.797 274.801 512.156 274.59 512.617C274.387 513.078 274.285 513.605 274.285 514.199H271.18C271.18 513.191 271.414 512.273 271.883 511.445C272.352 510.609 273.023 509.941 273.898 509.441C274.773 508.941 275.812 508.691 277.016 508.691C278.188 508.691 279.18 508.887 279.992 509.277C280.805 509.66 281.422 510.207 281.844 510.918C282.266 511.629 282.477 512.477 282.477 513.461C282.477 514.008 282.387 514.547 282.207 515.078C282.027 515.609 281.773 516.137 281.445 516.66C281.125 517.176 280.742 517.699 280.297 518.23C279.852 518.762 279.355 519.305 278.809 519.859L275.48 523.562H283.074Z" fill="#505459"/>
<path d="M208.777 556.891V574H205.672V560.512L201.559 561.871V559.363L208.426 556.891H208.777ZM223.133 556.797H223.555V559.293H223.355C222.41 559.293 221.578 559.438 220.859 559.727C220.148 560.016 219.555 560.422 219.078 560.945C218.609 561.461 218.254 562.074 218.012 562.785C217.77 563.488 217.648 564.258 217.648 565.094V567.859C217.648 568.508 217.715 569.078 217.848 569.57C217.988 570.055 218.18 570.465 218.422 570.801C218.672 571.129 218.961 571.375 219.289 571.539C219.625 571.703 219.992 571.785 220.391 571.785C220.789 571.785 221.148 571.703 221.469 571.539C221.789 571.375 222.062 571.145 222.289 570.848C222.523 570.543 222.699 570.188 222.816 569.781C222.941 569.375 223.004 568.93 223.004 568.445C223.004 567.969 222.945 567.527 222.828 567.121C222.711 566.715 222.539 566.359 222.312 566.055C222.086 565.742 221.805 565.504 221.469 565.34C221.141 565.168 220.766 565.082 220.344 565.082C219.797 565.082 219.309 565.211 218.879 565.469C218.449 565.719 218.109 566.047 217.859 566.453C217.609 566.859 217.473 567.289 217.449 567.742L216.406 567.227C216.445 566.562 216.586 565.953 216.828 565.398C217.078 564.844 217.41 564.359 217.824 563.945C218.246 563.531 218.742 563.211 219.312 562.984C219.891 562.758 220.531 562.645 221.234 562.645C222.047 562.645 222.758 562.801 223.367 563.113C223.977 563.418 224.48 563.836 224.879 564.367C225.285 564.898 225.59 565.512 225.793 566.207C225.996 566.895 226.098 567.621 226.098 568.387C226.098 569.207 225.965 569.973 225.699 570.684C225.441 571.395 225.066 572.016 224.574 572.547C224.082 573.078 223.488 573.492 222.793 573.789C222.098 574.086 221.316 574.234 220.449 574.234C219.535 574.234 218.715 574.062 217.988 573.719C217.27 573.375 216.652 572.898 216.137 572.289C215.621 571.68 215.227 570.969 214.953 570.156C214.68 569.344 214.543 568.465 214.543 567.52V566.277C214.543 564.941 214.727 563.699 215.094 562.551C215.461 561.402 216.004 560.398 216.723 559.539C217.449 558.672 218.348 558 219.418 557.523C220.488 557.039 221.727 556.797 223.133 556.797Z" fill="#505459"/>
<path d="M247.363 620.562V623H235.809V620.914L241.352 614.926C241.93 614.27 242.387 613.699 242.723 613.215C243.059 612.73 243.297 612.293 243.438 611.902C243.586 611.504 243.66 611.125 243.66 610.766C243.66 610.242 243.566 609.785 243.379 609.395C243.191 608.996 242.918 608.688 242.559 608.469C242.207 608.25 241.773 608.141 241.258 608.141C240.688 608.141 240.199 608.273 239.793 608.539C239.395 608.797 239.09 609.156 238.879 609.617C238.676 610.078 238.574 610.605 238.574 611.199H235.469C235.469 610.191 235.703 609.273 236.172 608.445C236.641 607.609 237.312 606.941 238.188 606.441C239.062 605.941 240.102 605.691 241.305 605.691C242.477 605.691 243.469 605.887 244.281 606.277C245.094 606.66 245.711 607.207 246.133 607.918C246.555 608.629 246.766 609.477 246.766 610.461C246.766 611.008 246.676 611.547 246.496 612.078C246.316 612.609 246.062 613.137 245.734 613.66C245.414 614.176 245.031 614.699 244.586 615.23C244.141 615.762 243.645 616.305 243.098 616.859L239.77 620.562H247.363ZM258.133 605.797H258.555V608.293H258.355C257.41 608.293 256.578 608.438 255.859 608.727C255.148 609.016 254.555 609.422 254.078 609.945C253.609 610.461 253.254 611.074 253.012 611.785C252.77 612.488 252.648 613.258 252.648 614.094V616.859C252.648 617.508 252.715 618.078 252.848 618.57C252.988 619.055 253.18 619.465 253.422 619.801C253.672 620.129 253.961 620.375 254.289 620.539C254.625 620.703 254.992 620.785 255.391 620.785C255.789 620.785 256.148 620.703 256.469 620.539C256.789 620.375 257.062 620.145 257.289 619.848C257.523 619.543 257.699 619.188 257.816 618.781C257.941 618.375 258.004 617.93 258.004 617.445C258.004 616.969 257.945 616.527 257.828 616.121C257.711 615.715 257.539 615.359 257.312 615.055C257.086 614.742 256.805 614.504 256.469 614.34C256.141 614.168 255.766 614.082 255.344 614.082C254.797 614.082 254.309 614.211 253.879 614.469C253.449 614.719 253.109 615.047 252.859 615.453C252.609 615.859 252.473 616.289 252.449 616.742L251.406 616.227C251.445 615.562 251.586 614.953 251.828 614.398C252.078 613.844 252.41 613.359 252.824 612.945C253.246 612.531 253.742 612.211 254.312 611.984C254.891 611.758 255.531 611.645 256.234 611.645C257.047 611.645 257.758 611.801 258.367 612.113C258.977 612.418 259.48 612.836 259.879 613.367C260.285 613.898 260.59 614.512 260.793 615.207C260.996 615.895 261.098 616.621 261.098 617.387C261.098 618.207 260.965 618.973 260.699 619.684C260.441 620.395 260.066 621.016 259.574 621.547C259.082 622.078 258.488 622.492 257.793 622.789C257.098 623.086 256.316 623.234 255.449 623.234C254.535 623.234 253.715 623.062 252.988 622.719C252.27 622.375 251.652 621.898 251.137 621.289C250.621 620.68 250.227 619.969 249.953 619.156C249.68 618.344 249.543 617.465 249.543 616.52V615.277C249.543 613.941 249.727 612.699 250.094 611.551C250.461 610.402 251.004 609.398 251.723 608.539C252.449 607.672 253.348 607 254.418 606.523C255.488 606.039 256.727 605.797 258.133 605.797Z" fill="#505459"/>
<path d="M180.133 460.797H180.555V463.293H180.355C179.41 463.293 178.578 463.438 177.859 463.727C177.148 464.016 176.555 464.422 176.078 464.945C175.609 465.461 175.254 466.074 175.012 466.785C174.77 467.488 174.648 468.258 174.648 469.094V471.859C174.648 472.508 174.715 473.078 174.848 473.57C174.988 474.055 175.18 474.465 175.422 474.801C175.672 475.129 175.961 475.375 176.289 475.539C176.625 475.703 176.992 475.785 177.391 475.785C177.789 475.785 178.148 475.703 178.469 475.539C178.789 475.375 179.062 475.145 179.289 474.848C179.523 474.543 179.699 474.188 179.816 473.781C179.941 473.375 180.004 472.93 180.004 472.445C180.004 471.969 179.945 471.527 179.828 471.121C179.711 470.715 179.539 470.359 179.312 470.055C179.086 469.742 178.805 469.504 178.469 469.34C178.141 469.168 177.766 469.082 177.344 469.082C176.797 469.082 176.309 469.211 175.879 469.469C175.449 469.719 175.109 470.047 174.859 470.453C174.609 470.859 174.473 471.289 174.449 471.742L173.406 471.227C173.445 470.562 173.586 469.953 173.828 469.398C174.078 468.844 174.41 468.359 174.824 467.945C175.246 467.531 175.742 467.211 176.312 466.984C176.891 466.758 177.531 466.645 178.234 466.645C179.047 466.645 179.758 466.801 180.367 467.113C180.977 467.418 181.48 467.836 181.879 468.367C182.285 468.898 182.59 469.512 182.793 470.207C182.996 470.895 183.098 471.621 183.098 472.387C183.098 473.207 182.965 473.973 182.699 474.684C182.441 475.395 182.066 476.016 181.574 476.547C181.082 477.078 180.488 477.492 179.793 477.789C179.098 478.086 178.316 478.234 177.449 478.234C176.535 478.234 175.715 478.062 174.988 477.719C174.27 477.375 173.652 476.898 173.137 476.289C172.621 475.68 172.227 474.969 171.953 474.156C171.68 473.344 171.543 472.465 171.543 471.52V470.277C171.543 468.941 171.727 467.699 172.094 466.551C172.461 465.402 173.004 464.398 173.723 463.539C174.449 462.672 175.348 462 176.418 461.523C177.488 461.039 178.727 460.797 180.133 460.797Z" fill="#505459"/>
</svg>
