<svg width="809" height="744" viewBox="0 0 809 744" fill="none" xmlns="http://www.w3.org/2000/svg">
<rect x="89" y="68" width="5" height="611" rx="2.5" fill="#505459"/>
<rect x="809" y="675" width="5.00004" height="720" rx="2.50002" transform="rotate(90 809 675)" fill="#505459"/>
<path d="M176 206.628C176 205.494 177.054 204.575 178.355 204.575H203.308H228.262C229.562 204.575 230.617 205.494 230.617 206.628V372.929C230.617 374.063 229.562 374.982 228.262 374.982H178.355C177.054 374.982 176 374.063 176 372.929V206.628Z" fill="#505459" fill-opacity="0.5"/>
<path d="M199.953 147.106H206.664V206.115H199.953V147.106Z" fill="#505459"/>
<path d="M206.664 480.628H199.953V374.469H206.664V480.628Z" fill="#505459"/>
<path d="M193.065 141H213.551V147.106H203.308H193.065V141Z" fill="#505459"/>
<path d="M213.551 486.734H193.065L193.065 480.628H213.551V486.734Z" fill="#505459"/>
<path d="M176 312.133H203.308H230.617" stroke="#505459" stroke-width="2"/>
<path d="M176 304H203.308H230.617" stroke="#505459" stroke-width="2" stroke-dasharray="4 4"/>
<path d="M299 273.628C299 272.494 300.054 271.575 301.355 271.575H326.308H351.262C352.562 271.575 353.617 272.494 353.617 273.628V479.929C353.617 481.063 352.562 481.982 351.262 481.982H301.355C300.054 481.982 299 481.063 299 479.929V273.628Z" fill="#337AB7" fill-opacity="0.5"/>
<path d="M322.953 234.106H329.664V273.115H322.953V234.106Z" fill="#337AB7"/>
<path d="M329.664 577.628H322.953V481.469H329.664V577.628Z" fill="#337AB7"/>
<path d="M316.065 228H336.551V234.106H326.308H316.065V228Z" fill="#337AB7"/>
<path d="M336.551 583.734H316.065L316.065 577.628H336.551V583.734Z" fill="#337AB7"/>
<path d="M299 379.133H326.308H353.617" stroke="#337AB7" stroke-width="2"/>
<path d="M299 401H326.308H353.617" stroke="#337AB7" stroke-width="2" stroke-dasharray="4 4"/>
<path d="M422 345.628C422 344.494 423.054 343.575 424.355 343.575H449.308H474.262C475.562 343.575 476.617 344.494 476.617 345.628V491.929C476.617 493.063 475.562 493.982 474.262 493.982H424.355C423.054 493.982 422 493.063 422 491.929V345.628Z" fill="#337AB7" fill-opacity="0.5"/>
<path d="M445.953 246.106H452.664V345.115H445.953V246.106Z" fill="#337AB7"/>
<path d="M452.664 629.628H445.953V493.469H452.664V629.628Z" fill="#337AB7"/>
<path d="M439.065 240H459.551V246.106H449.308H439.065V240Z" fill="#337AB7"/>
<path d="M459.551 635.734H439.065L439.065 629.628H459.551V635.734Z" fill="#337AB7"/>
<path d="M422 441.133H449.308H476.617" stroke="#337AB7" stroke-width="2"/>
<path d="M422 413H449.308H476.617" stroke="#337AB7" stroke-width="2" stroke-dasharray="4 4"/>
<path d="M545 342.628C545 341.494 546.054 340.575 547.355 340.575H572.308H597.262C598.562 340.575 599.617 341.494 599.617 342.628V448.929C599.617 450.063 598.562 450.982 597.262 450.982H547.355C546.054 450.982 545 450.063 545 448.929V342.628Z" fill="#505459" fill-opacity="0.5"/>
<path d="M568.953 223.106H575.664V342.115H568.953V223.106Z" fill="#505459"/>
<path d="M575.664 526.628H568.953V450.469H575.664V526.628Z" fill="#505459"/>
<path d="M562.065 217H582.551V223.106H572.308H562.065V217Z" fill="#505459"/>
<path d="M582.551 532.734H562.065L562.065 526.628H582.551V532.734Z" fill="#505459"/>
<path d="M545 373.133H572.308H599.617" stroke="#505459" stroke-width="2"/>
<path d="M545 386H572.308H599.617" stroke="#505459" stroke-width="2" stroke-dasharray="4 4"/>
<path d="M668 276.628C668 275.494 669.054 274.575 670.355 274.575H695.308H720.262C721.562 274.575 722.617 275.494 722.617 276.628V462.929C722.617 464.063 721.562 464.982 720.262 464.982H670.355C669.054 464.982 668 464.063 668 462.929V276.628Z" fill="#505459" fill-opacity="0.5"/>
<path d="M691.953 167.106H698.664V276.115H691.953V167.106Z" fill="#505459"/>
<path d="M698.664 590.628H691.953V464.469H698.664V590.628Z" fill="#505459"/>
<path d="M685.065 161H705.551V167.106H695.308H685.065V161Z" fill="#505459"/>
<path d="M705.551 596.734H685.065L685.065 590.628H705.551V596.734Z" fill="#505459"/>
<path d="M668 387.133H695.308H722.617" stroke="#505459" stroke-width="2"/>
<path d="M668 379H695.308H722.617" stroke="#505459" stroke-width="2" stroke-dasharray="4 4"/>
<path d="M31 467.328L55 467.328L55 471.469L31 471.469L31 467.328ZM46.7187 464.125L46.3906 464.125C45.151 464.125 44.0104 463.948 42.9687 463.594C41.9167 463.24 41.0052 462.724 40.2344 462.047C39.4635 461.37 38.8646 460.542 38.4375 459.562C38 458.583 37.7812 457.469 37.7812 456.219C37.7812 454.948 38 453.823 38.4375 452.844C38.8646 451.854 39.4635 451.021 40.2344 450.344C41.0052 449.667 41.9167 449.151 42.9687 448.797C44.0104 448.443 45.151 448.266 46.3906 448.266L46.7187 448.266C47.9479 448.266 49.0885 448.443 50.1406 448.797C51.1823 449.151 52.0937 449.667 52.875 450.344C53.6458 451.021 54.2448 451.849 54.6719 452.828C55.099 453.807 55.3125 454.927 55.3125 456.187C55.3125 457.437 55.099 458.557 54.6719 459.547C54.2448 460.536 53.6458 461.37 52.875 462.047C52.0937 462.724 51.1823 463.24 50.1406 463.594C49.0885 463.948 47.9479 464.125 46.7187 464.125ZM46.3906 460L46.7187 460C47.4583 460 48.151 459.927 48.7969 459.781C49.4427 459.635 50.0104 459.411 50.5 459.109C50.9896 458.807 51.375 458.417 51.6562 457.937C51.9271 457.448 52.0625 456.865 52.0625 456.187C52.0625 455.521 51.9271 454.948 51.6562 454.469C51.375 453.99 50.9896 453.599 50.5 453.297C50.0104 452.984 49.4427 452.755 48.7969 452.609C48.151 452.464 47.4583 452.391 46.7187 452.391L46.3906 452.391C45.6615 452.391 44.9792 452.464 44.3437 452.609C43.6979 452.755 43.1302 452.984 42.6406 453.297C42.1406 453.599 41.75 453.995 41.4687 454.484C41.1771 454.964 41.0312 455.542 41.0312 456.219C41.0312 456.885 41.1771 457.458 41.4687 457.937C41.75 458.417 42.1406 458.807 42.6406 459.109C43.1302 459.411 43.6979 459.635 44.3437 459.781C44.9792 459.927 45.6615 460 46.3906 460ZM38.0937 434.516L38.0937 430.766L54.4844 430.766C56.0156 430.766 57.3125 431.099 58.375 431.766C59.4479 432.422 60.2604 433.344 60.8125 434.531C61.375 435.719 61.6562 437.099 61.6562 438.672C61.6562 439.349 61.5625 440.083 61.375 440.875C61.1875 441.656 60.8906 442.411 60.4844 443.141C60.0885 443.859 59.5729 444.458 58.9375 444.937L56.5 443.078C57.1562 442.516 57.651 441.88 57.9844 441.172C58.3281 440.464 58.5 439.698 58.5 438.875C58.5 438.042 58.3437 437.333 58.0312 436.75C57.7292 436.156 57.2812 435.703 56.6875 435.391C56.1042 435.068 55.3854 434.906 54.5312 434.906L41.9531 434.906L38.0937 434.516ZM46.75 445.937L46.4219 445.937C45.1302 445.937 43.9583 445.781 42.9062 445.469C41.8437 445.156 40.9323 444.708 40.1719 444.125C39.4115 443.531 38.8229 442.818 38.4062 441.984C37.9896 441.141 37.7812 440.193 37.7812 439.141C37.7812 438.026 37.9844 437.089 38.3906 436.328C38.7969 435.557 39.375 434.922 40.125 434.422C40.875 433.911 41.7656 433.516 42.7969 433.234C43.8177 432.943 44.9427 432.719 46.1719 432.562L47.0625 432.562C48.2604 432.708 49.3594 432.943 50.3594 433.266C51.3594 433.578 52.2344 433.995 52.9844 434.516C53.724 435.036 54.2969 435.682 54.7031 436.453C55.1094 437.224 55.3125 438.13 55.3125 439.172C55.3125 440.214 55.099 441.151 54.6719 441.984C54.2448 442.818 53.6458 443.531 52.875 444.125C52.1042 444.708 51.1979 445.156 50.1562 445.469C49.1146 445.781 47.9792 445.937 46.75 445.937ZM46.4219 441.812L46.75 441.812C47.4792 441.812 48.1615 441.74 48.7969 441.594C49.4323 441.448 49.9948 441.224 50.4844 440.922C50.9635 440.62 51.3385 440.24 51.6094 439.781C51.8802 439.323 52.0156 438.776 52.0156 438.141C52.0156 437.286 51.8385 436.589 51.4844 436.047C51.1198 435.495 50.625 435.078 50 434.797C49.3646 434.505 48.651 434.318 47.8594 434.234L45.4062 434.234C44.7812 434.286 44.2031 434.401 43.6719 434.578C43.1406 434.745 42.6823 434.979 42.2969 435.281C41.9115 435.583 41.6094 435.969 41.3906 436.437C41.1719 436.906 41.0625 437.464 41.0625 438.109C41.0625 438.734 41.2031 439.281 41.4844 439.75C41.7552 440.219 42.1354 440.604 42.625 440.906C43.1146 441.208 43.6823 441.437 44.3281 441.594C44.974 441.74 45.6719 441.812 46.4219 441.812ZM51.75 411.859L55 411.859L55 427.266L52.2187 427.266L44.2344 419.875C43.3594 419.104 42.599 418.495 41.9531 418.047C41.3073 417.599 40.724 417.281 40.2031 417.094C39.6719 416.896 39.1667 416.797 38.6875 416.797C37.9896 416.797 37.3802 416.922 36.8594 417.172C36.3281 417.422 35.9167 417.786 35.625 418.266C35.3333 418.734 35.1875 419.312 35.1875 420C35.1875 420.76 35.3646 421.411 35.7187 421.953C36.0625 422.484 36.5417 422.891 37.1562 423.172C37.7708 423.443 38.474 423.578 39.2656 423.578L39.2656 427.719C37.9219 427.719 36.6979 427.406 35.5937 426.781C34.4792 426.156 33.5885 425.26 32.9219 424.094C32.2552 422.927 31.9219 421.542 31.9219 419.937C31.9219 418.375 32.1823 417.052 32.7031 415.969C33.2135 414.885 33.9427 414.062 34.8906 413.5C35.8385 412.937 36.9687 412.656 38.2812 412.656C39.0104 412.656 39.7292 412.776 40.4375 413.016C41.1458 413.255 41.849 413.594 42.5469 414.031C43.2344 414.458 43.9323 414.969 44.6406 415.562C45.349 416.156 46.0729 416.818 46.8125 417.547L51.75 421.984L51.75 411.859ZM46.0469 408.641L45.75 408.641C43.5417 408.641 41.5365 408.406 39.7344 407.937C37.9219 407.458 36.3333 406.833 34.9687 406.062C33.6042 405.292 32.474 404.458 31.5781 403.562C30.6719 402.656 30.0208 401.776 29.625 400.922L31.8906 400.109C32.3385 400.703 32.9531 401.297 33.7344 401.891C34.5052 402.474 35.4583 403.005 36.5937 403.484C37.7292 403.964 39.0521 404.349 40.5625 404.641C42.0729 404.922 43.7917 405.062 45.7187 405.062L46.0781 405.062C48.0052 405.062 49.7292 404.922 51.25 404.641C52.7604 404.349 54.0833 403.964 55.2187 403.484C56.3542 403.005 57.3177 402.474 58.1094 401.891C58.901 401.297 59.526 400.703 59.9844 400.109L62.1875 400.922C61.7812 401.776 61.1302 402.656 60.2344 403.562C59.3385 404.458 58.2083 405.292 56.8437 406.062C55.4792 406.833 53.8958 407.458 52.0937 407.937C50.2812 408.406 48.2656 408.641 46.0469 408.641ZM32.25 387.562L55 387.562L55 391.844L32.25 391.844L32.25 387.562ZM32.25 380.5L35.6406 380.5L35.6406 398.828L32.25 398.828L32.25 380.5ZM46.7031 368.891L46.7031 374.75L43.3281 374.75L43.3281 368.891C43.3281 367.932 43.1719 367.156 42.8594 366.562C42.5365 365.958 42.099 365.516 41.5469 365.234C40.9844 364.953 40.3437 364.812 39.625 364.812C38.9271 364.812 38.276 364.953 37.6719 365.234C37.0677 365.516 36.5781 365.958 36.2031 366.562C35.8281 367.156 35.6406 367.932 35.6406 368.891L35.6406 373.344L55 373.344L55 377.641L32.25 377.641L32.25 368.891C32.25 367.12 32.5677 365.609 33.2031 364.359C33.8281 363.099 34.6979 362.141 35.8125 361.484C36.9167 360.818 38.1771 360.484 39.5937 360.484C41.0625 360.484 42.3281 360.818 43.3906 361.484C44.4531 362.141 45.2708 363.099 45.8437 364.359C46.4167 365.609 46.7031 367.12 46.7031 368.891ZM32.25 355.234L32.25 351.516L49.375 345.297L32.25 339.094L32.25 335.359L55 343.812L55 346.797L32.25 355.234ZM32.25 357.109L32.25 353.469L47.9844 352.812L55 352.812L55 357.109L32.25 357.109ZM32.25 337.141L32.25 333.484L55 333.484L55 337.781L47.9844 337.781L32.25 337.141ZM42.4219 314.734L46.0937 314.734L46.0937 330.328L42.4219 330.328L42.4219 314.734ZM36.1562 320.547L52.7187 320.547L52.7187 324.5L36.1562 324.5L36.1562 320.547ZM32.1875 301.422L55 301.422L55 305.562L37.0156 305.562L38.8281 311.047L35.4844 311.047L32.1875 301.891L32.1875 301.422ZM45.75 286.062L46.0469 286.062C48.2135 286.062 50.1979 286.307 52 286.797C53.8021 287.276 55.3906 287.911 56.7656 288.703C58.1406 289.484 59.2865 290.339 60.2031 291.266C61.1198 292.182 61.7812 293.083 62.1875 293.969L59.9844 294.781C59.5365 294.187 58.9219 293.599 58.1406 293.016C57.3594 292.432 56.3958 291.901 55.25 291.422C54.1042 290.932 52.7708 290.547 51.25 290.266C49.7292 289.974 48.0052 289.828 46.0781 289.828L45.7187 289.828C43.7917 289.828 42.0677 289.979 40.5469 290.281C39.026 290.573 37.6979 290.964 36.5625 291.453C35.4167 291.943 34.4531 292.479 33.6719 293.062C32.8802 293.646 32.2656 294.219 31.8281 294.781L29.625 293.969C30.0208 293.083 30.6823 292.182 31.6094 291.266C32.526 290.339 33.6771 289.484 35.0625 288.703C36.4375 287.911 38.026 287.276 39.8281 286.797C41.6198 286.307 43.5937 286.062 45.75 286.062ZM52.9844 282.234C52.3594 282.234 51.8333 282.021 51.4062 281.594C50.9792 281.167 50.7656 280.589 50.7656 279.859C50.7656 279.13 50.9792 278.552 51.4062 278.125C51.8333 277.698 52.3594 277.484 52.9844 277.484C53.5989 277.484 54.1198 277.698 54.5469 278.125C54.9635 278.552 55.1719 279.13 55.1719 279.859C55.1719 280.589 54.9635 281.167 54.5469 281.594C54.1198 282.021 53.5989 282.234 52.9844 282.234ZM39.875 282.219C39.25 282.219 38.7239 282.005 38.2969 281.578C37.8698 281.151 37.6562 280.573 37.6562 279.844C37.6562 279.115 37.8698 278.536 38.2969 278.109C38.7239 277.682 39.25 277.469 39.875 277.469C40.4896 277.469 41.0104 277.682 41.4375 278.109C41.8542 278.536 42.0625 279.115 42.0625 279.844C42.0625 280.573 41.8542 281.151 41.4375 281.578C41.0104 282.005 40.4896 282.219 39.875 282.219ZM50.6406 259.734L32.25 255.203L32.25 252.75L36.125 252.594L55 257.437L55 260.031L50.6406 259.734ZM32.25 262.594L50.5781 258.875L55 258.875L55 261.703L32.25 266.859L32.25 262.594ZM50.5 247.891L32.25 244.234L32.25 239.953L55 245.109L55 247.937L50.5 247.891ZM32.25 251.578L50.7031 247.047L55 246.781L55 249.375L36.1094 254.203L32.25 254.016L32.25 251.578ZM51.625 222.156L55 222.156L55 234.25L51.625 234.25L51.625 222.156ZM32.25 232.937L55 232.937L55 237.234L32.25 237.234L32.25 232.937ZM41.6406 223.734L44.9375 223.734L44.9375 234.25L41.6406 234.25L41.6406 223.734ZM32.25 222.203L35.6406 222.203L35.6406 234.25L32.25 234.25L32.25 222.203ZM51.625 204.094L55 204.094L55 216.187L51.625 216.187L51.625 204.094ZM32.25 214.875L55 214.875L55 219.172L32.25 219.172L32.25 214.875ZM41.6406 205.672L44.9375 205.672L44.9375 216.187L41.6406 216.187L41.6406 205.672ZM32.25 204.141L35.6406 204.141L35.6406 216.187L32.25 216.187L32.25 204.141ZM32.1875 191.016L55 191.016L55 195.156L37.0156 195.156L38.8281 200.641L35.4844 200.641L32.1875 191.484L32.1875 191.016Z" fill="#505459"/>
<path d="M185.422 732.625V736H173.984V732.625H185.422ZM175.281 713.25V736H170.984V713.25H175.281ZM192.359 719.094V736H188.219V719.094H192.359ZM187.938 714.672C187.938 714.057 188.146 713.547 188.562 713.141C188.99 712.734 189.562 712.531 190.281 712.531C191 712.531 191.568 712.734 191.984 713.141C192.411 713.547 192.625 714.057 192.625 714.672C192.625 715.276 192.411 715.781 191.984 716.188C191.568 716.594 191 716.797 190.281 716.797C189.562 716.797 188.99 716.594 188.562 716.188C188.146 715.781 187.938 715.276 187.938 714.672ZM201.906 732.875L205.844 719.094H210.156L204.359 736H201.734L201.906 732.875ZM199.031 719.094L203.016 732.906L203.156 736H200.516L194.703 719.094H199.031ZM219.703 736.312C218.422 736.312 217.271 736.104 216.25 735.688C215.229 735.271 214.359 734.693 213.641 733.953C212.932 733.203 212.385 732.333 212 731.344C211.625 730.344 211.438 729.271 211.438 728.125V727.5C211.438 726.198 211.625 725.016 212 723.953C212.375 722.88 212.906 721.958 213.594 721.188C214.281 720.417 215.104 719.823 216.062 719.406C217.021 718.99 218.078 718.781 219.234 718.781C220.432 718.781 221.49 718.984 222.406 719.391C223.323 719.786 224.089 720.349 224.703 721.078C225.318 721.807 225.781 722.682 226.094 723.703C226.406 724.714 226.562 725.833 226.562 727.062V728.797H213.312V725.953H222.5V725.641C222.479 724.984 222.354 724.385 222.125 723.844C221.896 723.292 221.542 722.854 221.062 722.531C220.583 722.198 219.964 722.031 219.203 722.031C218.589 722.031 218.052 722.167 217.594 722.438C217.146 722.698 216.771 723.073 216.469 723.562C216.177 724.042 215.958 724.615 215.812 725.281C215.667 725.948 215.594 726.688 215.594 727.5V728.125C215.594 728.833 215.688 729.49 215.875 730.094C216.073 730.698 216.359 731.224 216.734 731.672C217.12 732.109 217.578 732.453 218.109 732.703C218.651 732.943 219.266 733.062 219.953 733.062C220.818 733.062 221.599 732.896 222.297 732.562C223.005 732.219 223.62 731.714 224.141 731.047L226.219 733.203C225.865 733.724 225.385 734.224 224.781 734.703C224.188 735.182 223.469 735.573 222.625 735.875C221.781 736.167 220.807 736.312 219.703 736.312ZM233.453 722.547V736H229.328V719.094H233.234L233.453 722.547ZM238.594 718.984L238.531 722.828C238.302 722.786 238.042 722.755 237.75 722.734C237.469 722.714 237.203 722.703 236.953 722.703C236.318 722.703 235.76 722.792 235.281 722.969C234.802 723.135 234.401 723.38 234.078 723.703C233.766 724.026 233.526 724.422 233.359 724.891C233.193 725.349 233.099 725.87 233.078 726.453L232.188 726.344C232.188 725.271 232.297 724.276 232.516 723.359C232.734 722.443 233.052 721.641 233.469 720.953C233.885 720.266 234.406 719.734 235.031 719.359C235.667 718.974 236.396 718.781 237.219 718.781C237.448 718.781 237.693 718.802 237.953 718.844C238.224 718.875 238.438 718.922 238.594 718.984Z" fill="#505459"/>
<path d="M284.062 713.25V736H279.766V713.25H284.062ZM297.719 713.25L288.594 724.344L283.375 729.922L282.609 725.75L286.234 721.047L292.453 713.25H297.719ZM292.938 736L285.859 725.344L288.938 722.562L298.047 736H292.938ZM304.109 719.094V736H299.969V719.094H304.109ZM299.688 714.672C299.688 714.057 299.896 713.547 300.312 713.141C300.74 712.734 301.312 712.531 302.031 712.531C302.75 712.531 303.318 712.734 303.734 713.141C304.161 713.547 304.375 714.057 304.375 714.672C304.375 715.276 304.161 715.781 303.734 716.188C303.318 716.594 302.75 716.797 302.031 716.797C301.312 716.797 300.74 716.594 300.312 716.188C299.896 715.781 299.688 715.276 299.688 714.672ZM318.188 732.406V712H322.344V736H318.594L318.188 732.406ZM307.328 727.75V727.422C307.328 726.13 307.474 724.958 307.766 723.906C308.068 722.844 308.505 721.932 309.078 721.172C309.651 720.411 310.344 719.823 311.156 719.406C311.979 718.99 312.911 718.781 313.953 718.781C314.964 718.781 315.844 718.984 316.594 719.391C317.354 719.797 318 720.375 318.531 721.125C319.073 721.875 319.505 722.766 319.828 723.797C320.151 724.818 320.385 725.943 320.531 727.172V728.062C320.385 729.26 320.151 730.359 319.828 731.359C319.505 732.359 319.073 733.234 318.531 733.984C318 734.724 317.354 735.297 316.594 735.703C315.833 736.109 314.943 736.312 313.922 736.312C312.891 736.312 311.964 736.099 311.141 735.672C310.328 735.245 309.635 734.646 309.062 733.875C308.5 733.104 308.068 732.198 307.766 731.156C307.474 730.115 307.328 728.979 307.328 727.75ZM311.469 727.422V727.75C311.469 728.479 311.531 729.161 311.656 729.797C311.781 730.432 311.984 730.995 312.266 731.484C312.547 731.964 312.906 732.339 313.344 732.609C313.792 732.88 314.333 733.016 314.969 733.016C315.781 733.016 316.448 732.839 316.969 732.484C317.5 732.12 317.911 731.625 318.203 731C318.495 730.365 318.682 729.651 318.766 728.859V726.406C318.724 725.781 318.615 725.203 318.438 724.672C318.271 724.141 318.031 723.682 317.719 723.297C317.417 722.911 317.042 722.609 316.594 722.391C316.146 722.172 315.615 722.062 315 722.062C314.365 722.062 313.823 722.203 313.375 722.484C312.927 722.755 312.562 723.135 312.281 723.625C312 724.115 311.792 724.682 311.656 725.328C311.531 725.974 311.469 726.672 311.469 727.422ZM330.125 722.703V736H326V719.094H329.875L330.125 722.703ZM329.469 726.938H328.25C328.26 725.708 328.427 724.594 328.75 723.594C329.073 722.594 329.526 721.734 330.109 721.016C330.703 720.297 331.406 719.745 332.219 719.359C333.031 718.974 333.938 718.781 334.938 718.781C335.75 718.781 336.484 718.896 337.141 719.125C337.797 719.354 338.359 719.719 338.828 720.219C339.307 720.719 339.672 721.375 339.922 722.188C340.182 722.99 340.312 723.979 340.312 725.156V736H336.156V725.125C336.156 724.354 336.042 723.745 335.812 723.297C335.594 722.849 335.271 722.531 334.844 722.344C334.427 722.156 333.911 722.062 333.297 722.062C332.661 722.062 332.104 722.193 331.625 722.453C331.156 722.703 330.76 723.052 330.438 723.5C330.125 723.948 329.885 724.464 329.719 725.047C329.552 725.63 329.469 726.26 329.469 726.938ZM351.547 736.312C350.266 736.312 349.115 736.104 348.094 735.688C347.073 735.271 346.203 734.693 345.484 733.953C344.776 733.203 344.229 732.333 343.844 731.344C343.469 730.344 343.281 729.271 343.281 728.125V727.5C343.281 726.198 343.469 725.016 343.844 723.953C344.219 722.88 344.75 721.958 345.438 721.188C346.125 720.417 346.948 719.823 347.906 719.406C348.865 718.99 349.922 718.781 351.078 718.781C352.276 718.781 353.333 718.984 354.25 719.391C355.167 719.786 355.932 720.349 356.547 721.078C357.161 721.807 357.625 722.682 357.938 723.703C358.25 724.714 358.406 725.833 358.406 727.062V728.797H345.156V725.953H354.344V725.641C354.323 724.984 354.198 724.385 353.969 723.844C353.74 723.292 353.385 722.854 352.906 722.531C352.427 722.198 351.807 722.031 351.047 722.031C350.432 722.031 349.896 722.167 349.438 722.438C348.99 722.698 348.615 723.073 348.312 723.562C348.021 724.042 347.802 724.615 347.656 725.281C347.51 725.948 347.438 726.688 347.438 727.5V728.125C347.438 728.833 347.531 729.49 347.719 730.094C347.917 730.698 348.203 731.224 348.578 731.672C348.964 732.109 349.422 732.453 349.953 732.703C350.495 732.943 351.109 733.062 351.797 733.062C352.661 733.062 353.443 732.896 354.141 732.562C354.849 732.219 355.464 731.714 355.984 731.047L358.062 733.203C357.708 733.724 357.229 734.224 356.625 734.703C356.031 735.182 355.312 735.573 354.469 735.875C353.625 736.167 352.651 736.312 351.547 736.312ZM365.906 734.125L370.438 719.094H374.859L368.078 738.562C367.922 738.979 367.719 739.432 367.469 739.922C367.229 740.411 366.906 740.875 366.5 741.312C366.094 741.76 365.583 742.125 364.969 742.406C364.365 742.688 363.63 742.828 362.766 742.828C362.391 742.828 362.057 742.802 361.766 742.75C361.474 742.698 361.167 742.63 360.844 742.547V739.453C360.948 739.464 361.068 739.469 361.203 739.469C361.349 739.479 361.474 739.484 361.578 739.484C362.182 739.484 362.682 739.411 363.078 739.266C363.474 739.13 363.792 738.906 364.031 738.594C364.281 738.292 364.49 737.896 364.656 737.406L365.906 734.125ZM363.672 719.094L367.5 731.547L368.172 735.906L365.328 736.422L359.219 719.094H363.672Z" fill="#505459"/>
<path d="M423.359 725.859H417.547L417.516 722.828H422.5C423.354 722.828 424.068 722.708 424.641 722.469C425.214 722.229 425.646 721.88 425.938 721.422C426.24 720.964 426.391 720.406 426.391 719.75C426.391 719.021 426.25 718.427 425.969 717.969C425.698 717.51 425.271 717.177 424.688 716.969C424.104 716.75 423.365 716.641 422.469 716.641H418.938V736H414.641V713.25H422.469C423.76 713.25 424.911 713.375 425.922 713.625C426.943 713.865 427.807 714.24 428.516 714.75C429.224 715.26 429.76 715.901 430.125 716.672C430.5 717.443 430.688 718.359 430.688 719.422C430.688 720.359 430.469 721.224 430.031 722.016C429.604 722.797 428.943 723.432 428.047 723.922C427.161 724.411 426.036 724.693 424.672 724.766L423.359 725.859ZM423.172 736H416.281L418.078 732.625H423.172C424.026 732.625 424.729 732.484 425.281 732.203C425.844 731.922 426.26 731.536 426.531 731.047C426.812 730.547 426.953 729.974 426.953 729.328C426.953 728.62 426.828 728.005 426.578 727.484C426.339 726.964 425.953 726.562 425.422 726.281C424.901 726 424.214 725.859 423.359 725.859H418.891L418.922 722.828H424.609L425.594 724C426.906 724.01 427.974 724.271 428.797 724.781C429.63 725.292 430.245 725.948 430.641 726.75C431.036 727.552 431.234 728.417 431.234 729.344C431.234 730.802 430.917 732.026 430.281 733.016C429.656 734.005 428.74 734.75 427.531 735.25C426.333 735.75 424.88 736 423.172 736ZM433.906 727.719V727.391C433.906 726.151 434.083 725.01 434.438 723.969C434.792 722.917 435.307 722.005 435.984 721.234C436.661 720.464 437.49 719.865 438.469 719.438C439.448 719 440.562 718.781 441.812 718.781C443.083 718.781 444.208 719 445.188 719.438C446.177 719.865 447.01 720.464 447.688 721.234C448.365 722.005 448.88 722.917 449.234 723.969C449.589 725.01 449.766 726.151 449.766 727.391V727.719C449.766 728.948 449.589 730.089 449.234 731.141C448.88 732.182 448.365 733.094 447.688 733.875C447.01 734.646 446.182 735.245 445.203 735.672C444.224 736.099 443.104 736.312 441.844 736.312C440.594 736.312 439.474 736.099 438.484 735.672C437.495 735.245 436.661 734.646 435.984 733.875C435.307 733.094 434.792 732.182 434.438 731.141C434.083 730.089 433.906 728.948 433.906 727.719ZM438.031 727.391V727.719C438.031 728.458 438.104 729.151 438.25 729.797C438.396 730.443 438.62 731.01 438.922 731.5C439.224 731.99 439.615 732.375 440.094 732.656C440.583 732.927 441.167 733.062 441.844 733.062C442.51 733.062 443.083 732.927 443.562 732.656C444.042 732.375 444.432 731.99 444.734 731.5C445.047 731.01 445.276 730.443 445.422 729.797C445.568 729.151 445.641 728.458 445.641 727.719V727.391C445.641 726.661 445.568 725.979 445.422 725.344C445.276 724.698 445.047 724.13 444.734 723.641C444.432 723.141 444.036 722.75 443.547 722.469C443.068 722.177 442.49 722.031 441.812 722.031C441.146 722.031 440.573 722.177 440.094 722.469C439.615 722.75 439.224 723.141 438.922 723.641C438.62 724.13 438.396 724.698 438.25 725.344C438.104 725.979 438.031 726.661 438.031 727.391ZM456.812 722.703V736H452.688V719.094H456.562L456.812 722.703ZM456.156 726.938H454.938C454.948 725.708 455.115 724.594 455.438 723.594C455.76 722.594 456.214 721.734 456.797 721.016C457.391 720.297 458.094 719.745 458.906 719.359C459.719 718.974 460.625 718.781 461.625 718.781C462.438 718.781 463.172 718.896 463.828 719.125C464.484 719.354 465.047 719.719 465.516 720.219C465.995 720.719 466.359 721.375 466.609 722.188C466.87 722.99 467 723.979 467 725.156V736H462.844V725.125C462.844 724.354 462.729 723.745 462.5 723.297C462.281 722.849 461.958 722.531 461.531 722.344C461.115 722.156 460.599 722.062 459.984 722.062C459.349 722.062 458.792 722.193 458.312 722.453C457.844 722.703 457.448 723.052 457.125 723.5C456.812 723.948 456.573 724.464 456.406 725.047C456.24 725.63 456.156 726.26 456.156 726.938ZM478.234 736.312C476.953 736.312 475.802 736.104 474.781 735.688C473.76 735.271 472.891 734.693 472.172 733.953C471.464 733.203 470.917 732.333 470.531 731.344C470.156 730.344 469.969 729.271 469.969 728.125V727.5C469.969 726.198 470.156 725.016 470.531 723.953C470.906 722.88 471.438 721.958 472.125 721.188C472.812 720.417 473.635 719.823 474.594 719.406C475.552 718.99 476.609 718.781 477.766 718.781C478.964 718.781 480.021 718.984 480.938 719.391C481.854 719.786 482.62 720.349 483.234 721.078C483.849 721.807 484.312 722.682 484.625 723.703C484.938 724.714 485.094 725.833 485.094 727.062V728.797H471.844V725.953H481.031V725.641C481.01 724.984 480.885 724.385 480.656 723.844C480.427 723.292 480.073 722.854 479.594 722.531C479.115 722.198 478.495 722.031 477.734 722.031C477.12 722.031 476.583 722.167 476.125 722.438C475.677 722.698 475.302 723.073 475 723.562C474.708 724.042 474.49 724.615 474.344 725.281C474.198 725.948 474.125 726.688 474.125 727.5V728.125C474.125 728.833 474.219 729.49 474.406 730.094C474.604 730.698 474.891 731.224 475.266 731.672C475.651 732.109 476.109 732.453 476.641 732.703C477.182 732.943 477.797 733.062 478.484 733.062C479.349 733.062 480.13 732.896 480.828 732.562C481.536 732.219 482.151 731.714 482.672 731.047L484.75 733.203C484.396 733.724 483.917 734.224 483.312 734.703C482.719 735.182 482 735.573 481.156 735.875C480.312 736.167 479.339 736.312 478.234 736.312Z" fill="#505459"/>
<path d="M555.453 730.094C555.453 729.656 555.385 729.266 555.25 728.922C555.125 728.568 554.891 728.25 554.547 727.969C554.214 727.677 553.74 727.396 553.125 727.125C552.521 726.844 551.74 726.552 550.781 726.25C549.719 725.917 548.729 725.542 547.812 725.125C546.896 724.708 546.089 724.224 545.391 723.672C544.703 723.12 544.167 722.484 543.781 721.766C543.396 721.036 543.203 720.193 543.203 719.234C543.203 718.297 543.401 717.443 543.797 716.672C544.203 715.901 544.776 715.24 545.516 714.688C546.255 714.125 547.125 713.693 548.125 713.391C549.135 713.089 550.25 712.938 551.469 712.938C553.156 712.938 554.615 713.245 555.844 713.859C557.083 714.474 558.042 715.307 558.719 716.359C559.396 717.411 559.734 718.594 559.734 719.906H555.453C555.453 719.198 555.302 718.573 555 718.031C554.708 717.49 554.26 717.062 553.656 716.75C553.062 716.438 552.312 716.281 551.406 716.281C550.531 716.281 549.802 716.411 549.219 716.672C548.646 716.932 548.214 717.286 547.922 717.734C547.641 718.182 547.5 718.682 547.5 719.234C547.5 719.651 547.599 720.026 547.797 720.359C547.995 720.682 548.292 720.99 548.688 721.281C549.083 721.562 549.573 721.828 550.156 722.078C550.75 722.318 551.438 722.557 552.219 722.797C553.469 723.172 554.562 723.589 555.5 724.047C556.448 724.505 557.234 725.026 557.859 725.609C558.495 726.193 558.969 726.849 559.281 727.578C559.604 728.307 559.766 729.135 559.766 730.062C559.766 731.042 559.573 731.917 559.188 732.688C558.802 733.458 558.25 734.115 557.531 734.656C556.812 735.198 555.948 735.609 554.938 735.891C553.938 736.172 552.818 736.312 551.578 736.312C550.474 736.312 549.38 736.167 548.297 735.875C547.224 735.573 546.25 735.125 545.375 734.531C544.5 733.927 543.802 733.167 543.281 732.25C542.76 731.323 542.5 730.24 542.5 729H546.812C546.812 729.719 546.927 730.333 547.156 730.844C547.396 731.344 547.729 731.755 548.156 732.078C548.594 732.391 549.104 732.62 549.688 732.766C550.271 732.911 550.901 732.984 551.578 732.984C552.453 732.984 553.172 732.865 553.734 732.625C554.307 732.375 554.734 732.031 555.016 731.594C555.307 731.156 555.453 730.656 555.453 730.094ZM566.891 711.984V736H562.766V711.984H566.891ZM577.484 719.094L570.125 727.359L566.141 731.406L564.828 728.203L567.906 724.328L572.5 719.094H577.484ZM573.266 736L568.031 728.125L570.781 725.453L578.047 736H573.266ZM584.047 719.094V736H579.906V719.094H584.047ZM579.625 714.672C579.625 714.057 579.833 713.547 580.25 713.141C580.677 712.734 581.25 712.531 581.969 712.531C582.688 712.531 583.255 712.734 583.672 713.141C584.099 713.547 584.312 714.057 584.312 714.672C584.312 715.276 584.099 715.781 583.672 716.188C583.255 716.594 582.688 716.797 581.969 716.797C581.25 716.797 580.677 716.594 580.25 716.188C579.833 715.781 579.625 715.276 579.625 714.672ZM592.031 722.703V736H587.906V719.094H591.781L592.031 722.703ZM591.375 726.938H590.156C590.167 725.708 590.333 724.594 590.656 723.594C590.979 722.594 591.432 721.734 592.016 721.016C592.609 720.297 593.312 719.745 594.125 719.359C594.938 718.974 595.844 718.781 596.844 718.781C597.656 718.781 598.391 718.896 599.047 719.125C599.703 719.354 600.266 719.719 600.734 720.219C601.214 720.719 601.578 721.375 601.828 722.188C602.089 722.99 602.219 723.979 602.219 725.156V736H598.062V725.125C598.062 724.354 597.948 723.745 597.719 723.297C597.5 722.849 597.177 722.531 596.75 722.344C596.333 722.156 595.818 722.062 595.203 722.062C594.568 722.062 594.01 722.193 593.531 722.453C593.062 722.703 592.667 723.052 592.344 723.5C592.031 723.948 591.792 724.464 591.625 725.047C591.458 725.63 591.375 726.26 591.375 726.938Z" fill="#505459"/>
<path d="M662.953 713.25H667.25V728.359C667.25 730.099 666.875 731.562 666.125 732.75C665.375 733.927 664.354 734.818 663.062 735.422C661.771 736.016 660.302 736.312 658.656 736.312C656.99 736.312 655.505 736.016 654.203 735.422C652.901 734.818 651.88 733.927 651.141 732.75C650.401 731.562 650.031 730.099 650.031 728.359V713.25H654.328V728.359C654.328 729.422 654.505 730.292 654.859 730.969C655.214 731.635 655.714 732.13 656.359 732.453C657.005 732.776 657.771 732.938 658.656 732.938C659.552 732.938 660.318 732.776 660.953 732.453C661.599 732.13 662.094 731.635 662.438 730.969C662.781 730.292 662.953 729.422 662.953 728.359V713.25ZM679.016 719.094V722.062H669.328V719.094H679.016ZM671.922 714.938H676.062V731.125C676.062 731.625 676.13 732.01 676.266 732.281C676.401 732.552 676.604 732.734 676.875 732.828C677.146 732.922 677.469 732.969 677.844 732.969C678.115 732.969 678.365 732.953 678.594 732.922C678.823 732.891 679.016 732.859 679.172 732.828L679.188 735.922C678.844 736.036 678.453 736.13 678.016 736.203C677.589 736.276 677.104 736.312 676.562 736.312C675.635 736.312 674.823 736.156 674.125 735.844C673.427 735.521 672.885 735.005 672.5 734.297C672.115 733.578 671.922 732.63 671.922 731.453V714.938ZM689.359 736.312C688.078 736.312 686.927 736.104 685.906 735.688C684.885 735.271 684.016 734.693 683.297 733.953C682.589 733.203 682.042 732.333 681.656 731.344C681.281 730.344 681.094 729.271 681.094 728.125V727.5C681.094 726.198 681.281 725.016 681.656 723.953C682.031 722.88 682.562 721.958 683.25 721.188C683.938 720.417 684.76 719.823 685.719 719.406C686.677 718.99 687.734 718.781 688.891 718.781C690.089 718.781 691.146 718.984 692.062 719.391C692.979 719.786 693.745 720.349 694.359 721.078C694.974 721.807 695.438 722.682 695.75 723.703C696.062 724.714 696.219 725.833 696.219 727.062V728.797H682.969V725.953H692.156V725.641C692.135 724.984 692.01 724.385 691.781 723.844C691.552 723.292 691.198 722.854 690.719 722.531C690.24 722.198 689.62 722.031 688.859 722.031C688.245 722.031 687.708 722.167 687.25 722.438C686.802 722.698 686.427 723.073 686.125 723.562C685.833 724.042 685.615 724.615 685.469 725.281C685.323 725.948 685.25 726.688 685.25 727.5V728.125C685.25 728.833 685.344 729.49 685.531 730.094C685.729 730.698 686.016 731.224 686.391 731.672C686.776 732.109 687.234 732.453 687.766 732.703C688.307 732.943 688.922 733.062 689.609 733.062C690.474 733.062 691.255 732.896 691.953 732.562C692.661 732.219 693.276 731.714 693.797 731.047L695.875 733.203C695.521 733.724 695.042 734.224 694.438 734.703C693.844 735.182 693.125 735.573 692.281 735.875C691.438 736.167 690.464 736.312 689.359 736.312ZM703.109 722.547V736H698.984V719.094H702.891L703.109 722.547ZM708.25 718.984L708.188 722.828C707.958 722.786 707.698 722.755 707.406 722.734C707.125 722.714 706.859 722.703 706.609 722.703C705.974 722.703 705.417 722.792 704.938 722.969C704.458 723.135 704.057 723.38 703.734 723.703C703.422 724.026 703.182 724.422 703.016 724.891C702.849 725.349 702.755 725.87 702.734 726.453L701.844 726.344C701.844 725.271 701.953 724.276 702.172 723.359C702.391 722.443 702.708 721.641 703.125 720.953C703.542 720.266 704.062 719.734 704.688 719.359C705.323 718.974 706.052 718.781 706.875 718.781C707.104 718.781 707.349 718.802 707.609 718.844C707.88 718.875 708.094 718.922 708.25 718.984ZM720.578 731.984V719.094H724.734V736H720.828L720.578 731.984ZM721.109 728.484L722.391 728.453C722.391 729.589 722.266 730.635 722.016 731.594C721.766 732.552 721.375 733.385 720.844 734.094C720.323 734.792 719.661 735.339 718.859 735.734C718.057 736.12 717.109 736.312 716.016 736.312C715.182 736.312 714.422 736.198 713.734 735.969C713.047 735.729 712.453 735.359 711.953 734.859C711.464 734.349 711.083 733.698 710.812 732.906C710.542 732.104 710.406 731.141 710.406 730.016V719.094H714.531V730.047C714.531 730.609 714.594 731.078 714.719 731.453C714.854 731.828 715.036 732.135 715.266 732.375C715.505 732.604 715.781 732.771 716.094 732.875C716.417 732.969 716.76 733.016 717.125 733.016C718.125 733.016 718.911 732.818 719.484 732.422C720.068 732.016 720.484 731.474 720.734 730.797C720.984 730.109 721.109 729.339 721.109 728.484ZM737.688 731.375C737.688 731.021 737.594 730.703 737.406 730.422C737.219 730.141 736.865 729.885 736.344 729.656C735.833 729.417 735.083 729.193 734.094 728.984C733.219 728.797 732.411 728.562 731.672 728.281C730.932 728 730.297 727.661 729.766 727.266C729.234 726.859 728.818 726.385 728.516 725.844C728.224 725.292 728.078 724.656 728.078 723.938C728.078 723.24 728.229 722.583 728.531 721.969C728.833 721.344 729.271 720.797 729.844 720.328C730.417 719.849 731.115 719.474 731.938 719.203C732.76 718.922 733.688 718.781 734.719 718.781C736.156 718.781 737.391 719.016 738.422 719.484C739.464 719.953 740.26 720.599 740.812 721.422C741.365 722.234 741.641 723.151 741.641 724.172H737.516C737.516 723.724 737.411 723.318 737.203 722.953C737.005 722.589 736.698 722.297 736.281 722.078C735.865 721.849 735.339 721.734 734.703 721.734C734.13 721.734 733.646 721.828 733.25 722.016C732.865 722.203 732.573 722.448 732.375 722.75C732.177 723.052 732.078 723.385 732.078 723.75C732.078 724.021 732.13 724.266 732.234 724.484C732.349 724.693 732.531 724.885 732.781 725.062C733.031 725.24 733.37 725.401 733.797 725.547C734.234 725.693 734.771 725.833 735.406 725.969C736.667 726.219 737.766 726.552 738.703 726.969C739.651 727.375 740.391 727.917 740.922 728.594C741.453 729.271 741.719 730.135 741.719 731.188C741.719 731.938 741.557 732.625 741.234 733.25C740.911 733.865 740.443 734.401 739.828 734.859C739.214 735.318 738.479 735.677 737.625 735.938C736.771 736.188 735.807 736.312 734.734 736.312C733.182 736.312 731.87 736.036 730.797 735.484C729.724 734.922 728.911 734.214 728.359 733.359C727.807 732.495 727.531 731.599 727.531 730.672H731.484C731.516 731.328 731.693 731.854 732.016 732.25C732.339 732.646 732.745 732.932 733.234 733.109C733.734 733.276 734.26 733.359 734.812 733.359C735.438 733.359 735.964 733.276 736.391 733.109C736.818 732.932 737.141 732.698 737.359 732.406C737.578 732.104 737.688 731.76 737.688 731.375Z" fill="#505459"/>
<path d="M255.85 19.7637V29.7305C255.475 30.2109 254.883 30.7324 254.074 31.2949C253.277 31.8574 252.234 32.3438 250.945 32.7539C249.656 33.1523 248.074 33.3516 246.199 33.3516C244.57 33.3516 243.082 33.082 241.734 32.543C240.387 31.9922 239.227 31.1895 238.254 30.1348C237.281 29.0801 236.531 27.791 236.004 26.2676C235.477 24.7441 235.213 23.0039 235.213 21.0469V19.3594C235.213 17.4023 235.459 15.6621 235.951 14.1387C236.455 12.6152 237.17 11.3262 238.096 10.2715C239.033 9.2168 240.152 8.41406 241.453 7.86328C242.766 7.3125 244.23 7.03711 245.848 7.03711C248.016 7.03711 249.797 7.39453 251.191 8.10938C252.598 8.82422 253.676 9.80859 254.426 11.0625C255.176 12.3047 255.645 13.7344 255.832 15.3516H251.121C250.992 14.4609 250.734 13.6816 250.348 13.0137C249.961 12.334 249.41 11.8066 248.695 11.4316C247.992 11.0449 247.078 10.8516 245.953 10.8516C245.004 10.8516 244.166 11.0391 243.439 11.4141C242.713 11.7891 242.104 12.334 241.611 13.0488C241.119 13.7637 240.744 14.6484 240.486 15.7031C240.24 16.7578 240.117 17.9648 240.117 19.3242V21.0469C240.117 22.418 240.258 23.6367 240.539 24.7031C240.82 25.7578 241.225 26.6484 241.752 27.375C242.291 28.0898 242.953 28.6348 243.738 29.0098C244.535 29.373 245.438 29.5547 246.445 29.5547C247.359 29.5547 248.115 29.4785 248.713 29.3262C249.322 29.1621 249.809 28.9688 250.172 28.7461C250.535 28.5234 250.816 28.3066 251.016 28.0957V23.2969H245.936V19.7637H255.85ZM268.611 33.3516C267.17 33.3516 265.875 33.1172 264.727 32.6484C263.578 32.1797 262.6 31.5293 261.791 30.6973C260.994 29.8535 260.379 28.875 259.945 27.7617C259.523 26.6367 259.312 25.4297 259.312 24.1406V23.4375C259.312 21.9727 259.523 20.6426 259.945 19.4473C260.367 18.2402 260.965 17.2031 261.738 16.3359C262.512 15.4688 263.438 14.8008 264.516 14.332C265.594 13.8633 266.783 13.6289 268.084 13.6289C269.432 13.6289 270.621 13.8574 271.652 14.3145C272.684 14.7598 273.545 15.3926 274.236 16.2129C274.928 17.0332 275.449 18.0176 275.801 19.166C276.152 20.3027 276.328 21.5625 276.328 22.9453V24.8965L261.422 24.8965V21.6973L271.758 21.6973V21.3457C271.734 20.6074 271.594 19.9336 271.336 19.3242C271.078 18.7031 270.68 18.2109 270.141 17.8477C269.602 17.4727 268.904 17.2852 268.049 17.2852C267.357 17.2852 266.754 17.4375 266.238 17.7422C265.734 18.0352 265.312 18.457 264.973 19.0078C264.645 19.5469 264.398 20.1914 264.234 20.9414C264.07 21.6914 263.988 22.5234 263.988 23.4375V24.1406C263.988 24.9375 264.094 25.6758 264.305 26.3555C264.527 27.0352 264.85 27.627 265.271 28.1309C265.705 28.623 266.221 29.0098 266.818 29.291C267.428 29.5605 268.119 29.6953 268.893 29.6953C269.865 29.6953 270.744 29.5078 271.529 29.1328C272.326 28.7461 273.018 28.1777 273.604 27.4277L275.941 29.8535C275.543 30.4395 275.004 31.002 274.324 31.541C273.656 32.0801 272.848 32.5195 271.898 32.8594C270.949 33.1875 269.854 33.3516 268.611 33.3516ZM283.992 18.041V33H279.352V13.9805L283.711 13.9805L283.992 18.041ZM283.254 22.8047H281.883C281.895 21.4219 282.082 20.168 282.445 19.043C282.809 17.918 283.318 16.9512 283.975 16.1426C284.643 15.334 285.434 14.7129 286.348 14.2793C287.262 13.8457 288.281 13.6289 289.406 13.6289C290.32 13.6289 291.146 13.7578 291.885 14.0156C292.623 14.2734 293.256 14.6836 293.783 15.2461C294.322 15.8086 294.732 16.5469 295.014 17.4609C295.307 18.3633 295.453 19.4766 295.453 20.8008V33H290.777V20.7656C290.777 19.8984 290.648 19.2129 290.391 18.709C290.145 18.2051 289.781 17.8477 289.301 17.6367C288.832 17.4258 288.252 17.3203 287.561 17.3203C286.846 17.3203 286.219 17.4668 285.68 17.7598C285.152 18.041 284.707 18.4336 284.344 18.9375C283.992 19.4414 283.723 20.0215 283.535 20.6777C283.348 21.334 283.254 22.043 283.254 22.8047ZM308.092 33.3516C306.65 33.3516 305.355 33.1172 304.207 32.6484C303.059 32.1797 302.08 31.5293 301.271 30.6973C300.475 29.8535 299.859 28.875 299.426 27.7617C299.004 26.6367 298.793 25.4297 298.793 24.1406V23.4375C298.793 21.9727 299.004 20.6426 299.426 19.4473C299.848 18.2402 300.445 17.2031 301.219 16.3359C301.992 15.4688 302.918 14.8008 303.996 14.332C305.074 13.8633 306.264 13.6289 307.564 13.6289C308.912 13.6289 310.102 13.8574 311.133 14.3145C312.164 14.7598 313.025 15.3926 313.717 16.2129C314.408 17.0332 314.93 18.0176 315.281 19.166C315.633 20.3027 315.809 21.5625 315.809 22.9453V24.8965L300.902 24.8965V21.6973L311.238 21.6973V21.3457C311.215 20.6074 311.074 19.9336 310.816 19.3242C310.559 18.7031 310.16 18.2109 309.621 17.8477C309.082 17.4727 308.385 17.2852 307.529 17.2852C306.838 17.2852 306.234 17.4375 305.719 17.7422C305.215 18.0352 304.793 18.457 304.453 19.0078C304.125 19.5469 303.879 20.1914 303.715 20.9414C303.551 21.6914 303.469 22.5234 303.469 23.4375V24.1406C303.469 24.9375 303.574 25.6758 303.785 26.3555C304.008 27.0352 304.33 27.627 304.752 28.1309C305.186 28.623 305.701 29.0098 306.299 29.291C306.908 29.5605 307.6 29.6953 308.373 29.6953C309.346 29.6953 310.225 29.5078 311.01 29.1328C311.807 28.7461 312.498 28.1777 313.084 27.4277L315.422 29.8535C315.023 30.4395 314.484 31.002 313.805 31.541C313.137 32.0801 312.328 32.5195 311.379 32.8594C310.43 33.1875 309.334 33.3516 308.092 33.3516ZM336.428 33.3516C334.986 33.3516 333.691 33.1172 332.543 32.6484C331.395 32.1797 330.416 31.5293 329.607 30.6973C328.811 29.8535 328.195 28.875 327.762 27.7617C327.34 26.6367 327.129 25.4297 327.129 24.1406V23.4375C327.129 21.9727 327.34 20.6426 327.762 19.4473C328.184 18.2402 328.781 17.2031 329.555 16.3359C330.328 15.4688 331.254 14.8008 332.332 14.332C333.41 13.8633 334.6 13.6289 335.9 13.6289C337.248 13.6289 338.438 13.8574 339.469 14.3145C340.5 14.7598 341.361 15.3926 342.053 16.2129C342.744 17.0332 343.266 18.0176 343.617 19.166C343.969 20.3027 344.145 21.5625 344.145 22.9453V24.8965L329.238 24.8965V21.6973L339.574 21.6973V21.3457C339.551 20.6074 339.41 19.9336 339.152 19.3242C338.895 18.7031 338.496 18.2109 337.957 17.8477C337.418 17.4727 336.721 17.2852 335.865 17.2852C335.174 17.2852 334.57 17.4375 334.055 17.7422C333.551 18.0352 333.129 18.457 332.789 19.0078C332.461 19.5469 332.215 20.1914 332.051 20.9414C331.887 21.6914 331.805 22.5234 331.805 23.4375V24.1406C331.805 24.9375 331.91 25.6758 332.121 26.3555C332.344 27.0352 332.666 27.627 333.088 28.1309C333.521 28.623 334.037 29.0098 334.635 29.291C335.244 29.5605 335.936 29.6953 336.709 29.6953C337.682 29.6953 338.561 29.5078 339.346 29.1328C340.143 28.7461 340.834 28.1777 341.42 27.4277L343.758 29.8535C343.359 30.4395 342.82 31.002 342.141 31.541C341.473 32.0801 340.664 32.5195 339.715 32.8594C338.766 33.1875 337.67 33.3516 336.428 33.3516ZM350.895 13.9805L354.287 20.0273L357.732 13.9805L362.777 13.9805L357.188 23.2969L363.006 33H357.961L354.322 26.6543L350.666 33H345.621L351.422 23.2969L345.867 13.9805L350.895 13.9805ZM370.107 17.6367V40.3125H365.449V13.9805H369.756L370.107 17.6367ZM382.324 23.2969V23.666C382.324 25.0488 382.16 26.332 381.832 27.5156C381.516 28.6875 381.047 29.7129 380.426 30.5918C379.805 31.459 379.031 32.1387 378.105 32.6309C377.191 33.1113 376.137 33.3516 374.941 33.3516C373.77 33.3516 372.75 33.1289 371.883 32.6836C371.016 32.2266 370.283 31.582 369.686 30.75C369.088 29.918 368.607 28.9512 368.244 27.8496C367.893 26.7363 367.629 25.5234 367.453 24.2109V23.0332C367.629 21.6387 367.893 20.373 368.244 19.2363C368.607 18.0879 369.088 17.0977 369.686 16.2656C370.283 15.4219 371.01 14.7715 371.865 14.3145C372.732 13.8574 373.746 13.6289 374.906 13.6289C376.113 13.6289 377.174 13.8574 378.088 14.3145C379.014 14.7715 379.793 15.4277 380.426 16.2832C381.059 17.1387 381.533 18.1582 381.85 19.3418C382.166 20.5254 382.324 21.8438 382.324 23.2969ZM377.666 23.666V23.2969C377.666 22.4531 377.59 21.6738 377.438 20.959C377.285 20.2324 377.051 19.5996 376.734 19.0605C376.418 18.5098 376.008 18.082 375.504 17.7773C375 17.4727 374.391 17.3203 373.676 17.3203C372.961 17.3203 372.346 17.4375 371.83 17.6719C371.314 17.9063 370.893 18.2402 370.564 18.6738C370.236 19.1074 369.979 19.623 369.791 20.2207C369.615 20.8066 369.498 21.457 369.439 22.1719V25.0898C369.545 25.957 369.75 26.7363 370.055 27.4277C370.359 28.1191 370.805 28.6699 371.391 29.0801C371.988 29.4902 372.762 29.6953 373.711 29.6953C374.426 29.6953 375.035 29.5371 375.539 29.2207C376.043 28.9043 376.453 28.4707 376.77 27.9199C377.086 27.3574 377.314 26.7129 377.455 25.9863C377.596 25.2598 377.666 24.4863 377.666 23.666ZM390.357 17.8652V33L385.717 33V13.9805H390.111L390.357 17.8652ZM396.141 13.8574L396.07 18.1816C395.812 18.1348 395.52 18.0996 395.191 18.0762C394.875 18.0527 394.576 18.041 394.295 18.041C393.58 18.041 392.953 18.1406 392.414 18.3398C391.875 18.5273 391.424 18.8027 391.061 19.166C390.709 19.5293 390.439 19.9746 390.252 20.502C390.064 21.0176 389.959 21.6035 389.936 22.2598L388.934 22.1367C388.934 20.9297 389.057 19.8105 389.303 18.7793C389.549 17.748 389.906 16.8457 390.375 16.0723C390.844 15.2988 391.43 14.7012 392.133 14.2793C392.848 13.8457 393.668 13.6289 394.594 13.6289C394.852 13.6289 395.127 13.6523 395.42 13.6992C395.725 13.7344 395.965 13.7871 396.141 13.8574ZM406.881 33.3516C405.439 33.3516 404.145 33.1172 402.996 32.6484C401.848 32.1797 400.869 31.5293 400.061 30.6973C399.264 29.8535 398.648 28.875 398.215 27.7617C397.793 26.6367 397.582 25.4297 397.582 24.1406V23.4375C397.582 21.9727 397.793 20.6426 398.215 19.4473C398.637 18.2402 399.234 17.2031 400.008 16.3359C400.781 15.4688 401.707 14.8008 402.785 14.332C403.863 13.8633 405.053 13.6289 406.354 13.6289C407.701 13.6289 408.891 13.8574 409.922 14.3145C410.953 14.7598 411.814 15.3926 412.506 16.2129C413.197 17.0332 413.719 18.0176 414.07 19.166C414.422 20.3027 414.598 21.5625 414.598 22.9453V24.8965H399.691V21.6973H410.027V21.3457C410.004 20.6074 409.863 19.9336 409.605 19.3242C409.348 18.7031 408.949 18.2109 408.41 17.8477C407.871 17.4727 407.174 17.2852 406.318 17.2852C405.627 17.2852 405.023 17.4375 404.508 17.7422C404.004 18.0352 403.582 18.457 403.242 19.0078C402.914 19.5469 402.668 20.1914 402.504 20.9414C402.34 21.6914 402.258 22.5234 402.258 23.4375V24.1406C402.258 24.9375 402.363 25.6758 402.574 26.3555C402.797 27.0352 403.119 27.627 403.541 28.1309C403.975 28.623 404.49 29.0098 405.088 29.291C405.697 29.5605 406.389 29.6953 407.162 29.6953C408.135 29.6953 409.014 29.5078 409.799 29.1328C410.596 28.7461 411.287 28.1777 411.873 27.4277L414.211 29.8535C413.812 30.4395 413.273 31.002 412.594 31.541C411.926 32.0801 411.117 32.5195 410.168 32.8594C409.219 33.1875 408.123 33.3516 406.881 33.3516ZM428.168 27.7969C428.168 27.3984 428.062 27.041 427.852 26.7246C427.641 26.4082 427.242 26.1211 426.656 25.8633C426.082 25.5938 425.238 25.3418 424.125 25.1074C423.141 24.8965 422.232 24.6328 421.4 24.3164C420.568 24 419.854 23.6191 419.256 23.1738C418.658 22.7168 418.189 22.1836 417.85 21.5742C417.521 20.9531 417.357 20.2383 417.357 19.4297C417.357 18.6445 417.527 17.9063 417.867 17.2148C418.207 16.5117 418.699 15.8965 419.344 15.3691C419.988 14.8301 420.773 14.4082 421.699 14.1035C422.625 13.7871 423.668 13.6289 424.828 13.6289C426.445 13.6289 427.834 13.8926 428.994 14.4199C430.166 14.9473 431.062 15.6738 431.684 16.5996C432.305 17.5137 432.615 18.5449 432.615 19.6934H427.975C427.975 19.1895 427.857 18.7324 427.623 18.3223C427.4 17.9121 427.055 17.584 426.586 17.3379C426.117 17.0801 425.525 16.9512 424.811 16.9512C424.166 16.9512 423.621 17.0566 423.176 17.2676C422.742 17.4785 422.414 17.7539 422.191 18.0938C421.969 18.4336 421.857 18.8086 421.857 19.2188C421.857 19.5234 421.916 19.7988 422.033 20.0449C422.162 20.2793 422.367 20.4961 422.648 20.6953C422.93 20.8945 423.311 21.0762 423.791 21.2402C424.283 21.4043 424.887 21.5625 425.602 21.7148C427.02 21.9961 428.256 22.3711 429.311 22.8398C430.377 23.2969 431.209 23.9063 431.807 24.668C432.404 25.4297 432.703 26.4023 432.703 27.5859C432.703 28.4297 432.521 29.2031 432.158 29.9063C431.795 30.5977 431.268 31.2012 430.576 31.7168C429.885 32.2324 429.059 32.6367 428.098 32.9297C427.137 33.2109 426.053 33.3516 424.846 33.3516C423.1 33.3516 421.623 33.041 420.416 32.4199C419.209 31.7871 418.295 30.9902 417.674 30.0293C417.053 29.0566 416.742 28.0488 416.742 27.0059L421.189 27.0059C421.225 27.7441 421.424 28.3359 421.787 28.7813C422.15 29.2266 422.607 29.5488 423.158 29.748C423.721 29.9355 424.312 30.0293 424.934 30.0293C425.637 30.0293 426.229 29.9355 426.709 29.748C427.189 29.5488 427.553 29.2852 427.799 28.957C428.045 28.6172 428.168 28.2305 428.168 27.7969ZM446.695 27.7969C446.695 27.3984 446.59 27.041 446.379 26.7246C446.168 26.4082 445.77 26.1211 445.184 25.8633C444.609 25.5938 443.766 25.3418 442.652 25.1074C441.668 24.8965 440.76 24.6328 439.928 24.3164C439.096 24 438.381 23.6191 437.783 23.1738C437.186 22.7168 436.717 22.1836 436.377 21.5742C436.049 20.9531 435.885 20.2383 435.885 19.4297C435.885 18.6445 436.055 17.9063 436.395 17.2148C436.734 16.5117 437.227 15.8965 437.871 15.3691C438.516 14.8301 439.301 14.4082 440.227 14.1035C441.152 13.7871 442.195 13.6289 443.355 13.6289C444.973 13.6289 446.361 13.8926 447.521 14.4199C448.693 14.9473 449.59 15.6738 450.211 16.5996C450.832 17.5137 451.143 18.5449 451.143 19.6934H446.502C446.502 19.1895 446.385 18.7324 446.15 18.3223C445.928 17.9121 445.582 17.584 445.113 17.3379C444.645 17.0801 444.053 16.9512 443.338 16.9512C442.693 16.9512 442.148 17.0566 441.703 17.2676C441.27 17.4785 440.941 17.7539 440.719 18.0938C440.496 18.4336 440.385 18.8086 440.385 19.2188C440.385 19.5234 440.443 19.7988 440.561 20.0449C440.689 20.2793 440.895 20.4961 441.176 20.6953C441.457 20.8945 441.838 21.0762 442.318 21.2402C442.811 21.4043 443.414 21.5625 444.129 21.7148C445.547 21.9961 446.783 22.3711 447.838 22.8398C448.904 23.2969 449.736 23.9063 450.334 24.668C450.932 25.4297 451.23 26.4023 451.23 27.5859C451.23 28.4297 451.049 29.2031 450.686 29.9063C450.322 30.5977 449.795 31.2012 449.104 31.7168C448.412 32.2324 447.586 32.6367 446.625 32.9297C445.664 33.2109 444.58 33.3516 443.373 33.3516C441.627 33.3516 440.15 33.041 438.943 32.4199C437.736 31.7871 436.822 30.9902 436.201 30.0293C435.58 29.0566 435.27 28.0488 435.27 27.0059H439.717C439.752 27.7441 439.951 28.3359 440.314 28.7813C440.678 29.2266 441.135 29.5488 441.686 29.748C442.248 29.9355 442.84 30.0293 443.461 30.0293C444.164 30.0293 444.756 29.9355 445.236 29.748C445.717 29.5488 446.08 29.2852 446.326 28.957C446.572 28.6172 446.695 28.2305 446.695 27.7969ZM459.686 13.9805V33H455.027V13.9805L459.686 13.9805ZM454.711 9.00586C454.711 8.31445 454.945 7.74023 455.414 7.2832C455.895 6.82617 456.539 6.59766 457.348 6.59766C458.156 6.59766 458.795 6.82617 459.264 7.2832C459.744 7.74023 459.984 8.31445 459.984 9.00586C459.984 9.68555 459.744 10.2539 459.264 10.7109C458.795 11.168 458.156 11.3965 457.348 11.3965C456.539 11.3965 455.895 11.168 455.414 10.7109C454.945 10.2539 454.711 9.68555 454.711 9.00586ZM463.289 23.6836V23.3145C463.289 21.9199 463.488 20.6367 463.887 19.4648C464.285 18.2813 464.865 17.2559 465.627 16.3887C466.389 15.5215 467.32 14.8477 468.422 14.3672C469.523 13.875 470.777 13.6289 472.184 13.6289C473.613 13.6289 474.879 13.875 475.98 14.3672C477.094 14.8477 478.031 15.5215 478.793 16.3887C479.555 17.2559 480.135 18.2813 480.533 19.4648C480.932 20.6367 481.131 21.9199 481.131 23.3145V23.6836C481.131 25.0664 480.932 26.3496 480.533 27.5332C480.135 28.7051 479.555 29.7305 478.793 30.6094C478.031 31.4766 477.1 32.1504 475.998 32.6309C474.896 33.1113 473.637 33.3516 472.219 33.3516C470.812 33.3516 469.553 33.1113 468.439 32.6309C467.326 32.1504 466.389 31.4766 465.627 30.6094C464.865 29.7305 464.285 28.7051 463.887 27.5332C463.488 26.3496 463.289 25.0664 463.289 23.6836ZM467.93 23.3145V23.6836C467.93 24.5156 468.012 25.2949 468.176 26.0215C468.34 26.748 468.592 27.3867 468.932 27.9375C469.271 28.4883 469.711 28.9219 470.25 29.2383C470.801 29.543 471.457 29.6953 472.219 29.6953C472.969 29.6953 473.613 29.543 474.152 29.2383C474.691 28.9219 475.131 28.4883 475.471 27.9375C475.822 27.3867 476.08 26.748 476.244 26.0215C476.408 25.2949 476.49 24.5156 476.49 23.6836V23.3145C476.49 22.4941 476.408 21.7266 476.244 21.0117C476.08 20.2852 475.822 19.6465 475.471 19.0957C475.131 18.5332 474.686 18.0938 474.135 17.7773C473.596 17.4492 472.945 17.2852 472.184 17.2852C471.434 17.2852 470.789 17.4492 470.25 17.7773C469.711 18.0938 469.271 18.5332 468.932 19.0957C468.592 19.6465 468.34 20.2852 468.176 21.0117C468.012 21.7266 467.93 22.4941 467.93 23.3145ZM489.059 18.041V33H484.418V13.9805H488.777L489.059 18.041ZM488.32 22.8047L486.949 22.8047C486.961 21.4219 487.148 20.168 487.512 19.043C487.875 17.918 488.385 16.9512 489.041 16.1426C489.709 15.334 490.5 14.7129 491.414 14.2793C492.328 13.8457 493.348 13.6289 494.473 13.6289C495.387 13.6289 496.213 13.7578 496.951 14.0156C497.689 14.2734 498.322 14.6836 498.85 15.2461C499.389 15.8086 499.799 16.5469 500.08 17.4609C500.373 18.3633 500.52 19.4766 500.52 20.8008V33H495.844V20.7656C495.844 19.8984 495.715 19.2129 495.457 18.709C495.211 18.2051 494.848 17.8477 494.367 17.6367C493.898 17.4258 493.318 17.3203 492.627 17.3203C491.912 17.3203 491.285 17.4668 490.746 17.7598C490.219 18.041 489.773 18.4336 489.41 18.9375C489.059 19.4414 488.789 20.0215 488.602 20.6777C488.414 21.334 488.32 22.043 488.32 22.8047ZM518.221 17.6367V40.3125H513.562V13.9805L517.869 13.9805L518.221 17.6367ZM530.438 23.2969V23.666C530.438 25.0488 530.273 26.332 529.945 27.5156C529.629 28.6875 529.16 29.7129 528.539 30.5918C527.918 31.459 527.145 32.1387 526.219 32.6309C525.305 33.1113 524.25 33.3516 523.055 33.3516C521.883 33.3516 520.863 33.1289 519.996 32.6836C519.129 32.2266 518.396 31.582 517.799 30.75C517.201 29.918 516.721 28.9512 516.357 27.8496C516.006 26.7363 515.742 25.5234 515.566 24.2109V23.0332C515.742 21.6387 516.006 20.373 516.357 19.2363C516.721 18.0879 517.201 17.0977 517.799 16.2656C518.396 15.4219 519.123 14.7715 519.979 14.3145C520.846 13.8574 521.859 13.6289 523.02 13.6289C524.227 13.6289 525.287 13.8574 526.201 14.3145C527.127 14.7715 527.906 15.4277 528.539 16.2832C529.172 17.1387 529.646 18.1582 529.963 19.3418C530.279 20.5254 530.438 21.8438 530.438 23.2969ZM525.779 23.666V23.2969C525.779 22.4531 525.703 21.6738 525.551 20.959C525.398 20.2324 525.164 19.5996 524.848 19.0605C524.531 18.5098 524.121 18.082 523.617 17.7773C523.113 17.4727 522.504 17.3203 521.789 17.3203C521.074 17.3203 520.459 17.4375 519.943 17.6719C519.428 17.9063 519.006 18.2402 518.678 18.6738C518.35 19.1074 518.092 19.623 517.904 20.2207C517.729 20.8066 517.611 21.457 517.553 22.1719V25.0898C517.658 25.957 517.863 26.7363 518.168 27.4277C518.473 28.1191 518.918 28.6699 519.504 29.0801C520.102 29.4902 520.875 29.6953 521.824 29.6953C522.539 29.6953 523.148 29.5371 523.652 29.2207C524.156 28.9043 524.566 28.4707 524.883 27.9199C525.199 27.3574 525.428 26.7129 525.568 25.9863C525.709 25.2598 525.779 24.4863 525.779 23.666ZM542.373 33.3516C540.932 33.3516 539.637 33.1172 538.488 32.6484C537.34 32.1797 536.361 31.5293 535.553 30.6973C534.756 29.8535 534.141 28.875 533.707 27.7617C533.285 26.6367 533.074 25.4297 533.074 24.1406V23.4375C533.074 21.9727 533.285 20.6426 533.707 19.4473C534.129 18.2402 534.727 17.2031 535.5 16.3359C536.273 15.4688 537.199 14.8008 538.277 14.332C539.355 13.8633 540.545 13.6289 541.846 13.6289C543.193 13.6289 544.383 13.8574 545.414 14.3145C546.445 14.7598 547.307 15.3926 547.998 16.2129C548.689 17.0332 549.211 18.0176 549.562 19.166C549.914 20.3027 550.09 21.5625 550.09 22.9453V24.8965H535.184V21.6973H545.52V21.3457C545.496 20.6074 545.355 19.9336 545.098 19.3242C544.84 18.7031 544.441 18.2109 543.902 17.8477C543.363 17.4727 542.666 17.2852 541.811 17.2852C541.119 17.2852 540.516 17.4375 540 17.7422C539.496 18.0352 539.074 18.457 538.734 19.0078C538.406 19.5469 538.16 20.1914 537.996 20.9414C537.832 21.6914 537.75 22.5234 537.75 23.4375V24.1406C537.75 24.9375 537.855 25.6758 538.066 26.3555C538.289 27.0352 538.611 27.627 539.033 28.1309C539.467 28.623 539.982 29.0098 540.58 29.291C541.189 29.5605 541.881 29.6953 542.654 29.6953C543.627 29.6953 544.506 29.5078 545.291 29.1328C546.088 28.7461 546.779 28.1777 547.365 27.4277L549.703 29.8535C549.305 30.4395 548.766 31.002 548.086 31.541C547.418 32.0801 546.609 32.5195 545.66 32.8594C544.711 33.1875 543.615 33.3516 542.373 33.3516ZM557.842 17.8652V33H553.201V13.9805H557.596L557.842 17.8652ZM563.625 13.8574L563.555 18.1816C563.297 18.1348 563.004 18.0996 562.676 18.0762C562.359 18.0527 562.061 18.041 561.779 18.041C561.064 18.041 560.438 18.1406 559.898 18.3398C559.359 18.5273 558.908 18.8027 558.545 19.166C558.193 19.5293 557.924 19.9746 557.736 20.502C557.549 21.0176 557.443 21.6035 557.42 22.2598L556.418 22.1367C556.418 20.9297 556.541 19.8105 556.787 18.7793C557.033 17.748 557.391 16.8457 557.859 16.0723C558.328 15.2988 558.914 14.7012 559.617 14.2793C560.332 13.8457 561.152 13.6289 562.078 13.6289C562.336 13.6289 562.611 13.6523 562.904 13.6992C563.209 13.7344 563.449 13.7871 563.625 13.8574ZM574.312 23.6836V23.3145C574.312 21.9199 574.512 20.6367 574.91 19.4648C575.309 18.2813 575.889 17.2559 576.65 16.3887C577.412 15.5215 578.344 14.8477 579.445 14.3672C580.547 13.875 581.801 13.6289 583.207 13.6289C584.637 13.6289 585.902 13.875 587.004 14.3672C588.117 14.8477 589.055 15.5215 589.816 16.3887C590.578 17.2559 591.158 18.2813 591.557 19.4648C591.955 20.6367 592.154 21.9199 592.154 23.3145V23.6836C592.154 25.0664 591.955 26.3496 591.557 27.5332C591.158 28.7051 590.578 29.7305 589.816 30.6094C589.055 31.4766 588.123 32.1504 587.021 32.6309C585.92 33.1113 584.66 33.3516 583.242 33.3516C581.836 33.3516 580.576 33.1113 579.463 32.6309C578.35 32.1504 577.412 31.4766 576.65 30.6094C575.889 29.7305 575.309 28.7051 574.91 27.5332C574.512 26.3496 574.312 25.0664 574.312 23.6836ZM578.953 23.3145V23.6836C578.953 24.5156 579.035 25.2949 579.199 26.0215C579.363 26.748 579.615 27.3867 579.955 27.9375C580.295 28.4883 580.734 28.9219 581.273 29.2383C581.824 29.543 582.48 29.6953 583.242 29.6953C583.992 29.6953 584.637 29.543 585.176 29.2383C585.715 28.9219 586.154 28.4883 586.494 27.9375C586.846 27.3867 587.104 26.748 587.268 26.0215C587.432 25.2949 587.514 24.5156 587.514 23.6836V23.3145C587.514 22.4941 587.432 21.7266 587.268 21.0117C587.104 20.2852 586.846 19.6465 586.494 19.0957C586.154 18.5332 585.709 18.0938 585.158 17.7773C584.619 17.4492 583.969 17.2852 583.207 17.2852C582.457 17.2852 581.812 17.4492 581.273 17.7773C580.734 18.0938 580.295 18.5332 579.955 19.0957C579.615 19.6465 579.363 20.2852 579.199 21.0117C579.035 21.7266 578.953 22.4941 578.953 23.3145ZM600.17 17.8652V33H595.529V13.9805H599.924L600.17 17.8652ZM605.953 13.8574L605.883 18.1816C605.625 18.1348 605.332 18.0996 605.004 18.0762C604.688 18.0527 604.389 18.041 604.107 18.041C603.393 18.041 602.766 18.1406 602.227 18.3398C601.688 18.5273 601.236 18.8027 600.873 19.166C600.521 19.5293 600.252 19.9746 600.064 20.502C599.877 21.0176 599.771 21.6035 599.748 22.2598L598.746 22.1367C598.746 20.9297 598.869 19.8105 599.115 18.7793C599.361 17.748 599.719 16.8457 600.188 16.0723C600.656 15.2988 601.242 14.7012 601.945 14.2793C602.66 13.8457 603.48 13.6289 604.406 13.6289C604.664 13.6289 604.939 13.6523 605.232 13.6992C605.537 13.7344 605.777 13.7871 605.953 13.8574ZM620.244 13.9805H624.463V32.4199C624.463 34.1426 624.088 35.6016 623.338 36.7969C622.6 38.0039 621.562 38.918 620.227 39.5391C618.891 40.1719 617.338 40.4883 615.568 40.4883C614.807 40.4883 613.98 40.3828 613.09 40.1719C612.211 39.9609 611.361 39.627 610.541 39.1699C609.732 38.7246 609.059 38.1445 608.52 37.4297L610.611 34.6875C611.244 35.4258 611.959 35.9824 612.756 36.3574C613.553 36.7441 614.414 36.9375 615.34 36.9375C616.277 36.9375 617.074 36.7617 617.73 36.4102C618.398 36.0703 618.908 35.5664 619.26 34.8984C619.623 34.2422 619.805 33.4336 619.805 32.4727V18.3223L620.244 13.9805ZM607.395 23.7188V23.3496C607.395 21.8965 607.57 20.5781 607.922 19.3945C608.273 18.1992 608.777 17.1738 609.434 16.3184C610.102 15.4629 610.904 14.8008 611.842 14.332C612.791 13.8633 613.857 13.6289 615.041 13.6289C616.295 13.6289 617.35 13.8574 618.205 14.3145C619.072 14.7715 619.787 15.4219 620.35 16.2656C620.924 17.1094 621.369 18.1113 621.686 19.2715C622.014 20.4199 622.266 21.6855 622.441 23.0684V24.0703C622.277 25.418 622.014 26.6543 621.65 27.7793C621.299 28.9043 620.83 29.8887 620.244 30.7324C619.658 31.5645 618.932 32.209 618.064 32.666C617.197 33.123 616.178 33.3516 615.006 33.3516C613.834 33.3516 612.779 33.1113 611.842 32.6309C610.904 32.1504 610.102 31.4766 609.434 30.6094C608.777 29.7422 608.273 28.7227 607.922 27.5508C607.57 26.3789 607.395 25.1016 607.395 23.7188ZM612.035 23.3496V23.7188C612.035 24.5391 612.117 25.3066 612.281 26.0215C612.445 26.7363 612.697 27.3691 613.037 27.9199C613.377 28.459 613.805 28.8809 614.32 29.1855C614.836 29.4902 615.451 29.6426 616.166 29.6426C617.127 29.6426 617.912 29.4434 618.521 29.0449C619.143 28.6348 619.611 28.0781 619.928 27.375C620.256 26.6602 620.467 25.8574 620.561 24.9668V22.207C620.502 21.5039 620.373 20.8535 620.174 20.2559C619.986 19.6582 619.723 19.1426 619.383 18.709C619.043 18.2754 618.609 17.9355 618.082 17.6895C617.555 17.4434 616.928 17.3203 616.201 17.3203C615.498 17.3203 614.883 17.4785 614.355 17.7949C613.828 18.0996 613.395 18.5273 613.055 19.0781C612.715 19.6289 612.457 20.2676 612.281 20.9941C612.117 21.7207 612.035 22.5059 612.035 23.3496ZM639.123 28.957V20.1855C639.123 19.541 639.012 18.9844 638.789 18.5156C638.566 18.0469 638.227 17.6836 637.77 17.4258C637.312 17.168 636.732 17.0391 636.029 17.0391C635.408 17.0391 634.863 17.1445 634.395 17.3555C633.938 17.5664 633.586 17.8652 633.34 18.252C633.094 18.627 632.971 19.0605 632.971 19.5527H628.312C628.312 18.7676 628.5 18.0234 628.875 17.3203C629.25 16.6055 629.783 15.9727 630.475 15.4219C631.178 14.8594 632.016 14.4199 632.988 14.1035C633.973 13.7871 635.074 13.6289 636.293 13.6289C637.734 13.6289 639.018 13.875 640.143 14.3672C641.279 14.8477 642.17 15.5742 642.814 16.5469C643.471 17.5195 643.799 18.7441 643.799 20.2207V28.5176C643.799 29.4668 643.857 30.2813 643.975 30.9609C644.104 31.6289 644.291 32.209 644.537 32.7012V33H639.809C639.586 32.5195 639.416 31.9102 639.299 31.1719C639.182 30.4219 639.123 29.6836 639.123 28.957ZM639.773 21.416L639.809 24.1758H636.873C636.146 24.1758 635.508 24.252 634.957 24.4043C634.406 24.5449 633.955 24.7559 633.604 25.0371C633.252 25.3066 632.988 25.6348 632.812 26.0215C632.637 26.3965 632.549 26.8242 632.549 27.3047C632.549 27.7734 632.654 28.1953 632.865 28.5703C633.088 28.9453 633.404 29.2441 633.814 29.4668C634.236 29.6777 634.729 29.7832 635.291 29.7832C636.111 29.7832 636.826 29.6191 637.436 29.291C638.045 28.9512 638.52 28.541 638.859 28.0605C639.199 27.5801 639.381 27.123 639.404 26.6895L640.74 28.6934C640.576 29.1738 640.33 29.6836 640.002 30.2227C639.674 30.7617 639.252 31.2656 638.736 31.7344C638.221 32.2031 637.6 32.5898 636.873 32.8945C636.146 33.1992 635.303 33.3516 634.342 33.3516C633.111 33.3516 632.01 33.1055 631.037 32.6133C630.064 32.1211 629.297 31.4473 628.734 30.5918C628.172 29.7363 627.891 28.7637 627.891 27.6738C627.891 26.666 628.078 25.7754 628.453 25.002C628.828 24.2285 629.385 23.5781 630.123 23.0508C630.861 22.5117 631.775 22.1074 632.865 21.8379C633.967 21.5566 635.227 21.416 636.645 21.416H639.773ZM652.535 18.041V33H647.895V13.9805H652.254L652.535 18.041ZM651.797 22.8047H650.426C650.438 21.4219 650.625 20.168 650.988 19.043C651.352 17.918 651.861 16.9512 652.518 16.1426C653.186 15.334 653.977 14.7129 654.891 14.2793C655.805 13.8457 656.824 13.6289 657.949 13.6289C658.863 13.6289 659.689 13.7578 660.428 14.0156C661.166 14.2734 661.799 14.6836 662.326 15.2461C662.865 15.8086 663.275 16.5469 663.557 17.4609C663.85 18.3633 663.996 19.4766 663.996 20.8008V33H659.32V20.7656C659.32 19.8984 659.191 19.2129 658.934 18.709C658.688 18.2051 658.324 17.8477 657.844 17.6367C657.375 17.4258 656.795 17.3203 656.104 17.3203C655.389 17.3203 654.762 17.4668 654.223 17.7598C653.695 18.041 653.25 18.4336 652.887 18.9375C652.535 19.4414 652.266 20.0215 652.078 20.6777C651.891 21.334 651.797 22.043 651.797 22.8047Z" fill="#505459"/>
</svg>
