<svg width="811" height="725" viewBox="0 0 811 725" fill="none" xmlns="http://www.w3.org/2000/svg">
<rect x="91" y="68" width="5" height="611" rx="2.5" fill="#505459"/>
<rect x="811" y="675" width="5.00004" height="720" rx="2.50002" transform="rotate(90 811 675)" fill="#505459"/>
<path d="M178 206.628C178 205.494 179.054 204.575 180.355 204.575H205.308H230.262C231.562 204.575 232.617 205.494 232.617 206.628V372.929C232.617 374.063 231.562 374.982 230.262 374.982H180.355C179.054 374.982 178 374.063 178 372.929V206.628Z" fill="#505459" fill-opacity="0.5"/>
<path d="M201.953 147.106H208.664V206.115H201.953V147.106Z" fill="#505459"/>
<path d="M208.664 480.628H201.953V374.469H208.664V480.628Z" fill="#505459"/>
<path d="M195.065 141H215.551V147.106H205.308H195.065V141Z" fill="#505459"/>
<path d="M215.551 486.734H195.065L195.065 480.628H215.551V486.734Z" fill="#505459"/>
<path d="M178 312.133H205.308H232.617" stroke="#505459" stroke-width="2"/>
<path d="M178 304H205.308H232.617" stroke="#505459" stroke-width="2" stroke-dasharray="4 4"/>
<path d="M301 273.628C301 272.494 302.054 271.575 303.355 271.575H328.308H353.262C354.562 271.575 355.617 272.494 355.617 273.628V479.929C355.617 481.063 354.562 481.982 353.262 481.982H303.355C302.054 481.982 301 481.063 301 479.929V273.628Z" fill="#505459" fill-opacity="0.5"/>
<path d="M324.953 234.106H331.664V273.115H324.953V234.106Z" fill="#505459"/>
<path d="M331.664 577.628H324.953V481.469H331.664V577.628Z" fill="#505459"/>
<path d="M318.065 228H338.551V234.106H328.308H318.065V228Z" fill="#505459"/>
<path d="M338.551 583.734H318.065L318.065 577.628H338.551V583.734Z" fill="#505459"/>
<path d="M301 379.133H328.308H355.617" stroke="#505459" stroke-width="2"/>
<path d="M301 401H328.308H355.617" stroke="#505459" stroke-width="2" stroke-dasharray="4 4"/>
<path d="M424 345.628C424 344.494 425.054 343.575 426.355 343.575H451.308H476.262C477.562 343.575 478.617 344.494 478.617 345.628V491.929C478.617 493.063 477.562 493.982 476.262 493.982H426.355C425.054 493.982 424 493.063 424 491.929V345.628Z" fill="#505459" fill-opacity="0.5"/>
<path d="M447.953 246.106H454.664V345.115H447.953V246.106Z" fill="#505459"/>
<path d="M454.664 629.628H447.953V493.469H454.664V629.628Z" fill="#505459"/>
<path d="M441.065 240H461.551V246.106H451.308H441.065V240Z" fill="#505459"/>
<path d="M461.551 635.734H441.065L441.065 629.628H461.551V635.734Z" fill="#505459"/>
<path d="M424 441.133H451.308H478.617" stroke="#505459" stroke-width="2"/>
<path d="M424 413H451.308H478.617" stroke="#505459" stroke-width="2" stroke-dasharray="4 4"/>
<path d="M547 342.628C547 341.494 548.054 340.575 549.355 340.575H574.308H599.262C600.562 340.575 601.617 341.494 601.617 342.628V448.929C601.617 450.063 600.562 450.982 599.262 450.982H549.355C548.054 450.982 547 450.063 547 448.929V342.628Z" fill="#505459" fill-opacity="0.5"/>
<path d="M570.953 223.106H577.664V342.115H570.953V223.106Z" fill="#505459"/>
<path d="M577.664 526.628H570.953V450.469H577.664V526.628Z" fill="#505459"/>
<path d="M564.065 217H584.551V223.106H574.308H564.065V217Z" fill="#505459"/>
<path d="M584.551 532.734H564.065L564.065 526.628H584.551V532.734Z" fill="#505459"/>
<path d="M547 373.133H574.308H601.617" stroke="#505459" stroke-width="2"/>
<path d="M547 386H574.308H601.617" stroke="#505459" stroke-width="2" stroke-dasharray="4 4"/>
<path d="M670 276.628C670 275.494 671.054 274.575 672.355 274.575H697.308H722.262C723.562 274.575 724.617 275.494 724.617 276.628V462.929C724.617 464.063 723.562 464.982 722.262 464.982H672.355C671.054 464.982 670 464.063 670 462.929V276.628Z" fill="#505459" fill-opacity="0.5"/>
<path d="M693.953 167.106H700.664V276.115H693.953V167.106Z" fill="#505459"/>
<path d="M700.664 590.628H693.953V464.469H700.664V590.628Z" fill="#505459"/>
<path d="M687.065 161H707.551V167.106H697.308H687.065V161Z" fill="#505459"/>
<path d="M707.551 596.734H687.065L687.065 590.628H707.551V596.734Z" fill="#505459"/>
<path d="M670 387.133H697.308H724.617" stroke="#505459" stroke-width="2"/>
<path d="M670 379H697.308H724.617" stroke="#505459" stroke-width="2" stroke-dasharray="4 4"/>
<path d="M31 467.328L55 467.328L55 471.469L31 471.469L31 467.328ZM46.7187 464.125L46.3906 464.125C45.151 464.125 44.0104 463.948 42.9687 463.594C41.9167 463.24 41.0052 462.724 40.2344 462.047C39.4635 461.37 38.8646 460.542 38.4375 459.562C38 458.583 37.7812 457.469 37.7812 456.219C37.7812 454.948 38 453.823 38.4375 452.844C38.8646 451.854 39.4635 451.021 40.2344 450.344C41.0052 449.667 41.9167 449.151 42.9687 448.797C44.0104 448.443 45.151 448.266 46.3906 448.266L46.7187 448.266C47.9479 448.266 49.0885 448.443 50.1406 448.797C51.1823 449.151 52.0937 449.667 52.875 450.344C53.6458 451.021 54.2448 451.849 54.6719 452.828C55.099 453.807 55.3125 454.927 55.3125 456.187C55.3125 457.437 55.099 458.557 54.6719 459.547C54.2448 460.536 53.6458 461.37 52.875 462.047C52.0937 462.724 51.1823 463.24 50.1406 463.594C49.0885 463.948 47.9479 464.125 46.7187 464.125ZM46.3906 460L46.7187 460C47.4583 460 48.151 459.927 48.7969 459.781C49.4427 459.635 50.0104 459.411 50.5 459.109C50.9896 458.807 51.375 458.417 51.6562 457.937C51.9271 457.448 52.0625 456.865 52.0625 456.187C52.0625 455.521 51.9271 454.948 51.6562 454.469C51.375 453.99 50.9896 453.599 50.5 453.297C50.0104 452.984 49.4427 452.755 48.7969 452.609C48.151 452.464 47.4583 452.391 46.7187 452.391L46.3906 452.391C45.6615 452.391 44.9792 452.464 44.3437 452.609C43.6979 452.755 43.1302 452.984 42.6406 453.297C42.1406 453.599 41.75 453.995 41.4687 454.484C41.1771 454.964 41.0312 455.542 41.0312 456.219C41.0312 456.885 41.1771 457.458 41.4687 457.937C41.75 458.417 42.1406 458.807 42.6406 459.109C43.1302 459.411 43.6979 459.635 44.3437 459.781C44.9792 459.927 45.6615 460 46.3906 460ZM38.0937 434.516L38.0937 430.766L54.4844 430.766C56.0156 430.766 57.3125 431.099 58.375 431.766C59.4479 432.422 60.2604 433.344 60.8125 434.531C61.375 435.719 61.6562 437.099 61.6562 438.672C61.6562 439.349 61.5625 440.083 61.375 440.875C61.1875 441.656 60.8906 442.411 60.4844 443.141C60.0885 443.859 59.5729 444.458 58.9375 444.937L56.5 443.078C57.1562 442.516 57.651 441.88 57.9844 441.172C58.3281 440.464 58.5 439.698 58.5 438.875C58.5 438.042 58.3437 437.333 58.0312 436.75C57.7292 436.156 57.2812 435.703 56.6875 435.391C56.1042 435.068 55.3854 434.906 54.5312 434.906L41.9531 434.906L38.0937 434.516ZM46.75 445.937L46.4219 445.937C45.1302 445.937 43.9583 445.781 42.9062 445.469C41.8437 445.156 40.9323 444.708 40.1719 444.125C39.4115 443.531 38.8229 442.818 38.4062 441.984C37.9896 441.141 37.7812 440.193 37.7812 439.141C37.7812 438.026 37.9844 437.089 38.3906 436.328C38.7969 435.557 39.375 434.922 40.125 434.422C40.875 433.911 41.7656 433.516 42.7969 433.234C43.8177 432.943 44.9427 432.719 46.1719 432.562L47.0625 432.562C48.2604 432.708 49.3594 432.943 50.3594 433.266C51.3594 433.578 52.2344 433.995 52.9844 434.516C53.724 435.036 54.2969 435.682 54.7031 436.453C55.1094 437.224 55.3125 438.13 55.3125 439.172C55.3125 440.214 55.099 441.151 54.6719 441.984C54.2448 442.818 53.6458 443.531 52.875 444.125C52.1042 444.708 51.1979 445.156 50.1562 445.469C49.1146 445.781 47.9792 445.937 46.75 445.937ZM46.4219 441.812L46.75 441.812C47.4792 441.812 48.1615 441.74 48.7969 441.594C49.4323 441.448 49.9948 441.224 50.4844 440.922C50.9635 440.62 51.3385 440.24 51.6094 439.781C51.8802 439.323 52.0156 438.776 52.0156 438.141C52.0156 437.286 51.8385 436.589 51.4844 436.047C51.1198 435.495 50.625 435.078 50 434.797C49.3646 434.505 48.651 434.318 47.8594 434.234L45.4062 434.234C44.7812 434.286 44.2031 434.401 43.6719 434.578C43.1406 434.745 42.6823 434.979 42.2969 435.281C41.9115 435.583 41.6094 435.969 41.3906 436.437C41.1719 436.906 41.0625 437.464 41.0625 438.109C41.0625 438.734 41.2031 439.281 41.4844 439.75C41.7552 440.219 42.1354 440.604 42.625 440.906C43.1146 441.208 43.6823 441.437 44.3281 441.594C44.974 441.74 45.6719 441.812 46.4219 441.812ZM51.75 411.859L55 411.859L55 427.266L52.2187 427.266L44.2344 419.875C43.3594 419.104 42.599 418.495 41.9531 418.047C41.3073 417.599 40.724 417.281 40.2031 417.094C39.6719 416.896 39.1667 416.797 38.6875 416.797C37.9896 416.797 37.3802 416.922 36.8594 417.172C36.3281 417.422 35.9167 417.786 35.625 418.266C35.3333 418.734 35.1875 419.312 35.1875 420C35.1875 420.76 35.3646 421.411 35.7187 421.953C36.0625 422.484 36.5417 422.891 37.1562 423.172C37.7708 423.443 38.474 423.578 39.2656 423.578L39.2656 427.719C37.9219 427.719 36.6979 427.406 35.5937 426.781C34.4792 426.156 33.5885 425.26 32.9219 424.094C32.2552 422.927 31.9219 421.542 31.9219 419.937C31.9219 418.375 32.1823 417.052 32.7031 415.969C33.2135 414.885 33.9427 414.062 34.8906 413.5C35.8385 412.937 36.9687 412.656 38.2812 412.656C39.0104 412.656 39.7292 412.776 40.4375 413.016C41.1458 413.255 41.849 413.594 42.5469 414.031C43.2344 414.458 43.9323 414.969 44.6406 415.562C45.349 416.156 46.0729 416.818 46.8125 417.547L51.75 421.984L51.75 411.859ZM46.0469 408.641L45.75 408.641C43.5417 408.641 41.5365 408.406 39.7344 407.937C37.9219 407.458 36.3333 406.833 34.9687 406.062C33.6042 405.292 32.474 404.458 31.5781 403.562C30.6719 402.656 30.0208 401.776 29.625 400.922L31.8906 400.109C32.3385 400.703 32.9531 401.297 33.7344 401.891C34.5052 402.474 35.4583 403.005 36.5937 403.484C37.7292 403.964 39.0521 404.349 40.5625 404.641C42.0729 404.922 43.7917 405.062 45.7187 405.062L46.0781 405.062C48.0052 405.062 49.7292 404.922 51.25 404.641C52.7604 404.349 54.0833 403.964 55.2187 403.484C56.3542 403.005 57.3177 402.474 58.1094 401.891C58.901 401.297 59.526 400.703 59.9844 400.109L62.1875 400.922C61.7812 401.776 61.1302 402.656 60.2344 403.562C59.3385 404.458 58.2083 405.292 56.8437 406.062C55.4792 406.833 53.8958 407.458 52.0937 407.937C50.2812 408.406 48.2656 408.641 46.0469 408.641ZM32.25 387.562L55 387.562L55 391.844L32.25 391.844L32.25 387.562ZM32.25 380.5L35.6406 380.5L35.6406 398.828L32.25 398.828L32.25 380.5ZM46.7031 368.891L46.7031 374.75L43.3281 374.75L43.3281 368.891C43.3281 367.932 43.1719 367.156 42.8594 366.562C42.5365 365.958 42.099 365.516 41.5469 365.234C40.9844 364.953 40.3437 364.812 39.625 364.812C38.9271 364.812 38.276 364.953 37.6719 365.234C37.0677 365.516 36.5781 365.958 36.2031 366.562C35.8281 367.156 35.6406 367.932 35.6406 368.891L35.6406 373.344L55 373.344L55 377.641L32.25 377.641L32.25 368.891C32.25 367.12 32.5677 365.609 33.2031 364.359C33.8281 363.099 34.6979 362.141 35.8125 361.484C36.9167 360.818 38.1771 360.484 39.5937 360.484C41.0625 360.484 42.3281 360.818 43.3906 361.484C44.4531 362.141 45.2708 363.099 45.8437 364.359C46.4167 365.609 46.7031 367.12 46.7031 368.891ZM32.25 355.234L32.25 351.516L49.375 345.297L32.25 339.094L32.25 335.359L55 343.812L55 346.797L32.25 355.234ZM32.25 357.109L32.25 353.469L47.9844 352.812L55 352.812L55 357.109L32.25 357.109ZM32.25 337.141L32.25 333.484L55 333.484L55 337.781L47.9844 337.781L32.25 337.141ZM42.4219 314.734L46.0937 314.734L46.0937 330.328L42.4219 330.328L42.4219 314.734ZM36.1562 320.547L52.7187 320.547L52.7187 324.5L36.1562 324.5L36.1562 320.547ZM32.1875 301.422L55 301.422L55 305.562L37.0156 305.562L38.8281 311.047L35.4844 311.047L32.1875 301.891L32.1875 301.422ZM45.75 286.062L46.0469 286.062C48.2135 286.062 50.1979 286.307 52 286.797C53.8021 287.276 55.3906 287.911 56.7656 288.703C58.1406 289.484 59.2865 290.339 60.2031 291.266C61.1198 292.182 61.7812 293.083 62.1875 293.969L59.9844 294.781C59.5365 294.187 58.9219 293.599 58.1406 293.016C57.3594 292.432 56.3958 291.901 55.25 291.422C54.1042 290.932 52.7708 290.547 51.25 290.266C49.7292 289.974 48.0052 289.828 46.0781 289.828L45.7187 289.828C43.7917 289.828 42.0677 289.979 40.5469 290.281C39.026 290.573 37.6979 290.964 36.5625 291.453C35.4167 291.943 34.4531 292.479 33.6719 293.062C32.8802 293.646 32.2656 294.219 31.8281 294.781L29.625 293.969C30.0208 293.083 30.6823 292.182 31.6094 291.266C32.526 290.339 33.6771 289.484 35.0625 288.703C36.4375 287.911 38.026 287.276 39.8281 286.797C41.6198 286.307 43.5937 286.062 45.75 286.062ZM52.9844 282.234C52.3594 282.234 51.8333 282.021 51.4062 281.594C50.9792 281.167 50.7656 280.589 50.7656 279.859C50.7656 279.13 50.9792 278.552 51.4062 278.125C51.8333 277.698 52.3594 277.484 52.9844 277.484C53.5989 277.484 54.1198 277.698 54.5469 278.125C54.9635 278.552 55.1719 279.13 55.1719 279.859C55.1719 280.589 54.9635 281.167 54.5469 281.594C54.1198 282.021 53.5989 282.234 52.9844 282.234ZM39.875 282.219C39.25 282.219 38.7239 282.005 38.2969 281.578C37.8698 281.151 37.6562 280.573 37.6562 279.844C37.6562 279.115 37.8698 278.536 38.2969 278.109C38.7239 277.682 39.25 277.469 39.875 277.469C40.4896 277.469 41.0104 277.682 41.4375 278.109C41.8542 278.536 42.0625 279.115 42.0625 279.844C42.0625 280.573 41.8542 281.151 41.4375 281.578C41.0104 282.005 40.4896 282.219 39.875 282.219ZM50.6406 259.734L32.25 255.203L32.25 252.75L36.125 252.594L55 257.437L55 260.031L50.6406 259.734ZM32.25 262.594L50.5781 258.875L55 258.875L55 261.703L32.25 266.859L32.25 262.594ZM50.5 247.891L32.25 244.234L32.25 239.953L55 245.109L55 247.937L50.5 247.891ZM32.25 251.578L50.7031 247.047L55 246.781L55 249.375L36.1094 254.203L32.25 254.016L32.25 251.578ZM51.625 222.156L55 222.156L55 234.25L51.625 234.25L51.625 222.156ZM32.25 232.937L55 232.937L55 237.234L32.25 237.234L32.25 232.937ZM41.6406 223.734L44.9375 223.734L44.9375 234.25L41.6406 234.25L41.6406 223.734ZM32.25 222.203L35.6406 222.203L35.6406 234.25L32.25 234.25L32.25 222.203ZM51.625 204.094L55 204.094L55 216.187L51.625 216.187L51.625 204.094ZM32.25 214.875L55 214.875L55 219.172L32.25 219.172L32.25 214.875ZM41.6406 205.672L44.9375 205.672L44.9375 216.187L41.6406 216.187L41.6406 205.672ZM32.25 204.141L35.6406 204.141L35.6406 216.187L32.25 216.187L32.25 204.141ZM32.1875 191.016L55 191.016L55 195.156L37.0156 195.156L38.8281 200.641L35.4844 200.641L32.1875 191.484L32.1875 191.016Z" fill="#505459"/>
<path d="M187.422 713.625V717H175.984V713.625H187.422ZM177.281 694.25V717H172.984V694.25H177.281ZM194.359 700.094V717H190.219V700.094H194.359ZM189.938 695.672C189.938 695.057 190.146 694.547 190.562 694.141C190.99 693.734 191.562 693.531 192.281 693.531C193 693.531 193.568 693.734 193.984 694.141C194.411 694.547 194.625 695.057 194.625 695.672C194.625 696.276 194.411 696.781 193.984 697.188C193.568 697.594 193 697.797 192.281 697.797C191.562 697.797 190.99 697.594 190.562 697.188C190.146 696.781 189.938 696.276 189.938 695.672ZM203.906 713.875L207.844 700.094H212.156L206.359 717H203.734L203.906 713.875ZM201.031 700.094L205.016 713.906L205.156 717H202.516L196.703 700.094H201.031ZM221.703 717.312C220.422 717.312 219.271 717.104 218.25 716.688C217.229 716.271 216.359 715.693 215.641 714.953C214.932 714.203 214.385 713.333 214 712.344C213.625 711.344 213.438 710.271 213.438 709.125V708.5C213.438 707.198 213.625 706.016 214 704.953C214.375 703.88 214.906 702.958 215.594 702.188C216.281 701.417 217.104 700.823 218.062 700.406C219.021 699.99 220.078 699.781 221.234 699.781C222.432 699.781 223.49 699.984 224.406 700.391C225.323 700.786 226.089 701.349 226.703 702.078C227.318 702.807 227.781 703.682 228.094 704.703C228.406 705.714 228.562 706.833 228.562 708.062V709.797H215.312V706.953H224.5V706.641C224.479 705.984 224.354 705.385 224.125 704.844C223.896 704.292 223.542 703.854 223.062 703.531C222.583 703.198 221.964 703.031 221.203 703.031C220.589 703.031 220.052 703.167 219.594 703.438C219.146 703.698 218.771 704.073 218.469 704.562C218.177 705.042 217.958 705.615 217.812 706.281C217.667 706.948 217.594 707.688 217.594 708.5V709.125C217.594 709.833 217.688 710.49 217.875 711.094C218.073 711.698 218.359 712.224 218.734 712.672C219.12 713.109 219.578 713.453 220.109 713.703C220.651 713.943 221.266 714.062 221.953 714.062C222.818 714.062 223.599 713.896 224.297 713.562C225.005 713.219 225.62 712.714 226.141 712.047L228.219 714.203C227.865 714.724 227.385 715.224 226.781 715.703C226.188 716.182 225.469 716.573 224.625 716.875C223.781 717.167 222.807 717.312 221.703 717.312ZM235.453 703.547V717H231.328V700.094H235.234L235.453 703.547ZM240.594 699.984L240.531 703.828C240.302 703.786 240.042 703.755 239.75 703.734C239.469 703.714 239.203 703.703 238.953 703.703C238.318 703.703 237.76 703.792 237.281 703.969C236.802 704.135 236.401 704.38 236.078 704.703C235.766 705.026 235.526 705.422 235.359 705.891C235.193 706.349 235.099 706.87 235.078 707.453L234.188 707.344C234.188 706.271 234.297 705.276 234.516 704.359C234.734 703.443 235.052 702.641 235.469 701.953C235.885 701.266 236.406 700.734 237.031 700.359C237.667 699.974 238.396 699.781 239.219 699.781C239.448 699.781 239.693 699.802 239.953 699.844C240.224 699.875 240.438 699.922 240.594 699.984Z" fill="#505459"/>
<path d="M286.062 694.25V717H281.766V694.25H286.062ZM299.719 694.25L290.594 705.344L285.375 710.922L284.609 706.75L288.234 702.047L294.453 694.25H299.719ZM294.938 717L287.859 706.344L290.938 703.562L300.047 717H294.938ZM306.109 700.094V717H301.969V700.094H306.109ZM301.688 695.672C301.688 695.057 301.896 694.547 302.312 694.141C302.74 693.734 303.312 693.531 304.031 693.531C304.75 693.531 305.318 693.734 305.734 694.141C306.161 694.547 306.375 695.057 306.375 695.672C306.375 696.276 306.161 696.781 305.734 697.188C305.318 697.594 304.75 697.797 304.031 697.797C303.312 697.797 302.74 697.594 302.312 697.188C301.896 696.781 301.688 696.276 301.688 695.672ZM320.188 713.406V693H324.344V717H320.594L320.188 713.406ZM309.328 708.75V708.422C309.328 707.13 309.474 705.958 309.766 704.906C310.068 703.844 310.505 702.932 311.078 702.172C311.651 701.411 312.344 700.823 313.156 700.406C313.979 699.99 314.911 699.781 315.953 699.781C316.964 699.781 317.844 699.984 318.594 700.391C319.354 700.797 320 701.375 320.531 702.125C321.073 702.875 321.505 703.766 321.828 704.797C322.151 705.818 322.385 706.943 322.531 708.172V709.062C322.385 710.26 322.151 711.359 321.828 712.359C321.505 713.359 321.073 714.234 320.531 714.984C320 715.724 319.354 716.297 318.594 716.703C317.833 717.109 316.943 717.312 315.922 717.312C314.891 717.312 313.964 717.099 313.141 716.672C312.328 716.245 311.635 715.646 311.062 714.875C310.5 714.104 310.068 713.198 309.766 712.156C309.474 711.115 309.328 709.979 309.328 708.75ZM313.469 708.422V708.75C313.469 709.479 313.531 710.161 313.656 710.797C313.781 711.432 313.984 711.995 314.266 712.484C314.547 712.964 314.906 713.339 315.344 713.609C315.792 713.88 316.333 714.016 316.969 714.016C317.781 714.016 318.448 713.839 318.969 713.484C319.5 713.12 319.911 712.625 320.203 712C320.495 711.365 320.682 710.651 320.766 709.859V707.406C320.724 706.781 320.615 706.203 320.438 705.672C320.271 705.141 320.031 704.682 319.719 704.297C319.417 703.911 319.042 703.609 318.594 703.391C318.146 703.172 317.615 703.062 317 703.062C316.365 703.062 315.823 703.203 315.375 703.484C314.927 703.755 314.562 704.135 314.281 704.625C314 705.115 313.792 705.682 313.656 706.328C313.531 706.974 313.469 707.672 313.469 708.422ZM332.125 703.703V717H328V700.094H331.875L332.125 703.703ZM331.469 707.938H330.25C330.26 706.708 330.427 705.594 330.75 704.594C331.073 703.594 331.526 702.734 332.109 702.016C332.703 701.297 333.406 700.745 334.219 700.359C335.031 699.974 335.938 699.781 336.938 699.781C337.75 699.781 338.484 699.896 339.141 700.125C339.797 700.354 340.359 700.719 340.828 701.219C341.307 701.719 341.672 702.375 341.922 703.188C342.182 703.99 342.312 704.979 342.312 706.156V717H338.156V706.125C338.156 705.354 338.042 704.745 337.812 704.297C337.594 703.849 337.271 703.531 336.844 703.344C336.427 703.156 335.911 703.062 335.297 703.062C334.661 703.062 334.104 703.193 333.625 703.453C333.156 703.703 332.76 704.052 332.438 704.5C332.125 704.948 331.885 705.464 331.719 706.047C331.552 706.63 331.469 707.26 331.469 707.938ZM353.547 717.312C352.266 717.312 351.115 717.104 350.094 716.688C349.073 716.271 348.203 715.693 347.484 714.953C346.776 714.203 346.229 713.333 345.844 712.344C345.469 711.344 345.281 710.271 345.281 709.125V708.5C345.281 707.198 345.469 706.016 345.844 704.953C346.219 703.88 346.75 702.958 347.438 702.188C348.125 701.417 348.948 700.823 349.906 700.406C350.865 699.99 351.922 699.781 353.078 699.781C354.276 699.781 355.333 699.984 356.25 700.391C357.167 700.786 357.932 701.349 358.547 702.078C359.161 702.807 359.625 703.682 359.938 704.703C360.25 705.714 360.406 706.833 360.406 708.062V709.797H347.156V706.953H356.344V706.641C356.323 705.984 356.198 705.385 355.969 704.844C355.74 704.292 355.385 703.854 354.906 703.531C354.427 703.198 353.807 703.031 353.047 703.031C352.432 703.031 351.896 703.167 351.438 703.438C350.99 703.698 350.615 704.073 350.312 704.562C350.021 705.042 349.802 705.615 349.656 706.281C349.51 706.948 349.438 707.688 349.438 708.5V709.125C349.438 709.833 349.531 710.49 349.719 711.094C349.917 711.698 350.203 712.224 350.578 712.672C350.964 713.109 351.422 713.453 351.953 713.703C352.495 713.943 353.109 714.062 353.797 714.062C354.661 714.062 355.443 713.896 356.141 713.562C356.849 713.219 357.464 712.714 357.984 712.047L360.062 714.203C359.708 714.724 359.229 715.224 358.625 715.703C358.031 716.182 357.312 716.573 356.469 716.875C355.625 717.167 354.651 717.312 353.547 717.312ZM367.906 715.125L372.438 700.094H376.859L370.078 719.562C369.922 719.979 369.719 720.432 369.469 720.922C369.229 721.411 368.906 721.875 368.5 722.312C368.094 722.76 367.583 723.125 366.969 723.406C366.365 723.688 365.63 723.828 364.766 723.828C364.391 723.828 364.057 723.802 363.766 723.75C363.474 723.698 363.167 723.63 362.844 723.547V720.453C362.948 720.464 363.068 720.469 363.203 720.469C363.349 720.479 363.474 720.484 363.578 720.484C364.182 720.484 364.682 720.411 365.078 720.266C365.474 720.13 365.792 719.906 366.031 719.594C366.281 719.292 366.49 718.896 366.656 718.406L367.906 715.125ZM365.672 700.094L369.5 712.547L370.172 716.906L367.328 717.422L361.219 700.094H365.672Z" fill="#505459"/>
<path d="M425.359 706.859H419.547L419.516 703.828H424.5C425.354 703.828 426.068 703.708 426.641 703.469C427.214 703.229 427.646 702.88 427.938 702.422C428.24 701.964 428.391 701.406 428.391 700.75C428.391 700.021 428.25 699.427 427.969 698.969C427.698 698.51 427.271 698.177 426.688 697.969C426.104 697.75 425.365 697.641 424.469 697.641H420.938V717H416.641V694.25H424.469C425.76 694.25 426.911 694.375 427.922 694.625C428.943 694.865 429.807 695.24 430.516 695.75C431.224 696.26 431.76 696.901 432.125 697.672C432.5 698.443 432.688 699.359 432.688 700.422C432.688 701.359 432.469 702.224 432.031 703.016C431.604 703.797 430.943 704.432 430.047 704.922C429.161 705.411 428.036 705.693 426.672 705.766L425.359 706.859ZM425.172 717H418.281L420.078 713.625H425.172C426.026 713.625 426.729 713.484 427.281 713.203C427.844 712.922 428.26 712.536 428.531 712.047C428.812 711.547 428.953 710.974 428.953 710.328C428.953 709.62 428.828 709.005 428.578 708.484C428.339 707.964 427.953 707.562 427.422 707.281C426.901 707 426.214 706.859 425.359 706.859H420.891L420.922 703.828H426.609L427.594 705C428.906 705.01 429.974 705.271 430.797 705.781C431.63 706.292 432.245 706.948 432.641 707.75C433.036 708.552 433.234 709.417 433.234 710.344C433.234 711.802 432.917 713.026 432.281 714.016C431.656 715.005 430.74 715.75 429.531 716.25C428.333 716.75 426.88 717 425.172 717ZM435.906 708.719V708.391C435.906 707.151 436.083 706.01 436.438 704.969C436.792 703.917 437.307 703.005 437.984 702.234C438.661 701.464 439.49 700.865 440.469 700.438C441.448 700 442.562 699.781 443.812 699.781C445.083 699.781 446.208 700 447.188 700.438C448.177 700.865 449.01 701.464 449.688 702.234C450.365 703.005 450.88 703.917 451.234 704.969C451.589 706.01 451.766 707.151 451.766 708.391V708.719C451.766 709.948 451.589 711.089 451.234 712.141C450.88 713.182 450.365 714.094 449.688 714.875C449.01 715.646 448.182 716.245 447.203 716.672C446.224 717.099 445.104 717.312 443.844 717.312C442.594 717.312 441.474 717.099 440.484 716.672C439.495 716.245 438.661 715.646 437.984 714.875C437.307 714.094 436.792 713.182 436.438 712.141C436.083 711.089 435.906 709.948 435.906 708.719ZM440.031 708.391V708.719C440.031 709.458 440.104 710.151 440.25 710.797C440.396 711.443 440.62 712.01 440.922 712.5C441.224 712.99 441.615 713.375 442.094 713.656C442.583 713.927 443.167 714.062 443.844 714.062C444.51 714.062 445.083 713.927 445.562 713.656C446.042 713.375 446.432 712.99 446.734 712.5C447.047 712.01 447.276 711.443 447.422 710.797C447.568 710.151 447.641 709.458 447.641 708.719V708.391C447.641 707.661 447.568 706.979 447.422 706.344C447.276 705.698 447.047 705.13 446.734 704.641C446.432 704.141 446.036 703.75 445.547 703.469C445.068 703.177 444.49 703.031 443.812 703.031C443.146 703.031 442.573 703.177 442.094 703.469C441.615 703.75 441.224 704.141 440.922 704.641C440.62 705.13 440.396 705.698 440.25 706.344C440.104 706.979 440.031 707.661 440.031 708.391ZM458.812 703.703V717H454.688V700.094H458.562L458.812 703.703ZM458.156 707.938H456.938C456.948 706.708 457.115 705.594 457.438 704.594C457.76 703.594 458.214 702.734 458.797 702.016C459.391 701.297 460.094 700.745 460.906 700.359C461.719 699.974 462.625 699.781 463.625 699.781C464.438 699.781 465.172 699.896 465.828 700.125C466.484 700.354 467.047 700.719 467.516 701.219C467.995 701.719 468.359 702.375 468.609 703.188C468.87 703.99 469 704.979 469 706.156V717H464.844V706.125C464.844 705.354 464.729 704.745 464.5 704.297C464.281 703.849 463.958 703.531 463.531 703.344C463.115 703.156 462.599 703.062 461.984 703.062C461.349 703.062 460.792 703.193 460.312 703.453C459.844 703.703 459.448 704.052 459.125 704.5C458.812 704.948 458.573 705.464 458.406 706.047C458.24 706.63 458.156 707.26 458.156 707.938ZM480.234 717.312C478.953 717.312 477.802 717.104 476.781 716.688C475.76 716.271 474.891 715.693 474.172 714.953C473.464 714.203 472.917 713.333 472.531 712.344C472.156 711.344 471.969 710.271 471.969 709.125V708.5C471.969 707.198 472.156 706.016 472.531 704.953C472.906 703.88 473.438 702.958 474.125 702.188C474.812 701.417 475.635 700.823 476.594 700.406C477.552 699.99 478.609 699.781 479.766 699.781C480.964 699.781 482.021 699.984 482.938 700.391C483.854 700.786 484.62 701.349 485.234 702.078C485.849 702.807 486.312 703.682 486.625 704.703C486.938 705.714 487.094 706.833 487.094 708.062V709.797H473.844V706.953H483.031V706.641C483.01 705.984 482.885 705.385 482.656 704.844C482.427 704.292 482.073 703.854 481.594 703.531C481.115 703.198 480.495 703.031 479.734 703.031C479.12 703.031 478.583 703.167 478.125 703.438C477.677 703.698 477.302 704.073 477 704.562C476.708 705.042 476.49 705.615 476.344 706.281C476.198 706.948 476.125 707.688 476.125 708.5V709.125C476.125 709.833 476.219 710.49 476.406 711.094C476.604 711.698 476.891 712.224 477.266 712.672C477.651 713.109 478.109 713.453 478.641 713.703C479.182 713.943 479.797 714.062 480.484 714.062C481.349 714.062 482.13 713.896 482.828 713.562C483.536 713.219 484.151 712.714 484.672 712.047L486.75 714.203C486.396 714.724 485.917 715.224 485.312 715.703C484.719 716.182 484 716.573 483.156 716.875C482.312 717.167 481.339 717.312 480.234 717.312Z" fill="#505459"/>
<path d="M557.453 711.094C557.453 710.656 557.385 710.266 557.25 709.922C557.125 709.568 556.891 709.25 556.547 708.969C556.214 708.677 555.74 708.396 555.125 708.125C554.521 707.844 553.74 707.552 552.781 707.25C551.719 706.917 550.729 706.542 549.812 706.125C548.896 705.708 548.089 705.224 547.391 704.672C546.703 704.12 546.167 703.484 545.781 702.766C545.396 702.036 545.203 701.193 545.203 700.234C545.203 699.297 545.401 698.443 545.797 697.672C546.203 696.901 546.776 696.24 547.516 695.688C548.255 695.125 549.125 694.693 550.125 694.391C551.135 694.089 552.25 693.938 553.469 693.938C555.156 693.938 556.615 694.245 557.844 694.859C559.083 695.474 560.042 696.307 560.719 697.359C561.396 698.411 561.734 699.594 561.734 700.906H557.453C557.453 700.198 557.302 699.573 557 699.031C556.708 698.49 556.26 698.062 555.656 697.75C555.062 697.438 554.312 697.281 553.406 697.281C552.531 697.281 551.802 697.411 551.219 697.672C550.646 697.932 550.214 698.286 549.922 698.734C549.641 699.182 549.5 699.682 549.5 700.234C549.5 700.651 549.599 701.026 549.797 701.359C549.995 701.682 550.292 701.99 550.688 702.281C551.083 702.562 551.573 702.828 552.156 703.078C552.75 703.318 553.438 703.557 554.219 703.797C555.469 704.172 556.562 704.589 557.5 705.047C558.448 705.505 559.234 706.026 559.859 706.609C560.495 707.193 560.969 707.849 561.281 708.578C561.604 709.307 561.766 710.135 561.766 711.062C561.766 712.042 561.573 712.917 561.188 713.688C560.802 714.458 560.25 715.115 559.531 715.656C558.812 716.198 557.948 716.609 556.938 716.891C555.938 717.172 554.818 717.312 553.578 717.312C552.474 717.312 551.38 717.167 550.297 716.875C549.224 716.573 548.25 716.125 547.375 715.531C546.5 714.927 545.802 714.167 545.281 713.25C544.76 712.323 544.5 711.24 544.5 710H548.812C548.812 710.719 548.927 711.333 549.156 711.844C549.396 712.344 549.729 712.755 550.156 713.078C550.594 713.391 551.104 713.62 551.688 713.766C552.271 713.911 552.901 713.984 553.578 713.984C554.453 713.984 555.172 713.865 555.734 713.625C556.307 713.375 556.734 713.031 557.016 712.594C557.307 712.156 557.453 711.656 557.453 711.094ZM568.891 692.984V717H564.766V692.984H568.891ZM579.484 700.094L572.125 708.359L568.141 712.406L566.828 709.203L569.906 705.328L574.5 700.094H579.484ZM575.266 717L570.031 709.125L572.781 706.453L580.047 717H575.266ZM586.047 700.094V717H581.906V700.094H586.047ZM581.625 695.672C581.625 695.057 581.833 694.547 582.25 694.141C582.677 693.734 583.25 693.531 583.969 693.531C584.688 693.531 585.255 693.734 585.672 694.141C586.099 694.547 586.312 695.057 586.312 695.672C586.312 696.276 586.099 696.781 585.672 697.188C585.255 697.594 584.688 697.797 583.969 697.797C583.25 697.797 582.677 697.594 582.25 697.188C581.833 696.781 581.625 696.276 581.625 695.672ZM594.031 703.703V717H589.906V700.094H593.781L594.031 703.703ZM593.375 707.938H592.156C592.167 706.708 592.333 705.594 592.656 704.594C592.979 703.594 593.432 702.734 594.016 702.016C594.609 701.297 595.312 700.745 596.125 700.359C596.938 699.974 597.844 699.781 598.844 699.781C599.656 699.781 600.391 699.896 601.047 700.125C601.703 700.354 602.266 700.719 602.734 701.219C603.214 701.719 603.578 702.375 603.828 703.188C604.089 703.99 604.219 704.979 604.219 706.156V717H600.062V706.125C600.062 705.354 599.948 704.745 599.719 704.297C599.5 703.849 599.177 703.531 598.75 703.344C598.333 703.156 597.818 703.062 597.203 703.062C596.568 703.062 596.01 703.193 595.531 703.453C595.062 703.703 594.667 704.052 594.344 704.5C594.031 704.948 593.792 705.464 593.625 706.047C593.458 706.63 593.375 707.26 593.375 707.938Z" fill="#505459"/>
<path d="M664.953 694.25H669.25V709.359C669.25 711.099 668.875 712.562 668.125 713.75C667.375 714.927 666.354 715.818 665.062 716.422C663.771 717.016 662.302 717.312 660.656 717.312C658.99 717.312 657.505 717.016 656.203 716.422C654.901 715.818 653.88 714.927 653.141 713.75C652.401 712.562 652.031 711.099 652.031 709.359V694.25H656.328V709.359C656.328 710.422 656.505 711.292 656.859 711.969C657.214 712.635 657.714 713.13 658.359 713.453C659.005 713.776 659.771 713.938 660.656 713.938C661.552 713.938 662.318 713.776 662.953 713.453C663.599 713.13 664.094 712.635 664.438 711.969C664.781 711.292 664.953 710.422 664.953 709.359V694.25ZM681.016 700.094V703.062H671.328V700.094H681.016ZM673.922 695.938H678.062V712.125C678.062 712.625 678.13 713.01 678.266 713.281C678.401 713.552 678.604 713.734 678.875 713.828C679.146 713.922 679.469 713.969 679.844 713.969C680.115 713.969 680.365 713.953 680.594 713.922C680.823 713.891 681.016 713.859 681.172 713.828L681.188 716.922C680.844 717.036 680.453 717.13 680.016 717.203C679.589 717.276 679.104 717.312 678.562 717.312C677.635 717.312 676.823 717.156 676.125 716.844C675.427 716.521 674.885 716.005 674.5 715.297C674.115 714.578 673.922 713.63 673.922 712.453V695.938ZM691.359 717.312C690.078 717.312 688.927 717.104 687.906 716.688C686.885 716.271 686.016 715.693 685.297 714.953C684.589 714.203 684.042 713.333 683.656 712.344C683.281 711.344 683.094 710.271 683.094 709.125V708.5C683.094 707.198 683.281 706.016 683.656 704.953C684.031 703.88 684.562 702.958 685.25 702.188C685.938 701.417 686.76 700.823 687.719 700.406C688.677 699.99 689.734 699.781 690.891 699.781C692.089 699.781 693.146 699.984 694.062 700.391C694.979 700.786 695.745 701.349 696.359 702.078C696.974 702.807 697.438 703.682 697.75 704.703C698.062 705.714 698.219 706.833 698.219 708.062V709.797H684.969V706.953H694.156V706.641C694.135 705.984 694.01 705.385 693.781 704.844C693.552 704.292 693.198 703.854 692.719 703.531C692.24 703.198 691.62 703.031 690.859 703.031C690.245 703.031 689.708 703.167 689.25 703.438C688.802 703.698 688.427 704.073 688.125 704.562C687.833 705.042 687.615 705.615 687.469 706.281C687.323 706.948 687.25 707.688 687.25 708.5V709.125C687.25 709.833 687.344 710.49 687.531 711.094C687.729 711.698 688.016 712.224 688.391 712.672C688.776 713.109 689.234 713.453 689.766 713.703C690.307 713.943 690.922 714.062 691.609 714.062C692.474 714.062 693.255 713.896 693.953 713.562C694.661 713.219 695.276 712.714 695.797 712.047L697.875 714.203C697.521 714.724 697.042 715.224 696.438 715.703C695.844 716.182 695.125 716.573 694.281 716.875C693.438 717.167 692.464 717.312 691.359 717.312ZM705.109 703.547V717H700.984V700.094H704.891L705.109 703.547ZM710.25 699.984L710.188 703.828C709.958 703.786 709.698 703.755 709.406 703.734C709.125 703.714 708.859 703.703 708.609 703.703C707.974 703.703 707.417 703.792 706.938 703.969C706.458 704.135 706.057 704.38 705.734 704.703C705.422 705.026 705.182 705.422 705.016 705.891C704.849 706.349 704.755 706.87 704.734 707.453L703.844 707.344C703.844 706.271 703.953 705.276 704.172 704.359C704.391 703.443 704.708 702.641 705.125 701.953C705.542 701.266 706.062 700.734 706.688 700.359C707.323 699.974 708.052 699.781 708.875 699.781C709.104 699.781 709.349 699.802 709.609 699.844C709.88 699.875 710.094 699.922 710.25 699.984ZM722.578 712.984V700.094H726.734V717H722.828L722.578 712.984ZM723.109 709.484L724.391 709.453C724.391 710.589 724.266 711.635 724.016 712.594C723.766 713.552 723.375 714.385 722.844 715.094C722.323 715.792 721.661 716.339 720.859 716.734C720.057 717.12 719.109 717.312 718.016 717.312C717.182 717.312 716.422 717.198 715.734 716.969C715.047 716.729 714.453 716.359 713.953 715.859C713.464 715.349 713.083 714.698 712.812 713.906C712.542 713.104 712.406 712.141 712.406 711.016V700.094H716.531V711.047C716.531 711.609 716.594 712.078 716.719 712.453C716.854 712.828 717.036 713.135 717.266 713.375C717.505 713.604 717.781 713.771 718.094 713.875C718.417 713.969 718.76 714.016 719.125 714.016C720.125 714.016 720.911 713.818 721.484 713.422C722.068 713.016 722.484 712.474 722.734 711.797C722.984 711.109 723.109 710.339 723.109 709.484ZM739.688 712.375C739.688 712.021 739.594 711.703 739.406 711.422C739.219 711.141 738.865 710.885 738.344 710.656C737.833 710.417 737.083 710.193 736.094 709.984C735.219 709.797 734.411 709.562 733.672 709.281C732.932 709 732.297 708.661 731.766 708.266C731.234 707.859 730.818 707.385 730.516 706.844C730.224 706.292 730.078 705.656 730.078 704.938C730.078 704.24 730.229 703.583 730.531 702.969C730.833 702.344 731.271 701.797 731.844 701.328C732.417 700.849 733.115 700.474 733.938 700.203C734.76 699.922 735.688 699.781 736.719 699.781C738.156 699.781 739.391 700.016 740.422 700.484C741.464 700.953 742.26 701.599 742.812 702.422C743.365 703.234 743.641 704.151 743.641 705.172H739.516C739.516 704.724 739.411 704.318 739.203 703.953C739.005 703.589 738.698 703.297 738.281 703.078C737.865 702.849 737.339 702.734 736.703 702.734C736.13 702.734 735.646 702.828 735.25 703.016C734.865 703.203 734.573 703.448 734.375 703.75C734.177 704.052 734.078 704.385 734.078 704.75C734.078 705.021 734.13 705.266 734.234 705.484C734.349 705.693 734.531 705.885 734.781 706.062C735.031 706.24 735.37 706.401 735.797 706.547C736.234 706.693 736.771 706.833 737.406 706.969C738.667 707.219 739.766 707.552 740.703 707.969C741.651 708.375 742.391 708.917 742.922 709.594C743.453 710.271 743.719 711.135 743.719 712.188C743.719 712.938 743.557 713.625 743.234 714.25C742.911 714.865 742.443 715.401 741.828 715.859C741.214 716.318 740.479 716.677 739.625 716.938C738.771 717.188 737.807 717.312 736.734 717.312C735.182 717.312 733.87 717.036 732.797 716.484C731.724 715.922 730.911 715.214 730.359 714.359C729.807 713.495 729.531 712.599 729.531 711.672H733.484C733.516 712.328 733.693 712.854 734.016 713.25C734.339 713.646 734.745 713.932 735.234 714.109C735.734 714.276 736.26 714.359 736.812 714.359C737.438 714.359 737.964 714.276 738.391 714.109C738.818 713.932 739.141 713.698 739.359 713.406C739.578 713.104 739.688 712.76 739.688 712.375Z" fill="#505459"/>
<g filter="url(#filter0_d_11_2)">
<path d="M257.85 19.7637V29.7305C257.475 30.2109 256.883 30.7324 256.074 31.2949C255.277 31.8574 254.234 32.3438 252.945 32.7539C251.656 33.1523 250.074 33.3516 248.199 33.3516C246.57 33.3516 245.082 33.082 243.734 32.543C242.387 31.9922 241.227 31.1895 240.254 30.1348C239.281 29.0801 238.531 27.791 238.004 26.2676C237.477 24.7441 237.213 23.0039 237.213 21.0469V19.3594C237.213 17.4023 237.459 15.6621 237.951 14.1387C238.455 12.6152 239.17 11.3262 240.096 10.2715C241.033 9.2168 242.152 8.41406 243.453 7.86328C244.766 7.3125 246.23 7.03711 247.848 7.03711C250.016 7.03711 251.797 7.39453 253.191 8.10938C254.598 8.82422 255.676 9.80859 256.426 11.0625C257.176 12.3047 257.645 13.7344 257.832 15.3516H253.121C252.992 14.4609 252.734 13.6816 252.348 13.0137C251.961 12.334 251.41 11.8066 250.695 11.4316C249.992 11.0449 249.078 10.8516 247.953 10.8516C247.004 10.8516 246.166 11.0391 245.439 11.4141C244.713 11.7891 244.104 12.334 243.611 13.0488C243.119 13.7637 242.744 14.6484 242.486 15.7031C242.24 16.7578 242.117 17.9648 242.117 19.3242V21.0469C242.117 22.418 242.258 23.6367 242.539 24.7031C242.82 25.7578 243.225 26.6484 243.752 27.375C244.291 28.0898 244.953 28.6348 245.738 29.0098C246.535 29.373 247.438 29.5547 248.445 29.5547C249.359 29.5547 250.115 29.4785 250.713 29.3262C251.322 29.1621 251.809 28.9688 252.172 28.7461C252.535 28.5234 252.816 28.3066 253.016 28.0957V23.2969H247.936V19.7637H257.85ZM270.611 33.3516C269.17 33.3516 267.875 33.1172 266.727 32.6484C265.578 32.1797 264.6 31.5293 263.791 30.6973C262.994 29.8535 262.379 28.875 261.945 27.7617C261.523 26.6367 261.312 25.4297 261.312 24.1406V23.4375C261.312 21.9727 261.523 20.6426 261.945 19.4473C262.367 18.2402 262.965 17.2031 263.738 16.3359C264.512 15.4688 265.438 14.8008 266.516 14.332C267.594 13.8633 268.783 13.6289 270.084 13.6289C271.432 13.6289 272.621 13.8574 273.652 14.3145C274.684 14.7598 275.545 15.3926 276.236 16.2129C276.928 17.0332 277.449 18.0176 277.801 19.166C278.152 20.3027 278.328 21.5625 278.328 22.9453V24.8965L263.422 24.8965V21.6973L273.758 21.6973V21.3457C273.734 20.6074 273.594 19.9336 273.336 19.3242C273.078 18.7031 272.68 18.2109 272.141 17.8477C271.602 17.4727 270.904 17.2852 270.049 17.2852C269.357 17.2852 268.754 17.4375 268.238 17.7422C267.734 18.0352 267.312 18.457 266.973 19.0078C266.645 19.5469 266.398 20.1914 266.234 20.9414C266.07 21.6914 265.988 22.5234 265.988 23.4375V24.1406C265.988 24.9375 266.094 25.6758 266.305 26.3555C266.527 27.0352 266.85 27.627 267.271 28.1309C267.705 28.623 268.221 29.0098 268.818 29.291C269.428 29.5605 270.119 29.6953 270.893 29.6953C271.865 29.6953 272.744 29.5078 273.529 29.1328C274.326 28.7461 275.018 28.1777 275.604 27.4277L277.941 29.8535C277.543 30.4395 277.004 31.002 276.324 31.541C275.656 32.0801 274.848 32.5195 273.898 32.8594C272.949 33.1875 271.854 33.3516 270.611 33.3516ZM285.992 18.041V33H281.352V13.9805L285.711 13.9805L285.992 18.041ZM285.254 22.8047H283.883C283.895 21.4219 284.082 20.168 284.445 19.043C284.809 17.918 285.318 16.9512 285.975 16.1426C286.643 15.334 287.434 14.7129 288.348 14.2793C289.262 13.8457 290.281 13.6289 291.406 13.6289C292.32 13.6289 293.146 13.7578 293.885 14.0156C294.623 14.2734 295.256 14.6836 295.783 15.2461C296.322 15.8086 296.732 16.5469 297.014 17.4609C297.307 18.3633 297.453 19.4766 297.453 20.8008V33H292.777V20.7656C292.777 19.8984 292.648 19.2129 292.391 18.709C292.145 18.2051 291.781 17.8477 291.301 17.6367C290.832 17.4258 290.252 17.3203 289.561 17.3203C288.846 17.3203 288.219 17.4668 287.68 17.7598C287.152 18.041 286.707 18.4336 286.344 18.9375C285.992 19.4414 285.723 20.0215 285.535 20.6777C285.348 21.334 285.254 22.043 285.254 22.8047ZM310.092 33.3516C308.65 33.3516 307.355 33.1172 306.207 32.6484C305.059 32.1797 304.08 31.5293 303.271 30.6973C302.475 29.8535 301.859 28.875 301.426 27.7617C301.004 26.6367 300.793 25.4297 300.793 24.1406V23.4375C300.793 21.9727 301.004 20.6426 301.426 19.4473C301.848 18.2402 302.445 17.2031 303.219 16.3359C303.992 15.4688 304.918 14.8008 305.996 14.332C307.074 13.8633 308.264 13.6289 309.564 13.6289C310.912 13.6289 312.102 13.8574 313.133 14.3145C314.164 14.7598 315.025 15.3926 315.717 16.2129C316.408 17.0332 316.93 18.0176 317.281 19.166C317.633 20.3027 317.809 21.5625 317.809 22.9453V24.8965L302.902 24.8965V21.6973L313.238 21.6973V21.3457C313.215 20.6074 313.074 19.9336 312.816 19.3242C312.559 18.7031 312.16 18.2109 311.621 17.8477C311.082 17.4727 310.385 17.2852 309.529 17.2852C308.838 17.2852 308.234 17.4375 307.719 17.7422C307.215 18.0352 306.793 18.457 306.453 19.0078C306.125 19.5469 305.879 20.1914 305.715 20.9414C305.551 21.6914 305.469 22.5234 305.469 23.4375V24.1406C305.469 24.9375 305.574 25.6758 305.785 26.3555C306.008 27.0352 306.33 27.627 306.752 28.1309C307.186 28.623 307.701 29.0098 308.299 29.291C308.908 29.5605 309.6 29.6953 310.373 29.6953C311.346 29.6953 312.225 29.5078 313.01 29.1328C313.807 28.7461 314.498 28.1777 315.084 27.4277L317.422 29.8535C317.023 30.4395 316.484 31.002 315.805 31.541C315.137 32.0801 314.328 32.5195 313.379 32.8594C312.43 33.1875 311.334 33.3516 310.092 33.3516ZM338.428 33.3516C336.986 33.3516 335.691 33.1172 334.543 32.6484C333.395 32.1797 332.416 31.5293 331.607 30.6973C330.811 29.8535 330.195 28.875 329.762 27.7617C329.34 26.6367 329.129 25.4297 329.129 24.1406V23.4375C329.129 21.9727 329.34 20.6426 329.762 19.4473C330.184 18.2402 330.781 17.2031 331.555 16.3359C332.328 15.4688 333.254 14.8008 334.332 14.332C335.41 13.8633 336.6 13.6289 337.9 13.6289C339.248 13.6289 340.438 13.8574 341.469 14.3145C342.5 14.7598 343.361 15.3926 344.053 16.2129C344.744 17.0332 345.266 18.0176 345.617 19.166C345.969 20.3027 346.145 21.5625 346.145 22.9453V24.8965L331.238 24.8965V21.6973L341.574 21.6973V21.3457C341.551 20.6074 341.41 19.9336 341.152 19.3242C340.895 18.7031 340.496 18.2109 339.957 17.8477C339.418 17.4727 338.721 17.2852 337.865 17.2852C337.174 17.2852 336.57 17.4375 336.055 17.7422C335.551 18.0352 335.129 18.457 334.789 19.0078C334.461 19.5469 334.215 20.1914 334.051 20.9414C333.887 21.6914 333.805 22.5234 333.805 23.4375V24.1406C333.805 24.9375 333.91 25.6758 334.121 26.3555C334.344 27.0352 334.666 27.627 335.088 28.1309C335.521 28.623 336.037 29.0098 336.635 29.291C337.244 29.5605 337.936 29.6953 338.709 29.6953C339.682 29.6953 340.561 29.5078 341.346 29.1328C342.143 28.7461 342.834 28.1777 343.42 27.4277L345.758 29.8535C345.359 30.4395 344.82 31.002 344.141 31.541C343.473 32.0801 342.664 32.5195 341.715 32.8594C340.766 33.1875 339.67 33.3516 338.428 33.3516ZM352.895 13.9805L356.287 20.0273L359.732 13.9805L364.777 13.9805L359.188 23.2969L365.006 33H359.961L356.322 26.6543L352.666 33H347.621L353.422 23.2969L347.867 13.9805L352.895 13.9805ZM372.107 17.6367V40.3125H367.449V13.9805H371.756L372.107 17.6367ZM384.324 23.2969V23.666C384.324 25.0488 384.16 26.332 383.832 27.5156C383.516 28.6875 383.047 29.7129 382.426 30.5918C381.805 31.459 381.031 32.1387 380.105 32.6309C379.191 33.1113 378.137 33.3516 376.941 33.3516C375.77 33.3516 374.75 33.1289 373.883 32.6836C373.016 32.2266 372.283 31.582 371.686 30.75C371.088 29.918 370.607 28.9512 370.244 27.8496C369.893 26.7363 369.629 25.5234 369.453 24.2109V23.0332C369.629 21.6387 369.893 20.373 370.244 19.2363C370.607 18.0879 371.088 17.0977 371.686 16.2656C372.283 15.4219 373.01 14.7715 373.865 14.3145C374.732 13.8574 375.746 13.6289 376.906 13.6289C378.113 13.6289 379.174 13.8574 380.088 14.3145C381.014 14.7715 381.793 15.4277 382.426 16.2832C383.059 17.1387 383.533 18.1582 383.85 19.3418C384.166 20.5254 384.324 21.8438 384.324 23.2969ZM379.666 23.666V23.2969C379.666 22.4531 379.59 21.6738 379.438 20.959C379.285 20.2324 379.051 19.5996 378.734 19.0605C378.418 18.5098 378.008 18.082 377.504 17.7773C377 17.4727 376.391 17.3203 375.676 17.3203C374.961 17.3203 374.346 17.4375 373.83 17.6719C373.314 17.9063 372.893 18.2402 372.564 18.6738C372.236 19.1074 371.979 19.623 371.791 20.2207C371.615 20.8066 371.498 21.457 371.439 22.1719V25.0898C371.545 25.957 371.75 26.7363 372.055 27.4277C372.359 28.1191 372.805 28.6699 373.391 29.0801C373.988 29.4902 374.762 29.6953 375.711 29.6953C376.426 29.6953 377.035 29.5371 377.539 29.2207C378.043 28.9043 378.453 28.4707 378.77 27.9199C379.086 27.3574 379.314 26.7129 379.455 25.9863C379.596 25.2598 379.666 24.4863 379.666 23.666ZM392.357 17.8652V33L387.717 33V13.9805H392.111L392.357 17.8652ZM398.141 13.8574L398.07 18.1816C397.812 18.1348 397.52 18.0996 397.191 18.0762C396.875 18.0527 396.576 18.041 396.295 18.041C395.58 18.041 394.953 18.1406 394.414 18.3398C393.875 18.5273 393.424 18.8027 393.061 19.166C392.709 19.5293 392.439 19.9746 392.252 20.502C392.064 21.0176 391.959 21.6035 391.936 22.2598L390.934 22.1367C390.934 20.9297 391.057 19.8105 391.303 18.7793C391.549 17.748 391.906 16.8457 392.375 16.0723C392.844 15.2988 393.43 14.7012 394.133 14.2793C394.848 13.8457 395.668 13.6289 396.594 13.6289C396.852 13.6289 397.127 13.6523 397.42 13.6992C397.725 13.7344 397.965 13.7871 398.141 13.8574ZM408.881 33.3516C407.439 33.3516 406.145 33.1172 404.996 32.6484C403.848 32.1797 402.869 31.5293 402.061 30.6973C401.264 29.8535 400.648 28.875 400.215 27.7617C399.793 26.6367 399.582 25.4297 399.582 24.1406V23.4375C399.582 21.9727 399.793 20.6426 400.215 19.4473C400.637 18.2402 401.234 17.2031 402.008 16.3359C402.781 15.4688 403.707 14.8008 404.785 14.332C405.863 13.8633 407.053 13.6289 408.354 13.6289C409.701 13.6289 410.891 13.8574 411.922 14.3145C412.953 14.7598 413.814 15.3926 414.506 16.2129C415.197 17.0332 415.719 18.0176 416.07 19.166C416.422 20.3027 416.598 21.5625 416.598 22.9453V24.8965H401.691V21.6973H412.027V21.3457C412.004 20.6074 411.863 19.9336 411.605 19.3242C411.348 18.7031 410.949 18.2109 410.41 17.8477C409.871 17.4727 409.174 17.2852 408.318 17.2852C407.627 17.2852 407.023 17.4375 406.508 17.7422C406.004 18.0352 405.582 18.457 405.242 19.0078C404.914 19.5469 404.668 20.1914 404.504 20.9414C404.34 21.6914 404.258 22.5234 404.258 23.4375V24.1406C404.258 24.9375 404.363 25.6758 404.574 26.3555C404.797 27.0352 405.119 27.627 405.541 28.1309C405.975 28.623 406.49 29.0098 407.088 29.291C407.697 29.5605 408.389 29.6953 409.162 29.6953C410.135 29.6953 411.014 29.5078 411.799 29.1328C412.596 28.7461 413.287 28.1777 413.873 27.4277L416.211 29.8535C415.812 30.4395 415.273 31.002 414.594 31.541C413.926 32.0801 413.117 32.5195 412.168 32.8594C411.219 33.1875 410.123 33.3516 408.881 33.3516ZM430.168 27.7969C430.168 27.3984 430.062 27.041 429.852 26.7246C429.641 26.4082 429.242 26.1211 428.656 25.8633C428.082 25.5938 427.238 25.3418 426.125 25.1074C425.141 24.8965 424.232 24.6328 423.4 24.3164C422.568 24 421.854 23.6191 421.256 23.1738C420.658 22.7168 420.189 22.1836 419.85 21.5742C419.521 20.9531 419.357 20.2383 419.357 19.4297C419.357 18.6445 419.527 17.9063 419.867 17.2148C420.207 16.5117 420.699 15.8965 421.344 15.3691C421.988 14.8301 422.773 14.4082 423.699 14.1035C424.625 13.7871 425.668 13.6289 426.828 13.6289C428.445 13.6289 429.834 13.8926 430.994 14.4199C432.166 14.9473 433.062 15.6738 433.684 16.5996C434.305 17.5137 434.615 18.5449 434.615 19.6934H429.975C429.975 19.1895 429.857 18.7324 429.623 18.3223C429.4 17.9121 429.055 17.584 428.586 17.3379C428.117 17.0801 427.525 16.9512 426.811 16.9512C426.166 16.9512 425.621 17.0566 425.176 17.2676C424.742 17.4785 424.414 17.7539 424.191 18.0938C423.969 18.4336 423.857 18.8086 423.857 19.2188C423.857 19.5234 423.916 19.7988 424.033 20.0449C424.162 20.2793 424.367 20.4961 424.648 20.6953C424.93 20.8945 425.311 21.0762 425.791 21.2402C426.283 21.4043 426.887 21.5625 427.602 21.7148C429.02 21.9961 430.256 22.3711 431.311 22.8398C432.377 23.2969 433.209 23.9063 433.807 24.668C434.404 25.4297 434.703 26.4023 434.703 27.5859C434.703 28.4297 434.521 29.2031 434.158 29.9063C433.795 30.5977 433.268 31.2012 432.576 31.7168C431.885 32.2324 431.059 32.6367 430.098 32.9297C429.137 33.2109 428.053 33.3516 426.846 33.3516C425.1 33.3516 423.623 33.041 422.416 32.4199C421.209 31.7871 420.295 30.9902 419.674 30.0293C419.053 29.0566 418.742 28.0488 418.742 27.0059L423.189 27.0059C423.225 27.7441 423.424 28.3359 423.787 28.7813C424.15 29.2266 424.607 29.5488 425.158 29.748C425.721 29.9355 426.312 30.0293 426.934 30.0293C427.637 30.0293 428.229 29.9355 428.709 29.748C429.189 29.5488 429.553 29.2852 429.799 28.957C430.045 28.6172 430.168 28.2305 430.168 27.7969ZM448.695 27.7969C448.695 27.3984 448.59 27.041 448.379 26.7246C448.168 26.4082 447.77 26.1211 447.184 25.8633C446.609 25.5938 445.766 25.3418 444.652 25.1074C443.668 24.8965 442.76 24.6328 441.928 24.3164C441.096 24 440.381 23.6191 439.783 23.1738C439.186 22.7168 438.717 22.1836 438.377 21.5742C438.049 20.9531 437.885 20.2383 437.885 19.4297C437.885 18.6445 438.055 17.9063 438.395 17.2148C438.734 16.5117 439.227 15.8965 439.871 15.3691C440.516 14.8301 441.301 14.4082 442.227 14.1035C443.152 13.7871 444.195 13.6289 445.355 13.6289C446.973 13.6289 448.361 13.8926 449.521 14.4199C450.693 14.9473 451.59 15.6738 452.211 16.5996C452.832 17.5137 453.143 18.5449 453.143 19.6934H448.502C448.502 19.1895 448.385 18.7324 448.15 18.3223C447.928 17.9121 447.582 17.584 447.113 17.3379C446.645 17.0801 446.053 16.9512 445.338 16.9512C444.693 16.9512 444.148 17.0566 443.703 17.2676C443.27 17.4785 442.941 17.7539 442.719 18.0938C442.496 18.4336 442.385 18.8086 442.385 19.2188C442.385 19.5234 442.443 19.7988 442.561 20.0449C442.689 20.2793 442.895 20.4961 443.176 20.6953C443.457 20.8945 443.838 21.0762 444.318 21.2402C444.811 21.4043 445.414 21.5625 446.129 21.7148C447.547 21.9961 448.783 22.3711 449.838 22.8398C450.904 23.2969 451.736 23.9063 452.334 24.668C452.932 25.4297 453.23 26.4023 453.23 27.5859C453.23 28.4297 453.049 29.2031 452.686 29.9063C452.322 30.5977 451.795 31.2012 451.104 31.7168C450.412 32.2324 449.586 32.6367 448.625 32.9297C447.664 33.2109 446.58 33.3516 445.373 33.3516C443.627 33.3516 442.15 33.041 440.943 32.4199C439.736 31.7871 438.822 30.9902 438.201 30.0293C437.58 29.0566 437.27 28.0488 437.27 27.0059H441.717C441.752 27.7441 441.951 28.3359 442.314 28.7813C442.678 29.2266 443.135 29.5488 443.686 29.748C444.248 29.9355 444.84 30.0293 445.461 30.0293C446.164 30.0293 446.756 29.9355 447.236 29.748C447.717 29.5488 448.08 29.2852 448.326 28.957C448.572 28.6172 448.695 28.2305 448.695 27.7969ZM461.686 13.9805V33H457.027V13.9805L461.686 13.9805ZM456.711 9.00586C456.711 8.31445 456.945 7.74023 457.414 7.2832C457.895 6.82617 458.539 6.59766 459.348 6.59766C460.156 6.59766 460.795 6.82617 461.264 7.2832C461.744 7.74023 461.984 8.31445 461.984 9.00586C461.984 9.68555 461.744 10.2539 461.264 10.7109C460.795 11.168 460.156 11.3965 459.348 11.3965C458.539 11.3965 457.895 11.168 457.414 10.7109C456.945 10.2539 456.711 9.68555 456.711 9.00586ZM465.289 23.6836V23.3145C465.289 21.9199 465.488 20.6367 465.887 19.4648C466.285 18.2813 466.865 17.2559 467.627 16.3887C468.389 15.5215 469.32 14.8477 470.422 14.3672C471.523 13.875 472.777 13.6289 474.184 13.6289C475.613 13.6289 476.879 13.875 477.98 14.3672C479.094 14.8477 480.031 15.5215 480.793 16.3887C481.555 17.2559 482.135 18.2813 482.533 19.4648C482.932 20.6367 483.131 21.9199 483.131 23.3145V23.6836C483.131 25.0664 482.932 26.3496 482.533 27.5332C482.135 28.7051 481.555 29.7305 480.793 30.6094C480.031 31.4766 479.1 32.1504 477.998 32.6309C476.896 33.1113 475.637 33.3516 474.219 33.3516C472.812 33.3516 471.553 33.1113 470.439 32.6309C469.326 32.1504 468.389 31.4766 467.627 30.6094C466.865 29.7305 466.285 28.7051 465.887 27.5332C465.488 26.3496 465.289 25.0664 465.289 23.6836ZM469.93 23.3145V23.6836C469.93 24.5156 470.012 25.2949 470.176 26.0215C470.34 26.748 470.592 27.3867 470.932 27.9375C471.271 28.4883 471.711 28.9219 472.25 29.2383C472.801 29.543 473.457 29.6953 474.219 29.6953C474.969 29.6953 475.613 29.543 476.152 29.2383C476.691 28.9219 477.131 28.4883 477.471 27.9375C477.822 27.3867 478.08 26.748 478.244 26.0215C478.408 25.2949 478.49 24.5156 478.49 23.6836V23.3145C478.49 22.4941 478.408 21.7266 478.244 21.0117C478.08 20.2852 477.822 19.6465 477.471 19.0957C477.131 18.5332 476.686 18.0938 476.135 17.7773C475.596 17.4492 474.945 17.2852 474.184 17.2852C473.434 17.2852 472.789 17.4492 472.25 17.7773C471.711 18.0938 471.271 18.5332 470.932 19.0957C470.592 19.6465 470.34 20.2852 470.176 21.0117C470.012 21.7266 469.93 22.4941 469.93 23.3145ZM491.059 18.041V33H486.418V13.9805H490.777L491.059 18.041ZM490.32 22.8047L488.949 22.8047C488.961 21.4219 489.148 20.168 489.512 19.043C489.875 17.918 490.385 16.9512 491.041 16.1426C491.709 15.334 492.5 14.7129 493.414 14.2793C494.328 13.8457 495.348 13.6289 496.473 13.6289C497.387 13.6289 498.213 13.7578 498.951 14.0156C499.689 14.2734 500.322 14.6836 500.85 15.2461C501.389 15.8086 501.799 16.5469 502.08 17.4609C502.373 18.3633 502.52 19.4766 502.52 20.8008V33H497.844V20.7656C497.844 19.8984 497.715 19.2129 497.457 18.709C497.211 18.2051 496.848 17.8477 496.367 17.6367C495.898 17.4258 495.318 17.3203 494.627 17.3203C493.912 17.3203 493.285 17.4668 492.746 17.7598C492.219 18.041 491.773 18.4336 491.41 18.9375C491.059 19.4414 490.789 20.0215 490.602 20.6777C490.414 21.334 490.32 22.043 490.32 22.8047ZM520.221 17.6367V40.3125H515.562V13.9805L519.869 13.9805L520.221 17.6367ZM532.438 23.2969V23.666C532.438 25.0488 532.273 26.332 531.945 27.5156C531.629 28.6875 531.16 29.7129 530.539 30.5918C529.918 31.459 529.145 32.1387 528.219 32.6309C527.305 33.1113 526.25 33.3516 525.055 33.3516C523.883 33.3516 522.863 33.1289 521.996 32.6836C521.129 32.2266 520.396 31.582 519.799 30.75C519.201 29.918 518.721 28.9512 518.357 27.8496C518.006 26.7363 517.742 25.5234 517.566 24.2109V23.0332C517.742 21.6387 518.006 20.373 518.357 19.2363C518.721 18.0879 519.201 17.0977 519.799 16.2656C520.396 15.4219 521.123 14.7715 521.979 14.3145C522.846 13.8574 523.859 13.6289 525.02 13.6289C526.227 13.6289 527.287 13.8574 528.201 14.3145C529.127 14.7715 529.906 15.4277 530.539 16.2832C531.172 17.1387 531.646 18.1582 531.963 19.3418C532.279 20.5254 532.438 21.8438 532.438 23.2969ZM527.779 23.666V23.2969C527.779 22.4531 527.703 21.6738 527.551 20.959C527.398 20.2324 527.164 19.5996 526.848 19.0605C526.531 18.5098 526.121 18.082 525.617 17.7773C525.113 17.4727 524.504 17.3203 523.789 17.3203C523.074 17.3203 522.459 17.4375 521.943 17.6719C521.428 17.9063 521.006 18.2402 520.678 18.6738C520.35 19.1074 520.092 19.623 519.904 20.2207C519.729 20.8066 519.611 21.457 519.553 22.1719V25.0898C519.658 25.957 519.863 26.7363 520.168 27.4277C520.473 28.1191 520.918 28.6699 521.504 29.0801C522.102 29.4902 522.875 29.6953 523.824 29.6953C524.539 29.6953 525.148 29.5371 525.652 29.2207C526.156 28.9043 526.566 28.4707 526.883 27.9199C527.199 27.3574 527.428 26.7129 527.568 25.9863C527.709 25.2598 527.779 24.4863 527.779 23.666ZM544.373 33.3516C542.932 33.3516 541.637 33.1172 540.488 32.6484C539.34 32.1797 538.361 31.5293 537.553 30.6973C536.756 29.8535 536.141 28.875 535.707 27.7617C535.285 26.6367 535.074 25.4297 535.074 24.1406V23.4375C535.074 21.9727 535.285 20.6426 535.707 19.4473C536.129 18.2402 536.727 17.2031 537.5 16.3359C538.273 15.4688 539.199 14.8008 540.277 14.332C541.355 13.8633 542.545 13.6289 543.846 13.6289C545.193 13.6289 546.383 13.8574 547.414 14.3145C548.445 14.7598 549.307 15.3926 549.998 16.2129C550.689 17.0332 551.211 18.0176 551.562 19.166C551.914 20.3027 552.09 21.5625 552.09 22.9453V24.8965H537.184V21.6973H547.52V21.3457C547.496 20.6074 547.355 19.9336 547.098 19.3242C546.84 18.7031 546.441 18.2109 545.902 17.8477C545.363 17.4727 544.666 17.2852 543.811 17.2852C543.119 17.2852 542.516 17.4375 542 17.7422C541.496 18.0352 541.074 18.457 540.734 19.0078C540.406 19.5469 540.16 20.1914 539.996 20.9414C539.832 21.6914 539.75 22.5234 539.75 23.4375V24.1406C539.75 24.9375 539.855 25.6758 540.066 26.3555C540.289 27.0352 540.611 27.627 541.033 28.1309C541.467 28.623 541.982 29.0098 542.58 29.291C543.189 29.5605 543.881 29.6953 544.654 29.6953C545.627 29.6953 546.506 29.5078 547.291 29.1328C548.088 28.7461 548.779 28.1777 549.365 27.4277L551.703 29.8535C551.305 30.4395 550.766 31.002 550.086 31.541C549.418 32.0801 548.609 32.5195 547.66 32.8594C546.711 33.1875 545.615 33.3516 544.373 33.3516ZM559.842 17.8652V33H555.201V13.9805H559.596L559.842 17.8652ZM565.625 13.8574L565.555 18.1816C565.297 18.1348 565.004 18.0996 564.676 18.0762C564.359 18.0527 564.061 18.041 563.779 18.041C563.064 18.041 562.438 18.1406 561.898 18.3398C561.359 18.5273 560.908 18.8027 560.545 19.166C560.193 19.5293 559.924 19.9746 559.736 20.502C559.549 21.0176 559.443 21.6035 559.42 22.2598L558.418 22.1367C558.418 20.9297 558.541 19.8105 558.787 18.7793C559.033 17.748 559.391 16.8457 559.859 16.0723C560.328 15.2988 560.914 14.7012 561.617 14.2793C562.332 13.8457 563.152 13.6289 564.078 13.6289C564.336 13.6289 564.611 13.6523 564.904 13.6992C565.209 13.7344 565.449 13.7871 565.625 13.8574ZM576.312 23.6836V23.3145C576.312 21.9199 576.512 20.6367 576.91 19.4648C577.309 18.2813 577.889 17.2559 578.65 16.3887C579.412 15.5215 580.344 14.8477 581.445 14.3672C582.547 13.875 583.801 13.6289 585.207 13.6289C586.637 13.6289 587.902 13.875 589.004 14.3672C590.117 14.8477 591.055 15.5215 591.816 16.3887C592.578 17.2559 593.158 18.2813 593.557 19.4648C593.955 20.6367 594.154 21.9199 594.154 23.3145V23.6836C594.154 25.0664 593.955 26.3496 593.557 27.5332C593.158 28.7051 592.578 29.7305 591.816 30.6094C591.055 31.4766 590.123 32.1504 589.021 32.6309C587.92 33.1113 586.66 33.3516 585.242 33.3516C583.836 33.3516 582.576 33.1113 581.463 32.6309C580.35 32.1504 579.412 31.4766 578.65 30.6094C577.889 29.7305 577.309 28.7051 576.91 27.5332C576.512 26.3496 576.312 25.0664 576.312 23.6836ZM580.953 23.3145V23.6836C580.953 24.5156 581.035 25.2949 581.199 26.0215C581.363 26.748 581.615 27.3867 581.955 27.9375C582.295 28.4883 582.734 28.9219 583.273 29.2383C583.824 29.543 584.48 29.6953 585.242 29.6953C585.992 29.6953 586.637 29.543 587.176 29.2383C587.715 28.9219 588.154 28.4883 588.494 27.9375C588.846 27.3867 589.104 26.748 589.268 26.0215C589.432 25.2949 589.514 24.5156 589.514 23.6836V23.3145C589.514 22.4941 589.432 21.7266 589.268 21.0117C589.104 20.2852 588.846 19.6465 588.494 19.0957C588.154 18.5332 587.709 18.0938 587.158 17.7773C586.619 17.4492 585.969 17.2852 585.207 17.2852C584.457 17.2852 583.812 17.4492 583.273 17.7773C582.734 18.0938 582.295 18.5332 581.955 19.0957C581.615 19.6465 581.363 20.2852 581.199 21.0117C581.035 21.7266 580.953 22.4941 580.953 23.3145ZM602.17 17.8652V33H597.529V13.9805H601.924L602.17 17.8652ZM607.953 13.8574L607.883 18.1816C607.625 18.1348 607.332 18.0996 607.004 18.0762C606.688 18.0527 606.389 18.041 606.107 18.041C605.393 18.041 604.766 18.1406 604.227 18.3398C603.688 18.5273 603.236 18.8027 602.873 19.166C602.521 19.5293 602.252 19.9746 602.064 20.502C601.877 21.0176 601.771 21.6035 601.748 22.2598L600.746 22.1367C600.746 20.9297 600.869 19.8105 601.115 18.7793C601.361 17.748 601.719 16.8457 602.188 16.0723C602.656 15.2988 603.242 14.7012 603.945 14.2793C604.66 13.8457 605.48 13.6289 606.406 13.6289C606.664 13.6289 606.939 13.6523 607.232 13.6992C607.537 13.7344 607.777 13.7871 607.953 13.8574ZM622.244 13.9805H626.463V32.4199C626.463 34.1426 626.088 35.6016 625.338 36.7969C624.6 38.0039 623.562 38.918 622.227 39.5391C620.891 40.1719 619.338 40.4883 617.568 40.4883C616.807 40.4883 615.98 40.3828 615.09 40.1719C614.211 39.9609 613.361 39.627 612.541 39.1699C611.732 38.7246 611.059 38.1445 610.52 37.4297L612.611 34.6875C613.244 35.4258 613.959 35.9824 614.756 36.3574C615.553 36.7441 616.414 36.9375 617.34 36.9375C618.277 36.9375 619.074 36.7617 619.73 36.4102C620.398 36.0703 620.908 35.5664 621.26 34.8984C621.623 34.2422 621.805 33.4336 621.805 32.4727V18.3223L622.244 13.9805ZM609.395 23.7188V23.3496C609.395 21.8965 609.57 20.5781 609.922 19.3945C610.273 18.1992 610.777 17.1738 611.434 16.3184C612.102 15.4629 612.904 14.8008 613.842 14.332C614.791 13.8633 615.857 13.6289 617.041 13.6289C618.295 13.6289 619.35 13.8574 620.205 14.3145C621.072 14.7715 621.787 15.4219 622.35 16.2656C622.924 17.1094 623.369 18.1113 623.686 19.2715C624.014 20.4199 624.266 21.6855 624.441 23.0684V24.0703C624.277 25.418 624.014 26.6543 623.65 27.7793C623.299 28.9043 622.83 29.8887 622.244 30.7324C621.658 31.5645 620.932 32.209 620.064 32.666C619.197 33.123 618.178 33.3516 617.006 33.3516C615.834 33.3516 614.779 33.1113 613.842 32.6309C612.904 32.1504 612.102 31.4766 611.434 30.6094C610.777 29.7422 610.273 28.7227 609.922 27.5508C609.57 26.3789 609.395 25.1016 609.395 23.7188ZM614.035 23.3496V23.7188C614.035 24.5391 614.117 25.3066 614.281 26.0215C614.445 26.7363 614.697 27.3691 615.037 27.9199C615.377 28.459 615.805 28.8809 616.32 29.1855C616.836 29.4902 617.451 29.6426 618.166 29.6426C619.127 29.6426 619.912 29.4434 620.521 29.0449C621.143 28.6348 621.611 28.0781 621.928 27.375C622.256 26.6602 622.467 25.8574 622.561 24.9668V22.207C622.502 21.5039 622.373 20.8535 622.174 20.2559C621.986 19.6582 621.723 19.1426 621.383 18.709C621.043 18.2754 620.609 17.9355 620.082 17.6895C619.555 17.4434 618.928 17.3203 618.201 17.3203C617.498 17.3203 616.883 17.4785 616.355 17.7949C615.828 18.0996 615.395 18.5273 615.055 19.0781C614.715 19.6289 614.457 20.2676 614.281 20.9941C614.117 21.7207 614.035 22.5059 614.035 23.3496ZM641.123 28.957V20.1855C641.123 19.541 641.012 18.9844 640.789 18.5156C640.566 18.0469 640.227 17.6836 639.77 17.4258C639.312 17.168 638.732 17.0391 638.029 17.0391C637.408 17.0391 636.863 17.1445 636.395 17.3555C635.938 17.5664 635.586 17.8652 635.34 18.252C635.094 18.627 634.971 19.0605 634.971 19.5527H630.312C630.312 18.7676 630.5 18.0234 630.875 17.3203C631.25 16.6055 631.783 15.9727 632.475 15.4219C633.178 14.8594 634.016 14.4199 634.988 14.1035C635.973 13.7871 637.074 13.6289 638.293 13.6289C639.734 13.6289 641.018 13.875 642.143 14.3672C643.279 14.8477 644.17 15.5742 644.814 16.5469C645.471 17.5195 645.799 18.7441 645.799 20.2207V28.5176C645.799 29.4668 645.857 30.2813 645.975 30.9609C646.104 31.6289 646.291 32.209 646.537 32.7012V33H641.809C641.586 32.5195 641.416 31.9102 641.299 31.1719C641.182 30.4219 641.123 29.6836 641.123 28.957ZM641.773 21.416L641.809 24.1758H638.873C638.146 24.1758 637.508 24.252 636.957 24.4043C636.406 24.5449 635.955 24.7559 635.604 25.0371C635.252 25.3066 634.988 25.6348 634.812 26.0215C634.637 26.3965 634.549 26.8242 634.549 27.3047C634.549 27.7734 634.654 28.1953 634.865 28.5703C635.088 28.9453 635.404 29.2441 635.814 29.4668C636.236 29.6777 636.729 29.7832 637.291 29.7832C638.111 29.7832 638.826 29.6191 639.436 29.291C640.045 28.9512 640.52 28.541 640.859 28.0605C641.199 27.5801 641.381 27.123 641.404 26.6895L642.74 28.6934C642.576 29.1738 642.33 29.6836 642.002 30.2227C641.674 30.7617 641.252 31.2656 640.736 31.7344C640.221 32.2031 639.6 32.5898 638.873 32.8945C638.146 33.1992 637.303 33.3516 636.342 33.3516C635.111 33.3516 634.01 33.1055 633.037 32.6133C632.064 32.1211 631.297 31.4473 630.734 30.5918C630.172 29.7363 629.891 28.7637 629.891 27.6738C629.891 26.666 630.078 25.7754 630.453 25.002C630.828 24.2285 631.385 23.5781 632.123 23.0508C632.861 22.5117 633.775 22.1074 634.865 21.8379C635.967 21.5566 637.227 21.416 638.645 21.416H641.773ZM654.535 18.041V33H649.895V13.9805H654.254L654.535 18.041ZM653.797 22.8047H652.426C652.438 21.4219 652.625 20.168 652.988 19.043C653.352 17.918 653.861 16.9512 654.518 16.1426C655.186 15.334 655.977 14.7129 656.891 14.2793C657.805 13.8457 658.824 13.6289 659.949 13.6289C660.863 13.6289 661.689 13.7578 662.428 14.0156C663.166 14.2734 663.799 14.6836 664.326 15.2461C664.865 15.8086 665.275 16.5469 665.557 17.4609C665.85 18.3633 665.996 19.4766 665.996 20.8008V33H661.32V20.7656C661.32 19.8984 661.191 19.2129 660.934 18.709C660.688 18.2051 660.324 17.8477 659.844 17.6367C659.375 17.4258 658.795 17.3203 658.104 17.3203C657.389 17.3203 656.762 17.4668 656.223 17.7598C655.695 18.041 655.25 18.4336 654.887 18.9375C654.535 19.4414 654.266 20.0215 654.078 20.6777C653.891 21.334 653.797 22.043 653.797 22.8047Z" fill="#505459"/>
</g>
<defs>
<filter id="filter0_d_11_2" x="233.213" y="6.59766" width="436.783" height="41.8906" filterUnits="userSpaceOnUse" color-interpolation-filters="sRGB">
<feFlood flood-opacity="0" result="BackgroundImageFix"/>
<feColorMatrix in="SourceAlpha" type="matrix" values="0 0 0 0 0 0 0 0 0 0 0 0 0 0 0 0 0 0 127 0" result="hardAlpha"/>
<feOffset dy="4"/>
<feGaussianBlur stdDeviation="2"/>
<feComposite in2="hardAlpha" operator="out"/>
<feColorMatrix type="matrix" values="0 0 0 0 0 0 0 0 0 0 0 0 0 0 0 0 0 0 0.25 0"/>
<feBlend mode="normal" in2="BackgroundImageFix" result="effect1_dropShadow_11_2"/>
<feBlend mode="normal" in="SourceGraphic" in2="effect1_dropShadow_11_2" result="shape"/>
</filter>
</defs>
</svg>
