<svg width="172" height="156" viewBox="0 0 172 156" fill="none" xmlns="http://www.w3.org/2000/svg">
<path d="M0 20.6508C0 20.294 0.331791 20.0048 0.741075 20.0048H8.59294H16.4448C16.8541 20.0048 17.1859 20.294 17.1859 20.6508V72.9795C17.1859 73.3363 16.8541 73.6255 16.4448 73.6255H0.741075C0.331791 73.6255 0 73.3363 0 72.9795V20.6508Z" fill="#505459" fill-opacity="0.4"/>
<path d="M7.5372 1.92139H9.64868V20.4893H7.5372V1.92139Z" fill="#505459" fill-opacity="0.8"/>
<path d="M9.64868 106.868H7.5372V73.464H9.64868V106.868Z" fill="#505459" fill-opacity="0.8"/>
<path d="M5.36985 0H11.816V1.92139H8.59294H5.36985V0Z" fill="#505459" fill-opacity="0.8"/>
<path d="M11.816 108.79H5.36985L5.36985 106.868H11.816V108.79Z" fill="#505459" fill-opacity="0.8"/>
<path d="M0 54.8491H8.59294H17.1859" stroke="#505459" stroke-opacity="0.8" stroke-width="2"/>
<path d="M0 51.29H8.59294H17.1859" stroke="#505459" stroke-opacity="0.8" stroke-width="2" stroke-dasharray="2 2"/>
<path d="M38.7036 41.7333C38.7036 41.3765 39.0354 41.0872 39.4447 41.0872H47.2966H55.1484C55.5577 41.0872 55.8895 41.3765 55.8895 41.7333V106.649C55.8895 107.005 55.5577 107.295 55.1484 107.295H39.4447C39.0354 107.295 38.7036 107.005 38.7036 106.649V41.7333Z" fill="#337AB7" fill-opacity="0.4"/>
<path d="M46.2408 29.2971H48.3523V41.5718H46.2408V29.2971Z" fill="#337AB7" fill-opacity="0.9"/>
<path d="M48.3523 137.391H46.2408V107.133H48.3523V137.391Z" fill="#337AB7" fill-opacity="0.9"/>
<path d="M44.0735 27.3757H50.5196V29.2971H47.2966H44.0735V27.3757Z" fill="#337AB7" fill-opacity="0.9"/>
<path d="M50.5196 139.312H44.0735L44.0735 137.391H50.5196V139.312Z" fill="#337AB7" fill-opacity="0.9"/>
<path d="M38.7036 74.9315H47.2966H55.8895" stroke="#337AB7" stroke-opacity="0.9" stroke-width="2"/>
<path d="M38.7036 81.8123H47.2966H55.8895" stroke="#337AB7" stroke-opacity="0.9" stroke-width="2" stroke-dasharray="2 2"/>
<path d="M77.4071 64.3888C77.4071 64.032 77.7389 63.7428 78.1482 63.7428H86H93.8519C94.2612 63.7428 94.593 64.032 94.593 64.3888V110.424C94.593 110.781 94.2612 111.07 93.8519 111.07H78.1482C77.7389 111.07 77.4071 110.781 77.4071 110.424V64.3888Z" fill="#337AB7" fill-opacity="0.4"/>
<path d="M84.9443 33.0729H87.0558V64.2273H84.9443V33.0729Z" fill="#337AB7" fill-opacity="0.9"/>
<path d="M87.0558 153.753H84.9443V110.909H87.0558V153.753Z" fill="#337AB7" fill-opacity="0.9"/>
<path d="M82.777 31.1515H89.2231V33.0729H86H82.777V31.1515Z" fill="#337AB7" fill-opacity="0.9"/>
<path d="M89.2231 155.674H82.777L82.777 153.753H89.2231V155.674Z" fill="#337AB7" fill-opacity="0.9"/>
<path d="M77.4071 94.4406H86H94.593" stroke="#337AB7" stroke-opacity="0.9" stroke-width="2"/>
<path d="M77.4071 85.5881H86H94.593" stroke="#337AB7" stroke-opacity="0.9" stroke-width="2" stroke-dasharray="2 2"/>
<path d="M116.111 63.445C116.111 63.0882 116.442 62.799 116.852 62.799H124.704H132.555C132.965 62.799 133.296 63.0882 133.296 63.445V96.8939C133.296 97.2507 132.965 97.54 132.555 97.54H116.852C116.442 97.54 116.111 97.2507 116.111 96.8939V63.445Z" fill="#505459" fill-opacity="0.4"/>
<path d="M123.648 25.8358H125.759V63.2835H123.648V25.8358Z" fill="#505459" fill-opacity="0.8"/>
<path d="M125.759 121.343H123.648V97.3784H125.759V121.343Z" fill="#505459" fill-opacity="0.8"/>
<path d="M121.48 23.9144H127.927V25.8358H124.704H121.48V23.9144Z" fill="#505459" fill-opacity="0.8"/>
<path d="M127.927 123.264H121.48L121.48 121.343H127.927V123.264Z" fill="#505459" fill-opacity="0.8"/>
<path d="M116.111 73.0435H124.704H133.296" stroke="#505459" stroke-opacity="0.8" stroke-width="2"/>
<path d="M116.111 77.0923H124.704H133.296" stroke="#505459" stroke-opacity="0.8" stroke-width="2" stroke-dasharray="2 2"/>
<path d="M154.814 42.677C154.814 42.3202 155.146 42.031 155.555 42.031H163.407H171.259C171.668 42.031 172 42.3202 172 42.677V101.299C172 101.656 171.668 101.945 171.259 101.945H155.555C155.146 101.945 154.814 101.656 154.814 101.299V42.677Z" fill="#505459" fill-opacity="0.4"/>
<path d="M162.351 8.21449H164.463V42.5155H162.351V8.21449Z" fill="#505459" fill-opacity="0.8"/>
<path d="M164.463 141.481H162.351V101.784H164.463V141.481Z" fill="#505459" fill-opacity="0.8"/>
<path d="M160.184 6.29309H166.63V8.21449H163.407H160.184V6.29309Z" fill="#505459" fill-opacity="0.8"/>
<path d="M166.63 143.403H160.184L160.184 141.481H166.63V143.403Z" fill="#505459" fill-opacity="0.8"/>
<path d="M154.814 77.4486H163.407H172" stroke="#505459" stroke-opacity="0.8" stroke-width="2"/>
<path d="M154.814 73.8895H163.407H172" stroke="#505459" stroke-opacity="0.8" stroke-width="2" stroke-dasharray="2 2"/>
</svg>
