<svg width="811" height="751" viewBox="0 0 811 751" fill="none" xmlns="http://www.w3.org/2000/svg">
<rect x="91" y="94" width="5" height="611" rx="2.5" fill="#505459"/>
<rect x="811" y="701" width="5.00004" height="720" rx="2.50002" transform="rotate(90 811 701)" fill="#505459"/>
<path d="M178 232.628C178 231.494 179.054 230.575 180.355 230.575H205.308H230.262C231.562 230.575 232.617 231.494 232.617 232.628V398.929C232.617 400.063 231.562 400.982 230.262 400.982H180.355C179.054 400.982 178 400.063 178 398.929V232.628Z" fill="#505459" fill-opacity="0.5"/>
<path d="M201.953 173.106H208.664V232.115H201.953V173.106Z" fill="#505459"/>
<path d="M208.664 506.628H201.953V400.469H208.664V506.628Z" fill="#505459"/>
<path d="M195.065 167H215.551V173.106H205.308H195.065V167Z" fill="#505459"/>
<path d="M215.551 512.734H195.065L195.065 506.628H215.551V512.734Z" fill="#505459"/>
<path d="M178 338.133H205.308H232.617" stroke="#505459" stroke-width="2"/>
<path d="M178 330H205.308H232.617" stroke="#505459" stroke-width="2" stroke-dasharray="4 4"/>
<path d="M301 299.628C301 298.494 302.054 297.575 303.355 297.575H328.308H353.262C354.562 297.575 355.617 298.494 355.617 299.628V505.929C355.617 507.063 354.562 507.982 353.262 507.982H303.355C302.054 507.982 301 507.063 301 505.929V299.628Z" fill="#505459" fill-opacity="0.5"/>
<path d="M324.953 260.106H331.664V299.115H324.953V260.106Z" fill="#505459"/>
<path d="M331.664 603.628H324.953V507.469H331.664V603.628Z" fill="#505459"/>
<path d="M318.065 254H338.551V260.106H328.308H318.065V254Z" fill="#505459"/>
<path d="M338.551 609.734H318.065L318.065 603.628H338.551V609.734Z" fill="#505459"/>
<path d="M301 405.133H328.308H355.617" stroke="#505459" stroke-width="2"/>
<path d="M301 427H328.308H355.617" stroke="#505459" stroke-width="2" stroke-dasharray="4 4"/>
<path d="M424 371.628C424 370.494 425.054 369.575 426.355 369.575H451.308H476.262C477.562 369.575 478.617 370.494 478.617 371.628V517.929C478.617 519.063 477.562 519.982 476.262 519.982H426.355C425.054 519.982 424 519.063 424 517.929V371.628Z" fill="#505459" fill-opacity="0.5"/>
<path d="M447.953 272.106H454.664V371.115H447.953V272.106Z" fill="#505459"/>
<path d="M454.664 655.628H447.953V519.469H454.664V655.628Z" fill="#505459"/>
<path d="M441.065 266H461.551V272.106H451.308H441.065V266Z" fill="#505459"/>
<path d="M461.551 661.734H441.065L441.065 655.628H461.551V661.734Z" fill="#505459"/>
<path d="M424 467.133H451.308H478.617" stroke="#505459" stroke-width="2"/>
<path d="M424 439H451.308H478.617" stroke="#505459" stroke-width="2" stroke-dasharray="4 4"/>
<path d="M547 368.628C547 367.494 548.054 366.575 549.355 366.575H574.308H599.262C600.562 366.575 601.617 367.494 601.617 368.628V474.929C601.617 476.063 600.562 476.982 599.262 476.982H549.355C548.054 476.982 547 476.063 547 474.929V368.628Z" fill="#505459" fill-opacity="0.5"/>
<path d="M570.953 249.106H577.664V368.115H570.953V249.106Z" fill="#505459"/>
<path d="M577.664 552.628H570.953V476.469H577.664V552.628Z" fill="#505459"/>
<path d="M564.065 243H584.551V249.106H574.308H564.065V243Z" fill="#505459"/>
<path d="M584.551 558.734H564.065L564.065 552.628H584.551V558.734Z" fill="#505459"/>
<path d="M547 399.133H574.308H601.617" stroke="#505459" stroke-width="2"/>
<path d="M547 412H574.308H601.617" stroke="#505459" stroke-width="2" stroke-dasharray="4 4"/>
<path d="M670 302.628C670 301.494 671.054 300.575 672.355 300.575H697.308H722.262C723.562 300.575 724.617 301.494 724.617 302.628V488.929C724.617 490.063 723.562 490.982 722.262 490.982H672.355C671.054 490.982 670 490.063 670 488.929V302.628Z" fill="#505459" fill-opacity="0.5"/>
<path d="M693.953 193.106H700.664V302.115H693.953V193.106Z" fill="#505459"/>
<path d="M700.664 616.628H693.953V490.469H700.664V616.628Z" fill="#505459"/>
<path d="M687.065 187H707.551V193.106H697.308H687.065V187Z" fill="#505459"/>
<path d="M707.551 622.734H687.065L687.065 616.628H707.551V622.734Z" fill="#505459"/>
<path d="M670 413.133H697.308H724.617" stroke="#505459" stroke-width="2"/>
<path d="M670 405H697.308H724.617" stroke="#505459" stroke-width="2" stroke-dasharray="4 4"/>
<path d="M39 485.746L57 485.746L57 488.852L39 488.852L39 485.746ZM50.7891 483.344L50.543 483.344C49.6133 483.344 48.7578 483.211 47.9766 482.945C47.1875 482.68 46.5039 482.293 45.9258 481.785C45.3477 481.277 44.8984 480.656 44.5781 479.922C44.25 479.187 44.0859 478.352 44.0859 477.414C44.0859 476.461 44.25 475.617 44.5781 474.883C44.8984 474.141 45.3477 473.516 45.9258 473.008C46.5039 472.5 47.1875 472.113 47.9766 471.848C48.7578 471.582 49.6133 471.449 50.543 471.449L50.7891 471.449C51.7109 471.449 52.5664 471.582 53.3555 471.848C54.1367 472.113 54.8203 472.5 55.4062 473.008C55.9844 473.516 56.4336 474.137 56.7539 474.871C57.0742 475.605 57.2344 476.445 57.2344 477.391C57.2344 478.328 57.0742 479.168 56.7539 479.91C56.4336 480.652 55.9844 481.277 55.4062 481.785C54.8203 482.293 54.1367 482.68 53.3555 482.945C52.5664 483.211 51.7109 483.344 50.7891 483.344ZM50.543 480.25L50.7891 480.25C51.3437 480.25 51.8633 480.195 52.3477 480.086C52.832 479.977 53.2578 479.809 53.625 479.582C53.9922 479.355 54.2812 479.062 54.4922 478.703C54.6953 478.336 54.7969 477.898 54.7969 477.391C54.7969 476.891 54.6953 476.461 54.4922 476.102C54.2812 475.742 53.9922 475.449 53.625 475.223C53.2578 474.988 52.832 474.816 52.3477 474.707C51.8633 474.598 51.3437 474.543 50.7891 474.543L50.543 474.543C49.9961 474.543 49.4844 474.598 49.0078 474.707C48.5234 474.816 48.0977 474.988 47.7305 475.223C47.3555 475.449 47.0625 475.746 46.8516 476.113C46.6328 476.473 46.5234 476.906 46.5234 477.414C46.5234 477.914 46.6328 478.344 46.8516 478.703C47.0625 479.062 47.3555 479.355 47.7305 479.582C48.0977 479.809 48.5234 479.977 49.0078 480.086C49.4844 480.195 49.9961 480.25 50.543 480.25ZM44.3203 461.137L44.3203 458.324L56.6133 458.324C57.7617 458.324 58.7344 458.574 59.5312 459.074C60.3359 459.566 60.9453 460.258 61.3594 461.148C61.7812 462.039 61.9922 463.074 61.9922 464.254C61.9922 464.762 61.9219 465.312 61.7812 465.906C61.6406 466.492 61.418 467.059 61.1133 467.605C60.8164 468.145 60.4297 468.594 59.9531 468.953L58.125 467.559C58.6172 467.137 58.9883 466.66 59.2383 466.129C59.4961 465.598 59.625 465.023 59.625 464.406C59.625 463.781 59.5078 463.25 59.2734 462.812C59.0469 462.367 58.7109 462.027 58.2656 461.793C57.8281 461.551 57.2891 461.43 56.6484 461.43L47.2148 461.43L44.3203 461.137ZM50.8125 469.703L50.5664 469.703C49.5977 469.703 48.7187 469.586 47.9297 469.352C47.1328 469.117 46.4492 468.781 45.8789 468.344C45.3086 467.898 44.8672 467.363 44.5547 466.738C44.2422 466.105 44.0859 465.395 44.0859 464.605C44.0859 463.77 44.2383 463.066 44.543 462.496C44.8477 461.918 45.2812 461.441 45.8437 461.066C46.4062 460.684 47.0742 460.387 47.8477 460.176C48.6133 459.957 49.457 459.789 50.3789 459.672L51.0469 459.672C51.9453 459.781 52.7695 459.957 53.5195 460.199C54.2695 460.434 54.9258 460.746 55.4883 461.137C56.043 461.527 56.4727 462.012 56.7773 462.59C57.082 463.168 57.2344 463.848 57.2344 464.629C57.2344 465.41 57.0742 466.113 56.7539 466.738C56.4336 467.363 55.9844 467.898 55.4062 468.344C54.8281 468.781 54.1484 469.117 53.3672 469.352C52.5859 469.586 51.7344 469.703 50.8125 469.703ZM50.5664 466.609L50.8125 466.609C51.3594 466.609 51.8711 466.555 52.3477 466.445C52.8242 466.336 53.2461 466.168 53.6133 465.941C53.9727 465.715 54.2539 465.43 54.457 465.086C54.6602 464.742 54.7617 464.332 54.7617 463.855C54.7617 463.215 54.6289 462.691 54.3633 462.285C54.0898 461.871 53.7187 461.559 53.25 461.348C52.7734 461.129 52.2383 460.988 51.6445 460.926L49.8047 460.926C49.3359 460.965 48.9023 461.051 48.5039 461.184C48.1055 461.309 47.7617 461.484 47.4727 461.711C47.1836 461.937 46.957 462.227 46.793 462.578C46.6289 462.93 46.5469 463.348 46.5469 463.832C46.5469 464.301 46.6523 464.711 46.8633 465.062C47.0664 465.414 47.3516 465.703 47.7187 465.93C48.0859 466.156 48.5117 466.328 48.9961 466.445C49.4805 466.555 50.0039 466.609 50.5664 466.609ZM54.5625 444.145L57 444.145L57 455.699L54.9141 455.699L48.9258 450.156C48.2695 449.578 47.6992 449.121 47.2148 448.785C46.7305 448.449 46.293 448.211 45.9023 448.07C45.5039 447.922 45.125 447.848 44.7656 447.848C44.2422 447.848 43.7852 447.941 43.3945 448.129C42.9961 448.316 42.6875 448.59 42.4687 448.949C42.25 449.301 42.1406 449.734 42.1406 450.25C42.1406 450.82 42.2734 451.309 42.5391 451.715C42.7969 452.113 43.1562 452.418 43.6172 452.629C44.0781 452.832 44.6055 452.934 45.1992 452.934L45.1992 456.039C44.1914 456.039 43.2734 455.805 42.4453 455.336C41.6094 454.867 40.9414 454.195 40.4414 453.32C39.9414 452.445 39.6914 451.406 39.6914 450.203C39.6914 449.031 39.8867 448.039 40.2773 447.227C40.6602 446.414 41.207 445.797 41.918 445.375C42.6289 444.953 43.4766 444.742 44.4609 444.742C45.0078 444.742 45.5469 444.832 46.0781 445.012C46.6094 445.191 47.1367 445.445 47.6602 445.773C48.1758 446.094 48.6992 446.477 49.2305 446.922C49.7617 447.367 50.3047 447.863 50.8594 448.41L54.5625 451.738L54.5625 444.145ZM50.2852 441.73L50.0625 441.73C48.4062 441.73 46.9023 441.555 45.5508 441.203C44.1914 440.844 43 440.375 41.9766 439.797C40.9531 439.219 40.1055 438.594 39.4336 437.922C38.7539 437.242 38.2656 436.582 37.9687 435.941L39.668 435.332C40.0039 435.777 40.4648 436.223 41.0508 436.668C41.6289 437.105 42.3437 437.504 43.1953 437.863C44.0469 438.223 45.0391 438.512 46.1719 438.73C47.3047 438.941 48.5937 439.047 50.0391 439.047L50.3086 439.047C51.7539 439.047 53.0469 438.941 54.1875 438.73C55.3203 438.512 56.3125 438.223 57.1641 437.863C58.0156 437.504 58.7383 437.105 59.332 436.668C59.9258 436.223 60.3945 435.777 60.7383 435.332L62.3906 435.941C62.0859 436.582 61.5977 437.242 60.9258 437.922C60.2539 438.594 59.4062 439.219 58.3828 439.797C57.3594 440.375 56.1719 440.844 54.8203 441.203C53.4609 441.555 51.9492 441.73 50.2852 441.73ZM39.9375 425.922L57 425.922L57 429.133L39.9375 429.133L39.9375 425.922ZM39.9375 420.625L42.4805 420.625L42.4805 434.371L39.9375 434.371L39.9375 420.625ZM50.7773 411.918L50.7773 416.312L48.2461 416.312L48.2461 411.918C48.2461 411.199 48.1289 410.617 47.8945 410.172C47.6523 409.719 47.3242 409.387 46.9102 409.176C46.4883 408.965 46.0078 408.859 45.4687 408.859C44.9453 408.859 44.457 408.965 44.0039 409.176C43.5508 409.387 43.1836 409.719 42.9023 410.172C42.6211 410.617 42.4805 411.199 42.4805 411.918L42.4805 415.258L57 415.258L57 418.48L39.9375 418.48L39.9375 411.918C39.9375 410.59 40.1758 409.457 40.6523 408.52C41.1211 407.574 41.7734 406.855 42.6094 406.363C43.4375 405.863 44.3828 405.613 45.4453 405.613C46.5469 405.613 47.4961 405.863 48.293 406.363C49.0898 406.855 49.7031 407.574 50.1328 408.52C50.5625 409.457 50.7773 410.59 50.7773 411.918ZM39.9375 401.676L39.9375 398.887L52.7812 394.223L39.9375 389.57L39.9375 386.77L57 393.109L57 395.348L39.9375 401.676ZM39.9375 403.082L39.9375 400.352L51.7383 399.859L57 399.859L57 403.082L39.9375 403.082ZM39.9375 388.105L39.9375 385.363L57 385.363L57 388.586L51.7383 388.586L39.9375 388.105ZM47.5664 371.301L50.3203 371.301L50.3203 382.996L47.5664 382.996L47.5664 371.301ZM42.8672 375.66L55.2891 375.66L55.2891 378.625L42.8672 378.625L42.8672 375.66ZM39.8906 361.316L57 361.316L57 364.422L43.5117 364.422L44.8711 368.535L42.3633 368.535L39.8906 361.668L39.8906 361.316ZM50.0625 349.797L50.2851 349.797C51.9101 349.797 53.3984 349.98 54.75 350.348C56.1016 350.707 57.293 351.184 58.3242 351.777C59.3555 352.363 60.2148 353.004 60.9023 353.699C61.5898 354.387 62.0859 355.062 62.3906 355.727L60.7383 356.336C60.4023 355.891 59.9414 355.449 59.3555 355.012C58.7695 354.574 58.0469 354.176 57.1875 353.816C56.3281 353.449 55.3281 353.16 54.1875 352.949C53.0469 352.73 51.7539 352.621 50.3086 352.621L50.0391 352.621C48.5937 352.621 47.3008 352.734 46.1601 352.961C45.0195 353.18 44.0234 353.473 43.1719 353.84C42.3125 354.207 41.5898 354.609 41.0039 355.047C40.4101 355.484 39.9492 355.914 39.6211 356.336L37.9687 355.727C38.2656 355.062 38.7617 354.387 39.457 353.699C40.1445 353.004 41.0078 352.363 42.0469 351.777C43.0781 351.184 44.2695 350.707 45.6211 350.348C46.9648 349.98 48.4453 349.797 50.0625 349.797ZM55.4883 346.926C55.0195 346.926 54.625 346.766 54.3047 346.445C53.9844 346.125 53.8242 345.691 53.8242 345.145C53.8242 344.598 53.9844 344.164 54.3047 343.844C54.625 343.523 55.0195 343.363 55.4883 343.363C55.9492 343.363 56.3398 343.523 56.6601 343.844C56.9726 344.164 57.1289 344.598 57.1289 345.145C57.1289 345.691 56.9726 346.125 56.6601 346.445C56.3398 346.766 55.9492 346.926 55.4883 346.926ZM45.6562 346.914C45.1875 346.914 44.793 346.754 44.4726 346.434C44.1523 346.113 43.9922 345.68 43.9922 345.133C43.9922 344.586 44.1523 344.152 44.4726 343.832C44.793 343.512 45.1875 343.352 45.6562 343.352C46.1172 343.352 46.5078 343.512 46.8281 343.832C47.1406 344.152 47.2969 344.586 47.2969 345.133C47.2969 345.68 47.1406 346.113 46.8281 346.434C46.5078 346.754 46.1172 346.914 45.6562 346.914ZM53.7305 330.051L39.9375 326.652L39.9375 324.812L42.8437 324.695L57 328.328L57 330.273L53.7305 330.051ZM39.9375 332.195L53.6836 329.406L57 329.406L57 331.527L39.9375 335.395L39.9375 332.195ZM53.625 321.168L39.9375 318.426L39.9375 315.215L57 319.082L57 321.203L53.625 321.168ZM39.9375 323.934L53.7773 320.535L57 320.336L57 322.281L42.832 325.902L39.9375 325.762L39.9375 323.934ZM54.4687 301.867L57 301.867L57 310.937L54.4687 310.937L54.4687 301.867ZM39.9375 309.953L57 309.953L57 313.176L39.9375 313.176L39.9375 309.953ZM46.9805 303.051L49.4531 303.051L49.4531 310.937L46.9805 310.937L46.9805 303.051ZM39.9375 301.902L42.4805 301.902L42.4805 310.937L39.9375 310.937L39.9375 301.902ZM54.4687 288.32L57 288.32L57 297.391L54.4687 297.391L54.4687 288.32ZM39.9375 296.406L57 296.406L57 299.629L39.9375 299.629L39.9375 296.406ZM46.9805 289.504L49.4531 289.504L49.4531 297.391L46.9805 297.391L46.9805 289.504ZM39.9375 288.355L42.4805 288.355L42.4805 297.391L39.9375 297.391L39.9375 288.355ZM39.8906 278.512L57 278.512L57 281.617L43.5117 281.617L44.8711 285.73L42.3633 285.73L39.8906 278.863L39.8906 278.512Z" fill="#505459"/>
<path d="M190.816 742.469V745H182.238V742.469H190.816ZM183.211 727.938V745H179.988V727.938H183.211ZM196.02 732.32V745H192.914V732.32H196.02ZM192.703 729.004C192.703 728.543 192.859 728.16 193.172 727.855C193.492 727.551 193.922 727.398 194.461 727.398C195 727.398 195.426 727.551 195.738 727.855C196.059 728.16 196.219 728.543 196.219 729.004C196.219 729.457 196.059 729.836 195.738 730.141C195.426 730.445 195 730.598 194.461 730.598C193.922 730.598 193.492 730.445 193.172 730.141C192.859 729.836 192.703 729.457 192.703 729.004ZM203.18 742.656L206.133 732.32H209.367L205.02 745H203.051L203.18 742.656ZM201.023 732.32L204.012 742.68L204.117 745H202.137L197.777 732.32H201.023ZM216.527 745.234C215.566 745.234 214.703 745.078 213.938 744.766C213.172 744.453 212.52 744.02 211.98 743.465C211.449 742.902 211.039 742.25 210.75 741.508C210.469 740.758 210.328 739.953 210.328 739.094V738.625C210.328 737.648 210.469 736.762 210.75 735.965C211.031 735.16 211.43 734.469 211.945 733.891C212.461 733.312 213.078 732.867 213.797 732.555C214.516 732.242 215.309 732.086 216.176 732.086C217.074 732.086 217.867 732.238 218.555 732.543C219.242 732.84 219.816 733.262 220.277 733.809C220.738 734.355 221.086 735.012 221.32 735.777C221.555 736.535 221.672 737.375 221.672 738.297V739.598H211.734V737.465H218.625V737.23C218.609 736.738 218.516 736.289 218.344 735.883C218.172 735.469 217.906 735.141 217.547 734.898C217.188 734.648 216.723 734.523 216.152 734.523C215.691 734.523 215.289 734.625 214.945 734.828C214.609 735.023 214.328 735.305 214.102 735.672C213.883 736.031 213.719 736.461 213.609 736.961C213.5 737.461 213.445 738.016 213.445 738.625V739.094C213.445 739.625 213.516 740.117 213.656 740.57C213.805 741.023 214.02 741.418 214.301 741.754C214.59 742.082 214.934 742.34 215.332 742.527C215.738 742.707 216.199 742.797 216.715 742.797C217.363 742.797 217.949 742.672 218.473 742.422C219.004 742.164 219.465 741.785 219.855 741.285L221.414 742.902C221.148 743.293 220.789 743.668 220.336 744.027C219.891 744.387 219.352 744.68 218.719 744.906C218.086 745.125 217.355 745.234 216.527 745.234ZM226.84 734.91V745H223.746V732.32H226.676L226.84 734.91ZM230.695 732.238L230.648 735.121C230.477 735.09 230.281 735.066 230.062 735.051C229.852 735.035 229.652 735.027 229.465 735.027C228.988 735.027 228.57 735.094 228.211 735.227C227.852 735.352 227.551 735.535 227.309 735.777C227.074 736.02 226.895 736.316 226.77 736.668C226.645 737.012 226.574 737.402 226.559 737.84L225.891 737.758C225.891 736.953 225.973 736.207 226.137 735.52C226.301 734.832 226.539 734.23 226.852 733.715C227.164 733.199 227.555 732.801 228.023 732.52C228.5 732.23 229.047 732.086 229.664 732.086C229.836 732.086 230.02 732.102 230.215 732.133C230.418 732.156 230.578 732.191 230.695 732.238Z" fill="#505459"/>
<path d="M296.797 727.938V745H293.574V727.938H296.797ZM307.039 727.938L300.195 736.258L296.281 740.441L295.707 737.312L298.426 733.785L303.09 727.938H307.039ZM303.453 745L298.145 737.008L300.453 734.922L307.285 745H303.453ZM311.832 732.32V745H308.727V732.32H311.832ZM308.516 729.004C308.516 728.543 308.672 728.16 308.984 727.855C309.305 727.551 309.734 727.398 310.273 727.398C310.812 727.398 311.238 727.551 311.551 727.855C311.871 728.16 312.031 728.543 312.031 729.004C312.031 729.457 311.871 729.836 311.551 730.141C311.238 730.445 310.812 730.598 310.273 730.598C309.734 730.598 309.305 730.445 308.984 730.141C308.672 729.836 308.516 729.457 308.516 729.004ZM322.391 742.305V727H325.508V745H322.695L322.391 742.305ZM314.246 738.812V738.566C314.246 737.598 314.355 736.719 314.574 735.93C314.801 735.133 315.129 734.449 315.559 733.879C315.988 733.309 316.508 732.867 317.117 732.555C317.734 732.242 318.434 732.086 319.215 732.086C319.973 732.086 320.633 732.238 321.195 732.543C321.766 732.848 322.25 733.281 322.648 733.844C323.055 734.406 323.379 735.074 323.621 735.848C323.863 736.613 324.039 737.457 324.148 738.379V739.047C324.039 739.945 323.863 740.77 323.621 741.52C323.379 742.27 323.055 742.926 322.648 743.488C322.25 744.043 321.766 744.473 321.195 744.777C320.625 745.082 319.957 745.234 319.191 745.234C318.418 745.234 317.723 745.074 317.105 744.754C316.496 744.434 315.977 743.984 315.547 743.406C315.125 742.828 314.801 742.148 314.574 741.367C314.355 740.586 314.246 739.734 314.246 738.812ZM317.352 738.566V738.812C317.352 739.359 317.398 739.871 317.492 740.348C317.586 740.824 317.738 741.246 317.949 741.613C318.16 741.973 318.43 742.254 318.758 742.457C319.094 742.66 319.5 742.762 319.977 742.762C320.586 742.762 321.086 742.629 321.477 742.363C321.875 742.09 322.184 741.719 322.402 741.25C322.621 740.773 322.762 740.238 322.824 739.645V737.805C322.793 737.336 322.711 736.902 322.578 736.504C322.453 736.105 322.273 735.762 322.039 735.473C321.812 735.184 321.531 734.957 321.195 734.793C320.859 734.629 320.461 734.547 320 734.547C319.523 734.547 319.117 734.652 318.781 734.863C318.445 735.066 318.172 735.352 317.961 735.719C317.75 736.086 317.594 736.512 317.492 736.996C317.398 737.48 317.352 738.004 317.352 738.566ZM331.344 735.027V745H328.25V732.32H331.156L331.344 735.027ZM330.852 738.203H329.938C329.945 737.281 330.07 736.445 330.312 735.695C330.555 734.945 330.895 734.301 331.332 733.762C331.777 733.223 332.305 732.809 332.914 732.52C333.523 732.23 334.203 732.086 334.953 732.086C335.562 732.086 336.113 732.172 336.605 732.344C337.098 732.516 337.52 732.789 337.871 733.164C338.23 733.539 338.504 734.031 338.691 734.641C338.887 735.242 338.984 735.984 338.984 736.867V745H335.867V736.844C335.867 736.266 335.781 735.809 335.609 735.473C335.445 735.137 335.203 734.898 334.883 734.758C334.57 734.617 334.184 734.547 333.723 734.547C333.246 734.547 332.828 734.645 332.469 734.84C332.117 735.027 331.82 735.289 331.578 735.625C331.344 735.961 331.164 736.348 331.039 736.785C330.914 737.223 330.852 737.695 330.852 738.203ZM347.41 745.234C346.449 745.234 345.586 745.078 344.82 744.766C344.055 744.453 343.402 744.02 342.863 743.465C342.332 742.902 341.922 742.25 341.633 741.508C341.352 740.758 341.211 739.953 341.211 739.094V738.625C341.211 737.648 341.352 736.762 341.633 735.965C341.914 735.16 342.312 734.469 342.828 733.891C343.344 733.312 343.961 732.867 344.68 732.555C345.398 732.242 346.191 732.086 347.059 732.086C347.957 732.086 348.75 732.238 349.438 732.543C350.125 732.84 350.699 733.262 351.16 733.809C351.621 734.355 351.969 735.012 352.203 735.777C352.438 736.535 352.555 737.375 352.555 738.297V739.598H342.617V737.465H349.508V737.23C349.492 736.738 349.398 736.289 349.227 735.883C349.055 735.469 348.789 735.141 348.43 734.898C348.07 734.648 347.605 734.523 347.035 734.523C346.574 734.523 346.172 734.625 345.828 734.828C345.492 735.023 345.211 735.305 344.984 735.672C344.766 736.031 344.602 736.461 344.492 736.961C344.383 737.461 344.328 738.016 344.328 738.625V739.094C344.328 739.625 344.398 740.117 344.539 740.57C344.688 741.023 344.902 741.418 345.184 741.754C345.473 742.082 345.816 742.34 346.215 742.527C346.621 742.707 347.082 742.797 347.598 742.797C348.246 742.797 348.832 742.672 349.355 742.422C349.887 742.164 350.348 741.785 350.738 741.285L352.297 742.902C352.031 743.293 351.672 743.668 351.219 744.027C350.773 744.387 350.234 744.68 349.602 744.906C348.969 745.125 348.238 745.234 347.41 745.234ZM358.18 743.594L361.578 732.32H364.895L359.809 746.922C359.691 747.234 359.539 747.574 359.352 747.941C359.172 748.309 358.93 748.656 358.625 748.984C358.32 749.32 357.938 749.594 357.477 749.805C357.023 750.016 356.473 750.121 355.824 750.121C355.543 750.121 355.293 750.102 355.074 750.062C354.855 750.023 354.625 749.973 354.383 749.91V747.59C354.461 747.598 354.551 747.602 354.652 747.602C354.762 747.609 354.855 747.613 354.934 747.613C355.387 747.613 355.762 747.559 356.059 747.449C356.355 747.348 356.594 747.18 356.773 746.945C356.961 746.719 357.117 746.422 357.242 746.055L358.18 743.594ZM356.504 732.32L359.375 741.66L359.879 744.93L357.746 745.316L353.164 732.32H356.504Z" fill="#505459"/>
<path d="M432.02 737.395H427.66L427.637 735.121H431.375C432.016 735.121 432.551 735.031 432.98 734.852C433.41 734.672 433.734 734.41 433.953 734.066C434.18 733.723 434.293 733.305 434.293 732.812C434.293 732.266 434.188 731.82 433.977 731.477C433.773 731.133 433.453 730.883 433.016 730.727C432.578 730.562 432.023 730.48 431.352 730.48H428.703V745H425.48V727.938H431.352C432.32 727.938 433.184 728.031 433.941 728.219C434.707 728.398 435.355 728.68 435.887 729.062C436.418 729.445 436.82 729.926 437.094 730.504C437.375 731.082 437.516 731.77 437.516 732.566C437.516 733.27 437.352 733.918 437.023 734.512C436.703 735.098 436.207 735.574 435.535 735.941C434.871 736.309 434.027 736.52 433.004 736.574L432.02 737.395ZM431.879 745H426.711L428.059 742.469H431.879C432.52 742.469 433.047 742.363 433.461 742.152C433.883 741.941 434.195 741.652 434.398 741.285C434.609 740.91 434.715 740.48 434.715 739.996C434.715 739.465 434.621 739.004 434.434 738.613C434.254 738.223 433.965 737.922 433.566 737.711C433.176 737.5 432.66 737.395 432.02 737.395H428.668L428.691 735.121H432.957L433.695 736C434.68 736.008 435.48 736.203 436.098 736.586C436.723 736.969 437.184 737.461 437.48 738.062C437.777 738.664 437.926 739.312 437.926 740.008C437.926 741.102 437.688 742.02 437.211 742.762C436.742 743.504 436.055 744.062 435.148 744.438C434.25 744.812 433.16 745 431.879 745ZM439.93 738.789V738.543C439.93 737.613 440.062 736.758 440.328 735.977C440.594 735.188 440.98 734.504 441.488 733.926C441.996 733.348 442.617 732.898 443.352 732.578C444.086 732.25 444.922 732.086 445.859 732.086C446.812 732.086 447.656 732.25 448.391 732.578C449.133 732.898 449.758 733.348 450.266 733.926C450.773 734.504 451.16 735.188 451.426 735.977C451.691 736.758 451.824 737.613 451.824 738.543V738.789C451.824 739.711 451.691 740.566 451.426 741.355C451.16 742.137 450.773 742.82 450.266 743.406C449.758 743.984 449.137 744.434 448.402 744.754C447.668 745.074 446.828 745.234 445.883 745.234C444.945 745.234 444.105 745.074 443.363 744.754C442.621 744.434 441.996 743.984 441.488 743.406C440.98 742.82 440.594 742.137 440.328 741.355C440.062 740.566 439.93 739.711 439.93 738.789ZM443.023 738.543V738.789C443.023 739.344 443.078 739.863 443.188 740.348C443.297 740.832 443.465 741.258 443.691 741.625C443.918 741.992 444.211 742.281 444.57 742.492C444.938 742.695 445.375 742.797 445.883 742.797C446.383 742.797 446.812 742.695 447.172 742.492C447.531 742.281 447.824 741.992 448.051 741.625C448.285 741.258 448.457 740.832 448.566 740.348C448.676 739.863 448.73 739.344 448.73 738.789V738.543C448.73 737.996 448.676 737.484 448.566 737.008C448.457 736.523 448.285 736.098 448.051 735.73C447.824 735.355 447.527 735.062 447.16 734.852C446.801 734.633 446.367 734.523 445.859 734.523C445.359 734.523 444.93 734.633 444.57 734.852C444.211 735.062 443.918 735.355 443.691 735.73C443.465 736.098 443.297 736.523 443.188 737.008C443.078 737.484 443.023 737.996 443.023 738.543ZM457.109 735.027V745H454.016V732.32H456.922L457.109 735.027ZM456.617 738.203H455.703C455.711 737.281 455.836 736.445 456.078 735.695C456.32 734.945 456.66 734.301 457.098 733.762C457.543 733.223 458.07 732.809 458.68 732.52C459.289 732.23 459.969 732.086 460.719 732.086C461.328 732.086 461.879 732.172 462.371 732.344C462.863 732.516 463.285 732.789 463.637 733.164C463.996 733.539 464.27 734.031 464.457 734.641C464.652 735.242 464.75 735.984 464.75 736.867V745H461.633V736.844C461.633 736.266 461.547 735.809 461.375 735.473C461.211 735.137 460.969 734.898 460.648 734.758C460.336 734.617 459.949 734.547 459.488 734.547C459.012 734.547 458.594 734.645 458.234 734.84C457.883 735.027 457.586 735.289 457.344 735.625C457.109 735.961 456.93 736.348 456.805 736.785C456.68 737.223 456.617 737.695 456.617 738.203ZM473.176 745.234C472.215 745.234 471.352 745.078 470.586 744.766C469.82 744.453 469.168 744.02 468.629 743.465C468.098 742.902 467.688 742.25 467.398 741.508C467.117 740.758 466.977 739.953 466.977 739.094V738.625C466.977 737.648 467.117 736.762 467.398 735.965C467.68 735.16 468.078 734.469 468.594 733.891C469.109 733.312 469.727 732.867 470.445 732.555C471.164 732.242 471.957 732.086 472.824 732.086C473.723 732.086 474.516 732.238 475.203 732.543C475.891 732.84 476.465 733.262 476.926 733.809C477.387 734.355 477.734 735.012 477.969 735.777C478.203 736.535 478.32 737.375 478.32 738.297V739.598H468.383V737.465H475.273V737.23C475.258 736.738 475.164 736.289 474.992 735.883C474.82 735.469 474.555 735.141 474.195 734.898C473.836 734.648 473.371 734.523 472.801 734.523C472.34 734.523 471.938 734.625 471.594 734.828C471.258 735.023 470.977 735.305 470.75 735.672C470.531 736.031 470.367 736.461 470.258 736.961C470.148 737.461 470.094 738.016 470.094 738.625V739.094C470.094 739.625 470.164 740.117 470.305 740.57C470.453 741.023 470.668 741.418 470.949 741.754C471.238 742.082 471.582 742.34 471.98 742.527C472.387 742.707 472.848 742.797 473.363 742.797C474.012 742.797 474.598 742.672 475.121 742.422C475.652 742.164 476.113 741.785 476.504 741.285L478.062 742.902C477.797 743.293 477.438 743.668 476.984 744.027C476.539 744.387 476 744.68 475.367 744.906C474.734 745.125 474.004 745.234 473.176 745.234Z" fill="#505459"/>
<path d="M560.59 740.57C560.59 740.242 560.539 739.949 560.438 739.691C560.344 739.426 560.168 739.188 559.91 738.977C559.66 738.758 559.305 738.547 558.844 738.344C558.391 738.133 557.805 737.914 557.086 737.688C556.289 737.438 555.547 737.156 554.859 736.844C554.172 736.531 553.566 736.168 553.043 735.754C552.527 735.34 552.125 734.863 551.836 734.324C551.547 733.777 551.402 733.145 551.402 732.426C551.402 731.723 551.551 731.082 551.848 730.504C552.152 729.926 552.582 729.43 553.137 729.016C553.691 728.594 554.344 728.27 555.094 728.043C555.852 727.816 556.688 727.703 557.602 727.703C558.867 727.703 559.961 727.934 560.883 728.395C561.812 728.855 562.531 729.48 563.039 730.27C563.547 731.059 563.801 731.945 563.801 732.93H560.59C560.59 732.398 560.477 731.93 560.25 731.523C560.031 731.117 559.695 730.797 559.242 730.562C558.797 730.328 558.234 730.211 557.555 730.211C556.898 730.211 556.352 730.309 555.914 730.504C555.484 730.699 555.16 730.965 554.941 731.301C554.73 731.637 554.625 732.012 554.625 732.426C554.625 732.738 554.699 733.02 554.848 733.27C554.996 733.512 555.219 733.742 555.516 733.961C555.812 734.172 556.18 734.371 556.617 734.559C557.062 734.738 557.578 734.918 558.164 735.098C559.102 735.379 559.922 735.691 560.625 736.035C561.336 736.379 561.926 736.77 562.395 737.207C562.871 737.645 563.227 738.137 563.461 738.684C563.703 739.23 563.824 739.852 563.824 740.547C563.824 741.281 563.68 741.938 563.391 742.516C563.102 743.094 562.688 743.586 562.148 743.992C561.609 744.398 560.961 744.707 560.203 744.918C559.453 745.129 558.613 745.234 557.684 745.234C556.855 745.234 556.035 745.125 555.223 744.906C554.418 744.68 553.688 744.344 553.031 743.898C552.375 743.445 551.852 742.875 551.461 742.188C551.07 741.492 550.875 740.68 550.875 739.75H554.109C554.109 740.289 554.195 740.75 554.367 741.133C554.547 741.508 554.797 741.816 555.117 742.059C555.445 742.293 555.828 742.465 556.266 742.574C556.703 742.684 557.176 742.738 557.684 742.738C558.34 742.738 558.879 742.648 559.301 742.469C559.73 742.281 560.051 742.023 560.262 741.695C560.48 741.367 560.59 740.992 560.59 740.57ZM569.168 726.988V745H566.074V726.988H569.168ZM577.113 732.32L571.594 738.52L568.605 741.555L567.621 739.152L569.93 736.246L573.375 732.32H577.113ZM573.949 745L570.023 739.094L572.086 737.09L577.535 745H573.949ZM582.035 732.32V745H578.93V732.32H582.035ZM578.719 729.004C578.719 728.543 578.875 728.16 579.188 727.855C579.508 727.551 579.938 727.398 580.477 727.398C581.016 727.398 581.441 727.551 581.754 727.855C582.074 728.16 582.234 728.543 582.234 729.004C582.234 729.457 582.074 729.836 581.754 730.141C581.441 730.445 581.016 730.598 580.477 730.598C579.938 730.598 579.508 730.445 579.188 730.141C578.875 729.836 578.719 729.457 578.719 729.004ZM588.023 735.027V745H584.93V732.32H587.836L588.023 735.027ZM587.531 738.203H586.617C586.625 737.281 586.75 736.445 586.992 735.695C587.234 734.945 587.574 734.301 588.012 733.762C588.457 733.223 588.984 732.809 589.594 732.52C590.203 732.23 590.883 732.086 591.633 732.086C592.242 732.086 592.793 732.172 593.285 732.344C593.777 732.516 594.199 732.789 594.551 733.164C594.91 733.539 595.184 734.031 595.371 734.641C595.566 735.242 595.664 735.984 595.664 736.867V745H592.547V736.844C592.547 736.266 592.461 735.809 592.289 735.473C592.125 735.137 591.883 734.898 591.562 734.758C591.25 734.617 590.863 734.547 590.402 734.547C589.926 734.547 589.508 734.645 589.148 734.84C588.797 735.027 588.5 735.289 588.258 735.625C588.023 735.961 587.844 736.348 587.719 736.785C587.594 737.223 587.531 737.695 587.531 738.203Z" fill="#505459"/>
<path d="M672.965 727.938H676.188V739.27C676.188 740.574 675.906 741.672 675.344 742.562C674.781 743.445 674.016 744.113 673.047 744.566C672.078 745.012 670.977 745.234 669.742 745.234C668.492 745.234 667.379 745.012 666.402 744.566C665.426 744.113 664.66 743.445 664.105 742.562C663.551 741.672 663.273 740.574 663.273 739.27V727.938H666.496V739.27C666.496 740.066 666.629 740.719 666.895 741.227C667.16 741.727 667.535 742.098 668.02 742.34C668.504 742.582 669.078 742.703 669.742 742.703C670.414 742.703 670.988 742.582 671.465 742.34C671.949 742.098 672.32 741.727 672.578 741.227C672.836 740.719 672.965 740.066 672.965 739.27V727.938ZM685.012 732.32V734.547H677.746V732.32H685.012ZM679.691 729.203H682.797V741.344C682.797 741.719 682.848 742.008 682.949 742.211C683.051 742.414 683.203 742.551 683.406 742.621C683.609 742.691 683.852 742.727 684.133 742.727C684.336 742.727 684.523 742.715 684.695 742.691C684.867 742.668 685.012 742.645 685.129 742.621L685.141 744.941C684.883 745.027 684.59 745.098 684.262 745.152C683.941 745.207 683.578 745.234 683.172 745.234C682.477 745.234 681.867 745.117 681.344 744.883C680.82 744.641 680.414 744.254 680.125 743.723C679.836 743.184 679.691 742.473 679.691 741.59V729.203ZM692.77 745.234C691.809 745.234 690.945 745.078 690.18 744.766C689.414 744.453 688.762 744.02 688.223 743.465C687.691 742.902 687.281 742.25 686.992 741.508C686.711 740.758 686.57 739.953 686.57 739.094V738.625C686.57 737.648 686.711 736.762 686.992 735.965C687.273 735.16 687.672 734.469 688.188 733.891C688.703 733.312 689.32 732.867 690.039 732.555C690.758 732.242 691.551 732.086 692.418 732.086C693.316 732.086 694.109 732.238 694.797 732.543C695.484 732.84 696.059 733.262 696.52 733.809C696.98 734.355 697.328 735.012 697.562 735.777C697.797 736.535 697.914 737.375 697.914 738.297V739.598H687.977V737.465H694.867V737.23C694.852 736.738 694.758 736.289 694.586 735.883C694.414 735.469 694.148 735.141 693.789 734.898C693.43 734.648 692.965 734.523 692.395 734.523C691.934 734.523 691.531 734.625 691.188 734.828C690.852 735.023 690.57 735.305 690.344 735.672C690.125 736.031 689.961 736.461 689.852 736.961C689.742 737.461 689.688 738.016 689.688 738.625V739.094C689.688 739.625 689.758 740.117 689.898 740.57C690.047 741.023 690.262 741.418 690.543 741.754C690.832 742.082 691.176 742.34 691.574 742.527C691.98 742.707 692.441 742.797 692.957 742.797C693.605 742.797 694.191 742.672 694.715 742.422C695.246 742.164 695.707 741.785 696.098 741.285L697.656 742.902C697.391 743.293 697.031 743.668 696.578 744.027C696.133 744.387 695.594 744.68 694.961 744.906C694.328 745.125 693.598 745.234 692.77 745.234ZM703.082 734.91V745H699.988V732.32H702.918L703.082 734.91ZM706.938 732.238L706.891 735.121C706.719 735.09 706.523 735.066 706.305 735.051C706.094 735.035 705.895 735.027 705.707 735.027C705.23 735.027 704.812 735.094 704.453 735.227C704.094 735.352 703.793 735.535 703.551 735.777C703.316 736.02 703.137 736.316 703.012 736.668C702.887 737.012 702.816 737.402 702.801 737.84L702.133 737.758C702.133 736.953 702.215 736.207 702.379 735.52C702.543 734.832 702.781 734.23 703.094 733.715C703.406 733.199 703.797 732.801 704.266 732.52C704.742 732.23 705.289 732.086 705.906 732.086C706.078 732.086 706.262 732.102 706.457 732.133C706.66 732.156 706.82 732.191 706.938 732.238ZM716.184 741.988V732.32H719.301V745H716.371L716.184 741.988ZM716.582 739.363L717.543 739.34C717.543 740.191 717.449 740.977 717.262 741.695C717.074 742.414 716.781 743.039 716.383 743.57C715.992 744.094 715.496 744.504 714.895 744.801C714.293 745.09 713.582 745.234 712.762 745.234C712.137 745.234 711.566 745.148 711.051 744.977C710.535 744.797 710.09 744.52 709.715 744.145C709.348 743.762 709.062 743.273 708.859 742.68C708.656 742.078 708.555 741.355 708.555 740.512V732.32H711.648V740.535C711.648 740.957 711.695 741.309 711.789 741.59C711.891 741.871 712.027 742.102 712.199 742.281C712.379 742.453 712.586 742.578 712.82 742.656C713.062 742.727 713.32 742.762 713.594 742.762C714.344 742.762 714.934 742.613 715.363 742.316C715.801 742.012 716.113 741.605 716.301 741.098C716.488 740.582 716.582 740.004 716.582 739.363ZM729.016 741.531C729.016 741.266 728.945 741.027 728.805 740.816C728.664 740.605 728.398 740.414 728.008 740.242C727.625 740.062 727.062 739.895 726.32 739.738C725.664 739.598 725.059 739.422 724.504 739.211C723.949 739 723.473 738.746 723.074 738.449C722.676 738.145 722.363 737.789 722.137 737.383C721.918 736.969 721.809 736.492 721.809 735.953C721.809 735.43 721.922 734.938 722.148 734.477C722.375 734.008 722.703 733.598 723.133 733.246C723.562 732.887 724.086 732.605 724.703 732.402C725.32 732.191 726.016 732.086 726.789 732.086C727.867 732.086 728.793 732.262 729.566 732.613C730.348 732.965 730.945 733.449 731.359 734.066C731.773 734.676 731.98 735.363 731.98 736.129H728.887C728.887 735.793 728.809 735.488 728.652 735.215C728.504 734.941 728.273 734.723 727.961 734.559C727.648 734.387 727.254 734.301 726.777 734.301C726.348 734.301 725.984 734.371 725.688 734.512C725.398 734.652 725.18 734.836 725.031 735.062C724.883 735.289 724.809 735.539 724.809 735.812C724.809 736.016 724.848 736.199 724.926 736.363C725.012 736.52 725.148 736.664 725.336 736.797C725.523 736.93 725.777 737.051 726.098 737.16C726.426 737.27 726.828 737.375 727.305 737.477C728.25 737.664 729.074 737.914 729.777 738.227C730.488 738.531 731.043 738.938 731.441 739.445C731.84 739.953 732.039 740.602 732.039 741.391C732.039 741.953 731.918 742.469 731.676 742.938C731.434 743.398 731.082 743.801 730.621 744.145C730.16 744.488 729.609 744.758 728.969 744.953C728.328 745.141 727.605 745.234 726.801 745.234C725.637 745.234 724.652 745.027 723.848 744.613C723.043 744.191 722.434 743.66 722.02 743.02C721.605 742.371 721.398 741.699 721.398 741.004H724.363C724.387 741.496 724.52 741.891 724.762 742.188C725.004 742.484 725.309 742.699 725.676 742.832C726.051 742.957 726.445 743.02 726.859 743.02C727.328 743.02 727.723 742.957 728.043 742.832C728.363 742.699 728.605 742.523 728.77 742.305C728.934 742.078 729.016 741.82 729.016 741.531Z" fill="#505459"/>
<g filter="url(#filter0_d_11_2)">
<path d="M278.422 18.2344V27.0938C278.089 27.5208 277.562 27.9844 276.844 28.4844C276.135 28.9844 275.208 29.4167 274.062 29.7813C272.917 30.1354 271.51 30.3125 269.844 30.3125C268.396 30.3125 267.073 30.0729 265.875 29.5938C264.677 29.1042 263.646 28.3906 262.781 27.4531C261.917 26.5156 261.25 25.3698 260.781 24.0156C260.312 22.6615 260.078 21.1146 260.078 19.375V17.875C260.078 16.1354 260.297 14.5885 260.734 13.2344C261.182 11.8802 261.818 10.7344 262.641 9.79688C263.474 8.85938 264.469 8.14583 265.625 7.65625C266.792 7.16667 268.094 6.92188 269.531 6.92188C271.458 6.92188 273.042 7.23958 274.281 7.875C275.531 8.51042 276.49 9.38542 277.156 10.5C277.823 11.6042 278.24 12.875 278.406 14.3125L274.219 14.3125C274.104 13.5208 273.875 12.8281 273.531 12.2344C273.188 11.6302 272.698 11.1615 272.062 10.8281C271.438 10.4844 270.625 10.3125 269.625 10.3125C268.781 10.3125 268.036 10.4792 267.391 10.8125C266.745 11.1458 266.203 11.6302 265.766 12.2656C265.328 12.901 264.995 13.6875 264.766 14.625C264.547 15.5625 264.438 16.6354 264.438 17.8438V19.375C264.438 20.5938 264.562 21.6771 264.812 22.625C265.062 23.5625 265.422 24.3542 265.891 25C266.37 25.6354 266.958 26.1198 267.656 26.4531C268.365 26.776 269.167 26.9375 270.062 26.9375C270.875 26.9375 271.547 26.8698 272.078 26.7344C272.62 26.5885 273.052 26.4167 273.375 26.2188C273.698 26.0208 273.948 25.8281 274.125 25.6406V21.375H269.609V18.2344H278.422ZM289.766 30.3125C288.484 30.3125 287.333 30.1042 286.312 29.6875C285.292 29.2708 284.422 28.6927 283.703 27.9531C282.995 27.2031 282.448 26.3333 282.062 25.3438C281.688 24.3438 281.5 23.2708 281.5 22.125V21.5C281.5 20.1979 281.688 19.0156 282.062 17.9531C282.438 16.8802 282.969 15.9583 283.656 15.1875C284.344 14.4167 285.167 13.8229 286.125 13.4063C287.083 12.9896 288.141 12.7813 289.297 12.7813C290.495 12.7813 291.552 12.9844 292.469 13.3906C293.385 13.7865 294.151 14.349 294.766 15.0781C295.38 15.8073 295.844 16.6823 296.156 17.7031C296.469 18.7135 296.625 19.8333 296.625 21.0625V22.7969L283.375 22.7969V19.9531L292.562 19.9531V19.6406C292.542 18.9844 292.417 18.3854 292.188 17.8438C291.958 17.2917 291.604 16.8542 291.125 16.5313C290.646 16.1979 290.026 16.0313 289.266 16.0313C288.651 16.0313 288.115 16.1667 287.656 16.4375C287.208 16.6979 286.833 17.0729 286.531 17.5625C286.24 18.0417 286.021 18.6146 285.875 19.2813C285.729 19.9479 285.656 20.6875 285.656 21.5V22.125C285.656 22.8333 285.75 23.4896 285.938 24.0938C286.135 24.6979 286.422 25.224 286.797 25.6719C287.182 26.1094 287.641 26.4531 288.172 26.7031C288.714 26.9427 289.328 27.0625 290.016 27.0625C290.88 27.0625 291.661 26.8958 292.359 26.5625C293.068 26.2188 293.682 25.7135 294.203 25.0469L296.281 27.2031C295.927 27.724 295.448 28.224 294.844 28.7031C294.25 29.1823 293.531 29.5729 292.688 29.875C291.844 30.1667 290.87 30.3125 289.766 30.3125ZM303.438 16.7031V30H299.312V13.0938H303.188L303.438 16.7031ZM302.781 20.9375H301.562C301.573 19.7083 301.74 18.5938 302.062 17.5938C302.385 16.5938 302.839 15.7344 303.422 15.0156C304.016 14.2969 304.719 13.7448 305.531 13.3594C306.344 12.974 307.25 12.7813 308.25 12.7813C309.062 12.7813 309.797 12.8958 310.453 13.125C311.109 13.3542 311.672 13.7188 312.141 14.2188C312.62 14.7188 312.984 15.375 313.234 16.1875C313.495 16.9896 313.625 17.9792 313.625 19.1563V30L309.469 30V19.125C309.469 18.3542 309.354 17.7448 309.125 17.2969C308.906 16.849 308.583 16.5313 308.156 16.3438C307.74 16.1563 307.224 16.0625 306.609 16.0625C305.974 16.0625 305.417 16.1927 304.938 16.4531C304.469 16.7031 304.073 17.0521 303.75 17.5C303.438 17.9479 303.198 18.4635 303.031 19.0469C302.865 19.6302 302.781 20.2604 302.781 20.9375ZM324.859 30.3125C323.578 30.3125 322.427 30.1042 321.406 29.6875C320.385 29.2708 319.516 28.6927 318.797 27.9531C318.089 27.2031 317.542 26.3333 317.156 25.3438C316.781 24.3438 316.594 23.2708 316.594 22.125V21.5C316.594 20.1979 316.781 19.0156 317.156 17.9531C317.531 16.8802 318.062 15.9583 318.75 15.1875C319.438 14.4167 320.26 13.8229 321.219 13.4063C322.177 12.9896 323.234 12.7813 324.391 12.7813C325.589 12.7813 326.646 12.9844 327.562 13.3906C328.479 13.7865 329.245 14.349 329.859 15.0781C330.474 15.8073 330.938 16.6823 331.25 17.7031C331.562 18.7135 331.719 19.8333 331.719 21.0625V22.7969H318.469V19.9531H327.656V19.6406C327.635 18.9844 327.51 18.3854 327.281 17.8438C327.052 17.2917 326.698 16.8542 326.219 16.5313C325.74 16.1979 325.12 16.0313 324.359 16.0313C323.745 16.0313 323.208 16.1667 322.75 16.4375C322.302 16.6979 321.927 17.0729 321.625 17.5625C321.333 18.0417 321.115 18.6146 320.969 19.2813C320.823 19.9479 320.75 20.6875 320.75 21.5V22.125C320.75 22.8333 320.844 23.4896 321.031 24.0938C321.229 24.6979 321.516 25.224 321.891 25.6719C322.276 26.1094 322.734 26.4531 323.266 26.7031C323.807 26.9427 324.422 27.0625 325.109 27.0625C325.974 27.0625 326.755 26.8958 327.453 26.5625C328.161 26.2188 328.776 25.7135 329.297 25.0469L331.375 27.2031C331.021 27.724 330.542 28.224 329.938 28.7031C329.344 29.1823 328.625 29.5729 327.781 29.875C326.938 30.1667 325.964 30.3125 324.859 30.3125ZM350.047 30.3125C348.766 30.3125 347.615 30.1042 346.594 29.6875C345.573 29.2708 344.703 28.6927 343.984 27.9531C343.276 27.2031 342.729 26.3333 342.344 25.3438C341.969 24.3438 341.781 23.2708 341.781 22.125V21.5C341.781 20.1979 341.969 19.0156 342.344 17.9531C342.719 16.8802 343.25 15.9583 343.938 15.1875C344.625 14.4167 345.448 13.8229 346.406 13.4063C347.365 12.9896 348.422 12.7813 349.578 12.7813C350.776 12.7813 351.833 12.9844 352.75 13.3906C353.667 13.7865 354.432 14.349 355.047 15.0781C355.661 15.8073 356.125 16.6823 356.438 17.7031C356.75 18.7135 356.906 19.8333 356.906 21.0625V22.7969H343.656V19.9531H352.844V19.6406C352.823 18.9844 352.698 18.3854 352.469 17.8438C352.24 17.2917 351.885 16.8542 351.406 16.5313C350.927 16.1979 350.307 16.0313 349.547 16.0313C348.932 16.0313 348.396 16.1667 347.938 16.4375C347.49 16.6979 347.115 17.0729 346.812 17.5625C346.521 18.0417 346.302 18.6146 346.156 19.2813C346.01 19.9479 345.938 20.6875 345.938 21.5V22.125C345.938 22.8333 346.031 23.4896 346.219 24.0938C346.417 24.6979 346.703 25.224 347.078 25.6719C347.464 26.1094 347.922 26.4531 348.453 26.7031C348.995 26.9427 349.609 27.0625 350.297 27.0625C351.161 27.0625 351.943 26.8958 352.641 26.5625C353.349 26.2188 353.964 25.7135 354.484 25.0469L356.562 27.2031C356.208 27.724 355.729 28.224 355.125 28.7031C354.531 29.1823 353.812 29.5729 352.969 29.875C352.125 30.1667 351.151 30.3125 350.047 30.3125ZM362.906 13.0938L365.922 18.4688L368.984 13.0938H373.469L368.5 21.375L373.672 30H369.188L365.953 24.3594L362.703 30H358.219L363.375 21.375L358.438 13.0938H362.906ZM379.984 16.3438V36.5H375.844V13.0938H379.672L379.984 16.3438ZM390.844 21.375V21.7031C390.844 22.9323 390.698 24.0729 390.406 25.125C390.125 26.1667 389.708 27.0781 389.156 27.8594C388.604 28.6302 387.917 29.2344 387.094 29.6719C386.281 30.099 385.344 30.3125 384.281 30.3125C383.24 30.3125 382.333 30.1146 381.562 29.7188C380.792 29.3125 380.141 28.7396 379.609 28C379.078 27.2604 378.651 26.401 378.328 25.4219C378.016 24.4323 377.781 23.3542 377.625 22.1875V21.1406C377.781 19.901 378.016 18.776 378.328 17.7656C378.651 16.7448 379.078 15.8646 379.609 15.125C380.141 14.375 380.786 13.7969 381.547 13.3906C382.318 12.9844 383.219 12.7813 384.25 12.7813C385.323 12.7813 386.266 12.9844 387.078 13.3906C387.901 13.7969 388.594 14.3802 389.156 15.1406C389.719 15.901 390.141 16.8073 390.422 17.8594C390.703 18.9115 390.844 20.0833 390.844 21.375ZM386.703 21.7031V21.375C386.703 20.625 386.635 19.9323 386.5 19.2969C386.365 18.651 386.156 18.0885 385.875 17.6094C385.594 17.1198 385.229 16.7396 384.781 16.4688C384.333 16.1979 383.792 16.0625 383.156 16.0625C382.521 16.0625 381.974 16.1667 381.516 16.375C381.057 16.5833 380.682 16.8802 380.391 17.2656C380.099 17.651 379.87 18.1094 379.703 18.6406C379.547 19.1615 379.443 19.7396 379.391 20.375V22.9688C379.484 23.7396 379.667 24.4323 379.938 25.0469C380.208 25.6615 380.604 26.151 381.125 26.5156C381.656 26.8802 382.344 27.0625 383.188 27.0625C383.823 27.0625 384.365 26.9219 384.812 26.6406C385.26 26.3594 385.625 25.974 385.906 25.4844C386.188 24.9844 386.391 24.4115 386.516 23.7656C386.641 23.1198 386.703 22.4323 386.703 21.7031ZM397.984 16.5469V30H393.859V13.0938L397.766 13.0938L397.984 16.5469ZM403.125 12.9844L403.062 16.8281C402.833 16.7865 402.573 16.7552 402.281 16.7344C402 16.7135 401.734 16.7031 401.484 16.7031C400.849 16.7031 400.292 16.7917 399.812 16.9688C399.333 17.1354 398.932 17.3802 398.609 17.7031C398.297 18.026 398.057 18.4219 397.891 18.8906C397.724 19.349 397.63 19.8698 397.609 20.4531L396.719 20.3438C396.719 19.2708 396.828 18.276 397.047 17.3594C397.266 16.4427 397.583 15.6406 398 14.9531C398.417 14.2656 398.938 13.7344 399.562 13.3594C400.198 12.974 400.927 12.7813 401.75 12.7813C401.979 12.7813 402.224 12.8021 402.484 12.8438C402.755 12.875 402.969 12.9219 403.125 12.9844ZM412.672 30.3125C411.391 30.3125 410.24 30.1042 409.219 29.6875C408.198 29.2708 407.328 28.6927 406.609 27.9531C405.901 27.2031 405.354 26.3333 404.969 25.3438C404.594 24.3438 404.406 23.2708 404.406 22.125V21.5C404.406 20.1979 404.594 19.0156 404.969 17.9531C405.344 16.8802 405.875 15.9583 406.562 15.1875C407.25 14.4167 408.073 13.8229 409.031 13.4063C409.99 12.9896 411.047 12.7813 412.203 12.7813C413.401 12.7813 414.458 12.9844 415.375 13.3906C416.292 13.7865 417.057 14.349 417.672 15.0781C418.286 15.8073 418.75 16.6823 419.062 17.7031C419.375 18.7135 419.531 19.8333 419.531 21.0625V22.7969H406.281V19.9531H415.469V19.6406C415.448 18.9844 415.323 18.3854 415.094 17.8438C414.865 17.2917 414.51 16.8542 414.031 16.5313C413.552 16.1979 412.932 16.0313 412.172 16.0313C411.557 16.0313 411.021 16.1667 410.562 16.4375C410.115 16.6979 409.74 17.0729 409.438 17.5625C409.146 18.0417 408.927 18.6146 408.781 19.2813C408.635 19.9479 408.562 20.6875 408.562 21.5V22.125C408.562 22.8333 408.656 23.4896 408.844 24.0938C409.042 24.6979 409.328 25.224 409.703 25.6719C410.089 26.1094 410.547 26.4531 411.078 26.7031C411.62 26.9427 412.234 27.0625 412.922 27.0625C413.786 27.0625 414.568 26.8958 415.266 26.5625C415.974 26.2188 416.589 25.7135 417.109 25.0469L419.188 27.2031C418.833 27.724 418.354 28.224 417.75 28.7031C417.156 29.1823 416.438 29.5729 415.594 29.875C414.75 30.1667 413.776 30.3125 412.672 30.3125ZM431.594 25.375C431.594 25.0208 431.5 24.7031 431.312 24.4219C431.125 24.1406 430.771 23.8854 430.25 23.6563C429.74 23.4167 428.99 23.1927 428 22.9844C427.125 22.7969 426.318 22.5625 425.578 22.2813C424.839 22 424.203 21.6615 423.672 21.2656C423.141 20.8594 422.724 20.3854 422.422 19.8438C422.13 19.2917 421.984 18.6563 421.984 17.9375C421.984 17.2396 422.135 16.5833 422.438 15.9688C422.74 15.3438 423.177 14.7969 423.75 14.3281C424.323 13.849 425.021 13.474 425.844 13.2031C426.667 12.9219 427.594 12.7813 428.625 12.7813C430.062 12.7813 431.297 13.0156 432.328 13.4844C433.37 13.9531 434.167 14.599 434.719 15.4219C435.271 16.2344 435.547 17.151 435.547 18.1719H431.422C431.422 17.724 431.318 17.3177 431.109 16.9531C430.911 16.5885 430.604 16.2969 430.188 16.0781C429.771 15.849 429.245 15.7344 428.609 15.7344C428.036 15.7344 427.552 15.8281 427.156 16.0156C426.771 16.2031 426.479 16.4479 426.281 16.75C426.083 17.0521 425.984 17.3854 425.984 17.75C425.984 18.0208 426.036 18.2656 426.141 18.4844C426.255 18.6927 426.438 18.8854 426.688 19.0625C426.938 19.2396 427.276 19.401 427.703 19.5469C428.141 19.6927 428.677 19.8333 429.312 19.9688C430.573 20.2188 431.672 20.5521 432.609 20.9688C433.557 21.375 434.297 21.9167 434.828 22.5938C435.359 23.2708 435.625 24.1354 435.625 25.1875C435.625 25.9375 435.464 26.625 435.141 27.25C434.818 27.8646 434.349 28.401 433.734 28.8594C433.12 29.3177 432.385 29.6771 431.531 29.9375C430.677 30.1875 429.714 30.3125 428.641 30.3125C427.089 30.3125 425.776 30.0365 424.703 29.4844C423.63 28.9219 422.818 28.2135 422.266 27.3594C421.714 26.4948 421.438 25.599 421.438 24.6719L425.391 24.6719C425.422 25.3281 425.599 25.8542 425.922 26.25C426.245 26.6458 426.651 26.9323 427.141 27.1094C427.641 27.276 428.167 27.3594 428.719 27.3594C429.344 27.3594 429.87 27.276 430.297 27.1094C430.724 26.9323 431.047 26.6979 431.266 26.4063C431.484 26.1042 431.594 25.7604 431.594 25.375ZM448.062 25.375C448.062 25.0208 447.969 24.7031 447.781 24.4219C447.594 24.1406 447.24 23.8854 446.719 23.6563C446.208 23.4167 445.458 23.1927 444.469 22.9844C443.594 22.7969 442.786 22.5625 442.047 22.2813C441.307 22 440.672 21.6615 440.141 21.2656C439.609 20.8594 439.193 20.3854 438.891 19.8438C438.599 19.2917 438.453 18.6563 438.453 17.9375C438.453 17.2396 438.604 16.5833 438.906 15.9688C439.208 15.3438 439.646 14.7969 440.219 14.3281C440.792 13.849 441.49 13.474 442.312 13.2031C443.135 12.9219 444.062 12.7813 445.094 12.7813C446.531 12.7813 447.766 13.0156 448.797 13.4844C449.839 13.9531 450.635 14.599 451.188 15.4219C451.74 16.2344 452.016 17.151 452.016 18.1719H447.891C447.891 17.724 447.786 17.3177 447.578 16.9531C447.38 16.5885 447.073 16.2969 446.656 16.0781C446.24 15.849 445.714 15.7344 445.078 15.7344C444.505 15.7344 444.021 15.8281 443.625 16.0156C443.24 16.2031 442.948 16.4479 442.75 16.75C442.552 17.0521 442.453 17.3854 442.453 17.75C442.453 18.0208 442.505 18.2656 442.609 18.4844C442.724 18.6927 442.906 18.8854 443.156 19.0625C443.406 19.2396 443.745 19.401 444.172 19.5469C444.609 19.6927 445.146 19.8333 445.781 19.9688C447.042 20.2188 448.141 20.5521 449.078 20.9688C450.026 21.375 450.766 21.9167 451.297 22.5938C451.828 23.2708 452.094 24.1354 452.094 25.1875C452.094 25.9375 451.932 26.625 451.609 27.25C451.286 27.8646 450.818 28.401 450.203 28.8594C449.589 29.3177 448.854 29.6771 448 29.9375C447.146 30.1875 446.182 30.3125 445.109 30.3125C443.557 30.3125 442.245 30.0365 441.172 29.4844C440.099 28.9219 439.286 28.2135 438.734 27.3594C438.182 26.4948 437.906 25.599 437.906 24.6719H441.859C441.891 25.3281 442.068 25.8542 442.391 26.25C442.714 26.6458 443.12 26.9323 443.609 27.1094C444.109 27.276 444.635 27.3594 445.188 27.3594C445.812 27.3594 446.339 27.276 446.766 27.1094C447.193 26.9323 447.516 26.6979 447.734 26.4063C447.953 26.1042 448.062 25.7604 448.062 25.375ZM459.609 13.0938V30H455.469V13.0938H459.609ZM455.188 8.67188C455.188 8.05729 455.396 7.54688 455.812 7.14063C456.24 6.73438 456.812 6.53125 457.531 6.53125C458.25 6.53125 458.818 6.73438 459.234 7.14063C459.661 7.54688 459.875 8.05729 459.875 8.67188C459.875 9.27604 459.661 9.78125 459.234 10.1875C458.818 10.5938 458.25 10.7969 457.531 10.7969C456.812 10.7969 456.24 10.5938 455.812 10.1875C455.396 9.78125 455.188 9.27604 455.188 8.67188ZM462.812 21.7188V21.3906C462.812 20.151 462.99 19.0104 463.344 17.9688C463.698 16.9167 464.214 16.0052 464.891 15.2344C465.568 14.4635 466.396 13.8646 467.375 13.4375C468.354 13 469.469 12.7813 470.719 12.7813C471.99 12.7813 473.115 13 474.094 13.4375C475.083 13.8646 475.917 14.4635 476.594 15.2344C477.271 16.0052 477.786 16.9167 478.141 17.9688C478.495 19.0104 478.672 20.151 478.672 21.3906V21.7188C478.672 22.9479 478.495 24.0885 478.141 25.1406C477.786 26.1823 477.271 27.0938 476.594 27.875C475.917 28.6458 475.089 29.2448 474.109 29.6719C473.13 30.099 472.01 30.3125 470.75 30.3125C469.5 30.3125 468.38 30.099 467.391 29.6719C466.401 29.2448 465.568 28.6458 464.891 27.875C464.214 27.0938 463.698 26.1823 463.344 25.1406C462.99 24.0885 462.812 22.9479 462.812 21.7188ZM466.938 21.3906V21.7188C466.938 22.4583 467.01 23.151 467.156 23.7969C467.302 24.4427 467.526 25.0104 467.828 25.5C468.13 25.9896 468.521 26.375 469 26.6563C469.49 26.9271 470.073 27.0625 470.75 27.0625C471.417 27.0625 471.99 26.9271 472.469 26.6563C472.948 26.375 473.339 25.9896 473.641 25.5C473.953 25.0104 474.182 24.4427 474.328 23.7969C474.474 23.151 474.547 22.4583 474.547 21.7188V21.3906C474.547 20.6615 474.474 19.9792 474.328 19.3438C474.182 18.6979 473.953 18.1302 473.641 17.6406C473.339 17.1406 472.943 16.75 472.453 16.4688C471.974 16.1771 471.396 16.0313 470.719 16.0313C470.052 16.0313 469.479 16.1771 469 16.4688C468.521 16.75 468.13 17.1406 467.828 17.6406C467.526 18.1302 467.302 18.6979 467.156 19.3438C467.01 19.9792 466.938 20.6615 466.938 21.3906ZM485.719 16.7031V30H481.594V13.0938L485.469 13.0938L485.719 16.7031ZM485.062 20.9375H483.844C483.854 19.7083 484.021 18.5938 484.344 17.5938C484.667 16.5938 485.12 15.7344 485.703 15.0156C486.297 14.2969 487 13.7448 487.812 13.3594C488.625 12.974 489.531 12.7813 490.531 12.7813C491.344 12.7813 492.078 12.8958 492.734 13.125C493.391 13.3542 493.953 13.7188 494.422 14.2188C494.901 14.7188 495.266 15.375 495.516 16.1875C495.776 16.9896 495.906 17.9792 495.906 19.1563V30H491.75V19.125C491.75 18.3542 491.635 17.7448 491.406 17.2969C491.188 16.849 490.865 16.5313 490.438 16.3438C490.021 16.1563 489.505 16.0625 488.891 16.0625C488.255 16.0625 487.698 16.1927 487.219 16.4531C486.75 16.7031 486.354 17.0521 486.031 17.5C485.719 17.9479 485.479 18.4635 485.312 19.0469C485.146 19.6302 485.062 20.2604 485.062 20.9375ZM511.641 16.3438V36.5H507.5V13.0938H511.328L511.641 16.3438ZM522.5 21.375V21.7031C522.5 22.9323 522.354 24.0729 522.062 25.125C521.781 26.1667 521.365 27.0781 520.812 27.8594C520.26 28.6302 519.573 29.2344 518.75 29.6719C517.938 30.099 517 30.3125 515.938 30.3125C514.896 30.3125 513.99 30.1146 513.219 29.7188C512.448 29.3125 511.797 28.7396 511.266 28C510.734 27.2604 510.307 26.401 509.984 25.4219C509.672 24.4323 509.438 23.3542 509.281 22.1875V21.1406C509.438 19.901 509.672 18.776 509.984 17.7656C510.307 16.7448 510.734 15.8646 511.266 15.125C511.797 14.375 512.443 13.7969 513.203 13.3906C513.974 12.9844 514.875 12.7813 515.906 12.7813C516.979 12.7813 517.922 12.9844 518.734 13.3906C519.557 13.7969 520.25 14.3802 520.812 15.1406C521.375 15.901 521.797 16.8073 522.078 17.8594C522.359 18.9115 522.5 20.0833 522.5 21.375ZM518.359 21.7031V21.375C518.359 20.625 518.292 19.9323 518.156 19.2969C518.021 18.651 517.812 18.0885 517.531 17.6094C517.25 17.1198 516.885 16.7396 516.438 16.4688C515.99 16.1979 515.448 16.0625 514.812 16.0625C514.177 16.0625 513.63 16.1667 513.172 16.375C512.714 16.5833 512.339 16.8802 512.047 17.2656C511.755 17.651 511.526 18.1094 511.359 18.6406C511.203 19.1615 511.099 19.7396 511.047 20.375V22.9688C511.141 23.7396 511.323 24.4323 511.594 25.0469C511.865 25.6615 512.26 26.151 512.781 26.5156C513.312 26.8802 514 27.0625 514.844 27.0625C515.479 27.0625 516.021 26.9219 516.469 26.6406C516.917 26.3594 517.281 25.974 517.562 25.4844C517.844 24.9844 518.047 24.4115 518.172 23.7656C518.297 23.1198 518.359 22.4323 518.359 21.7031ZM533.109 30.3125C531.828 30.3125 530.677 30.1042 529.656 29.6875C528.635 29.2708 527.766 28.6927 527.047 27.9531C526.339 27.2031 525.792 26.3333 525.406 25.3438C525.031 24.3438 524.844 23.2708 524.844 22.125V21.5C524.844 20.1979 525.031 19.0156 525.406 17.9531C525.781 16.8802 526.312 15.9583 527 15.1875C527.688 14.4167 528.51 13.8229 529.469 13.4063C530.427 12.9896 531.484 12.7813 532.641 12.7813C533.839 12.7813 534.896 12.9844 535.812 13.3906C536.729 13.7865 537.495 14.349 538.109 15.0781C538.724 15.8073 539.188 16.6823 539.5 17.7031C539.812 18.7135 539.969 19.8333 539.969 21.0625V22.7969L526.719 22.7969V19.9531L535.906 19.9531V19.6406C535.885 18.9844 535.76 18.3854 535.531 17.8438C535.302 17.2917 534.948 16.8542 534.469 16.5313C533.99 16.1979 533.37 16.0313 532.609 16.0313C531.995 16.0313 531.458 16.1667 531 16.4375C530.552 16.6979 530.177 17.0729 529.875 17.5625C529.583 18.0417 529.365 18.6146 529.219 19.2813C529.073 19.9479 529 20.6875 529 21.5V22.125C529 22.8333 529.094 23.4896 529.281 24.0938C529.479 24.6979 529.766 25.224 530.141 25.6719C530.526 26.1094 530.984 26.4531 531.516 26.7031C532.057 26.9427 532.672 27.0625 533.359 27.0625C534.224 27.0625 535.005 26.8958 535.703 26.5625C536.411 26.2188 537.026 25.7135 537.547 25.0469L539.625 27.2031C539.271 27.724 538.792 28.224 538.188 28.7031C537.594 29.1823 536.875 29.5729 536.031 29.875C535.188 30.1667 534.214 30.3125 533.109 30.3125ZM546.859 16.5469V30H542.734V13.0938H546.641L546.859 16.5469ZM552 12.9844L551.938 16.8281C551.708 16.7865 551.448 16.7552 551.156 16.7344C550.875 16.7135 550.609 16.7031 550.359 16.7031C549.724 16.7031 549.167 16.7917 548.688 16.9688C548.208 17.1354 547.807 17.3802 547.484 17.7031C547.172 18.026 546.932 18.4219 546.766 18.8906C546.599 19.349 546.505 19.8698 546.484 20.4531L545.594 20.3438C545.594 19.2708 545.703 18.276 545.922 17.3594C546.141 16.4427 546.458 15.6406 546.875 14.9531C547.292 14.2656 547.812 13.7344 548.438 13.3594C549.073 12.974 549.802 12.7813 550.625 12.7813C550.854 12.7813 551.099 12.8021 551.359 12.8438C551.63 12.875 551.844 12.9219 552 12.9844ZM561.5 21.7188V21.3906C561.5 20.151 561.677 19.0104 562.031 17.9688C562.385 16.9167 562.901 16.0052 563.578 15.2344C564.255 14.4635 565.083 13.8646 566.062 13.4375C567.042 13 568.156 12.7813 569.406 12.7813C570.677 12.7813 571.802 13 572.781 13.4375C573.771 13.8646 574.604 14.4635 575.281 15.2344C575.958 16.0052 576.474 16.9167 576.828 17.9688C577.182 19.0104 577.359 20.151 577.359 21.3906V21.7188C577.359 22.9479 577.182 24.0885 576.828 25.1406C576.474 26.1823 575.958 27.0938 575.281 27.875C574.604 28.6458 573.776 29.2448 572.797 29.6719C571.818 30.099 570.698 30.3125 569.438 30.3125C568.188 30.3125 567.068 30.099 566.078 29.6719C565.089 29.2448 564.255 28.6458 563.578 27.875C562.901 27.0938 562.385 26.1823 562.031 25.1406C561.677 24.0885 561.5 22.9479 561.5 21.7188ZM565.625 21.3906V21.7188C565.625 22.4583 565.698 23.151 565.844 23.7969C565.99 24.4427 566.214 25.0104 566.516 25.5C566.818 25.9896 567.208 26.375 567.688 26.6563C568.177 26.9271 568.76 27.0625 569.438 27.0625C570.104 27.0625 570.677 26.9271 571.156 26.6563C571.635 26.375 572.026 25.9896 572.328 25.5C572.641 25.0104 572.87 24.4427 573.016 23.7969C573.161 23.151 573.234 22.4583 573.234 21.7188V21.3906C573.234 20.6615 573.161 19.9792 573.016 19.3438C572.87 18.6979 572.641 18.1302 572.328 17.6406C572.026 17.1406 571.63 16.75 571.141 16.4688C570.661 16.1771 570.083 16.0313 569.406 16.0313C568.74 16.0313 568.167 16.1771 567.688 16.4688C567.208 16.75 566.818 17.1406 566.516 17.6406C566.214 18.1302 565.99 18.6979 565.844 19.3438C565.698 19.9792 565.625 20.6615 565.625 21.3906ZM584.484 16.5469V30H580.359V13.0938L584.266 13.0938L584.484 16.5469ZM589.625 12.9844L589.562 16.8281C589.333 16.7865 589.073 16.7552 588.781 16.7344C588.5 16.7135 588.234 16.7031 587.984 16.7031C587.349 16.7031 586.792 16.7917 586.312 16.9688C585.833 17.1354 585.432 17.3802 585.109 17.7031C584.797 18.026 584.557 18.4219 584.391 18.8906C584.224 19.349 584.13 19.8698 584.109 20.4531L583.219 20.3438C583.219 19.2708 583.328 18.276 583.547 17.3594C583.766 16.4427 584.083 15.6406 584.5 14.9531C584.917 14.2656 585.438 13.7344 586.062 13.3594C586.698 12.974 587.427 12.7813 588.25 12.7813C588.479 12.7813 588.724 12.8021 588.984 12.8438C589.255 12.875 589.469 12.9219 589.625 12.9844ZM602.328 13.0938L606.078 13.0938V29.4844C606.078 31.0156 605.745 32.3125 605.078 33.375C604.422 34.4479 603.5 35.2604 602.312 35.8125C601.125 36.375 599.745 36.6563 598.172 36.6563C597.495 36.6563 596.76 36.5625 595.969 36.375C595.188 36.1875 594.432 35.8906 593.703 35.4844C592.984 35.0885 592.385 34.5729 591.906 33.9375L593.766 31.5C594.328 32.1563 594.964 32.651 595.672 32.9844C596.38 33.3281 597.146 33.5 597.969 33.5C598.802 33.5 599.51 33.3438 600.094 33.0313C600.688 32.7292 601.141 32.2813 601.453 31.6875C601.776 31.1042 601.938 30.3854 601.938 29.5313V16.9531L602.328 13.0938ZM590.906 21.75V21.4219C590.906 20.1302 591.062 18.9583 591.375 17.9063C591.688 16.8438 592.135 15.9323 592.719 15.1719C593.312 14.4115 594.026 13.8229 594.859 13.4063C595.703 12.9896 596.651 12.7813 597.703 12.7813C598.818 12.7813 599.755 12.9844 600.516 13.3906C601.286 13.7969 601.922 14.375 602.422 15.125C602.932 15.875 603.328 16.7656 603.609 17.7969C603.901 18.8177 604.125 19.9427 604.281 21.1719V22.0625C604.135 23.2604 603.901 24.3594 603.578 25.3594C603.266 26.3594 602.849 27.2344 602.328 27.9844C601.807 28.724 601.161 29.2969 600.391 29.7031C599.62 30.1094 598.714 30.3125 597.672 30.3125C596.63 30.3125 595.693 30.099 594.859 29.6719C594.026 29.2448 593.312 28.6458 592.719 27.875C592.135 27.1042 591.688 26.1979 591.375 25.1563C591.062 24.1146 590.906 22.9792 590.906 21.75ZM595.031 21.4219V21.75C595.031 22.4792 595.104 23.1615 595.25 23.7969C595.396 24.4323 595.62 24.9948 595.922 25.4844C596.224 25.9635 596.604 26.3385 597.062 26.6094C597.521 26.8802 598.068 27.0156 598.703 27.0156C599.557 27.0156 600.255 26.8385 600.797 26.4844C601.349 26.1198 601.766 25.625 602.047 25C602.339 24.3646 602.526 23.651 602.609 22.8594V20.4063C602.557 19.7813 602.443 19.2031 602.266 18.6719C602.099 18.1406 601.865 17.6823 601.562 17.2969C601.26 16.9115 600.875 16.6094 600.406 16.3906C599.938 16.1719 599.38 16.0625 598.734 16.0625C598.109 16.0625 597.562 16.2031 597.094 16.4844C596.625 16.7552 596.24 17.1354 595.938 17.625C595.635 18.1146 595.406 18.6823 595.25 19.3281C595.104 19.974 595.031 20.6719 595.031 21.4219ZM619.109 26.4063V18.6094C619.109 18.0365 619.01 17.5417 618.812 17.125C618.615 16.7083 618.312 16.3854 617.906 16.1563C617.5 15.9271 616.984 15.8125 616.359 15.8125C615.807 15.8125 615.323 15.9063 614.906 16.0938C614.5 16.2813 614.188 16.5469 613.969 16.8906C613.75 17.224 613.641 17.6094 613.641 18.0469H609.5C609.5 17.349 609.667 16.6875 610 16.0625C610.333 15.4271 610.807 14.8646 611.422 14.375C612.047 13.875 612.792 13.4844 613.656 13.2031C614.531 12.9219 615.51 12.7813 616.594 12.7813C617.875 12.7813 619.016 13 620.016 13.4375C621.026 13.8646 621.818 14.5104 622.391 15.375C622.974 16.2396 623.266 17.3281 623.266 18.6406V26.0156C623.266 26.8594 623.318 27.5833 623.422 28.1875C623.536 28.7813 623.703 29.2969 623.922 29.7344V30L619.719 30C619.521 29.5729 619.37 29.0313 619.266 28.375C619.161 27.7083 619.109 27.0521 619.109 26.4063ZM619.688 19.7031L619.719 22.1563H617.109C616.464 22.1563 615.896 22.224 615.406 22.3594C614.917 22.4844 614.516 22.6719 614.203 22.9219C613.891 23.1615 613.656 23.4531 613.5 23.7969C613.344 24.1302 613.266 24.5104 613.266 24.9375C613.266 25.3542 613.359 25.7292 613.547 26.0625C613.745 26.3958 614.026 26.6615 614.391 26.8594C614.766 27.0469 615.203 27.1406 615.703 27.1406C616.432 27.1406 617.068 26.9948 617.609 26.7031C618.151 26.401 618.573 26.0365 618.875 25.6094C619.177 25.1823 619.339 24.776 619.359 24.3906L620.547 26.1719C620.401 26.599 620.182 27.0521 619.891 27.5313C619.599 28.0104 619.224 28.4583 618.766 28.875C618.307 29.2917 617.755 29.6354 617.109 29.9063C616.464 30.1771 615.714 30.3125 614.859 30.3125C613.766 30.3125 612.786 30.0938 611.922 29.6563C611.057 29.2188 610.375 28.6198 609.875 27.8594C609.375 27.099 609.125 26.2344 609.125 25.2656C609.125 24.3698 609.292 23.5781 609.625 22.8906C609.958 22.2031 610.453 21.625 611.109 21.1563C611.766 20.6771 612.578 20.3177 613.547 20.0781C614.526 19.8281 615.646 19.7031 616.906 19.7031H619.688ZM631.031 16.7031V30H626.906V13.0938L630.781 13.0938L631.031 16.7031ZM630.375 20.9375H629.156C629.167 19.7083 629.333 18.5938 629.656 17.5938C629.979 16.5938 630.432 15.7344 631.016 15.0156C631.609 14.2969 632.312 13.7448 633.125 13.3594C633.938 12.974 634.844 12.7813 635.844 12.7813C636.656 12.7813 637.391 12.8958 638.047 13.125C638.703 13.3542 639.266 13.7188 639.734 14.2188C640.214 14.7188 640.578 15.375 640.828 16.1875C641.089 16.9896 641.219 17.9792 641.219 19.1563V30H637.062V19.125C637.062 18.3542 636.948 17.7448 636.719 17.2969C636.5 16.849 636.177 16.5313 635.75 16.3438C635.333 16.1563 634.818 16.0625 634.203 16.0625C633.568 16.0625 633.01 16.1927 632.531 16.4531C632.062 16.7031 631.667 17.0521 631.344 17.5C631.031 17.9479 630.792 18.4635 630.625 19.0469C630.458 19.6302 630.375 20.2604 630.375 20.9375Z" fill="#505459"/>
</g>
<defs>
<filter id="filter0_d_11_2" x="256.078" y="6.53125" width="389.141" height="38.125" filterUnits="userSpaceOnUse" color-interpolation-filters="sRGB">
<feFlood flood-opacity="0" result="BackgroundImageFix"/>
<feColorMatrix in="SourceAlpha" type="matrix" values="0 0 0 0 0 0 0 0 0 0 0 0 0 0 0 0 0 0 127 0" result="hardAlpha"/>
<feOffset dy="4"/>
<feGaussianBlur stdDeviation="2"/>
<feComposite in2="hardAlpha" operator="out"/>
<feColorMatrix type="matrix" values="0 0 0 0 0 0 0 0 0 0 0 0 0 0 0 0 0 0 0.25 0"/>
<feBlend mode="normal" in2="BackgroundImageFix" result="effect1_dropShadow_11_2"/>
<feBlend mode="normal" in="SourceGraphic" in2="effect1_dropShadow_11_2" result="shape"/>
</filter>
</defs>
</svg>
