<svg width="105" height="105" viewBox="0 0 105 105" fill="none" xmlns="http://www.w3.org/2000/svg">
<circle cx="30.6159" cy="8.73605" r="6.384" fill="#337AB7" fill-opacity="0.5"/>
<path d="M61.064 8.568C61.064 13.3 57.228 17.136 52.496 17.136C47.764 17.136 43.928 13.3 43.928 8.568C43.928 3.83602 47.764 0 52.496 0C57.228 0 61.064 3.83602 61.064 8.568Z" fill="#337AB7" fill-opacity="0.8"/>
<path d="M78.24 8.56801C78.24 6.43398 76.51 4.70401 74.376 4.70401C72.2419 4.70401 70.512 6.43398 70.512 8.56801C70.512 10.702 72.2419 12.432 74.376 12.432C76.51 12.432 78.24 10.702 78.24 8.56801Z" fill="#505459" fill-opacity="0.8"/>
<circle cx="96.0879" cy="8.568" r="8.568" fill="#505459" fill-opacity="0.8"/>
<circle cx="3.192" cy="3.192" r="3.192" transform="matrix(1 0 0 -1 92.896 33.976)" fill="#337AB7" fill-opacity="0.313726"/>
<circle cx="96.0879" cy="52.664" r="5.544" fill="#505459" fill-opacity="0.8"/>
<path d="M83.876 52.6641C83.876 57.9108 79.6227 62.1641 74.376 62.1641C69.1293 62.1641 64.876 57.9108 64.876 52.6641C64.876 47.4174 69.1293 43.1641 74.376 43.1641C79.6227 43.1641 83.876 47.4174 83.876 52.6641Z" fill="#337AB7" fill-opacity="0.8"/>
<path d="M80.928 30.8291C80.928 34.4477 77.9945 37.3811 74.376 37.3811C70.7574 37.3811 67.824 34.4477 67.824 30.8291C67.824 27.2105 70.7574 24.2771 74.376 24.2771C77.9945 24.2771 80.928 27.2105 80.928 30.8291Z" fill="#337AB7" fill-opacity="0.313726"/>
<path d="M58.04 30.784C58.04 33.8459 55.5579 36.328 52.496 36.328C49.4342 36.328 46.952 33.8459 46.952 30.784C46.952 27.7221 49.4342 25.24 52.496 25.24C55.5579 25.24 58.04 27.7221 58.04 30.784Z" fill="#505459" fill-opacity="0.8"/>
<circle cx="96.5" cy="74.5" r="8.5" fill="#505459" fill-opacity="0.5"/>
<circle cx="6.384" cy="6.384" r="6.384" transform="matrix(-4.37114e-08 1 1 4.37114e-08 2.35205 24.2319)" fill="#337AB7" fill-opacity="0.5"/>
<path d="M8.568 61.064C13.3 61.064 17.136 57.228 17.136 52.496C17.136 47.764 13.3 43.928 8.568 43.928C3.83602 43.928 -1.67678e-07 47.764 -3.74519e-07 52.496C-5.8136e-07 57.228 3.83602 61.064 8.568 61.064Z" fill="#337AB7" fill-opacity="0.8"/>
<path d="M8.56801 78.24C6.43398 78.24 4.70401 76.51 4.70401 74.376C4.70401 72.2419 6.43398 70.512 8.56801 70.512C10.702 70.512 12.432 72.2419 12.432 74.376C12.432 76.51 10.702 78.24 8.56801 78.24Z" fill="#505459" fill-opacity="0.8"/>
<circle cx="8.568" cy="8.568" r="8.568" transform="matrix(-4.37114e-08 1 1 4.37114e-08 0 87.5199)" fill="#505459" fill-opacity="0.8"/>
<circle cx="30.784" cy="96.088" r="3.192" transform="rotate(90 30.784 96.088)" fill="#337AB7" fill-opacity="0.313726"/>
<circle cx="5.544" cy="5.544" r="5.544" transform="matrix(-4.37114e-08 1 1 4.37114e-08 47.12 90.5441)" fill="#505459" fill-opacity="0.8"/>
<path d="M52.6641 83.876C57.9108 83.876 62.1641 79.6227 62.1641 74.376C62.1641 69.1293 57.9108 64.876 52.6641 64.876C47.4174 64.876 43.1641 69.1293 43.1641 74.376C43.1641 79.6227 47.4174 83.876 52.6641 83.876Z" fill="#337AB7" fill-opacity="0.8"/>
<path d="M30.8291 80.928C34.4477 80.928 37.3811 77.9945 37.3811 74.376C37.3811 70.7574 34.4477 67.824 30.8291 67.824C27.2105 67.824 24.2771 70.7574 24.2771 74.376C24.2771 77.9945 27.2105 80.928 30.8291 80.928Z" fill="#337AB7" fill-opacity="0.313726"/>
<path d="M30.784 58.04C33.8459 58.04 36.328 55.5579 36.328 52.496C36.328 49.4342 33.8459 46.952 30.784 46.952C27.7221 46.952 25.24 49.4342 25.24 52.496C25.24 55.5579 27.7221 58.04 30.784 58.04Z" fill="#505459" fill-opacity="0.8"/>
<circle cx="8.5" cy="8.5" r="8.5" transform="matrix(0 1 1 4.37114e-08 66 87)" fill="#505459" fill-opacity="0.5"/>
<rect x="4" y="7" width="10" height="3" fill="#D9D9D9"/>
<rect x="25" y="29" width="11" height="3" fill="#D9D9D9"/>
<rect x="47" y="52" width="11" height="2" fill="#D9D9D9"/>
<rect x="69" y="73" width="11" height="3" fill="#D9D9D9"/>
<rect x="91" y="95" width="10" height="3" fill="#D9D9D9"/>
</svg>
