<svg width="265" height="115" viewBox="0 0 265 115" fill="none" xmlns="http://www.w3.org/2000/svg">
<rect x="29" width="26" height="26" fill="#505459" fill-opacity="0.2"/>
<rect width="26" height="26" fill="#505459" fill-opacity="0.1"/>
<rect x="58" width="28" height="26" fill="#505459" fill-opacity="0.5"/>
<rect x="89" width="26" height="26" fill="#505459" fill-opacity="0.3"/>
<rect x="118" width="28" height="26" fill="#505459" fill-opacity="0.3"/>
<rect x="149" width="27" height="26" fill="#505459" fill-opacity="0.2"/>
<rect x="179" width="28" height="26" fill="#505459" fill-opacity="0.3"/>
<rect x="210" width="26" height="26" fill="#505459" fill-opacity="0.1"/>
<rect x="239" width="26" height="26" fill="#505459" fill-opacity="0.1"/>
<rect x="29" y="29" width="26" height="28" fill="#337AB7"/>
<rect y="29" width="26" height="28" fill="#337AB7" fill-opacity="0.4"/>
<rect x="58" y="29" width="28" height="28" fill="#505459" fill-opacity="0.6"/>
<rect x="89" y="29" width="26" height="28" fill="#505459" fill-opacity="0.8"/>
<rect x="118" y="29" width="28" height="28" fill="#337AB7" fill-opacity="0.6"/>
<rect x="149" y="29" width="27" height="28" fill="#505459" fill-opacity="0.6"/>
<rect x="179" y="29" width="28" height="28" fill="#505459" fill-opacity="0.4"/>
<rect x="210" y="29" width="26" height="28" fill="#505459" fill-opacity="0.2"/>
<rect x="239" y="29" width="26" height="28" fill="#505459" fill-opacity="0.5"/>
<rect x="29" y="60" width="26" height="26" fill="#505459" fill-opacity="0.3"/>
<rect y="60" width="26" height="26" fill="#505459" fill-opacity="0.4"/>
<rect width="26" height="26" transform="matrix(-1 0 0 1 236 89)" fill="#505459" fill-opacity="0.4"/>
<rect width="26" height="26" transform="matrix(-1 0 0 1 265 89)" fill="#505459" fill-opacity="0.3"/>
<rect x="58" y="60" width="28" height="26" fill="#337AB7" fill-opacity="0.9"/>
<rect width="28" height="26" transform="matrix(-1 0 0 1 207 89)" fill="#505459" fill-opacity="0.9"/>
<rect x="89" y="60" width="26" height="26" fill="#505459" fill-opacity="0.2"/>
<rect width="26" height="26" transform="matrix(-1 0 0 1 176 89)" fill="#505459" fill-opacity="0.2"/>
<rect x="118" y="60" width="28" height="26" fill="#505459" fill-opacity="0.8"/>
<rect width="28" height="26" transform="matrix(-1 0 0 1 147 89)" fill="#337AB7" fill-opacity="0.6"/>
<rect x="149" y="60" width="27" height="26" fill="#337AB7" fill-opacity="0.3"/>
<rect width="27" height="26" transform="matrix(-1 0 0 1 116 89)" fill="#337AB7" fill-opacity="0.3"/>
<rect x="179" y="60" width="28" height="26" fill="#505459" fill-opacity="0.2"/>
<rect width="28" height="26" transform="matrix(-1 0 0 1 86 89)" fill="#505459" fill-opacity="0.2"/>
<rect x="210" y="60" width="26" height="26" fill="#337AB7" fill-opacity="0.7"/>
<rect x="239" y="60" width="26" height="26" fill="#505459" fill-opacity="0.2"/>
<rect width="26" height="26" transform="matrix(-1 0 0 1 55 89)" fill="#505459" fill-opacity="0.5"/>
<rect width="26" height="26" transform="matrix(-1 0 0 1 26 89)" fill="#505459" fill-opacity="0.6"/>
</svg>
