<svg width="144" height="160" viewBox="0 0 144 160" fill="none" xmlns="http://www.w3.org/2000/svg">
<path d="M13.3643 110.255L24.938 116.937L24.938 130.302L13.3643 136.984L1.79047 130.302L1.79047 116.937L13.3643 110.255Z" fill="#337AB7" fill-opacity="0.3"/>
<path d="M26.3943 88.2041L37.9681 94.8862V108.25L26.3943 114.933L14.8205 108.25L14.8205 94.8862L26.3943 88.2041Z" fill="#337AB7" fill-opacity="0.7"/>
<path d="M13.3643 66.1528L24.938 72.835L24.938 86.1992L13.3643 92.8813L1.79047 86.1992L1.79047 72.835L13.3643 66.1528Z" fill="#505459" fill-opacity="0.3"/>
<path d="M39.4247 110.255L50.9985 116.937V130.302L39.4247 136.984L27.8509 130.302L27.8509 116.937L39.4247 110.255Z" fill="#505459" fill-opacity="0.3"/>
<path d="M39.4247 66.1528L50.9985 72.835V86.1992L39.4247 92.8813L27.8509 86.1992L27.8509 72.835L39.4247 66.1528Z" fill="#505459" fill-opacity="0.7"/>
<path d="M52.4546 44.1018L64.0284 50.7839V64.1482L52.4546 70.8303L40.8808 64.1482V50.7839L52.4546 44.1018Z" fill="#505459" fill-opacity="0.7"/>
<path d="M65.4847 66.1528L77.0585 72.835V86.1992L65.4847 92.8813L53.911 86.1992V72.835L65.4847 66.1528Z" fill="#505459"/>
<path d="M78.515 44.1018L90.0888 50.7839V64.1482L78.515 70.8303L66.9412 64.1482V50.7839L78.515 44.1018Z" fill="#505459"/>
<path d="M91.5452 66.1528L103.119 72.835V86.1992L91.5452 92.8813L79.9714 86.1992V72.835L91.5452 66.1528Z" fill="#337AB7"/>
<path d="M104.575 44.1018L116.149 50.7839V64.1482L104.575 70.8303L93.0015 64.1482V50.7839L104.575 44.1018Z" fill="#337AB7"/>
<path d="M130.636 0L142.21 6.68213V20.0464L130.636 26.7285L119.062 20.0464V6.68213L130.636 0Z" fill="#337AB7" fill-opacity="0.3"/>
<path d="M104.575 88.2041L116.149 94.8862V108.25L104.575 114.933L93.0015 108.25V94.8862L104.575 88.2041Z" fill="#337AB7" fill-opacity="0.7"/>
<path d="M117.605 110.255L129.179 116.937V130.302L117.605 136.984L106.032 130.302V116.937L117.605 110.255Z" fill="#337AB7" fill-opacity="0.5"/>
<path d="M130.636 88.2041L142.21 94.8862V108.25L130.636 114.933L119.062 108.25V94.8862L130.636 88.2041Z" fill="#337AB7" fill-opacity="0.5"/>
<path d="M52.4546 132.306L64.0284 138.988V152.352L52.4546 159.034L40.8808 152.352V138.988L52.4546 132.306Z" fill="#505459" fill-opacity="0.3"/>
<path d="M117.605 22.0508L129.179 28.7329V42.0972L117.605 48.7793L106.032 42.0972V28.7329L117.605 22.0508Z" fill="#337AB7" fill-opacity="0.3"/>
<path d="M78.515 88.2041L90.0888 94.8862V108.25L78.515 114.933L66.9412 108.25V94.8862L78.515 88.2041Z" fill="#505459"/>
<path d="M65.4847 110.255L77.0585 116.937V130.302L65.4847 136.984L53.911 130.302V116.937L65.4847 110.255Z" fill="#505459" fill-opacity="0.3"/>
<path d="M91.5452 22.0508L103.119 28.7329V42.0972L91.5452 48.7793L79.9714 42.0972V28.7329L91.5452 22.0508Z" fill="#505459" fill-opacity="0.7"/>
</svg>
