<svg width="809" height="782" viewBox="0 0 809 782" fill="none" xmlns="http://www.w3.org/2000/svg">
<rect x="89" y="68" width="5" height="611" rx="2.5" fill="#505459"/>
<rect x="809" y="675" width="5.00004" height="720" rx="2.50002" transform="rotate(90 809 675)" fill="#505459"/>
<path d="M31 510.328L55 510.328L55 514.469L31 514.469L31 510.328ZM46.7187 507.125L46.3906 507.125C45.151 507.125 44.0104 506.948 42.9687 506.594C41.9167 506.24 41.0052 505.724 40.2344 505.047C39.4635 504.37 38.8646 503.542 38.4375 502.562C38 501.583 37.7812 500.469 37.7812 499.219C37.7812 497.948 38 496.823 38.4375 495.844C38.8646 494.854 39.4635 494.021 40.2344 493.344C41.0052 492.667 41.9167 492.151 42.9687 491.797C44.0104 491.443 45.151 491.266 46.3906 491.266L46.7187 491.266C47.9479 491.266 49.0885 491.443 50.1406 491.797C51.1823 492.151 52.0937 492.667 52.875 493.344C53.6458 494.021 54.2448 494.849 54.6719 495.828C55.099 496.807 55.3125 497.927 55.3125 499.187C55.3125 500.437 55.099 501.557 54.6719 502.547C54.2448 503.536 53.6458 504.37 52.875 505.047C52.0937 505.724 51.1823 506.24 50.1406 506.594C49.0885 506.948 47.9479 507.125 46.7187 507.125ZM46.3906 503L46.7187 503C47.4583 503 48.151 502.927 48.7969 502.781C49.4427 502.635 50.0104 502.411 50.5 502.109C50.9896 501.807 51.375 501.417 51.6562 500.937C51.9271 500.448 52.0625 499.865 52.0625 499.187C52.0625 498.521 51.9271 497.948 51.6562 497.469C51.375 496.99 50.9896 496.599 50.5 496.297C50.0104 495.984 49.4427 495.755 48.7969 495.609C48.151 495.464 47.4583 495.391 46.7187 495.391L46.3906 495.391C45.6615 495.391 44.9792 495.464 44.3437 495.609C43.6979 495.755 43.1302 495.984 42.6406 496.297C42.1406 496.599 41.75 496.995 41.4687 497.484C41.1771 497.964 41.0312 498.542 41.0312 499.219C41.0312 499.885 41.1771 500.458 41.4687 500.937C41.75 501.417 42.1406 501.807 42.6406 502.109C43.1302 502.411 43.6979 502.635 44.3437 502.781C44.9792 502.927 45.6615 503 46.3906 503ZM38.0937 477.516L38.0937 473.766L54.4844 473.766C56.0156 473.766 57.3125 474.099 58.375 474.766C59.4479 475.422 60.2604 476.344 60.8125 477.531C61.375 478.719 61.6562 480.099 61.6562 481.672C61.6562 482.349 61.5625 483.083 61.375 483.875C61.1875 484.656 60.8906 485.411 60.4844 486.141C60.0885 486.859 59.5729 487.458 58.9375 487.937L56.5 486.078C57.1562 485.516 57.651 484.88 57.9844 484.172C58.3281 483.464 58.5 482.698 58.5 481.875C58.5 481.042 58.3437 480.333 58.0312 479.75C57.7292 479.156 57.2812 478.703 56.6875 478.391C56.1042 478.068 55.3854 477.906 54.5312 477.906L41.9531 477.906L38.0937 477.516ZM46.75 488.937L46.4219 488.937C45.1302 488.937 43.9583 488.781 42.9062 488.469C41.8437 488.156 40.9323 487.708 40.1719 487.125C39.4115 486.531 38.8229 485.818 38.4062 484.984C37.9896 484.141 37.7812 483.193 37.7812 482.141C37.7812 481.026 37.9844 480.089 38.3906 479.328C38.7969 478.557 39.375 477.922 40.125 477.422C40.875 476.911 41.7656 476.516 42.7969 476.234C43.8177 475.943 44.9427 475.719 46.1719 475.562L47.0625 475.562C48.2604 475.708 49.3594 475.943 50.3594 476.266C51.3594 476.578 52.2344 476.995 52.9844 477.516C53.724 478.036 54.2969 478.682 54.7031 479.453C55.1094 480.224 55.3125 481.13 55.3125 482.172C55.3125 483.214 55.099 484.151 54.6719 484.984C54.2448 485.818 53.6458 486.531 52.875 487.125C52.1042 487.708 51.1979 488.156 50.1562 488.469C49.1146 488.781 47.9792 488.937 46.75 488.937ZM46.4219 484.812L46.75 484.812C47.4792 484.812 48.1615 484.74 48.7969 484.594C49.4323 484.448 49.9948 484.224 50.4844 483.922C50.9635 483.62 51.3385 483.24 51.6094 482.781C51.8802 482.323 52.0156 481.776 52.0156 481.141C52.0156 480.286 51.8385 479.589 51.4844 479.047C51.1198 478.495 50.625 478.078 50 477.797C49.3646 477.505 48.651 477.318 47.8594 477.234L45.4062 477.234C44.7812 477.286 44.2031 477.401 43.6719 477.578C43.1406 477.745 42.6823 477.979 42.2969 478.281C41.9115 478.583 41.6094 478.969 41.3906 479.437C41.1719 479.906 41.0625 480.464 41.0625 481.109C41.0625 481.734 41.2031 482.281 41.4844 482.75C41.7552 483.219 42.1354 483.604 42.625 483.906C43.1146 484.208 43.6823 484.437 44.3281 484.594C44.974 484.74 45.6719 484.812 46.4219 484.812ZM51.75 454.859L55 454.859L55 470.266L52.2187 470.266L44.2344 462.875C43.3594 462.104 42.599 461.495 41.9531 461.047C41.3073 460.599 40.724 460.281 40.2031 460.094C39.6719 459.896 39.1667 459.797 38.6875 459.797C37.9896 459.797 37.3802 459.922 36.8594 460.172C36.3281 460.422 35.9167 460.786 35.625 461.266C35.3333 461.734 35.1875 462.312 35.1875 463C35.1875 463.76 35.3646 464.411 35.7187 464.953C36.0625 465.484 36.5417 465.891 37.1562 466.172C37.7708 466.443 38.474 466.578 39.2656 466.578L39.2656 470.719C37.9219 470.719 36.6979 470.406 35.5937 469.781C34.4792 469.156 33.5885 468.26 32.9219 467.094C32.2552 465.927 31.9219 464.542 31.9219 462.937C31.9219 461.375 32.1823 460.052 32.7031 458.969C33.2135 457.885 33.9427 457.062 34.8906 456.5C35.8385 455.937 36.9687 455.656 38.2812 455.656C39.0104 455.656 39.7292 455.776 40.4375 456.016C41.1458 456.255 41.849 456.594 42.5469 457.031C43.2344 457.458 43.9323 457.969 44.6406 458.562C45.349 459.156 46.0729 459.818 46.8125 460.547L51.75 464.984L51.75 454.859ZM46.0469 451.641L45.75 451.641C43.5417 451.641 41.5365 451.406 39.7344 450.937C37.9219 450.458 36.3333 449.833 34.9687 449.062C33.6042 448.292 32.474 447.458 31.5781 446.562C30.6719 445.656 30.0208 444.776 29.625 443.922L31.8906 443.109C32.3385 443.703 32.9531 444.297 33.7344 444.891C34.5052 445.474 35.4583 446.005 36.5937 446.484C37.7292 446.964 39.0521 447.349 40.5625 447.641C42.0729 447.922 43.7917 448.062 45.7187 448.062L46.0781 448.062C48.0052 448.062 49.7292 447.922 51.25 447.641C52.7604 447.349 54.0833 446.964 55.2187 446.484C56.3542 446.005 57.3177 445.474 58.1094 444.891C58.901 444.297 59.526 443.703 59.9844 443.109L62.1875 443.922C61.7812 444.776 61.1302 445.656 60.2344 446.562C59.3385 447.458 58.2083 448.292 56.8437 449.062C55.4792 449.833 53.8958 450.458 52.0937 450.937C50.2812 451.406 48.2656 451.641 46.0469 451.641ZM32.25 430.562L55 430.562L55 434.844L32.25 434.844L32.25 430.562ZM32.25 423.5L35.6406 423.5L35.6406 441.828L32.25 441.828L32.25 423.5ZM46.7031 411.891L46.7031 417.75L43.3281 417.75L43.3281 411.891C43.3281 410.932 43.1719 410.156 42.8594 409.562C42.5365 408.958 42.099 408.516 41.5469 408.234C40.9844 407.953 40.3437 407.812 39.625 407.812C38.9271 407.812 38.276 407.953 37.6719 408.234C37.0677 408.516 36.5781 408.958 36.2031 409.562C35.8281 410.156 35.6406 410.932 35.6406 411.891L35.6406 416.344L55 416.344L55 420.641L32.25 420.641L32.25 411.891C32.25 410.12 32.5677 408.609 33.2031 407.359C33.8281 406.099 34.6979 405.141 35.8125 404.484C36.9167 403.818 38.1771 403.484 39.5937 403.484C41.0625 403.484 42.3281 403.818 43.3906 404.484C44.4531 405.141 45.2708 406.099 45.8437 407.359C46.4167 408.609 46.7031 410.12 46.7031 411.891ZM32.25 398.234L32.25 394.516L49.375 388.297L32.25 382.094L32.25 378.359L55 386.812L55 389.797L32.25 398.234ZM32.25 400.109L32.25 396.469L47.9844 395.812L55 395.812L55 400.109L32.25 400.109ZM32.25 380.141L32.25 376.484L55 376.484L55 380.781L47.9844 380.781L32.25 380.141ZM42.4219 357.734L46.0937 357.734L46.0937 373.328L42.4219 373.328L42.4219 357.734ZM36.1562 363.547L52.7187 363.547L52.7187 367.5L36.1562 367.5L36.1562 363.547ZM32.1875 344.422L55 344.422L55 348.562L37.0156 348.562L38.8281 354.047L35.4844 354.047L32.1875 344.891L32.1875 344.422ZM45.75 329.062L46.0469 329.062C48.2135 329.062 50.1979 329.307 52 329.797C53.8021 330.276 55.3906 330.911 56.7656 331.703C58.1406 332.484 59.2865 333.339 60.2031 334.266C61.1198 335.182 61.7812 336.083 62.1875 336.969L59.9844 337.781C59.5365 337.187 58.9219 336.599 58.1406 336.016C57.3594 335.432 56.3958 334.901 55.25 334.422C54.1042 333.932 52.7708 333.547 51.25 333.266C49.7292 332.974 48.0052 332.828 46.0781 332.828L45.7187 332.828C43.7917 332.828 42.0677 332.979 40.5469 333.281C39.026 333.573 37.6979 333.964 36.5625 334.453C35.4167 334.943 34.4531 335.479 33.6719 336.062C32.8802 336.646 32.2656 337.219 31.8281 337.781L29.625 336.969C30.0208 336.083 30.6823 335.182 31.6094 334.266C32.526 333.339 33.6771 332.484 35.0625 331.703C36.4375 330.911 38.026 330.276 39.8281 329.797C41.6198 329.307 43.5937 329.062 45.75 329.062ZM52.9844 325.234C52.3594 325.234 51.8333 325.021 51.4062 324.594C50.9792 324.167 50.7656 323.589 50.7656 322.859C50.7656 322.13 50.9792 321.552 51.4062 321.125C51.8333 320.698 52.3594 320.484 52.9844 320.484C53.5989 320.484 54.1198 320.698 54.5469 321.125C54.9635 321.552 55.1719 322.13 55.1719 322.859C55.1719 323.589 54.9635 324.167 54.5469 324.594C54.1198 325.021 53.5989 325.234 52.9844 325.234ZM39.875 325.219C39.25 325.219 38.7239 325.005 38.2969 324.578C37.8698 324.151 37.6562 323.573 37.6562 322.844C37.6562 322.115 37.8698 321.536 38.2969 321.109C38.7239 320.682 39.25 320.469 39.875 320.469C40.4896 320.469 41.0104 320.682 41.4375 321.109C41.8542 321.536 42.0625 322.115 42.0625 322.844C42.0625 323.573 41.8542 324.151 41.4375 324.578C41.0104 325.005 40.4896 325.219 39.875 325.219ZM50.6406 302.734L32.25 298.203L32.25 295.75L36.125 295.594L55 300.437L55 303.031L50.6406 302.734ZM32.25 305.594L50.5781 301.875L55 301.875L55 304.703L32.25 309.859L32.25 305.594ZM50.5 290.891L32.25 287.234L32.25 282.953L55 288.109L55 290.937L50.5 290.891ZM32.25 294.578L50.7031 290.047L55 289.781L55 292.375L36.1094 297.203L32.25 297.016L32.25 294.578ZM51.625 265.156L55 265.156L55 277.25L51.625 277.25L51.625 265.156ZM32.25 275.937L55 275.937L55 280.234L32.25 280.234L32.25 275.937ZM41.6406 266.734L44.9375 266.734L44.9375 277.25L41.6406 277.25L41.6406 266.734ZM32.25 265.203L35.6406 265.203L35.6406 277.25L32.25 277.25L32.25 265.203ZM51.625 247.094L55 247.094L55 259.187L51.625 259.187L51.625 247.094ZM32.25 257.875L55 257.875L55 262.172L32.25 262.172L32.25 257.875ZM41.6406 248.672L44.9375 248.672L44.9375 259.187L41.6406 259.187L41.6406 248.672ZM32.25 247.141L35.6406 247.141L35.6406 259.187L32.25 259.187L32.25 247.141ZM32.1875 234.016L55 234.016L55 238.156L37.0156 238.156L38.8281 243.641L35.4844 243.641L32.1875 234.484L32.1875 234.016Z" fill="#505459"/>
<path d="M311.641 712V736H307.5V712H311.641ZM314.844 727.719V727.391C314.844 726.151 315.021 725.01 315.375 723.969C315.729 722.917 316.245 722.005 316.922 721.234C317.599 720.464 318.427 719.865 319.406 719.438C320.385 719 321.5 718.781 322.75 718.781C324.021 718.781 325.146 719 326.125 719.438C327.115 719.865 327.948 720.464 328.625 721.234C329.302 722.005 329.818 722.917 330.172 723.969C330.526 725.01 330.703 726.151 330.703 727.391V727.719C330.703 728.948 330.526 730.089 330.172 731.141C329.818 732.182 329.302 733.094 328.625 733.875C327.948 734.646 327.12 735.245 326.141 735.672C325.161 736.099 324.042 736.312 322.781 736.312C321.531 736.312 320.411 736.099 319.422 735.672C318.432 735.245 317.599 734.646 316.922 733.875C316.245 733.094 315.729 732.182 315.375 731.141C315.021 730.089 314.844 728.948 314.844 727.719ZM318.969 727.391V727.719C318.969 728.458 319.042 729.151 319.188 729.797C319.333 730.443 319.557 731.01 319.859 731.5C320.161 731.99 320.552 732.375 321.031 732.656C321.521 732.927 322.104 733.062 322.781 733.062C323.448 733.062 324.021 732.927 324.5 732.656C324.979 732.375 325.37 731.99 325.672 731.5C325.984 731.01 326.214 730.443 326.359 729.797C326.505 729.151 326.578 728.458 326.578 727.719V727.391C326.578 726.661 326.505 725.979 326.359 725.344C326.214 724.698 325.984 724.13 325.672 723.641C325.37 723.141 324.974 722.75 324.484 722.469C324.005 722.177 323.427 722.031 322.75 722.031C322.083 722.031 321.51 722.177 321.031 722.469C320.552 722.75 320.161 723.141 319.859 723.641C319.557 724.13 319.333 724.698 319.188 725.344C319.042 725.979 318.969 726.661 318.969 727.391ZM344.453 719.094H348.203V735.484C348.203 737.016 347.87 738.312 347.203 739.375C346.547 740.448 345.625 741.26 344.438 741.812C343.25 742.375 341.87 742.656 340.297 742.656C339.62 742.656 338.885 742.562 338.094 742.375C337.312 742.188 336.557 741.891 335.828 741.484C335.109 741.089 334.51 740.573 334.031 739.938L335.891 737.5C336.453 738.156 337.089 738.651 337.797 738.984C338.505 739.328 339.271 739.5 340.094 739.5C340.927 739.5 341.635 739.344 342.219 739.031C342.812 738.729 343.266 738.281 343.578 737.688C343.901 737.104 344.062 736.385 344.062 735.531V722.953L344.453 719.094ZM333.031 727.75V727.422C333.031 726.13 333.188 724.958 333.5 723.906C333.812 722.844 334.26 721.932 334.844 721.172C335.438 720.411 336.151 719.823 336.984 719.406C337.828 718.99 338.776 718.781 339.828 718.781C340.943 718.781 341.88 718.984 342.641 719.391C343.411 719.797 344.047 720.375 344.547 721.125C345.057 721.875 345.453 722.766 345.734 723.797C346.026 724.818 346.25 725.943 346.406 727.172V728.062C346.26 729.26 346.026 730.359 345.703 731.359C345.391 732.359 344.974 733.234 344.453 733.984C343.932 734.724 343.286 735.297 342.516 735.703C341.745 736.109 340.839 736.312 339.797 736.312C338.755 736.312 337.818 736.099 336.984 735.672C336.151 735.245 335.438 734.646 334.844 733.875C334.26 733.104 333.812 732.198 333.5 731.156C333.188 730.115 333.031 728.979 333.031 727.75ZM337.156 727.422V727.75C337.156 728.479 337.229 729.161 337.375 729.797C337.521 730.432 337.745 730.995 338.047 731.484C338.349 731.964 338.729 732.339 339.188 732.609C339.646 732.88 340.193 733.016 340.828 733.016C341.682 733.016 342.38 732.839 342.922 732.484C343.474 732.12 343.891 731.625 344.172 731C344.464 730.365 344.651 729.651 344.734 728.859V726.406C344.682 725.781 344.568 725.203 344.391 724.672C344.224 724.141 343.99 723.682 343.688 723.297C343.385 722.911 343 722.609 342.531 722.391C342.062 722.172 341.505 722.062 340.859 722.062C340.234 722.062 339.688 722.203 339.219 722.484C338.75 722.755 338.365 723.135 338.062 723.625C337.76 724.115 337.531 724.682 337.375 725.328C337.229 725.974 337.156 726.672 337.156 727.422ZM367.109 732.75V736H351.703V733.219L359.094 725.234C359.865 724.359 360.474 723.599 360.922 722.953C361.37 722.307 361.688 721.724 361.875 721.203C362.073 720.672 362.172 720.167 362.172 719.688C362.172 718.99 362.047 718.38 361.797 717.859C361.547 717.328 361.182 716.917 360.703 716.625C360.234 716.333 359.656 716.188 358.969 716.188C358.208 716.188 357.557 716.365 357.016 716.719C356.484 717.062 356.078 717.542 355.797 718.156C355.526 718.771 355.391 719.474 355.391 720.266H351.25C351.25 718.922 351.562 717.698 352.188 716.594C352.812 715.479 353.708 714.589 354.875 713.922C356.042 713.255 357.427 712.922 359.031 712.922C360.594 712.922 361.917 713.182 363 713.703C364.083 714.214 364.906 714.943 365.469 715.891C366.031 716.839 366.312 717.969 366.312 719.281C366.312 720.01 366.193 720.729 365.953 721.438C365.714 722.146 365.375 722.849 364.938 723.547C364.51 724.234 364 724.932 363.406 725.641C362.812 726.349 362.151 727.073 361.422 727.812L356.984 732.75H367.109ZM370.328 727.047V726.75C370.328 724.542 370.562 722.536 371.031 720.734C371.51 718.922 372.135 717.333 372.906 715.969C373.677 714.604 374.51 713.474 375.406 712.578C376.312 711.672 377.193 711.021 378.047 710.625L378.859 712.891C378.266 713.339 377.672 713.953 377.078 714.734C376.495 715.505 375.964 716.458 375.484 717.594C375.005 718.729 374.62 720.052 374.328 721.562C374.047 723.073 373.906 724.792 373.906 726.719V727.078C373.906 729.005 374.047 730.729 374.328 732.25C374.62 733.76 375.005 735.083 375.484 736.219C375.964 737.354 376.495 738.318 377.078 739.109C377.672 739.901 378.266 740.526 378.859 740.984L378.047 743.188C377.193 742.781 376.312 742.13 375.406 741.234C374.51 740.339 373.677 739.208 372.906 737.844C372.135 736.479 371.51 734.896 371.031 733.094C370.562 731.281 370.328 729.266 370.328 727.047ZM391.406 713.25V736H387.125V713.25H391.406ZM398.469 713.25V716.641H380.141V713.25H398.469ZM410.078 727.703H404.219V724.328H410.078C411.036 724.328 411.812 724.172 412.406 723.859C413.01 723.536 413.453 723.099 413.734 722.547C414.016 721.984 414.156 721.344 414.156 720.625C414.156 719.927 414.016 719.276 413.734 718.672C413.453 718.068 413.01 717.578 412.406 717.203C411.812 716.828 411.036 716.641 410.078 716.641H405.625V736H401.328V713.25H410.078C411.849 713.25 413.359 713.568 414.609 714.203C415.87 714.828 416.828 715.698 417.484 716.812C418.151 717.917 418.484 719.177 418.484 720.594C418.484 722.062 418.151 723.328 417.484 724.391C416.828 725.453 415.87 726.271 414.609 726.844C413.359 727.417 411.849 727.703 410.078 727.703ZM423.734 713.25H427.453L433.672 730.375L439.875 713.25H443.609L435.156 736H432.172L423.734 713.25ZM421.859 713.25H425.5L426.156 728.984V736H421.859V713.25ZM441.828 713.25H445.484V736H441.188V728.984L441.828 713.25ZM464.234 723.422V727.094H448.641V723.422H464.234ZM458.422 717.156V733.719H454.469V717.156H458.422ZM477.547 713.188V736H473.406V718.016L467.922 719.828V716.484L477.078 713.188H477.547ZM492.906 726.75V727.047C492.906 729.214 492.661 731.198 492.172 733C491.693 734.802 491.057 736.391 490.266 737.766C489.484 739.141 488.63 740.286 487.703 741.203C486.786 742.12 485.885 742.781 485 743.188L484.188 740.984C484.781 740.536 485.37 739.922 485.953 739.141C486.536 738.359 487.068 737.396 487.547 736.25C488.036 735.104 488.422 733.771 488.703 732.25C488.995 730.729 489.141 729.005 489.141 727.078V726.719C489.141 724.792 488.99 723.068 488.688 721.547C488.396 720.026 488.005 718.698 487.516 717.562C487.026 716.417 486.49 715.453 485.906 714.672C485.323 713.88 484.75 713.266 484.188 712.828L485 710.625C485.885 711.021 486.786 711.682 487.703 712.609C488.63 713.526 489.484 714.677 490.266 716.062C491.057 717.438 491.693 719.026 492.172 720.828C492.661 722.62 492.906 724.594 492.906 726.75ZM496.734 733.984C496.734 733.359 496.948 732.833 497.375 732.406C497.802 731.979 498.38 731.766 499.109 731.766C499.839 731.766 500.417 731.979 500.844 732.406C501.271 732.833 501.484 733.359 501.484 733.984C501.484 734.599 501.271 735.12 500.844 735.547C500.417 735.964 499.839 736.172 499.109 736.172C498.38 736.172 497.802 735.964 497.375 735.547C496.948 735.12 496.734 734.599 496.734 733.984ZM496.75 720.875C496.75 720.25 496.964 719.724 497.391 719.297C497.818 718.87 498.396 718.656 499.125 718.656C499.854 718.656 500.432 718.87 500.859 719.297C501.286 719.724 501.5 720.25 501.5 720.875C501.5 721.49 501.286 722.01 500.859 722.438C500.432 722.854 499.854 723.062 499.125 723.062C498.396 723.062 497.818 722.854 497.391 722.438C496.964 722.01 496.75 721.49 496.75 720.875ZM517.938 713.25V736H513.641V713.25H517.938ZM531.594 713.25L522.469 724.344L517.25 729.922L516.484 725.75L520.109 721.047L526.328 713.25H531.594ZM526.812 736L519.734 725.344L522.812 722.562L531.922 736H526.812ZM533.922 713.25H542.188C543.917 713.25 545.401 713.51 546.641 714.031C547.88 714.552 548.833 715.323 549.5 716.344C550.167 717.365 550.5 718.62 550.5 720.109C550.5 721.286 550.292 722.307 549.875 723.172C549.458 724.036 548.87 724.76 548.109 725.344C547.359 725.927 546.474 726.385 545.453 726.719L544.109 727.406H536.812L536.781 724.016H542.234C543.12 724.016 543.854 723.859 544.438 723.547C545.021 723.234 545.458 722.802 545.75 722.25C546.052 721.698 546.203 721.068 546.203 720.359C546.203 719.599 546.057 718.943 545.766 718.391C545.474 717.828 545.031 717.396 544.438 717.094C543.844 716.792 543.094 716.641 542.188 716.641H538.219V736H533.922V713.25ZM546.766 736L541.5 725.812L546.047 725.797L551.375 735.781V736H546.766ZM563.312 716.703L556.828 736H552.281L560.781 713.25H563.688L563.312 716.703ZM568.734 736L562.219 716.703L561.828 713.25H564.75L573.297 736H568.734ZM568.438 727.547V730.938H556.234V727.547H568.438ZM587.547 730.094C587.547 729.656 587.479 729.266 587.344 728.922C587.219 728.568 586.984 728.25 586.641 727.969C586.307 727.677 585.833 727.396 585.219 727.125C584.615 726.844 583.833 726.552 582.875 726.25C581.812 725.917 580.823 725.542 579.906 725.125C578.99 724.708 578.182 724.224 577.484 723.672C576.797 723.12 576.26 722.484 575.875 721.766C575.49 721.036 575.297 720.193 575.297 719.234C575.297 718.297 575.495 717.443 575.891 716.672C576.297 715.901 576.87 715.24 577.609 714.688C578.349 714.125 579.219 713.693 580.219 713.391C581.229 713.089 582.344 712.938 583.562 712.938C585.25 712.938 586.708 713.245 587.938 713.859C589.177 714.474 590.135 715.307 590.812 716.359C591.49 717.411 591.828 718.594 591.828 719.906H587.547C587.547 719.198 587.396 718.573 587.094 718.031C586.802 717.49 586.354 717.062 585.75 716.75C585.156 716.438 584.406 716.281 583.5 716.281C582.625 716.281 581.896 716.411 581.312 716.672C580.74 716.932 580.307 717.286 580.016 717.734C579.734 718.182 579.594 718.682 579.594 719.234C579.594 719.651 579.693 720.026 579.891 720.359C580.089 720.682 580.385 720.99 580.781 721.281C581.177 721.562 581.667 721.828 582.25 722.078C582.844 722.318 583.531 722.557 584.312 722.797C585.562 723.172 586.656 723.589 587.594 724.047C588.542 724.505 589.328 725.026 589.953 725.609C590.589 726.193 591.062 726.849 591.375 727.578C591.698 728.307 591.859 729.135 591.859 730.062C591.859 731.042 591.667 731.917 591.281 732.688C590.896 733.458 590.344 734.115 589.625 734.656C588.906 735.198 588.042 735.609 587.031 735.891C586.031 736.172 584.911 736.312 583.672 736.312C582.568 736.312 581.474 736.167 580.391 735.875C579.318 735.573 578.344 735.125 577.469 734.531C576.594 733.927 575.896 733.167 575.375 732.25C574.854 731.323 574.594 730.24 574.594 729H578.906C578.906 729.719 579.021 730.333 579.25 730.844C579.49 731.344 579.823 731.755 580.25 732.078C580.688 732.391 581.198 732.62 581.781 732.766C582.365 732.911 582.995 732.984 583.672 732.984C584.547 732.984 585.266 732.865 585.828 732.625C586.401 732.375 586.828 732.031 587.109 731.594C587.401 731.156 587.547 730.656 587.547 730.094Z" fill="#505459"/>
<path d="M148.182 19.7637V29.7305C147.807 30.2109 147.215 30.7324 146.406 31.2949C145.609 31.8574 144.566 32.3438 143.277 32.7539C141.988 33.1523 140.406 33.3516 138.531 33.3516C136.902 33.3516 135.414 33.082 134.066 32.543C132.719 31.9922 131.559 31.1895 130.586 30.1348C129.613 29.0801 128.863 27.791 128.336 26.2676C127.809 24.7441 127.545 23.0039 127.545 21.0469V19.3594C127.545 17.4023 127.791 15.6621 128.283 14.1387C128.787 12.6152 129.502 11.3262 130.428 10.2715C131.365 9.2168 132.484 8.41406 133.785 7.86328C135.098 7.3125 136.562 7.03711 138.18 7.03711C140.348 7.03711 142.129 7.39453 143.523 8.10938C144.93 8.82422 146.008 9.80859 146.758 11.0625C147.508 12.3047 147.977 13.7344 148.164 15.3516H143.453C143.324 14.4609 143.066 13.6816 142.68 13.0137C142.293 12.334 141.742 11.8066 141.027 11.4316C140.324 11.0449 139.41 10.8516 138.285 10.8516C137.336 10.8516 136.498 11.0391 135.771 11.4141C135.045 11.7891 134.436 12.334 133.943 13.0488C133.451 13.7637 133.076 14.6484 132.818 15.7031C132.572 16.7578 132.449 17.9648 132.449 19.3242V21.0469C132.449 22.418 132.59 23.6367 132.871 24.7031C133.152 25.7578 133.557 26.6484 134.084 27.375C134.623 28.0898 135.285 28.6348 136.07 29.0098C136.867 29.373 137.77 29.5547 138.777 29.5547C139.691 29.5547 140.447 29.4785 141.045 29.3262C141.654 29.1621 142.141 28.9688 142.504 28.7461C142.867 28.5234 143.148 28.3066 143.348 28.0957V23.2969H138.268V19.7637H148.182ZM160.943 33.3516C159.502 33.3516 158.207 33.1172 157.059 32.6484C155.91 32.1797 154.932 31.5293 154.123 30.6973C153.326 29.8535 152.711 28.875 152.277 27.7617C151.855 26.6367 151.645 25.4297 151.645 24.1406V23.4375C151.645 21.9727 151.855 20.6426 152.277 19.4473C152.699 18.2402 153.297 17.2031 154.07 16.3359C154.844 15.4688 155.77 14.8008 156.848 14.332C157.926 13.8633 159.115 13.6289 160.416 13.6289C161.764 13.6289 162.953 13.8574 163.984 14.3145C165.016 14.7598 165.877 15.3926 166.568 16.2129C167.26 17.0332 167.781 18.0176 168.133 19.166C168.484 20.3027 168.66 21.5625 168.66 22.9453V24.8965L153.754 24.8965V21.6973L164.09 21.6973V21.3457C164.066 20.6074 163.926 19.9336 163.668 19.3242C163.41 18.7031 163.012 18.2109 162.473 17.8477C161.934 17.4727 161.236 17.2852 160.381 17.2852C159.689 17.2852 159.086 17.4375 158.57 17.7422C158.066 18.0352 157.645 18.457 157.305 19.0078C156.977 19.5469 156.73 20.1914 156.566 20.9414C156.402 21.6914 156.32 22.5234 156.32 23.4375V24.1406C156.32 24.9375 156.426 25.6758 156.637 26.3555C156.859 27.0352 157.182 27.627 157.604 28.1309C158.037 28.623 158.553 29.0098 159.15 29.291C159.76 29.5605 160.451 29.6953 161.225 29.6953C162.197 29.6953 163.076 29.5078 163.861 29.1328C164.658 28.7461 165.35 28.1777 165.936 27.4277L168.273 29.8535C167.875 30.4395 167.336 31.002 166.656 31.541C165.988 32.0801 165.18 32.5195 164.23 32.8594C163.281 33.1875 162.186 33.3516 160.943 33.3516ZM176.324 18.041V33H171.684V13.9805L176.043 13.9805L176.324 18.041ZM175.586 22.8047H174.215C174.227 21.4219 174.414 20.168 174.777 19.043C175.141 17.918 175.65 16.9512 176.307 16.1426C176.975 15.334 177.766 14.7129 178.68 14.2793C179.594 13.8457 180.613 13.6289 181.738 13.6289C182.652 13.6289 183.479 13.7578 184.217 14.0156C184.955 14.2734 185.588 14.6836 186.115 15.2461C186.654 15.8086 187.064 16.5469 187.346 17.4609C187.639 18.3633 187.785 19.4766 187.785 20.8008V33H183.109V20.7656C183.109 19.8984 182.98 19.2129 182.723 18.709C182.477 18.2051 182.113 17.8477 181.633 17.6367C181.164 17.4258 180.584 17.3203 179.893 17.3203C179.178 17.3203 178.551 17.4668 178.012 17.7598C177.484 18.041 177.039 18.4336 176.676 18.9375C176.324 19.4414 176.055 20.0215 175.867 20.6777C175.68 21.334 175.586 22.043 175.586 22.8047ZM200.424 33.3516C198.982 33.3516 197.688 33.1172 196.539 32.6484C195.391 32.1797 194.412 31.5293 193.604 30.6973C192.807 29.8535 192.191 28.875 191.758 27.7617C191.336 26.6367 191.125 25.4297 191.125 24.1406V23.4375C191.125 21.9727 191.336 20.6426 191.758 19.4473C192.18 18.2402 192.777 17.2031 193.551 16.3359C194.324 15.4688 195.25 14.8008 196.328 14.332C197.406 13.8633 198.596 13.6289 199.896 13.6289C201.244 13.6289 202.434 13.8574 203.465 14.3145C204.496 14.7598 205.357 15.3926 206.049 16.2129C206.74 17.0332 207.262 18.0176 207.613 19.166C207.965 20.3027 208.141 21.5625 208.141 22.9453V24.8965L193.234 24.8965V21.6973L203.57 21.6973V21.3457C203.547 20.6074 203.406 19.9336 203.148 19.3242C202.891 18.7031 202.492 18.2109 201.953 17.8477C201.414 17.4727 200.717 17.2852 199.861 17.2852C199.17 17.2852 198.566 17.4375 198.051 17.7422C197.547 18.0352 197.125 18.457 196.785 19.0078C196.457 19.5469 196.211 20.1914 196.047 20.9414C195.883 21.6914 195.801 22.5234 195.801 23.4375V24.1406C195.801 24.9375 195.906 25.6758 196.117 26.3555C196.34 27.0352 196.662 27.627 197.084 28.1309C197.518 28.623 198.033 29.0098 198.631 29.291C199.24 29.5605 199.932 29.6953 200.705 29.6953C201.678 29.6953 202.557 29.5078 203.342 29.1328C204.139 28.7461 204.83 28.1777 205.416 27.4277L207.754 29.8535C207.355 30.4395 206.816 31.002 206.137 31.541C205.469 32.0801 204.66 32.5195 203.711 32.8594C202.762 33.1875 201.666 33.3516 200.424 33.3516ZM228.76 33.3516C227.318 33.3516 226.023 33.1172 224.875 32.6484C223.727 32.1797 222.748 31.5293 221.939 30.6973C221.143 29.8535 220.527 28.875 220.094 27.7617C219.672 26.6367 219.461 25.4297 219.461 24.1406V23.4375C219.461 21.9727 219.672 20.6426 220.094 19.4473C220.516 18.2402 221.113 17.2031 221.887 16.3359C222.66 15.4688 223.586 14.8008 224.664 14.332C225.742 13.8633 226.932 13.6289 228.232 13.6289C229.58 13.6289 230.77 13.8574 231.801 14.3145C232.832 14.7598 233.693 15.3926 234.385 16.2129C235.076 17.0332 235.598 18.0176 235.949 19.166C236.301 20.3027 236.477 21.5625 236.477 22.9453V24.8965L221.57 24.8965V21.6973L231.906 21.6973V21.3457C231.883 20.6074 231.742 19.9336 231.484 19.3242C231.227 18.7031 230.828 18.2109 230.289 17.8477C229.75 17.4727 229.053 17.2852 228.197 17.2852C227.506 17.2852 226.902 17.4375 226.387 17.7422C225.883 18.0352 225.461 18.457 225.121 19.0078C224.793 19.5469 224.547 20.1914 224.383 20.9414C224.219 21.6914 224.137 22.5234 224.137 23.4375V24.1406C224.137 24.9375 224.242 25.6758 224.453 26.3555C224.676 27.0352 224.998 27.627 225.42 28.1309C225.854 28.623 226.369 29.0098 226.967 29.291C227.576 29.5605 228.268 29.6953 229.041 29.6953C230.014 29.6953 230.893 29.5078 231.678 29.1328C232.475 28.7461 233.166 28.1777 233.752 27.4277L236.09 29.8535C235.691 30.4395 235.152 31.002 234.473 31.541C233.805 32.0801 232.996 32.5195 232.047 32.8594C231.098 33.1875 230.002 33.3516 228.76 33.3516ZM243.227 13.9805L246.619 20.0273L250.064 13.9805L255.109 13.9805L249.52 23.2969L255.338 33H250.293L246.654 26.6543L242.998 33H237.953L243.754 23.2969L238.199 13.9805L243.227 13.9805ZM262.439 17.6367V40.3125H257.781V13.9805H262.088L262.439 17.6367ZM274.656 23.2969V23.666C274.656 25.0488 274.492 26.332 274.164 27.5156C273.848 28.6875 273.379 29.7129 272.758 30.5918C272.137 31.459 271.363 32.1387 270.438 32.6309C269.523 33.1113 268.469 33.3516 267.273 33.3516C266.102 33.3516 265.082 33.1289 264.215 32.6836C263.348 32.2266 262.615 31.582 262.018 30.75C261.42 29.918 260.939 28.9512 260.576 27.8496C260.225 26.7363 259.961 25.5234 259.785 24.2109V23.0332C259.961 21.6387 260.225 20.373 260.576 19.2363C260.939 18.0879 261.42 17.0977 262.018 16.2656C262.615 15.4219 263.342 14.7715 264.197 14.3145C265.064 13.8574 266.078 13.6289 267.238 13.6289C268.445 13.6289 269.506 13.8574 270.42 14.3145C271.346 14.7715 272.125 15.4277 272.758 16.2832C273.391 17.1387 273.865 18.1582 274.182 19.3418C274.498 20.5254 274.656 21.8438 274.656 23.2969ZM269.998 23.666V23.2969C269.998 22.4531 269.922 21.6738 269.77 20.959C269.617 20.2324 269.383 19.5996 269.066 19.0605C268.75 18.5098 268.34 18.082 267.836 17.7773C267.332 17.4727 266.723 17.3203 266.008 17.3203C265.293 17.3203 264.678 17.4375 264.162 17.6719C263.646 17.9063 263.225 18.2402 262.896 18.6738C262.568 19.1074 262.311 19.623 262.123 20.2207C261.947 20.8066 261.83 21.457 261.771 22.1719V25.0898C261.877 25.957 262.082 26.7363 262.387 27.4277C262.691 28.1191 263.137 28.6699 263.723 29.0801C264.32 29.4902 265.094 29.6953 266.043 29.6953C266.758 29.6953 267.367 29.5371 267.871 29.2207C268.375 28.9043 268.785 28.4707 269.102 27.9199C269.418 27.3574 269.646 26.7129 269.787 25.9863C269.928 25.2598 269.998 24.4863 269.998 23.666ZM282.689 17.8652V33L278.049 33V13.9805H282.443L282.689 17.8652ZM288.473 13.8574L288.402 18.1816C288.145 18.1348 287.852 18.0996 287.523 18.0762C287.207 18.0527 286.908 18.041 286.627 18.041C285.912 18.041 285.285 18.1406 284.746 18.3398C284.207 18.5273 283.756 18.8027 283.393 19.166C283.041 19.5293 282.771 19.9746 282.584 20.502C282.396 21.0176 282.291 21.6035 282.268 22.2598L281.266 22.1367C281.266 20.9297 281.389 19.8105 281.635 18.7793C281.881 17.748 282.238 16.8457 282.707 16.0723C283.176 15.2988 283.762 14.7012 284.465 14.2793C285.18 13.8457 286 13.6289 286.926 13.6289C287.184 13.6289 287.459 13.6523 287.752 13.6992C288.057 13.7344 288.297 13.7871 288.473 13.8574ZM299.213 33.3516C297.771 33.3516 296.477 33.1172 295.328 32.6484C294.18 32.1797 293.201 31.5293 292.393 30.6973C291.596 29.8535 290.98 28.875 290.547 27.7617C290.125 26.6367 289.914 25.4297 289.914 24.1406V23.4375C289.914 21.9727 290.125 20.6426 290.547 19.4473C290.969 18.2402 291.566 17.2031 292.34 16.3359C293.113 15.4688 294.039 14.8008 295.117 14.332C296.195 13.8633 297.385 13.6289 298.686 13.6289C300.033 13.6289 301.223 13.8574 302.254 14.3145C303.285 14.7598 304.146 15.3926 304.838 16.2129C305.529 17.0332 306.051 18.0176 306.402 19.166C306.754 20.3027 306.93 21.5625 306.93 22.9453V24.8965H292.023V21.6973H302.359V21.3457C302.336 20.6074 302.195 19.9336 301.938 19.3242C301.68 18.7031 301.281 18.2109 300.742 17.8477C300.203 17.4727 299.506 17.2852 298.65 17.2852C297.959 17.2852 297.355 17.4375 296.84 17.7422C296.336 18.0352 295.914 18.457 295.574 19.0078C295.246 19.5469 295 20.1914 294.836 20.9414C294.672 21.6914 294.59 22.5234 294.59 23.4375V24.1406C294.59 24.9375 294.695 25.6758 294.906 26.3555C295.129 27.0352 295.451 27.627 295.873 28.1309C296.307 28.623 296.822 29.0098 297.42 29.291C298.029 29.5605 298.721 29.6953 299.494 29.6953C300.467 29.6953 301.346 29.5078 302.131 29.1328C302.928 28.7461 303.619 28.1777 304.205 27.4277L306.543 29.8535C306.145 30.4395 305.605 31.002 304.926 31.541C304.258 32.0801 303.449 32.5195 302.5 32.8594C301.551 33.1875 300.455 33.3516 299.213 33.3516ZM320.5 27.7969C320.5 27.3984 320.395 27.041 320.184 26.7246C319.973 26.4082 319.574 26.1211 318.988 25.8633C318.414 25.5938 317.57 25.3418 316.457 25.1074C315.473 24.8965 314.564 24.6328 313.732 24.3164C312.9 24 312.186 23.6191 311.588 23.1738C310.99 22.7168 310.521 22.1836 310.182 21.5742C309.854 20.9531 309.689 20.2383 309.689 19.4297C309.689 18.6445 309.859 17.9063 310.199 17.2148C310.539 16.5117 311.031 15.8965 311.676 15.3691C312.32 14.8301 313.105 14.4082 314.031 14.1035C314.957 13.7871 316 13.6289 317.16 13.6289C318.777 13.6289 320.166 13.8926 321.326 14.4199C322.498 14.9473 323.395 15.6738 324.016 16.5996C324.637 17.5137 324.947 18.5449 324.947 19.6934H320.307C320.307 19.1895 320.189 18.7324 319.955 18.3223C319.732 17.9121 319.387 17.584 318.918 17.3379C318.449 17.0801 317.857 16.9512 317.143 16.9512C316.498 16.9512 315.953 17.0566 315.508 17.2676C315.074 17.4785 314.746 17.7539 314.523 18.0938C314.301 18.4336 314.189 18.8086 314.189 19.2188C314.189 19.5234 314.248 19.7988 314.365 20.0449C314.494 20.2793 314.699 20.4961 314.98 20.6953C315.262 20.8945 315.643 21.0762 316.123 21.2402C316.615 21.4043 317.219 21.5625 317.934 21.7148C319.352 21.9961 320.588 22.3711 321.643 22.8398C322.709 23.2969 323.541 23.9063 324.139 24.668C324.736 25.4297 325.035 26.4023 325.035 27.5859C325.035 28.4297 324.854 29.2031 324.49 29.9063C324.127 30.5977 323.6 31.2012 322.908 31.7168C322.217 32.2324 321.391 32.6367 320.43 32.9297C319.469 33.2109 318.385 33.3516 317.178 33.3516C315.432 33.3516 313.955 33.041 312.748 32.4199C311.541 31.7871 310.627 30.9902 310.006 30.0293C309.385 29.0566 309.074 28.0488 309.074 27.0059L313.521 27.0059C313.557 27.7441 313.756 28.3359 314.119 28.7813C314.482 29.2266 314.939 29.5488 315.49 29.748C316.053 29.9355 316.645 30.0293 317.266 30.0293C317.969 30.0293 318.561 29.9355 319.041 29.748C319.521 29.5488 319.885 29.2852 320.131 28.957C320.377 28.6172 320.5 28.2305 320.5 27.7969ZM339.027 27.7969C339.027 27.3984 338.922 27.041 338.711 26.7246C338.5 26.4082 338.102 26.1211 337.516 25.8633C336.941 25.5938 336.098 25.3418 334.984 25.1074C334 24.8965 333.092 24.6328 332.26 24.3164C331.428 24 330.713 23.6191 330.115 23.1738C329.518 22.7168 329.049 22.1836 328.709 21.5742C328.381 20.9531 328.217 20.2383 328.217 19.4297C328.217 18.6445 328.387 17.9063 328.727 17.2148C329.066 16.5117 329.559 15.8965 330.203 15.3691C330.848 14.8301 331.633 14.4082 332.559 14.1035C333.484 13.7871 334.527 13.6289 335.688 13.6289C337.305 13.6289 338.693 13.8926 339.854 14.4199C341.025 14.9473 341.922 15.6738 342.543 16.5996C343.164 17.5137 343.475 18.5449 343.475 19.6934H338.834C338.834 19.1895 338.717 18.7324 338.482 18.3223C338.26 17.9121 337.914 17.584 337.445 17.3379C336.977 17.0801 336.385 16.9512 335.67 16.9512C335.025 16.9512 334.48 17.0566 334.035 17.2676C333.602 17.4785 333.273 17.7539 333.051 18.0938C332.828 18.4336 332.717 18.8086 332.717 19.2188C332.717 19.5234 332.775 19.7988 332.893 20.0449C333.021 20.2793 333.227 20.4961 333.508 20.6953C333.789 20.8945 334.17 21.0762 334.65 21.2402C335.143 21.4043 335.746 21.5625 336.461 21.7148C337.879 21.9961 339.115 22.3711 340.17 22.8398C341.236 23.2969 342.068 23.9063 342.666 24.668C343.264 25.4297 343.562 26.4023 343.562 27.5859C343.562 28.4297 343.381 29.2031 343.018 29.9063C342.654 30.5977 342.127 31.2012 341.436 31.7168C340.744 32.2324 339.918 32.6367 338.957 32.9297C337.996 33.2109 336.912 33.3516 335.705 33.3516C333.959 33.3516 332.482 33.041 331.275 32.4199C330.068 31.7871 329.154 30.9902 328.533 30.0293C327.912 29.0566 327.602 28.0488 327.602 27.0059H332.049C332.084 27.7441 332.283 28.3359 332.646 28.7813C333.01 29.2266 333.467 29.5488 334.018 29.748C334.58 29.9355 335.172 30.0293 335.793 30.0293C336.496 30.0293 337.088 29.9355 337.568 29.748C338.049 29.5488 338.412 29.2852 338.658 28.957C338.904 28.6172 339.027 28.2305 339.027 27.7969ZM352.018 13.9805V33H347.359V13.9805L352.018 13.9805ZM347.043 9.00586C347.043 8.31445 347.277 7.74023 347.746 7.2832C348.227 6.82617 348.871 6.59766 349.68 6.59766C350.488 6.59766 351.127 6.82617 351.596 7.2832C352.076 7.74023 352.316 8.31445 352.316 9.00586C352.316 9.68555 352.076 10.2539 351.596 10.7109C351.127 11.168 350.488 11.3965 349.68 11.3965C348.871 11.3965 348.227 11.168 347.746 10.7109C347.277 10.2539 347.043 9.68555 347.043 9.00586ZM355.621 23.6836V23.3145C355.621 21.9199 355.82 20.6367 356.219 19.4648C356.617 18.2813 357.197 17.2559 357.959 16.3887C358.721 15.5215 359.652 14.8477 360.754 14.3672C361.855 13.875 363.109 13.6289 364.516 13.6289C365.945 13.6289 367.211 13.875 368.312 14.3672C369.426 14.8477 370.363 15.5215 371.125 16.3887C371.887 17.2559 372.467 18.2813 372.865 19.4648C373.264 20.6367 373.463 21.9199 373.463 23.3145V23.6836C373.463 25.0664 373.264 26.3496 372.865 27.5332C372.467 28.7051 371.887 29.7305 371.125 30.6094C370.363 31.4766 369.432 32.1504 368.33 32.6309C367.229 33.1113 365.969 33.3516 364.551 33.3516C363.145 33.3516 361.885 33.1113 360.771 32.6309C359.658 32.1504 358.721 31.4766 357.959 30.6094C357.197 29.7305 356.617 28.7051 356.219 27.5332C355.82 26.3496 355.621 25.0664 355.621 23.6836ZM360.262 23.3145V23.6836C360.262 24.5156 360.344 25.2949 360.508 26.0215C360.672 26.748 360.924 27.3867 361.264 27.9375C361.604 28.4883 362.043 28.9219 362.582 29.2383C363.133 29.543 363.789 29.6953 364.551 29.6953C365.301 29.6953 365.945 29.543 366.484 29.2383C367.023 28.9219 367.463 28.4883 367.803 27.9375C368.154 27.3867 368.412 26.748 368.576 26.0215C368.74 25.2949 368.822 24.5156 368.822 23.6836V23.3145C368.822 22.4941 368.74 21.7266 368.576 21.0117C368.412 20.2852 368.154 19.6465 367.803 19.0957C367.463 18.5332 367.018 18.0938 366.467 17.7773C365.928 17.4492 365.277 17.2852 364.516 17.2852C363.766 17.2852 363.121 17.4492 362.582 17.7773C362.043 18.0938 361.604 18.5332 361.264 19.0957C360.924 19.6465 360.672 20.2852 360.508 21.0117C360.344 21.7266 360.262 22.4941 360.262 23.3145ZM381.391 18.041V33H376.75V13.9805H381.109L381.391 18.041ZM380.652 22.8047H379.281C379.293 21.4219 379.48 20.168 379.844 19.043C380.207 17.918 380.717 16.9512 381.373 16.1426C382.041 15.334 382.832 14.7129 383.746 14.2793C384.66 13.8457 385.68 13.6289 386.805 13.6289C387.719 13.6289 388.545 13.7578 389.283 14.0156C390.021 14.2734 390.654 14.6836 391.182 15.2461C391.721 15.8086 392.131 16.5469 392.412 17.4609C392.705 18.3633 392.852 19.4766 392.852 20.8008V33H388.176V20.7656C388.176 19.8984 388.047 19.2129 387.789 18.709C387.543 18.2051 387.18 17.8477 386.699 17.6367C386.23 17.4258 385.65 17.3203 384.959 17.3203C384.244 17.3203 383.617 17.4668 383.078 17.7598C382.551 18.041 382.105 18.4336 381.742 18.9375C381.391 19.4414 381.121 20.0215 380.934 20.6777C380.746 21.334 380.652 22.043 380.652 22.8047ZM405.086 23.6836V23.3145C405.086 21.9199 405.285 20.6367 405.684 19.4648C406.082 18.2813 406.662 17.2559 407.424 16.3887C408.186 15.5215 409.117 14.8477 410.219 14.3672C411.32 13.875 412.574 13.6289 413.98 13.6289C415.41 13.6289 416.676 13.875 417.777 14.3672C418.891 14.8477 419.828 15.5215 420.59 16.3887C421.352 17.2559 421.932 18.2813 422.33 19.4648C422.729 20.6367 422.928 21.9199 422.928 23.3145V23.6836C422.928 25.0664 422.729 26.3496 422.33 27.5332C421.932 28.7051 421.352 29.7305 420.59 30.6094C419.828 31.4766 418.896 32.1504 417.795 32.6309C416.693 33.1113 415.434 33.3516 414.016 33.3516C412.609 33.3516 411.35 33.1113 410.236 32.6309C409.123 32.1504 408.186 31.4766 407.424 30.6094C406.662 29.7305 406.082 28.7051 405.684 27.5332C405.285 26.3496 405.086 25.0664 405.086 23.6836ZM409.727 23.3145V23.6836C409.727 24.5156 409.809 25.2949 409.973 26.0215C410.137 26.748 410.389 27.3867 410.729 27.9375C411.068 28.4883 411.508 28.9219 412.047 29.2383C412.598 29.543 413.254 29.6953 414.016 29.6953C414.766 29.6953 415.41 29.543 415.949 29.2383C416.488 28.9219 416.928 28.4883 417.268 27.9375C417.619 27.3867 417.877 26.748 418.041 26.0215C418.205 25.2949 418.287 24.5156 418.287 23.6836V23.3145C418.287 22.4941 418.205 21.7266 418.041 21.0117C417.877 20.2852 417.619 19.6465 417.268 19.0957C416.928 18.5332 416.482 18.0938 415.932 17.7773C415.393 17.4492 414.742 17.2852 413.98 17.2852C413.23 17.2852 412.586 17.4492 412.047 17.7773C411.508 18.0938 411.068 18.5332 410.729 19.0957C410.389 19.6465 410.137 20.2852 409.973 21.0117C409.809 21.7266 409.727 22.4941 409.727 23.3145ZM432.385 33H427.709V12.2227C427.709 10.793 427.984 9.5918 428.535 8.61914C429.086 7.63477 429.871 6.89063 430.891 6.38672C431.91 5.88281 433.111 5.63086 434.494 5.63086C434.951 5.63086 435.385 5.66016 435.795 5.71875C436.217 5.77734 436.633 5.85938 437.043 5.96484L436.955 9.49805C436.732 9.43945 436.486 9.39844 436.217 9.375C435.959 9.35156 435.672 9.33984 435.355 9.33984C434.723 9.33984 434.184 9.45117 433.738 9.67383C433.293 9.89648 432.953 10.2246 432.719 10.6582C432.496 11.0801 432.385 11.6016 432.385 12.2227V33ZM436.234 13.9805V17.3203H424.844V13.9805L436.234 13.9805ZM454.709 28.0957L459.807 7.40625H462.566L462.742 11.7656L457.293 33L454.375 33L454.709 28.0957ZM451.492 7.40625L455.676 28.0254V33H452.494L446.693 7.40625L451.492 7.40625ZM468.033 27.9375L472.146 7.40625L476.963 7.40625L471.162 33H467.98L468.033 27.9375ZM463.885 7.40625L468.982 28.166L469.281 33H466.363L460.932 11.748L461.143 7.40625H463.885ZM496.984 29.2031V33H483.379V29.2031L496.984 29.2031ZM484.855 7.40625V33H480.021V7.40625L484.855 7.40625ZM495.209 17.9707V21.6797L483.379 21.6797V17.9707L495.209 17.9707ZM496.932 7.40625V11.2207L483.379 11.2207V7.40625L496.932 7.40625ZM517.305 29.2031V33H503.699V29.2031L517.305 29.2031ZM505.176 7.40625V33L500.342 33V7.40625L505.176 7.40625ZM515.529 17.9707V21.6797L503.699 21.6797V17.9707L515.529 17.9707ZM517.252 7.40625V11.2207L503.699 11.2207V7.40625L517.252 7.40625ZM532.018 7.33594V33H527.359V12.7676L521.189 14.8066V11.0449L531.49 7.33594H532.018ZM556.152 29.4844L560.582 13.9805L565.434 13.9805L558.912 33H555.959L556.152 29.4844ZM552.918 13.9805L557.4 29.5195L557.559 33H554.588L548.049 13.9805L552.918 13.9805ZM578.336 27.7969C578.336 27.3984 578.23 27.041 578.02 26.7246C577.809 26.4082 577.41 26.1211 576.824 25.8633C576.25 25.5938 575.406 25.3418 574.293 25.1074C573.309 24.8965 572.4 24.6328 571.568 24.3164C570.736 24 570.021 23.6191 569.424 23.1738C568.826 22.7168 568.357 22.1836 568.018 21.5742C567.689 20.9531 567.525 20.2383 567.525 19.4297C567.525 18.6445 567.695 17.9063 568.035 17.2148C568.375 16.5117 568.867 15.8965 569.512 15.3691C570.156 14.8301 570.941 14.4082 571.867 14.1035C572.793 13.7871 573.836 13.6289 574.996 13.6289C576.613 13.6289 578.002 13.8926 579.162 14.4199C580.334 14.9473 581.23 15.6738 581.852 16.5996C582.473 17.5137 582.783 18.5449 582.783 19.6934H578.143C578.143 19.1895 578.025 18.7324 577.791 18.3223C577.568 17.9121 577.223 17.584 576.754 17.3379C576.285 17.0801 575.693 16.9512 574.979 16.9512C574.334 16.9512 573.789 17.0566 573.344 17.2676C572.91 17.4785 572.582 17.7539 572.359 18.0938C572.137 18.4336 572.025 18.8086 572.025 19.2188C572.025 19.5234 572.084 19.7988 572.201 20.0449C572.33 20.2793 572.535 20.4961 572.816 20.6953C573.098 20.8945 573.479 21.0762 573.959 21.2402C574.451 21.4043 575.055 21.5625 575.77 21.7148C577.188 21.9961 578.424 22.3711 579.479 22.8398C580.545 23.2969 581.377 23.9063 581.975 24.668C582.572 25.4297 582.871 26.4023 582.871 27.5859C582.871 28.4297 582.689 29.2031 582.326 29.9063C581.963 30.5977 581.436 31.2012 580.744 31.7168C580.053 32.2324 579.227 32.6367 578.266 32.9297C577.305 33.2109 576.221 33.3516 575.014 33.3516C573.268 33.3516 571.791 33.041 570.584 32.4199C569.377 31.7871 568.463 30.9902 567.842 30.0293C567.221 29.0566 566.91 28.0488 566.91 27.0059H571.357C571.393 27.7441 571.592 28.3359 571.955 28.7813C572.318 29.2266 572.775 29.5488 573.326 29.748C573.889 29.9355 574.48 30.0293 575.102 30.0293C575.805 30.0293 576.396 29.9355 576.877 29.748C577.357 29.5488 577.721 29.2852 577.967 28.957C578.213 28.6172 578.336 28.2305 578.336 27.7969ZM600.555 7.40625V33H595.721V7.40625L600.555 7.40625ZM615.918 7.40625L605.652 19.8867L599.781 26.1621L598.92 21.4688L602.998 16.1777L609.994 7.40625L615.918 7.40625ZM610.539 33L602.576 21.0117L606.039 17.8828L616.287 33H610.539ZM618.537 7.40625L627.836 7.40625C629.781 7.40625 631.451 7.69922 632.846 8.28516C634.24 8.87109 635.312 9.73828 636.062 10.8867C636.812 12.0352 637.188 13.4473 637.188 15.123C637.188 16.4473 636.953 17.5957 636.484 18.5684C636.016 19.541 635.354 20.3555 634.498 21.0117C633.654 21.668 632.658 22.1836 631.51 22.5586L629.998 23.332L621.789 23.332L621.754 19.5176L627.889 19.5176C628.885 19.5176 629.711 19.3418 630.367 18.9902C631.023 18.6387 631.516 18.1523 631.844 17.5313C632.184 16.9102 632.354 16.2012 632.354 15.4043C632.354 14.5488 632.189 13.8105 631.861 13.1895C631.533 12.5566 631.035 12.0703 630.367 11.7305C629.699 11.3906 628.855 11.2207 627.836 11.2207L623.371 11.2207V33H618.537V7.40625ZM632.986 33L627.062 21.5391L632.178 21.5215L638.172 32.7539V33L632.986 33ZM651.602 11.291L644.307 33H639.191L648.754 7.40625H652.023L651.602 11.291ZM657.701 33L650.371 11.291L649.932 7.40625L653.219 7.40625L662.834 33H657.701ZM657.367 23.4902V27.3047L643.639 27.3047V23.4902L657.367 23.4902ZM678.865 26.3555C678.865 25.8633 678.789 25.4238 678.637 25.0371C678.496 24.6387 678.232 24.2813 677.846 23.9648C677.471 23.6367 676.938 23.3203 676.246 23.0156C675.566 22.6992 674.688 22.3711 673.609 22.0313C672.414 21.6563 671.301 21.2344 670.27 20.7656C669.238 20.2969 668.33 19.752 667.545 19.1309C666.771 18.5098 666.168 17.7949 665.734 16.9863C665.301 16.166 665.084 15.2168 665.084 14.1387C665.084 13.084 665.307 12.123 665.752 11.2559C666.209 10.3887 666.854 9.64453 667.686 9.02344C668.518 8.39063 669.496 7.9043 670.621 7.56445C671.758 7.22461 673.012 7.05469 674.383 7.05469C676.281 7.05469 677.922 7.40039 679.305 8.0918C680.699 8.7832 681.777 9.7207 682.539 10.9043C683.301 12.0879 683.682 13.418 683.682 14.8945L678.865 14.8945C678.865 14.0977 678.695 13.3945 678.355 12.7852C678.027 12.1758 677.523 11.6953 676.844 11.3438C676.176 10.9922 675.332 10.8164 674.312 10.8164C673.328 10.8164 672.508 10.9629 671.852 11.2559C671.207 11.5488 670.721 11.9473 670.393 12.4512C670.076 12.9551 669.918 13.5176 669.918 14.1387C669.918 14.6074 670.029 15.0293 670.252 15.4043C670.475 15.7676 670.809 16.1133 671.254 16.4414C671.699 16.7578 672.25 17.0566 672.906 17.3379C673.574 17.6074 674.348 17.877 675.227 18.1465C676.633 18.5684 677.863 19.0371 678.918 19.5527C679.984 20.0684 680.869 20.6543 681.572 21.3105C682.287 21.9668 682.82 22.7051 683.172 23.5254C683.535 24.3457 683.717 25.2773 683.717 26.3203C683.717 27.4219 683.5 28.4063 683.066 29.2734C682.633 30.1406 682.012 30.8789 681.203 31.4883C680.395 32.0977 679.422 32.5605 678.285 32.877C677.16 33.1934 675.9 33.3516 674.506 33.3516C673.264 33.3516 672.033 33.1875 670.814 32.8594C669.607 32.5195 668.512 32.0156 667.527 31.3477C666.543 30.668 665.758 29.8125 665.172 28.7813C664.586 27.7383 664.293 26.5195 664.293 25.125L669.145 25.125C669.145 25.9336 669.273 26.625 669.531 27.1992C669.801 27.7617 670.176 28.2246 670.656 28.5879C671.148 28.9395 671.723 29.1973 672.379 29.3613C673.035 29.5254 673.744 29.6074 674.506 29.6074C675.49 29.6074 676.299 29.4727 676.932 29.2031C677.576 28.9219 678.057 28.5352 678.373 28.043C678.701 27.5508 678.865 26.9883 678.865 26.3555Z" fill="#505459"/>
<path d="M208.781 473.441L247.562 495.832V540.612L208.781 563.003L169.999 540.612V495.832L208.781 473.441Z" fill="#505459" fill-opacity="0.3"/>
<path d="M252.442 399.553L291.223 421.943V466.724L252.442 489.114L213.661 466.724V421.943L252.442 399.553Z" fill="#505459" fill-opacity="0.7"/>
<path d="M208.781 325.665L247.562 348.055V392.836L208.781 415.226L169.999 392.836V348.055L208.781 325.665Z" fill="#505459" fill-opacity="0.3"/>
<path d="M296.103 473.441L334.885 495.832V540.612L296.103 563.003L257.322 540.612V495.832L296.103 473.441Z" fill="#505459" fill-opacity="0.3"/>
<path d="M296.103 325.665L334.885 348.055V392.836L296.103 415.226L257.322 392.836V348.055L296.103 325.665Z" fill="#505459" fill-opacity="0.7"/>
<path d="M339.765 251.776L378.546 274.167V318.948L339.765 341.338L300.983 318.948V274.167L339.765 251.776Z" fill="#505459" fill-opacity="0.7"/>
<path d="M383.426 325.665L422.207 348.055V392.836L383.426 415.226L344.644 392.836V348.055L383.426 325.665Z" fill="#505459"/>
<path d="M427.087 251.776L465.868 274.167V318.948L427.087 341.338L388.306 318.948V274.167L427.087 251.776Z" fill="#505459"/>
<path d="M470.748 325.665L509.529 348.055V392.836L470.748 415.226L431.967 392.836V348.055L470.748 325.665Z" fill="#505459"/>
<path d="M514.409 251.776L553.191 274.167V318.948L514.409 341.338L475.628 318.948V274.167L514.409 251.776Z" fill="#505459"/>
<path d="M601.732 104L640.513 126.39V171.171L601.732 193.562L562.951 171.171V126.39L601.732 104Z" fill="#505459" fill-opacity="0.3"/>
<path d="M514.409 399.553L553.191 421.943V466.724L514.409 489.114L475.628 466.724V421.943L514.409 399.553Z" fill="#505459" fill-opacity="0.7"/>
<path d="M558.071 473.441L596.852 495.832V540.612L558.071 563.003L519.289 540.612V495.832L558.071 473.441Z" fill="#505459" fill-opacity="0.5"/>
<path d="M601.732 399.553L640.513 421.943V466.724L601.732 489.114L562.951 466.724V421.943L601.732 399.553Z" fill="#505459" fill-opacity="0.5"/>
<path d="M339.765 547.329L378.546 569.72V614.501L339.765 636.891L300.983 614.501V569.72L339.765 547.329Z" fill="#505459" fill-opacity="0.3"/>
<path d="M558.071 177.888L596.852 200.279V245.059L558.071 267.45L519.289 245.059V200.279L558.071 177.888Z" fill="#505459" fill-opacity="0.3"/>
<path d="M427.087 399.553L465.868 421.943V466.724L427.087 489.114L388.306 466.724V421.943L427.087 399.553Z" fill="#505459"/>
<path d="M383.426 473.441L422.207 495.832V540.612L383.426 563.003L344.644 540.612V495.832L383.426 473.441Z" fill="#505459" fill-opacity="0.3"/>
<path d="M470.748 177.888L509.529 200.279V245.059L470.748 267.45L431.967 245.059V200.279L470.748 177.888Z" fill="#505459" fill-opacity="0.7"/>
</svg>
