<svg width="245" height="124" viewBox="0 0 245 124" fill="none" xmlns="http://www.w3.org/2000/svg">
<path d="M125.624 47.0268C130.15 47.0268 130.189 47.0269 148.251 47.0268C166.313 47.0268 197.895 44.0079 215.93 44.0079C233.966 44.0079 233.924 44.0079 238.423 44.0079V32.557C233.897 32.557 233.858 32.5569 215.796 32.557C197.734 32.557 166.152 35.5759 148.117 35.5759C130.081 35.5759 130.123 35.5759 125.624 35.5759V47.0268Z" fill="#337AB7" fill-opacity="0.4"/>
<path d="M238.423 62.6609C233.897 62.6609 233.858 62.6609 215.796 62.6609C197.734 62.6608 166.152 59.642 148.117 59.6419C130.081 59.6419 130.123 59.6419 125.624 59.6419V47.0269C130.15 47.0269 130.189 47.0269 148.251 47.0269C166.313 47.0269 197.895 50.0458 215.931 50.0458C233.966 50.0459 233.924 50.0458 238.423 50.0458V62.6609Z" fill="#337AB7" fill-opacity="0.4"/>
<path d="M125.624 66.1006C130.15 66.1006 130.189 66.1006 148.251 66.1006C166.313 66.1006 197.895 69.1195 215.93 69.1195C233.966 69.1196 233.924 69.1195 238.423 69.1195V87.2068C233.897 87.2068 233.858 87.2068 215.796 87.2068C197.734 87.2067 166.152 84.1879 148.117 84.1878C130.081 84.1878 130.123 84.1878 125.624 84.1878V66.1006Z" fill="#707070" fill-opacity="0.4"/>
<path d="M125.624 84.188C130.349 84.188 130.987 84.1879 149.249 84.188C167.51 84.1881 199.092 93.784 216.928 93.7841C234.764 93.7842 234.124 93.7841 238.423 93.7841V123.973C233.698 123.973 233.06 123.974 214.798 123.973C196.537 123.973 164.955 114.377 147.119 114.377C129.283 114.377 129.923 114.377 125.624 114.377V84.188Z" fill="#707070" fill-opacity="0.4"/>
<path d="M6.57715 104.538C10.972 104.538 10.6191 104.538 28.5505 104.538C46.4819 104.538 78.0637 114.404 96.2297 114.404C114.396 114.404 114.746 114.404 119.376 114.404L119.376 66.1007C114.981 66.1007 115.334 66.1008 97.4025 66.1007C79.4711 66.1007 47.8893 56.235 29.7233 56.2349C11.5573 56.2349 11.2066 56.2349 6.57715 56.2349L6.57715 104.538Z" fill="#707070" fill-opacity="0.4"/>
<path d="M119.376 59.5235C114.805 59.5235 114.63 59.5235 96.5229 59.5498C78.4156 59.5498 46.8337 56.2612 28.8437 56.2612C10.8536 56.2612 11.0307 56.2612 6.57716 56.2612L6.57716 32.1098C11.148 32.1098 11.3228 32.1097 29.4301 32.1098C47.5375 32.1098 79.1193 35.3983 97.1093 35.3984C115.099 35.5168 114.922 35.5168 119.376 35.5168L119.376 59.5235Z" fill="#337AB7" fill-opacity="0.4"/>
<path d="M119.047 28.9659L125.624 28.9659L125.624 10.8524L119.047 10.8524L119.047 28.9659Z" fill="#505459" fill-opacity="0.8"/>
<path d="M119.047 59.5236L125.624 59.5236L125.624 35.5168L119.047 35.5168L119.047 59.5236Z" fill="#337AB7" fill-opacity="0.9"/>
<path d="M119.047 114.443L125.624 114.443L125.624 66.1007L119.047 66.1007L119.047 114.443Z" fill="#505459" fill-opacity="0.8"/>
<path d="M238.423 123.98L245 123.98L245 93.7852L238.423 93.7852L238.423 123.98Z" fill="#505459" fill-opacity="0.8"/>
<path d="M238.423 87.201L245 87.201L245 69.1222L238.423 69.1222L238.423 87.201Z" fill="#505459" fill-opacity="0.8"/>
<path d="M238.423 44.0672L245 44.0672L245 32.5571L238.423 32.5571L238.423 44.0672Z" fill="#337AB7" fill-opacity="0.9"/>
<path d="M238.423 18.0872L245 18.0872L245 -9.34601e-05L238.423 -9.40351e-05L238.423 18.0872Z" fill="#505459" fill-opacity="0.8"/>
<path d="M238.423 62.4832L245 62.4832L245 49.9865L238.423 49.9865L238.423 62.4832Z" fill="#337AB7" fill-opacity="0.9"/>
<path d="M-4.24385e-05 104.577L6.57715 104.577L6.57716 14.141L-3.45323e-05 14.141L-4.24385e-05 104.577Z" fill="#337AB7" fill-opacity="0.9"/>
<path d="M119.376 28.966C114.908 28.966 115.041 28.966 97.036 28.966C79.0313 28.9661 47.4495 32.2546 29.3568 32.2546C11.2641 32.2546 11.1333 32.2546 6.57716 32.2546L6.57717 14.1411C11.0453 14.1411 10.9123 14.1411 28.917 14.1411C46.9217 14.141 78.5035 10.8525 96.5962 10.8525C114.689 10.8524 114.82 10.8525 119.376 10.8525L119.376 28.966Z" fill="#707070" fill-opacity="0.4"/>
<path d="M125.624 28.979C130.396 28.979 131.172 28.9793 149.48 28.979C167.788 28.9787 199.37 18.2519 217.159 18.2516C234.949 18.2513 234.17 18.2516 238.423 18.2516V0.000310898C233.651 0.000310898 232.875 1.33514e-05 214.567 0.000310898C196.259 0.000606537 164.677 10.7274 146.888 10.7277C129.098 10.728 129.877 10.8525 125.624 10.8525V28.979Z" fill="#707070" fill-opacity="0.4"/>
</svg>
