<svg width="786" height="769" viewBox="0 0 786 769" fill="none" xmlns="http://www.w3.org/2000/svg">
<rect x="37" y="628" width="10" height="51" fill="#505459"/>
<rect x="37" y="546" width="10" height="77" fill="#505459"/>
<rect x="37" y="338" width="10" height="110" fill="#505459"/>
<rect x="37" y="453" width="10" height="88" fill="#505459"/>
<rect x="37" y="245" width="10" height="88" fill="#505459"/>
<rect x="37" y="194" width="10" height="46" fill="#505459"/>
<rect x="37" y="68" width="10" height="121" fill="#505459"/>
<rect x="398" y="586" width="10" height="97" fill="#505459"/>
<rect x="398" y="471" width="10" height="110" fill="#505459"/>
<rect x="398" y="316" width="10" height="150" fill="#337AB7"/>
<rect x="398" y="68" width="10" height="243" fill="#505459"/>
<rect x="759" y="376" width="10" height="303" fill="#505459"/>
<rect x="759" y="68" width="10" height="303" fill="#505459"/>
<path d="M385.312 716.703L378.828 736H374.281L382.781 713.25H385.688L385.312 716.703ZM390.734 736L384.219 716.703L383.828 713.25H386.75L395.297 736H390.734ZM390.438 727.547V730.938H378.234V727.547H390.438ZM408.078 719.094H411.828V735.484C411.828 737.016 411.495 738.312 410.828 739.375C410.172 740.448 409.25 741.26 408.062 741.812C406.875 742.375 405.495 742.656 403.922 742.656C403.245 742.656 402.51 742.562 401.719 742.375C400.938 742.188 400.182 741.891 399.453 741.484C398.734 741.089 398.135 740.573 397.656 739.938L399.516 737.5C400.078 738.156 400.714 738.651 401.422 738.984C402.13 739.328 402.896 739.5 403.719 739.5C404.552 739.5 405.26 739.344 405.844 739.031C406.438 738.729 406.891 738.281 407.203 737.688C407.526 737.104 407.688 736.385 407.688 735.531V722.953L408.078 719.094ZM396.656 727.75V727.422C396.656 726.13 396.812 724.958 397.125 723.906C397.438 722.844 397.885 721.932 398.469 721.172C399.062 720.411 399.776 719.823 400.609 719.406C401.453 718.99 402.401 718.781 403.453 718.781C404.568 718.781 405.505 718.984 406.266 719.391C407.036 719.797 407.672 720.375 408.172 721.125C408.682 721.875 409.078 722.766 409.359 723.797C409.651 724.818 409.875 725.943 410.031 727.172V728.062C409.885 729.26 409.651 730.359 409.328 731.359C409.016 732.359 408.599 733.234 408.078 733.984C407.557 734.724 406.911 735.297 406.141 735.703C405.37 736.109 404.464 736.312 403.422 736.312C402.38 736.312 401.443 736.099 400.609 735.672C399.776 735.245 399.062 734.646 398.469 733.875C397.885 733.104 397.438 732.198 397.125 731.156C396.812 730.115 396.656 728.979 396.656 727.75ZM400.781 727.422V727.75C400.781 728.479 400.854 729.161 401 729.797C401.146 730.432 401.37 730.995 401.672 731.484C401.974 731.964 402.354 732.339 402.812 732.609C403.271 732.88 403.818 733.016 404.453 733.016C405.307 733.016 406.005 732.839 406.547 732.484C407.099 732.12 407.516 731.625 407.797 731C408.089 730.365 408.276 729.651 408.359 728.859V726.406C408.307 725.781 408.193 725.203 408.016 724.672C407.849 724.141 407.615 723.682 407.312 723.297C407.01 722.911 406.625 722.609 406.156 722.391C405.688 722.172 405.13 722.062 404.484 722.062C403.859 722.062 403.312 722.203 402.844 722.484C402.375 722.755 401.99 723.135 401.688 723.625C401.385 724.115 401.156 724.682 401 725.328C400.854 725.974 400.781 726.672 400.781 727.422ZM423.141 736.312C421.859 736.312 420.708 736.104 419.688 735.688C418.667 735.271 417.797 734.693 417.078 733.953C416.37 733.203 415.823 732.333 415.438 731.344C415.062 730.344 414.875 729.271 414.875 728.125V727.5C414.875 726.198 415.062 725.016 415.438 723.953C415.812 722.88 416.344 721.958 417.031 721.188C417.719 720.417 418.542 719.823 419.5 719.406C420.458 718.99 421.516 718.781 422.672 718.781C423.87 718.781 424.927 718.984 425.844 719.391C426.76 719.786 427.526 720.349 428.141 721.078C428.755 721.807 429.219 722.682 429.531 723.703C429.844 724.714 430 725.833 430 727.062V728.797H416.75V725.953H425.938V725.641C425.917 724.984 425.792 724.385 425.562 723.844C425.333 723.292 424.979 722.854 424.5 722.531C424.021 722.198 423.401 722.031 422.641 722.031C422.026 722.031 421.49 722.167 421.031 722.438C420.583 722.698 420.208 723.073 419.906 723.562C419.615 724.042 419.396 724.615 419.25 725.281C419.104 725.948 419.031 726.688 419.031 727.5V728.125C419.031 728.833 419.125 729.49 419.312 730.094C419.51 730.698 419.797 731.224 420.172 731.672C420.557 732.109 421.016 732.453 421.547 732.703C422.089 732.943 422.703 733.062 423.391 733.062C424.255 733.062 425.036 732.896 425.734 732.562C426.443 732.219 427.057 731.714 427.578 731.047L429.656 733.203C429.302 733.724 428.823 734.224 428.219 734.703C427.625 735.182 426.906 735.573 426.062 735.875C425.219 736.167 424.245 736.312 423.141 736.312Z" fill="#505459"/>
<path d="M20.8125 724.047V725.219C20.8125 726.938 20.5833 728.484 20.125 729.859C19.6667 731.224 19.0156 732.385 18.1719 733.344C17.3281 734.302 16.3229 735.036 15.1562 735.547C13.9896 736.057 12.6927 736.312 11.2656 736.312C9.85937 736.312 8.56771 736.057 7.39062 735.547C6.22396 735.036 5.21354 734.302 4.35937 733.344C3.50521 732.385 2.84375 731.224 2.375 729.859C1.90625 728.484 1.67187 726.938 1.67187 725.219L1.67187 724.047C1.67187 722.318 1.90625 720.771 2.375 719.406C2.84375 718.042 3.5 716.88 4.34375 715.922C5.1875 714.953 6.19271 714.214 7.35937 713.703C8.53646 713.193 9.82812 712.938 11.2344 712.938C12.6615 712.938 13.9583 713.193 15.125 713.703C16.2917 714.214 17.2969 714.953 18.1406 715.922C18.9948 716.88 19.651 718.042 20.1094 719.406C20.5781 720.771 20.8125 722.318 20.8125 724.047ZM16.4687 725.219V724.016C16.4687 722.776 16.3542 721.688 16.125 720.75C15.8958 719.802 15.5573 719.005 15.1094 718.359C14.6615 717.714 14.1094 717.229 13.4531 716.906C12.7969 716.573 12.0573 716.406 11.2344 716.406C10.401 716.406 9.66146 716.573 9.01562 716.906C8.38021 717.229 7.83854 717.714 7.39062 718.359C6.94271 719.005 6.59896 719.802 6.35937 720.75C6.13021 721.688 6.01562 722.776 6.01562 724.016V725.219C6.01562 726.448 6.13021 727.536 6.35937 728.484C6.59896 729.432 6.94271 730.234 7.39062 730.891C7.84896 731.536 8.40104 732.026 9.04687 732.359C9.69271 732.693 10.4323 732.859 11.2656 732.859C12.099 732.859 12.8385 732.693 13.4844 732.359C14.1302 732.026 14.6719 731.536 15.1094 730.891C15.5573 730.234 15.8958 729.432 16.125 728.484C16.3542 727.536 16.4687 726.448 16.4687 725.219ZM28.2656 722.547V736H24.1406V719.094H28.0469L28.2656 722.547ZM33.4062 718.984L33.3438 722.828C33.1146 722.786 32.8542 722.755 32.5625 722.734C32.2812 722.714 32.0156 722.703 31.7656 722.703C31.1302 722.703 30.5729 722.792 30.0937 722.969C29.6146 723.135 29.2135 723.38 28.8906 723.703C28.5781 724.026 28.3385 724.422 28.1719 724.891C28.0052 725.349 27.9115 725.87 27.8906 726.453L27 726.344C27 725.271 27.1094 724.276 27.3281 723.359C27.5469 722.443 27.8646 721.641 28.2812 720.953C28.6979 720.266 29.2187 719.734 29.8437 719.359C30.4792 718.974 31.2083 718.781 32.0312 718.781C32.2604 718.781 32.5052 718.802 32.7656 718.844C33.0365 718.875 33.25 718.922 33.4062 718.984ZM46.1094 719.094H49.8594L49.8594 735.484C49.8594 737.016 49.526 738.312 48.8594 739.375C48.2031 740.448 47.2812 741.26 46.0937 741.812C44.9062 742.375 43.526 742.656 41.9531 742.656C41.276 742.656 40.5417 742.562 39.75 742.375C38.9687 742.188 38.2135 741.891 37.4844 741.484C36.7656 741.089 36.1667 740.573 35.6875 739.938L37.5469 737.5C38.1094 738.156 38.7448 738.651 39.4531 738.984C40.1615 739.328 40.9271 739.5 41.75 739.5C42.5833 739.5 43.2917 739.344 43.875 739.031C44.4687 738.729 44.9219 738.281 45.2344 737.688C45.5573 737.104 45.7187 736.385 45.7187 735.531L45.7188 722.953L46.1094 719.094ZM34.6875 727.75V727.422C34.6875 726.13 34.8438 724.958 35.1562 723.906C35.4688 722.844 35.9167 721.932 36.5 721.172C37.0938 720.411 37.8073 719.823 38.6406 719.406C39.4844 718.99 40.4323 718.781 41.4844 718.781C42.599 718.781 43.5365 718.984 44.2969 719.391C45.0677 719.797 45.7031 720.375 46.2031 721.125C46.7135 721.875 47.1094 722.766 47.3906 723.797C47.6823 724.818 47.9062 725.943 48.0625 727.172V728.062C47.9167 729.26 47.6823 730.359 47.3594 731.359C47.0469 732.359 46.6302 733.234 46.1094 733.984C45.5885 734.724 44.9427 735.297 44.1719 735.703C43.401 736.109 42.4948 736.312 41.4531 736.312C40.4115 736.312 39.474 736.099 38.6406 735.672C37.8073 735.245 37.0937 734.646 36.5 733.875C35.9167 733.104 35.4687 732.198 35.1562 731.156C34.8437 730.115 34.6875 728.979 34.6875 727.75ZM38.8125 727.422V727.75C38.8125 728.479 38.8854 729.161 39.0312 729.797C39.1771 730.432 39.401 730.995 39.7031 731.484C40.0052 731.964 40.3854 732.339 40.8437 732.609C41.3021 732.88 41.849 733.016 42.4844 733.016C43.3385 733.016 44.0365 732.839 44.5781 732.484C45.1302 732.12 45.5469 731.625 45.8281 731C46.1198 730.365 46.3073 729.651 46.3906 728.859L46.3906 726.406C46.3385 725.781 46.224 725.203 46.0469 724.672C45.8802 724.141 45.6458 723.682 45.3438 723.297C45.0417 722.911 44.6562 722.609 44.1875 722.391C43.7188 722.172 43.1615 722.062 42.5156 722.062C41.8906 722.062 41.3438 722.203 40.875 722.484C40.4062 722.755 40.0208 723.135 39.7188 723.625C39.4167 724.115 39.1875 724.682 39.0312 725.328C38.8854 725.974 38.8125 726.672 38.8125 727.422ZM62.8906 732.406L62.8906 724.609C62.8906 724.036 62.7917 723.542 62.5938 723.125C62.3958 722.708 62.0938 722.385 61.6875 722.156C61.2812 721.927 60.7656 721.812 60.1406 721.812C59.5885 721.812 59.1042 721.906 58.6875 722.094C58.2812 722.281 57.9688 722.547 57.75 722.891C57.5312 723.224 57.4219 723.609 57.4219 724.047H53.2812C53.2812 723.349 53.4479 722.688 53.7812 722.062C54.1146 721.427 54.5885 720.865 55.2031 720.375C55.8281 719.875 56.5729 719.484 57.4375 719.203C58.3125 718.922 59.2917 718.781 60.375 718.781C61.6562 718.781 62.7969 719 63.7969 719.438C64.8073 719.865 65.599 720.51 66.1719 721.375C66.7552 722.24 67.0469 723.328 67.0469 724.641V732.016C67.0469 732.859 67.099 733.583 67.2031 734.188C67.3177 734.781 67.4844 735.297 67.7031 735.734V736H63.5C63.3021 735.573 63.151 735.031 63.0469 734.375C62.9427 733.708 62.8906 733.052 62.8906 732.406ZM63.4688 725.703L63.5 728.156H60.8906C60.2448 728.156 59.6771 728.224 59.1875 728.359C58.6979 728.484 58.2969 728.672 57.9844 728.922C57.6719 729.161 57.4375 729.453 57.2812 729.797C57.125 730.13 57.0469 730.51 57.0469 730.938C57.0469 731.354 57.1406 731.729 57.3281 732.062C57.526 732.396 57.8073 732.661 58.1719 732.859C58.5469 733.047 58.9844 733.141 59.4844 733.141C60.2135 733.141 60.849 732.995 61.3906 732.703C61.9323 732.401 62.3542 732.036 62.6562 731.609C62.9583 731.182 63.1198 730.776 63.1406 730.391L64.3281 732.172C64.1823 732.599 63.9635 733.052 63.6719 733.531C63.3802 734.01 63.0052 734.458 62.5469 734.875C62.0885 735.292 61.5365 735.635 60.8906 735.906C60.2448 736.177 59.4948 736.312 58.6406 736.312C57.5469 736.312 56.5677 736.094 55.7031 735.656C54.8385 735.219 54.1562 734.62 53.6562 733.859C53.1562 733.099 52.9062 732.234 52.9062 731.266C52.9062 730.37 53.0729 729.578 53.4062 728.891C53.7396 728.203 54.2344 727.625 54.8906 727.156C55.5469 726.677 56.3594 726.318 57.3281 726.078C58.3073 725.828 59.4271 725.703 60.6875 725.703H63.4688ZM74.8125 722.703V736H70.6875V719.094H74.5625L74.8125 722.703ZM74.1562 726.938H72.9375C72.9479 725.708 73.1146 724.594 73.4375 723.594C73.7604 722.594 74.2135 721.734 74.7969 721.016C75.3906 720.297 76.0938 719.745 76.9062 719.359C77.7188 718.974 78.625 718.781 79.625 718.781C80.4375 718.781 81.1719 718.896 81.8281 719.125C82.4844 719.354 83.0469 719.719 83.5156 720.219C83.9948 720.719 84.3594 721.375 84.6094 722.188C84.8698 722.99 85 723.979 85 725.156V736H80.8438V725.125C80.8438 724.354 80.7292 723.745 80.5 723.297C80.2812 722.849 79.9583 722.531 79.5312 722.344C79.1146 722.156 78.599 722.062 77.9844 722.062C77.349 722.062 76.7917 722.193 76.3125 722.453C75.8438 722.703 75.4479 723.052 75.125 723.5C74.8125 723.948 74.5729 724.464 74.4062 725.047C74.2396 725.63 74.1562 726.26 74.1562 726.938Z" fill="#505459"/>
<path d="M747.109 730.094C747.109 729.656 747.042 729.266 746.906 728.922C746.781 728.568 746.547 728.25 746.203 727.969C745.87 727.677 745.396 727.396 744.781 727.125C744.177 726.844 743.396 726.552 742.438 726.25C741.375 725.917 740.385 725.542 739.469 725.125C738.552 724.708 737.745 724.224 737.047 723.672C736.359 723.12 735.823 722.484 735.438 721.766C735.052 721.036 734.859 720.193 734.859 719.234C734.859 718.297 735.057 717.443 735.453 716.672C735.859 715.901 736.432 715.24 737.172 714.688C737.911 714.125 738.781 713.693 739.781 713.391C740.792 713.089 741.906 712.938 743.125 712.938C744.812 712.938 746.271 713.245 747.5 713.859C748.74 714.474 749.698 715.307 750.375 716.359C751.052 717.411 751.391 718.594 751.391 719.906H747.109C747.109 719.198 746.958 718.573 746.656 718.031C746.365 717.49 745.917 717.062 745.312 716.75C744.719 716.438 743.969 716.281 743.062 716.281C742.188 716.281 741.458 716.411 740.875 716.672C740.302 716.932 739.87 717.286 739.578 717.734C739.297 718.182 739.156 718.682 739.156 719.234C739.156 719.651 739.255 720.026 739.453 720.359C739.651 720.682 739.948 720.99 740.344 721.281C740.74 721.562 741.229 721.828 741.812 722.078C742.406 722.318 743.094 722.557 743.875 722.797C745.125 723.172 746.219 723.589 747.156 724.047C748.104 724.505 748.891 725.026 749.516 725.609C750.151 726.193 750.625 726.849 750.938 727.578C751.26 728.307 751.422 729.135 751.422 730.062C751.422 731.042 751.229 731.917 750.844 732.688C750.458 733.458 749.906 734.115 749.188 734.656C748.469 735.198 747.604 735.609 746.594 735.891C745.594 736.172 744.474 736.312 743.234 736.312C742.13 736.312 741.036 736.167 739.953 735.875C738.88 735.573 737.906 735.125 737.031 734.531C736.156 733.927 735.458 733.167 734.938 732.25C734.417 731.323 734.156 730.24 734.156 729H738.469C738.469 729.719 738.583 730.333 738.812 730.844C739.052 731.344 739.385 731.755 739.812 732.078C740.25 732.391 740.76 732.62 741.344 732.766C741.927 732.911 742.557 732.984 743.234 732.984C744.109 732.984 744.828 732.865 745.391 732.625C745.964 732.375 746.391 732.031 746.672 731.594C746.964 731.156 747.109 730.656 747.109 730.094ZM762.016 736.312C760.734 736.312 759.583 736.104 758.562 735.688C757.542 735.271 756.672 734.693 755.953 733.953C755.245 733.203 754.698 732.333 754.312 731.344C753.938 730.344 753.75 729.271 753.75 728.125V727.5C753.75 726.198 753.938 725.016 754.312 723.953C754.688 722.88 755.219 721.958 755.906 721.188C756.594 720.417 757.417 719.823 758.375 719.406C759.333 718.99 760.391 718.781 761.547 718.781C762.745 718.781 763.802 718.984 764.719 719.391C765.635 719.786 766.401 720.349 767.016 721.078C767.63 721.807 768.094 722.682 768.406 723.703C768.719 724.714 768.875 725.833 768.875 727.062V728.797H755.625V725.953H764.812V725.641C764.792 724.984 764.667 724.385 764.438 723.844C764.208 723.292 763.854 722.854 763.375 722.531C762.896 722.198 762.276 722.031 761.516 722.031C760.901 722.031 760.365 722.167 759.906 722.438C759.458 722.698 759.083 723.073 758.781 723.562C758.49 724.042 758.271 724.615 758.125 725.281C757.979 725.948 757.906 726.688 757.906 727.5V728.125C757.906 728.833 758 729.49 758.188 730.094C758.385 730.698 758.672 731.224 759.047 731.672C759.432 732.109 759.891 732.453 760.422 732.703C760.964 732.943 761.578 733.062 762.266 733.062C763.13 733.062 763.911 732.896 764.609 732.562C765.318 732.219 765.932 731.714 766.453 731.047L768.531 733.203C768.177 733.724 767.698 734.224 767.094 734.703C766.5 735.182 765.781 735.573 764.938 735.875C764.094 736.167 763.12 736.312 762.016 736.312ZM774.875 719.094L777.891 724.469L780.953 719.094H785.438L780.469 727.375L785.641 736H781.156L777.922 730.359L774.672 736H770.188L775.344 727.375L770.406 719.094H774.875Z" fill="#505459"/>
<path d="M285.035 19.5527V20.8711C285.035 22.8047 284.777 24.5449 284.262 26.0918C283.746 27.627 283.014 28.9336 282.064 30.0117C281.115 31.0898 279.984 31.916 278.672 32.4902C277.359 33.0645 275.9 33.3516 274.295 33.3516C272.713 33.3516 271.26 33.0645 269.936 32.4902C268.623 31.916 267.486 31.0898 266.525 30.0117C265.564 28.9336 264.82 27.627 264.293 26.0918C263.766 24.5449 263.502 22.8047 263.502 20.8711V19.5527C263.502 17.6074 263.766 15.8672 264.293 14.332C264.82 12.7969 265.559 11.4902 266.508 10.4121C267.457 9.32227 268.588 8.49023 269.9 7.91602C271.225 7.3418 272.678 7.05469 274.26 7.05469C275.865 7.05469 277.324 7.3418 278.637 7.91602C279.949 8.49023 281.08 9.32227 282.029 10.4121C282.99 11.4902 283.729 12.7969 284.244 14.332C284.771 15.8672 285.035 17.6074 285.035 19.5527ZM280.148 20.8711V19.5176C280.148 18.123 280.02 16.8984 279.762 15.8438C279.504 14.7773 279.123 13.8809 278.619 13.1543C278.115 12.4277 277.494 11.8828 276.756 11.5195C276.018 11.1445 275.186 10.957 274.26 10.957C273.322 10.957 272.49 11.1445 271.764 11.5195C271.049 11.8828 270.439 12.4277 269.936 13.1543C269.432 13.8809 269.045 14.7773 268.775 15.8438C268.518 16.8984 268.389 18.123 268.389 19.5176V20.8711C268.389 22.2539 268.518 23.4785 268.775 24.5449C269.045 25.6113 269.432 26.5137 269.936 27.252C270.451 27.9785 271.072 28.5293 271.799 28.9043C272.525 29.2793 273.357 29.4668 274.295 29.4668C275.232 29.4668 276.064 29.2793 276.791 28.9043C277.518 28.5293 278.127 27.9785 278.619 27.252C279.123 26.5137 279.504 25.6113 279.762 24.5449C280.02 23.4785 280.148 22.2539 280.148 20.8711ZM293.42 17.8652V33H288.779V13.9805H293.174L293.42 17.8652ZM299.203 13.8574L299.133 18.1816C298.875 18.1348 298.582 18.0996 298.254 18.0762C297.938 18.0527 297.639 18.041 297.357 18.041C296.643 18.041 296.016 18.1406 295.477 18.3398C294.938 18.5273 294.486 18.8027 294.123 19.166C293.771 19.5293 293.502 19.9746 293.314 20.502C293.127 21.0176 293.021 21.6035 292.998 22.2598L291.996 22.1367C291.996 20.9297 292.119 19.8105 292.365 18.7793C292.611 17.748 292.969 16.8457 293.438 16.0723C293.906 15.2988 294.492 14.7012 295.195 14.2793C295.91 13.8457 296.73 13.6289 297.656 13.6289C297.914 13.6289 298.189 13.6523 298.482 13.6992C298.787 13.7344 299.027 13.7871 299.203 13.8574ZM313.494 13.9805H317.713V32.4199C317.713 34.1426 317.338 35.6016 316.588 36.7969C315.85 38.0039 314.812 38.918 313.477 39.5391C312.141 40.1719 310.588 40.4883 308.818 40.4883C308.057 40.4883 307.23 40.3828 306.34 40.1719C305.461 39.9609 304.611 39.627 303.791 39.1699C302.982 38.7246 302.309 38.1445 301.77 37.4297L303.861 34.6875C304.494 35.4258 305.209 35.9824 306.006 36.3574C306.803 36.7441 307.664 36.9375 308.59 36.9375C309.527 36.9375 310.324 36.7617 310.98 36.4102C311.648 36.0703 312.158 35.5664 312.51 34.8984C312.873 34.2422 313.055 33.4336 313.055 32.4727V18.3223L313.494 13.9805ZM300.645 23.7188V23.3496C300.645 21.8965 300.82 20.5781 301.172 19.3945C301.523 18.1992 302.027 17.1738 302.684 16.3184C303.352 15.4629 304.154 14.8008 305.092 14.332C306.041 13.8633 307.107 13.6289 308.291 13.6289C309.545 13.6289 310.6 13.8574 311.455 14.3145C312.322 14.7715 313.037 15.4219 313.6 16.2656C314.174 17.1094 314.619 18.1113 314.936 19.2715C315.264 20.4199 315.516 21.6855 315.691 23.0684V24.0703C315.527 25.418 315.264 26.6543 314.9 27.7793C314.549 28.9043 314.08 29.8887 313.494 30.7324C312.908 31.5645 312.182 32.209 311.314 32.666C310.447 33.123 309.428 33.3516 308.256 33.3516C307.084 33.3516 306.029 33.1113 305.092 32.6309C304.154 32.1504 303.352 31.4766 302.684 30.6094C302.027 29.7422 301.523 28.7227 301.172 27.5508C300.82 26.3789 300.645 25.1016 300.645 23.7188ZM305.285 23.3496V23.7188C305.285 24.5391 305.367 25.3066 305.531 26.0215C305.695 26.7363 305.947 27.3691 306.287 27.9199C306.627 28.459 307.055 28.8809 307.57 29.1855C308.086 29.4902 308.701 29.6426 309.416 29.6426C310.377 29.6426 311.162 29.4434 311.771 29.0449C312.393 28.6348 312.861 28.0781 313.178 27.375C313.506 26.6602 313.717 25.8574 313.811 24.9668V22.207C313.752 21.5039 313.623 20.8535 313.424 20.2559C313.236 19.6582 312.973 19.1426 312.633 18.709C312.293 18.2754 311.859 17.9355 311.332 17.6895C310.805 17.4434 310.178 17.3203 309.451 17.3203C308.748 17.3203 308.133 17.4785 307.605 17.7949C307.078 18.0996 306.645 18.5273 306.305 19.0781C305.965 19.6289 305.707 20.2676 305.531 20.9941C305.367 21.7207 305.285 22.5059 305.285 23.3496ZM332.373 28.957V20.1855C332.373 19.541 332.262 18.9844 332.039 18.5156C331.816 18.0469 331.477 17.6836 331.02 17.4258C330.562 17.168 329.982 17.0391 329.279 17.0391C328.658 17.0391 328.113 17.1445 327.645 17.3555C327.188 17.5664 326.836 17.8652 326.59 18.252C326.344 18.627 326.221 19.0605 326.221 19.5527H321.562C321.562 18.7676 321.75 18.0234 322.125 17.3203C322.5 16.6055 323.033 15.9727 323.725 15.4219C324.428 14.8594 325.266 14.4199 326.238 14.1035C327.223 13.7871 328.324 13.6289 329.543 13.6289C330.984 13.6289 332.268 13.875 333.393 14.3672C334.529 14.8477 335.42 15.5742 336.064 16.5469C336.721 17.5195 337.049 18.7441 337.049 20.2207V28.5176C337.049 29.4668 337.107 30.2813 337.225 30.9609C337.354 31.6289 337.541 32.209 337.787 32.7012V33H333.059C332.836 32.5195 332.666 31.9102 332.549 31.1719C332.432 30.4219 332.373 29.6836 332.373 28.957ZM333.023 21.416L333.059 24.1758H330.123C329.396 24.1758 328.758 24.252 328.207 24.4043C327.656 24.5449 327.205 24.7559 326.854 25.0371C326.502 25.3066 326.238 25.6348 326.062 26.0215C325.887 26.3965 325.799 26.8242 325.799 27.3047C325.799 27.7734 325.904 28.1953 326.115 28.5703C326.338 28.9453 326.654 29.2441 327.064 29.4668C327.486 29.6777 327.979 29.7832 328.541 29.7832C329.361 29.7832 330.076 29.6191 330.686 29.291C331.295 28.9512 331.77 28.541 332.109 28.0605C332.449 27.5801 332.631 27.123 332.654 26.6895L333.99 28.6934C333.826 29.1738 333.58 29.6836 333.252 30.2227C332.924 30.7617 332.502 31.2656 331.986 31.7344C331.471 32.2031 330.85 32.5898 330.123 32.8945C329.396 33.1992 328.553 33.3516 327.592 33.3516C326.361 33.3516 325.26 33.1055 324.287 32.6133C323.314 32.1211 322.547 31.4473 321.984 30.5918C321.422 29.7363 321.141 28.7637 321.141 27.6738C321.141 26.666 321.328 25.7754 321.703 25.002C322.078 24.2285 322.635 23.5781 323.373 23.0508C324.111 22.5117 325.025 22.1074 326.115 21.8379C327.217 21.5566 328.477 21.416 329.895 21.416H333.023ZM345.785 18.041V33H341.145V13.9805L345.504 13.9805L345.785 18.041ZM345.047 22.8047H343.676C343.688 21.4219 343.875 20.168 344.238 19.043C344.602 17.918 345.111 16.9512 345.768 16.1426C346.436 15.334 347.227 14.7129 348.141 14.2793C349.055 13.8457 350.074 13.6289 351.199 13.6289C352.113 13.6289 352.939 13.7578 353.678 14.0156C354.416 14.2734 355.049 14.6836 355.576 15.2461C356.115 15.8086 356.525 16.5469 356.807 17.4609C357.1 18.3633 357.246 19.4766 357.246 20.8008V33H352.57V20.7656C352.57 19.8984 352.441 19.2129 352.184 18.709C351.938 18.2051 351.574 17.8477 351.094 17.6367C350.625 17.4258 350.045 17.3203 349.354 17.3203C348.639 17.3203 348.012 17.4668 347.473 17.7598C346.945 18.041 346.5 18.4336 346.137 18.9375C345.785 19.4414 345.516 20.0215 345.328 20.6777C345.141 21.334 345.047 22.043 345.047 22.8047ZM381.311 7.40625L371.643 35.1973L368.109 35.1973L377.777 7.40625L381.311 7.40625ZM403.512 11.291L396.217 33H391.102L400.664 7.40625L403.934 7.40625L403.512 11.291ZM409.611 33L402.281 11.291L401.842 7.40625H405.129L414.744 33H409.611ZM409.277 23.4902V27.3047L395.549 27.3047V23.4902L409.277 23.4902ZM429.123 13.9805L433.342 13.9805V32.4199C433.342 34.1426 432.967 35.6016 432.217 36.7969C431.479 38.0039 430.441 38.918 429.105 39.5391C427.77 40.1719 426.217 40.4883 424.447 40.4883C423.686 40.4883 422.859 40.3828 421.969 40.1719C421.09 39.9609 420.24 39.627 419.42 39.1699C418.611 38.7246 417.938 38.1445 417.398 37.4297L419.49 34.6875C420.123 35.4258 420.838 35.9824 421.635 36.3574C422.432 36.7441 423.293 36.9375 424.219 36.9375C425.156 36.9375 425.953 36.7617 426.609 36.4102C427.277 36.0703 427.787 35.5664 428.139 34.8984C428.502 34.2422 428.684 33.4336 428.684 32.4727V18.3223L429.123 13.9805ZM416.273 23.7188V23.3496C416.273 21.8965 416.449 20.5781 416.801 19.3945C417.152 18.1992 417.656 17.1738 418.312 16.3184C418.98 15.4629 419.783 14.8008 420.721 14.332C421.67 13.8633 422.736 13.6289 423.92 13.6289C425.174 13.6289 426.229 13.8574 427.084 14.3145C427.951 14.7715 428.666 15.4219 429.229 16.2656C429.803 17.1094 430.248 18.1113 430.564 19.2715C430.893 20.4199 431.145 21.6855 431.32 23.0684V24.0703C431.156 25.418 430.893 26.6543 430.529 27.7793C430.178 28.9043 429.709 29.8887 429.123 30.7324C428.537 31.5645 427.811 32.209 426.943 32.666C426.076 33.123 425.057 33.3516 423.885 33.3516C422.713 33.3516 421.658 33.1113 420.721 32.6309C419.783 32.1504 418.98 31.4766 418.312 30.6094C417.656 29.7422 417.152 28.7227 416.801 27.5508C416.449 26.3789 416.273 25.1016 416.273 23.7188ZM420.914 23.3496V23.7188C420.914 24.5391 420.996 25.3066 421.16 26.0215C421.324 26.7363 421.576 27.3691 421.916 27.9199C422.256 28.459 422.684 28.8809 423.199 29.1855C423.715 29.4902 424.33 29.6426 425.045 29.6426C426.006 29.6426 426.791 29.4434 427.4 29.0449C428.021 28.6348 428.49 28.0781 428.807 27.375C429.135 26.6602 429.346 25.8574 429.439 24.9668V22.207C429.381 21.5039 429.252 20.8535 429.053 20.2559C428.865 19.6582 428.602 19.1426 428.262 18.709C427.922 18.2754 427.488 17.9355 426.961 17.6895C426.434 17.4434 425.807 17.3203 425.08 17.3203C424.377 17.3203 423.762 17.4785 423.234 17.7949C422.707 18.0996 422.273 18.5273 421.934 19.0781C421.594 19.6289 421.336 20.2676 421.16 20.9941C420.996 21.7207 420.914 22.5059 420.914 23.3496ZM446.068 33.3516C444.627 33.3516 443.332 33.1172 442.184 32.6484C441.035 32.1797 440.057 31.5293 439.248 30.6973C438.451 29.8535 437.836 28.875 437.402 27.7617C436.98 26.6367 436.77 25.4297 436.77 24.1406V23.4375C436.77 21.9727 436.98 20.6426 437.402 19.4473C437.824 18.2402 438.422 17.2031 439.195 16.3359C439.969 15.4688 440.895 14.8008 441.973 14.332C443.051 13.8633 444.24 13.6289 445.541 13.6289C446.889 13.6289 448.078 13.8574 449.109 14.3145C450.141 14.7598 451.002 15.3926 451.693 16.2129C452.385 17.0332 452.906 18.0176 453.258 19.166C453.609 20.3027 453.785 21.5625 453.785 22.9453V24.8965L438.879 24.8965V21.6973L449.215 21.6973V21.3457C449.191 20.6074 449.051 19.9336 448.793 19.3242C448.535 18.7031 448.137 18.2109 447.598 17.8477C447.059 17.4727 446.361 17.2852 445.506 17.2852C444.814 17.2852 444.211 17.4375 443.695 17.7422C443.191 18.0352 442.77 18.457 442.43 19.0078C442.102 19.5469 441.855 20.1914 441.691 20.9414C441.527 21.6914 441.445 22.5234 441.445 23.4375V24.1406C441.445 24.9375 441.551 25.6758 441.762 26.3555C441.984 27.0352 442.307 27.627 442.729 28.1309C443.162 28.623 443.678 29.0098 444.275 29.291C444.885 29.5605 445.576 29.6953 446.35 29.6953C447.322 29.6953 448.201 29.5078 448.986 29.1328C449.783 28.7461 450.475 28.1777 451.061 27.4277L453.398 29.8535C453 30.4395 452.461 31.002 451.781 31.541C451.113 32.0801 450.305 32.5195 449.355 32.8594C448.406 33.1875 447.311 33.3516 446.068 33.3516ZM476.865 7.40625L467.197 35.1973H463.664L473.332 7.40625L476.865 7.40625ZM502.283 26.3555C502.283 25.8633 502.207 25.4238 502.055 25.0371C501.914 24.6387 501.65 24.2813 501.264 23.9648C500.889 23.6367 500.355 23.3203 499.664 23.0156C498.984 22.6992 498.105 22.3711 497.027 22.0313C495.832 21.6563 494.719 21.2344 493.688 20.7656C492.656 20.2969 491.748 19.752 490.963 19.1309C490.189 18.5098 489.586 17.7949 489.152 16.9863C488.719 16.166 488.502 15.2168 488.502 14.1387C488.502 13.084 488.725 12.123 489.17 11.2559C489.627 10.3887 490.271 9.64453 491.104 9.02344C491.936 8.39063 492.914 7.9043 494.039 7.56445C495.176 7.22461 496.43 7.05469 497.801 7.05469C499.699 7.05469 501.34 7.40039 502.723 8.0918C504.117 8.7832 505.195 9.7207 505.957 10.9043C506.719 12.0879 507.1 13.418 507.1 14.8945H502.283C502.283 14.0977 502.113 13.3945 501.773 12.7852C501.445 12.1758 500.941 11.6953 500.262 11.3438C499.594 10.9922 498.75 10.8164 497.73 10.8164C496.746 10.8164 495.926 10.9629 495.27 11.2559C494.625 11.5488 494.139 11.9473 493.811 12.4512C493.494 12.9551 493.336 13.5176 493.336 14.1387C493.336 14.6074 493.447 15.0293 493.67 15.4043C493.893 15.7676 494.227 16.1133 494.672 16.4414C495.117 16.7578 495.668 17.0566 496.324 17.3379C496.992 17.6074 497.766 17.877 498.645 18.1465C500.051 18.5684 501.281 19.0371 502.336 19.5527C503.402 20.0684 504.287 20.6543 504.99 21.3105C505.705 21.9668 506.238 22.7051 506.59 23.5254C506.953 24.3457 507.135 25.2773 507.135 26.3203C507.135 27.4219 506.918 28.4063 506.484 29.2734C506.051 30.1406 505.43 30.8789 504.621 31.4883C503.812 32.0977 502.84 32.5605 501.703 32.877C500.578 33.1934 499.318 33.3516 497.924 33.3516C496.682 33.3516 495.451 33.1875 494.232 32.8594C493.025 32.5195 491.93 32.0156 490.945 31.3477C489.961 30.668 489.176 29.8125 488.59 28.7813C488.004 27.7383 487.711 26.5195 487.711 25.125H492.562C492.562 25.9336 492.691 26.625 492.949 27.1992C493.219 27.7617 493.594 28.2246 494.074 28.5879C494.566 28.9395 495.141 29.1973 495.797 29.3613C496.453 29.5254 497.162 29.6074 497.924 29.6074C498.908 29.6074 499.717 29.4727 500.35 29.2031C500.994 28.9219 501.475 28.5352 501.791 28.043C502.119 27.5508 502.283 26.9883 502.283 26.3555ZM519.053 33.3516C517.611 33.3516 516.316 33.1172 515.168 32.6484C514.02 32.1797 513.041 31.5293 512.232 30.6973C511.436 29.8535 510.82 28.875 510.387 27.7617C509.965 26.6367 509.754 25.4297 509.754 24.1406V23.4375C509.754 21.9727 509.965 20.6426 510.387 19.4473C510.809 18.2402 511.406 17.2031 512.18 16.3359C512.953 15.4688 513.879 14.8008 514.957 14.332C516.035 13.8633 517.225 13.6289 518.525 13.6289C519.873 13.6289 521.062 13.8574 522.094 14.3145C523.125 14.7598 523.986 15.3926 524.678 16.2129C525.369 17.0332 525.891 18.0176 526.242 19.166C526.594 20.3027 526.77 21.5625 526.77 22.9453V24.8965L511.863 24.8965V21.6973L522.199 21.6973V21.3457C522.176 20.6074 522.035 19.9336 521.777 19.3242C521.52 18.7031 521.121 18.2109 520.582 17.8477C520.043 17.4727 519.346 17.2852 518.49 17.2852C517.799 17.2852 517.195 17.4375 516.68 17.7422C516.176 18.0352 515.754 18.457 515.414 19.0078C515.086 19.5469 514.84 20.1914 514.676 20.9414C514.512 21.6914 514.43 22.5234 514.43 23.4375V24.1406C514.43 24.9375 514.535 25.6758 514.746 26.3555C514.969 27.0352 515.291 27.627 515.713 28.1309C516.146 28.623 516.662 29.0098 517.26 29.291C517.869 29.5605 518.561 29.6953 519.334 29.6953C520.307 29.6953 521.186 29.5078 521.971 29.1328C522.768 28.7461 523.459 28.1777 524.045 27.4277L526.383 29.8535C525.984 30.4395 525.445 31.002 524.766 31.541C524.098 32.0801 523.289 32.5195 522.34 32.8594C521.391 33.1875 520.295 33.3516 519.053 33.3516ZM533.52 13.9805L536.912 20.0273L540.357 13.9805L545.402 13.9805L539.812 23.2969L545.631 33H540.586L536.947 26.6543L533.291 33H528.246L534.047 23.2969L528.492 13.9805L533.52 13.9805Z" fill="#505459"/>
<path d="M48 77H397V109H48V77Z" fill="#707070" fill-opacity="0.5"/>
<path d="M409 325L758 165V227L409 387V325Z" fill="#337AB7" fill-opacity="0.5"/>
<path d="M409 77H758V165H409V77Z" fill="#707070" fill-opacity="0.5"/>
<path d="M409 165L758 384V472L409 253V165Z" fill="#707070" fill-opacity="0.5"/>
<path d="M409 387L758 473V505L409 419V387Z" fill="#337AB7" fill-opacity="0.5"/>
<path d="M409 482L758 228.5V260.5L409 514V482Z" fill="#707070" fill-opacity="0.5"/>
<path d="M409 514.5L758 506V530L409 538.5V514.5Z" fill="#707070" fill-opacity="0.5"/>
<path d="M409 596.5L758 261V295L409 630.5V596.5Z" fill="#707070" fill-opacity="0.5"/>
<path d="M409 630.5L758 531V576L409 675.5V630.5Z" fill="#707070" fill-opacity="0.5"/>
<path d="M48 196L397 109.5V117.5L48 204V196Z" fill="#707070" fill-opacity="0.5"/>
<path d="M48 208.5L397 348V358L48 218.5V208.5Z" fill="#337AB7" fill-opacity="0.5"/>
<path d="M48 217L397 489.5V494.5L48 222V217Z" fill="#707070" fill-opacity="0.5"/>
<path d="M48 222L397 625.5V630.5L48 227V222Z" fill="#707070" fill-opacity="0.5"/>
<path d="M48 109L397 325V347L48 131V109Z" fill="#337AB7" fill-opacity="0.5"/>
<path d="M48 131L397 478.5V489.5L48 142V131Z" fill="#707070" fill-opacity="0.5"/>
<path d="M48 247L397 124.5V155.5L48 278V247Z" fill="#707070" fill-opacity="0.5"/>
<path d="M48 278.5L397 358V375L48 295.5V278.5Z" fill="#337AB7" fill-opacity="0.5"/>
<path d="M48 294L397 494.5V503.5L48 303V294Z" fill="#707070" fill-opacity="0.5"/>
<path d="M48 303L397 630.5V649.5L48 322V303Z" fill="#707070" fill-opacity="0.5"/>
<path d="M48 347L397 158V195L48 384V347Z" fill="#707070" fill-opacity="0.5"/>
<path d="M48 382L397 373V390L48 399V382Z" fill="#337AB7" fill-opacity="0.5"/>
<path d="M48 400L397 502V519L48 417V400Z" fill="#707070" fill-opacity="0.5"/>
<path d="M48 416L397 649.5V659.5L48 426V416Z" fill="#707070" fill-opacity="0.5"/>
<path d="M48 458L397 195V215L48 478V458Z" fill="#707070" fill-opacity="0.5"/>
<path d="M48 557L397 214V244L48 587V557Z" fill="#707070" fill-opacity="0.5"/>
<path d="M48 632L397 249V259L48 642V632Z" fill="#707070" fill-opacity="0.5"/>
<path d="M48 641L397 413V420L48 648V641Z" fill="#337AB7" fill-opacity="0.5"/>
<path d="M48 648L397 537V541L48 652V648Z" fill="#707070" fill-opacity="0.5"/>
<path d="M48 652L397 671V675L48 656V652Z" fill="#707070" fill-opacity="0.5"/>
<path d="M48 587L397 404V414L48 597V587Z" fill="#337AB7" fill-opacity="0.5"/>
<path d="M48 597L397 530.5V537.5L48 604V597Z" fill="#707070" fill-opacity="0.5"/>
<path d="M48 603.5L397 665V669L48 607.5V603.5Z" fill="#707070" fill-opacity="0.5"/>
<path d="M48 477L397 390.5V403.5L48 490V477Z" fill="#337AB7" fill-opacity="0.5"/>
<path d="M48 490.5L397 519V530L48 501.5V490.5Z" fill="#707070" fill-opacity="0.5"/>
<path d="M48 501L397 659.5V664.5L48 506V501Z" fill="#707070" fill-opacity="0.5"/>
<path d="M48 142L397 595V626L48 173V142Z" fill="#707070" fill-opacity="0.5"/>
</svg>
