<svg width="244" height="113" viewBox="0 0 244 113" fill="none" xmlns="http://www.w3.org/2000/svg">
<circle cx="72.6491" cy="70.1062" r="2.63778" transform="rotate(-51.6893 72.6491 70.1062)" fill="#505459" fill-opacity="0.7"/>
<circle cx="90.4124" cy="45.8357" r="2.63778" transform="rotate(-51.6893 90.4124 45.8357)" fill="#337AB7"/>
<circle cx="113.051" cy="65.8792" r="2.63778" transform="rotate(-51.6893 113.051 65.8792)" fill="#337AB7"/>
<circle cx="99.5242" cy="84.6985" r="2.63778" transform="rotate(-51.6893 99.5242 84.6985)" fill="#505459" fill-opacity="0.7"/>
<circle cx="134.449" cy="48.9383" r="2.63778" transform="rotate(-51.6893 134.449 48.9383)" fill="#337AB7"/>
<circle cx="136.451" cy="31.5144" r="2.63778" transform="rotate(-51.6893 136.451 31.5144)" fill="#337AB7"/>
<circle cx="155.975" cy="33.3103" r="2.63778" transform="rotate(-51.6893 155.975 33.3103)" fill="#505459" fill-opacity="0.7"/>
<circle cx="109.215" cy="26.764" r="2.63778" transform="rotate(-51.6893 109.215 26.764)" fill="#337AB7"/>
<circle cx="167.953" cy="41.9422" r="2.63778" transform="rotate(-51.6893 167.953 41.9422)" fill="#505459" fill-opacity="0.7"/>
<circle cx="180.918" cy="16.0128" r="2.63778" transform="rotate(122.61 180.918 16.0128)" fill="#505459" fill-opacity="0.7"/>
<circle cx="184.865" cy="35.7631" r="2.63778" transform="rotate(122.61 184.865 35.7631)" fill="#505459" fill-opacity="0.7"/>
<circle cx="173.586" cy="47.9699" r="2.63778" transform="rotate(122.61 173.586 47.9699)" fill="#505459" fill-opacity="0.7"/>
<circle cx="158.321" cy="73.8851" r="2.63778" transform="rotate(122.61 158.321 73.8851)" fill="#337AB7"/>
<circle cx="133.803" cy="56.1896" r="2.63778" transform="rotate(122.61 133.803 56.1896)" fill="#337AB7"/>
<circle cx="145.394" cy="36.1195" r="2.63778" transform="rotate(122.61 145.394 36.1195)" fill="#337AB7"/>
<circle cx="114.194" cy="75.172" r="2.63778" transform="rotate(122.61 114.194 75.172)" fill="#337AB7"/>
<circle cx="113.933" cy="92.7086" r="2.63778" transform="rotate(122.61 113.933 92.7086)" fill="#337AB7"/>
<circle cx="94.3272" cy="92.8612" r="2.63778" transform="rotate(122.61 94.3272 92.8612)" fill="#505459" fill-opacity="0.7"/>
<circle cx="141.506" cy="94.7301" r="2.63778" transform="rotate(122.61 141.506 94.7301)" fill="#337AB7"/>
<circle cx="81.5506" cy="85.4618" r="2.63778" transform="rotate(122.61 81.5506 85.4618)" fill="#505459" fill-opacity="0.7"/>
<circle cx="31.8611" cy="83.9126" r="2.63778" transform="rotate(-51.6893 31.8611 83.9126)" fill="#505459" fill-opacity="0.7"/>
<circle cx="3.70499" cy="94.095" r="2.63778" transform="rotate(-51.6893 3.70499 94.095)" fill="#505459" fill-opacity="0.7"/>
<circle cx="18.9778" cy="109.295" r="2.63778" transform="rotate(-51.6893 18.9778 109.295)" fill="#505459" fill-opacity="0.7"/>
<circle cx="200.846" cy="57.8544" r="2.63778" transform="rotate(122.61 200.846 57.8544)" fill="#505459" fill-opacity="0.7"/>
<circle cx="62.179" cy="101.177" r="2.63778" transform="rotate(-51.6893 62.179 101.177)" fill="#505459" fill-opacity="0.7"/>
<circle cx="46.505" cy="57.5625" r="2.63778" transform="rotate(-51.6893 46.505 57.5625)" fill="#505459" fill-opacity="0.7"/>
<circle cx="60.2132" cy="81.1324" r="2.63778" transform="rotate(-51.6893 60.2132 81.1324)" fill="#505459" fill-opacity="0.7"/>
<circle cx="212.8" cy="30.1801" r="2.63778" transform="rotate(122.61 212.8 30.1801)" fill="#505459" fill-opacity="0.7"/>
<circle cx="239.806" cy="17.2511" r="2.63778" transform="rotate(122.61 239.806 17.2511)" fill="#505459" fill-opacity="0.7"/>
<circle cx="223.099" cy="3.64344" r="2.63778" transform="rotate(122.61 223.099 3.64344)" fill="#505459" fill-opacity="0.7"/>
<rect x="241.026" y="7.27783" width="2" height="253.757" rx="1" transform="rotate(67.9518 241.026 7.27783)" fill="#505459" fill-opacity="0.5"/>
</svg>
