<svg width="811" height="773" viewBox="0 0 811 773" fill="none" xmlns="http://www.w3.org/2000/svg">
<rect x="91" y="70" width="5" height="611" rx="2.5" fill="white"/>
<rect x="811" y="677" width="5.00004" height="720" rx="2.50002" transform="rotate(90 811 677)" fill="white"/>
<path d="M39 461.746L57 461.746L57 464.852L39 464.852L39 461.746ZM50.7891 459.344L50.543 459.344C49.6133 459.344 48.7578 459.211 47.9766 458.945C47.1875 458.68 46.5039 458.293 45.9258 457.785C45.3477 457.277 44.8984 456.656 44.5781 455.922C44.25 455.187 44.0859 454.352 44.0859 453.414C44.0859 452.461 44.25 451.617 44.5781 450.883C44.8984 450.141 45.3477 449.516 45.9258 449.008C46.5039 448.5 47.1875 448.113 47.9766 447.848C48.7578 447.582 49.6133 447.449 50.543 447.449L50.7891 447.449C51.7109 447.449 52.5664 447.582 53.3555 447.848C54.1367 448.113 54.8203 448.5 55.4063 449.008C55.9844 449.516 56.4336 450.137 56.7539 450.871C57.0742 451.605 57.2344 452.445 57.2344 453.391C57.2344 454.328 57.0742 455.168 56.7539 455.91C56.4336 456.652 55.9844 457.277 55.4063 457.785C54.8203 458.293 54.1367 458.68 53.3555 458.945C52.5664 459.211 51.7109 459.344 50.7891 459.344ZM50.543 456.25L50.7891 456.25C51.3438 456.25 51.8633 456.195 52.3477 456.086C52.832 455.977 53.2578 455.809 53.625 455.582C53.9922 455.355 54.2813 455.062 54.4922 454.703C54.6953 454.336 54.7969 453.898 54.7969 453.391C54.7969 452.891 54.6953 452.461 54.4922 452.102C54.2813 451.742 53.9922 451.449 53.625 451.223C53.2578 450.988 52.832 450.816 52.3477 450.707C51.8633 450.598 51.3438 450.543 50.7891 450.543L50.543 450.543C49.9961 450.543 49.4844 450.598 49.0078 450.707C48.5234 450.816 48.0977 450.988 47.7305 451.223C47.3555 451.449 47.0625 451.746 46.8516 452.113C46.6328 452.473 46.5234 452.906 46.5234 453.414C46.5234 453.914 46.6328 454.344 46.8516 454.703C47.0625 455.062 47.3555 455.355 47.7305 455.582C48.0977 455.809 48.5234 455.977 49.0078 456.086C49.4844 456.195 49.9961 456.25 50.543 456.25ZM44.3203 437.137L44.3203 434.324L56.6133 434.324C57.7617 434.324 58.7344 434.574 59.5313 435.074C60.3359 435.566 60.9453 436.258 61.3594 437.148C61.7813 438.039 61.9922 439.074 61.9922 440.254C61.9922 440.762 61.9219 441.312 61.7813 441.906C61.6406 442.492 61.418 443.059 61.1133 443.605C60.8164 444.145 60.4297 444.594 59.9531 444.953L58.125 443.559C58.6172 443.137 58.9883 442.66 59.2383 442.129C59.4961 441.598 59.625 441.023 59.625 440.406C59.625 439.781 59.5078 439.25 59.2734 438.812C59.0469 438.367 58.7109 438.027 58.2656 437.793C57.8281 437.551 57.2891 437.43 56.6484 437.43L47.2149 437.43L44.3203 437.137ZM50.8125 445.703L50.5664 445.703C49.5977 445.703 48.7188 445.586 47.9297 445.352C47.1328 445.117 46.4492 444.781 45.8789 444.344C45.3086 443.898 44.8672 443.363 44.5547 442.738C44.2422 442.105 44.0859 441.395 44.0859 440.605C44.0859 439.77 44.2383 439.066 44.543 438.496C44.8477 437.918 45.2813 437.441 45.8438 437.066C46.4063 436.684 47.0742 436.387 47.8477 436.176C48.6133 435.957 49.457 435.789 50.3789 435.672L51.0469 435.672C51.9453 435.781 52.7695 435.957 53.5195 436.199C54.2695 436.434 54.9258 436.746 55.4883 437.137C56.043 437.527 56.4727 438.012 56.7774 438.59C57.082 439.168 57.2344 439.848 57.2344 440.629C57.2344 441.41 57.0742 442.113 56.7539 442.738C56.4336 443.363 55.9844 443.898 55.4063 444.344C54.8281 444.781 54.1484 445.117 53.3672 445.352C52.5859 445.586 51.7344 445.703 50.8125 445.703ZM50.5664 442.609L50.8125 442.609C51.3594 442.609 51.8711 442.555 52.3477 442.445C52.8242 442.336 53.2461 442.168 53.6133 441.941C53.9727 441.715 54.2539 441.43 54.457 441.086C54.6602 440.742 54.7617 440.332 54.7617 439.855C54.7617 439.215 54.6289 438.691 54.3633 438.285C54.0899 437.871 53.7188 437.559 53.25 437.348C52.7734 437.129 52.2383 436.988 51.6445 436.926L49.8047 436.926C49.3359 436.965 48.9024 437.051 48.5039 437.184C48.1055 437.309 47.7617 437.484 47.4727 437.711C47.1836 437.937 46.957 438.227 46.793 438.578C46.6289 438.93 46.5469 439.348 46.5469 439.832C46.5469 440.301 46.6524 440.711 46.8633 441.062C47.0664 441.414 47.3516 441.703 47.7188 441.93C48.0859 442.156 48.5117 442.328 48.9961 442.445C49.4805 442.555 50.0039 442.609 50.5664 442.609ZM54.5625 420.145L57 420.145L57 431.699L54.9141 431.699L48.9258 426.156C48.2695 425.578 47.6992 425.121 47.2148 424.785C46.7305 424.449 46.293 424.211 45.9023 424.07C45.5039 423.922 45.125 423.848 44.7656 423.848C44.2422 423.848 43.7852 423.941 43.3945 424.129C42.9961 424.316 42.6875 424.59 42.4688 424.949C42.25 425.301 42.1406 425.734 42.1406 426.25C42.1406 426.82 42.2734 427.309 42.5391 427.715C42.7969 428.113 43.1563 428.418 43.6172 428.629C44.0781 428.832 44.6055 428.934 45.1992 428.934L45.1992 432.039C44.1914 432.039 43.2734 431.805 42.4453 431.336C41.6094 430.867 40.9414 430.195 40.4414 429.32C39.9414 428.445 39.6914 427.406 39.6914 426.203C39.6914 425.031 39.8867 424.039 40.2773 423.227C40.6602 422.414 41.207 421.797 41.918 421.375C42.6289 420.953 43.4766 420.742 44.4609 420.742C45.0078 420.742 45.5469 420.832 46.0781 421.012C46.6094 421.191 47.1367 421.445 47.6602 421.773C48.1758 422.094 48.6992 422.477 49.2305 422.922C49.7617 423.367 50.3047 423.863 50.8594 424.41L54.5625 427.738L54.5625 420.145ZM50.2852 417.73L50.0625 417.73C48.4063 417.73 46.9023 417.555 45.5508 417.203C44.1914 416.844 43 416.375 41.9766 415.797C40.9531 415.219 40.1055 414.594 39.4336 413.922C38.7539 413.242 38.2656 412.582 37.9688 411.941L39.668 411.332C40.0039 411.777 40.4648 412.223 41.0508 412.668C41.6289 413.105 42.3438 413.504 43.1953 413.863C44.0469 414.223 45.0391 414.512 46.1719 414.73C47.3047 414.941 48.5938 415.047 50.0391 415.047L50.3086 415.047C51.7539 415.047 53.0469 414.941 54.1875 414.73C55.3203 414.512 56.3125 414.223 57.1641 413.863C58.0156 413.504 58.7383 413.105 59.332 412.668C59.9258 412.223 60.3945 411.777 60.7383 411.332L62.3906 411.941C62.0859 412.582 61.5977 413.242 60.9258 413.922C60.2539 414.594 59.4063 415.219 58.3828 415.797C57.3594 416.375 56.1719 416.844 54.8203 417.203C53.4609 417.555 51.9492 417.73 50.2852 417.73ZM39.9375 401.922L57 401.922L57 405.133L39.9375 405.133L39.9375 401.922ZM39.9375 396.625L42.4805 396.625L42.4805 410.371L39.9375 410.371L39.9375 396.625ZM50.7773 387.918L50.7773 392.312L48.2461 392.312L48.2461 387.918C48.2461 387.199 48.1289 386.617 47.8945 386.172C47.6523 385.719 47.3242 385.387 46.9102 385.176C46.4883 384.965 46.0078 384.859 45.4688 384.859C44.9453 384.859 44.457 384.965 44.0039 385.176C43.5508 385.387 43.1836 385.719 42.9023 386.172C42.6211 386.617 42.4805 387.199 42.4805 387.918L42.4805 391.258L57 391.258L57 394.48L39.9375 394.48L39.9375 387.918C39.9375 386.59 40.1758 385.457 40.6523 384.52C41.1211 383.574 41.7734 382.855 42.6094 382.363C43.4375 381.863 44.3828 381.613 45.4453 381.613C46.5469 381.613 47.4961 381.863 48.293 382.363C49.0898 382.855 49.7031 383.574 50.1328 384.52C50.5625 385.457 50.7773 386.59 50.7773 387.918ZM39.9375 377.676L39.9375 374.887L52.7813 370.223L39.9375 365.57L39.9375 362.77L57 369.109L57 371.348L39.9375 377.676ZM39.9375 379.082L39.9375 376.352L51.7383 375.859L57 375.859L57 379.082L39.9375 379.082ZM39.9375 364.105L39.9375 361.363L57 361.363L57 364.586L51.7383 364.586L39.9375 364.105ZM47.5664 347.301L50.3203 347.301L50.3203 358.996L47.5664 358.996L47.5664 347.301ZM42.8672 351.66L55.2891 351.66L55.2891 354.625L42.8672 354.625L42.8672 351.66ZM39.8906 337.316L57 337.316L57 340.422L43.5117 340.422L44.8711 344.535L42.3633 344.535L39.8906 337.668L39.8906 337.316ZM50.0625 325.797L50.2852 325.797C51.9102 325.797 53.3984 325.98 54.75 326.348C56.1016 326.707 57.293 327.184 58.3242 327.777C59.3555 328.363 60.2148 329.004 60.9023 329.699C61.5898 330.387 62.0859 331.062 62.3906 331.727L60.7383 332.336C60.4023 331.891 59.9414 331.449 59.3555 331.012C58.7695 330.574 58.0469 330.176 57.1875 329.816C56.3281 329.449 55.3281 329.16 54.1875 328.949C53.0469 328.73 51.7539 328.621 50.3086 328.621L50.0391 328.621C48.5938 328.621 47.3008 328.734 46.1602 328.961C45.0195 329.18 44.0234 329.473 43.1719 329.84C42.3125 330.207 41.5898 330.609 41.0039 331.047C40.4102 331.484 39.9492 331.914 39.6211 332.336L37.9688 331.727C38.2656 331.062 38.7617 330.387 39.457 329.699C40.1445 329.004 41.0078 328.363 42.0469 327.777C43.0781 327.184 44.2695 326.707 45.6211 326.348C46.9648 325.98 48.4453 325.797 50.0625 325.797ZM55.4883 322.926C55.0195 322.926 54.625 322.766 54.3047 322.445C53.9844 322.125 53.8242 321.691 53.8242 321.145C53.8242 320.598 53.9844 320.164 54.3047 319.844C54.625 319.523 55.0195 319.363 55.4883 319.363C55.9492 319.363 56.3398 319.523 56.6602 319.844C56.9727 320.164 57.1289 320.598 57.1289 321.145C57.1289 321.691 56.9727 322.125 56.6602 322.445C56.3398 322.766 55.9492 322.926 55.4883 322.926ZM45.6563 322.914C45.1875 322.914 44.793 322.754 44.4727 322.434C44.1523 322.113 43.9922 321.68 43.9922 321.133C43.9922 320.586 44.1523 320.152 44.4727 319.832C44.793 319.512 45.1875 319.352 45.6563 319.352C46.1172 319.352 46.5078 319.512 46.8281 319.832C47.1406 320.152 47.2969 320.586 47.2969 321.133C47.2969 321.68 47.1406 322.113 46.8281 322.434C46.5078 322.754 46.1172 322.914 45.6563 322.914ZM53.7305 306.051L39.9375 302.652L39.9375 300.812L42.8438 300.695L57 304.328L57 306.273L53.7305 306.051ZM39.9375 308.195L53.6836 305.406L57 305.406L57 307.527L39.9375 311.395L39.9375 308.195ZM53.625 297.168L39.9375 294.426L39.9375 291.215L57 295.082L57 297.203L53.625 297.168ZM39.9375 299.934L53.7773 296.535L57 296.336L57 298.281L42.832 301.902L39.9375 301.762L39.9375 299.934ZM54.4687 277.867L57 277.867L57 286.937L54.4687 286.937L54.4687 277.867ZM39.9375 285.953L57 285.953L57 289.176L39.9375 289.176L39.9375 285.953ZM46.9805 279.051L49.4531 279.051L49.4531 286.937L46.9805 286.937L46.9805 279.051ZM39.9375 277.902L42.4805 277.902L42.4805 286.937L39.9375 286.937L39.9375 277.902ZM54.4687 264.32L57 264.32L57 273.391L54.4687 273.391L54.4687 264.32ZM39.9375 272.406L57 272.406L57 275.629L39.9375 275.629L39.9375 272.406ZM46.9805 265.504L49.4531 265.504L49.4531 273.391L46.9805 273.391L46.9805 265.504ZM39.9375 264.355L42.4805 264.355L42.4805 273.391L39.9375 273.391L39.9375 264.355ZM39.8906 254.512L57 254.512L57 257.617L43.5117 257.617L44.8711 261.73L42.3633 261.73L39.8906 254.863L39.8906 254.512Z" fill="white"/>
<path d="M347.98 721V739H344.875V721H347.98ZM350.383 732.789V732.543C350.383 731.613 350.516 730.758 350.781 729.977C351.047 729.188 351.434 728.504 351.941 727.926C352.449 727.348 353.07 726.898 353.805 726.578C354.539 726.25 355.375 726.086 356.312 726.086C357.266 726.086 358.109 726.25 358.844 726.578C359.586 726.898 360.211 727.348 360.719 727.926C361.227 728.504 361.613 729.188 361.879 729.977C362.145 730.758 362.277 731.613 362.277 732.543V732.789C362.277 733.711 362.145 734.566 361.879 735.355C361.613 736.137 361.227 736.82 360.719 737.406C360.211 737.984 359.59 738.434 358.855 738.754C358.121 739.074 357.281 739.234 356.336 739.234C355.398 739.234 354.559 739.074 353.816 738.754C353.074 738.434 352.449 737.984 351.941 737.406C351.434 736.82 351.047 736.137 350.781 735.355C350.516 734.566 350.383 733.711 350.383 732.789ZM353.477 732.543V732.789C353.477 733.344 353.531 733.863 353.641 734.348C353.75 734.832 353.918 735.258 354.145 735.625C354.371 735.992 354.664 736.281 355.023 736.492C355.391 736.695 355.828 736.797 356.336 736.797C356.836 736.797 357.266 736.695 357.625 736.492C357.984 736.281 358.277 735.992 358.504 735.625C358.738 735.258 358.91 734.832 359.02 734.348C359.129 733.863 359.184 733.344 359.184 732.789V732.543C359.184 731.996 359.129 731.484 359.02 731.008C358.91 730.523 358.738 730.098 358.504 729.73C358.277 729.355 357.98 729.062 357.613 728.852C357.254 728.633 356.82 728.523 356.312 728.523C355.812 728.523 355.383 728.633 355.023 728.852C354.664 729.062 354.371 729.355 354.145 729.73C353.918 730.098 353.75 730.523 353.641 731.008C353.531 731.484 353.477 731.996 353.477 732.543ZM372.59 726.32H375.402V738.613C375.402 739.762 375.152 740.734 374.652 741.531C374.16 742.336 373.469 742.945 372.578 743.359C371.688 743.781 370.652 743.992 369.473 743.992C368.965 743.992 368.414 743.922 367.82 743.781C367.234 743.641 366.668 743.418 366.121 743.113C365.582 742.816 365.133 742.43 364.773 741.953L366.168 740.125C366.59 740.617 367.066 740.988 367.598 741.238C368.129 741.496 368.703 741.625 369.32 741.625C369.945 741.625 370.477 741.508 370.914 741.273C371.359 741.047 371.699 740.711 371.934 740.266C372.176 739.828 372.297 739.289 372.297 738.648V729.215L372.59 726.32ZM364.023 732.812V732.566C364.023 731.598 364.141 730.719 364.375 729.93C364.609 729.133 364.945 728.449 365.383 727.879C365.828 727.309 366.363 726.867 366.988 726.555C367.621 726.242 368.332 726.086 369.121 726.086C369.957 726.086 370.66 726.238 371.23 726.543C371.809 726.848 372.285 727.281 372.66 727.844C373.043 728.406 373.34 729.074 373.551 729.848C373.77 730.613 373.938 731.457 374.055 732.379V733.047C373.945 733.945 373.77 734.77 373.527 735.52C373.293 736.27 372.98 736.926 372.59 737.488C372.199 738.043 371.715 738.473 371.137 738.777C370.559 739.082 369.879 739.234 369.098 739.234C368.316 739.234 367.613 739.074 366.988 738.754C366.363 738.434 365.828 737.984 365.383 737.406C364.945 736.828 364.609 736.148 364.375 735.367C364.141 734.586 364.023 733.734 364.023 732.812ZM367.117 732.566V732.812C367.117 733.359 367.172 733.871 367.281 734.348C367.391 734.824 367.559 735.246 367.785 735.613C368.012 735.973 368.297 736.254 368.641 736.457C368.984 736.66 369.395 736.762 369.871 736.762C370.512 736.762 371.035 736.629 371.441 736.363C371.855 736.09 372.168 735.719 372.379 735.25C372.598 734.773 372.738 734.238 372.801 733.645V731.805C372.762 731.336 372.676 730.902 372.543 730.504C372.418 730.105 372.242 729.762 372.016 729.473C371.789 729.184 371.5 728.957 371.148 728.793C370.797 728.629 370.379 728.547 369.895 728.547C369.426 728.547 369.016 728.652 368.664 728.863C368.312 729.066 368.023 729.352 367.797 729.719C367.57 730.086 367.398 730.512 367.281 730.996C367.172 731.48 367.117 732.004 367.117 732.566ZM389.582 736.562V739H378.027V736.914L383.57 730.926C384.148 730.27 384.605 729.699 384.941 729.215C385.277 728.73 385.516 728.293 385.656 727.902C385.805 727.504 385.879 727.125 385.879 726.766C385.879 726.242 385.785 725.785 385.598 725.395C385.41 724.996 385.137 724.688 384.777 724.469C384.426 724.25 383.992 724.141 383.477 724.141C382.906 724.141 382.418 724.273 382.012 724.539C381.613 724.797 381.309 725.156 381.098 725.617C380.895 726.078 380.793 726.605 380.793 727.199H377.688C377.688 726.191 377.922 725.273 378.391 724.445C378.859 723.609 379.531 722.941 380.406 722.441C381.281 721.941 382.32 721.691 383.523 721.691C384.695 721.691 385.688 721.887 386.5 722.277C387.312 722.66 387.93 723.207 388.352 723.918C388.773 724.629 388.984 725.477 388.984 726.461C388.984 727.008 388.895 727.547 388.715 728.078C388.535 728.609 388.281 729.137 387.953 729.66C387.633 730.176 387.25 730.699 386.805 731.23C386.359 731.762 385.863 732.305 385.316 732.859L381.988 736.562H389.582ZM391.996 732.285V732.062C391.996 730.406 392.172 728.902 392.523 727.551C392.883 726.191 393.352 725 393.93 723.977C394.508 722.953 395.133 722.105 395.805 721.434C396.484 720.754 397.145 720.266 397.785 719.969L398.395 721.668C397.949 722.004 397.504 722.465 397.059 723.051C396.621 723.629 396.223 724.344 395.863 725.195C395.504 726.047 395.215 727.039 394.996 728.172C394.785 729.305 394.68 730.594 394.68 732.039V732.309C394.68 733.754 394.785 735.047 394.996 736.188C395.215 737.32 395.504 738.312 395.863 739.164C396.223 740.016 396.621 740.738 397.059 741.332C397.504 741.926 397.949 742.395 398.395 742.738L397.785 744.391C397.145 744.086 396.484 743.598 395.805 742.926C395.133 742.254 394.508 741.406 393.93 740.383C393.352 739.359 392.883 738.172 392.523 736.82C392.172 735.461 391.996 733.949 391.996 732.285ZM407.805 721.938V739H404.594V721.938H407.805ZM413.102 721.938V724.48H399.355V721.938H413.102ZM421.809 732.777H417.414V730.246H421.809C422.527 730.246 423.109 730.129 423.555 729.895C424.008 729.652 424.34 729.324 424.551 728.91C424.762 728.488 424.867 728.008 424.867 727.469C424.867 726.945 424.762 726.457 424.551 726.004C424.34 725.551 424.008 725.184 423.555 724.902C423.109 724.621 422.527 724.48 421.809 724.48H418.469V739H415.246V721.938H421.809C423.137 721.938 424.27 722.176 425.207 722.652C426.152 723.121 426.871 723.773 427.363 724.609C427.863 725.438 428.113 726.383 428.113 727.445C428.113 728.547 427.863 729.496 427.363 730.293C426.871 731.09 426.152 731.703 425.207 732.133C424.27 732.562 423.137 732.777 421.809 732.777ZM432.051 721.938H434.84L439.504 734.781L444.156 721.938H446.957L440.617 739H438.379L432.051 721.938ZM430.645 721.938H433.375L433.867 733.738V739H430.645V721.938ZM445.621 721.938H448.363V739H445.141V733.738L445.621 721.938ZM462.426 729.566V732.32H450.73V729.566H462.426ZM458.066 724.867V737.289H455.102V724.867H458.066ZM472.41 721.891V739H469.305V725.512L465.191 726.871V724.363L472.059 721.891H472.41ZM483.93 732.062V732.285C483.93 733.91 483.746 735.398 483.379 736.75C483.02 738.102 482.543 739.293 481.949 740.324C481.363 741.355 480.723 742.215 480.027 742.902C479.34 743.59 478.664 744.086 478 744.391L477.391 742.738C477.836 742.402 478.277 741.941 478.715 741.355C479.152 740.77 479.551 740.047 479.91 739.188C480.277 738.328 480.566 737.328 480.777 736.188C480.996 735.047 481.105 733.754 481.105 732.309V732.039C481.105 730.594 480.992 729.301 480.766 728.16C480.547 727.02 480.254 726.023 479.887 725.172C479.52 724.312 479.117 723.59 478.68 723.004C478.242 722.41 477.812 721.949 477.391 721.621L478 719.969C478.664 720.266 479.34 720.762 480.027 721.457C480.723 722.145 481.363 723.008 481.949 724.047C482.543 725.078 483.02 726.27 483.379 727.621C483.746 728.965 483.93 730.445 483.93 732.062ZM486.801 737.488C486.801 737.02 486.961 736.625 487.281 736.305C487.602 735.984 488.035 735.824 488.582 735.824C489.129 735.824 489.562 735.984 489.883 736.305C490.203 736.625 490.363 737.02 490.363 737.488C490.363 737.949 490.203 738.34 489.883 738.66C489.562 738.973 489.129 739.129 488.582 739.129C488.035 739.129 487.602 738.973 487.281 738.66C486.961 738.34 486.801 737.949 486.801 737.488ZM486.812 727.656C486.812 727.188 486.973 726.793 487.293 726.473C487.613 726.152 488.047 725.992 488.594 725.992C489.141 725.992 489.574 726.152 489.895 726.473C490.215 726.793 490.375 727.188 490.375 727.656C490.375 728.117 490.215 728.508 489.895 728.828C489.574 729.141 489.141 729.297 488.594 729.297C488.047 729.297 487.613 729.141 487.293 728.828C486.973 728.508 486.812 728.117 486.812 727.656ZM502.703 721.938V739H499.48V721.938H502.703ZM512.945 721.938L506.102 730.258L502.188 734.441L501.613 731.312L504.332 727.785L508.996 721.938H512.945ZM509.359 739L504.051 731.008L506.359 728.922L513.191 739H509.359ZM514.691 721.938H520.891C522.188 721.938 523.301 722.133 524.23 722.523C525.16 722.914 525.875 723.492 526.375 724.258C526.875 725.023 527.125 725.965 527.125 727.082C527.125 727.965 526.969 728.73 526.656 729.379C526.344 730.027 525.902 730.57 525.332 731.008C524.77 731.445 524.105 731.789 523.34 732.039L522.332 732.555H516.859L516.836 730.012H520.926C521.59 730.012 522.141 729.895 522.578 729.66C523.016 729.426 523.344 729.102 523.562 728.688C523.789 728.273 523.902 727.801 523.902 727.27C523.902 726.699 523.793 726.207 523.574 725.793C523.355 725.371 523.023 725.047 522.578 724.82C522.133 724.594 521.57 724.48 520.891 724.48H517.914V739H514.691V721.938ZM524.324 739L520.375 731.359L523.785 731.348L527.781 738.836V739H524.324ZM536.734 724.527L531.871 739H528.461L534.836 721.938H537.016L536.734 724.527ZM540.801 739L535.914 724.527L535.621 721.938H537.812L544.223 739H540.801ZM540.578 732.66V735.203H531.426V732.66H540.578ZM554.91 734.57C554.91 734.242 554.859 733.949 554.758 733.691C554.664 733.426 554.488 733.188 554.23 732.977C553.98 732.758 553.625 732.547 553.164 732.344C552.711 732.133 552.125 731.914 551.406 731.688C550.609 731.438 549.867 731.156 549.18 730.844C548.492 730.531 547.887 730.168 547.363 729.754C546.848 729.34 546.445 728.863 546.156 728.324C545.867 727.777 545.723 727.145 545.723 726.426C545.723 725.723 545.871 725.082 546.168 724.504C546.473 723.926 546.902 723.43 547.457 723.016C548.012 722.594 548.664 722.27 549.414 722.043C550.172 721.816 551.008 721.703 551.922 721.703C553.188 721.703 554.281 721.934 555.203 722.395C556.133 722.855 556.852 723.48 557.359 724.27C557.867 725.059 558.121 725.945 558.121 726.93H554.91C554.91 726.398 554.797 725.93 554.57 725.523C554.352 725.117 554.016 724.797 553.562 724.562C553.117 724.328 552.555 724.211 551.875 724.211C551.219 724.211 550.672 724.309 550.234 724.504C549.805 724.699 549.48 724.965 549.262 725.301C549.051 725.637 548.945 726.012 548.945 726.426C548.945 726.738 549.02 727.02 549.168 727.27C549.316 727.512 549.539 727.742 549.836 727.961C550.133 728.172 550.5 728.371 550.938 728.559C551.383 728.738 551.898 728.918 552.484 729.098C553.422 729.379 554.242 729.691 554.945 730.035C555.656 730.379 556.246 730.77 556.715 731.207C557.191 731.645 557.547 732.137 557.781 732.684C558.023 733.23 558.145 733.852 558.145 734.547C558.145 735.281 558 735.938 557.711 736.516C557.422 737.094 557.008 737.586 556.469 737.992C555.93 738.398 555.281 738.707 554.523 738.918C553.773 739.129 552.934 739.234 552.004 739.234C551.176 739.234 550.355 739.125 549.543 738.906C548.738 738.68 548.008 738.344 547.352 737.898C546.695 737.445 546.172 736.875 545.781 736.188C545.391 735.492 545.195 734.68 545.195 733.75H548.43C548.43 734.289 548.516 734.75 548.688 735.133C548.867 735.508 549.117 735.816 549.438 736.059C549.766 736.293 550.148 736.465 550.586 736.574C551.023 736.684 551.496 736.738 552.004 736.738C552.66 736.738 553.199 736.648 553.621 736.469C554.051 736.281 554.371 736.023 554.582 735.695C554.801 735.367 554.91 734.992 554.91 734.57Z" fill="white"/>
<path d="M209.828 18.2344V27.0938C209.495 27.5208 208.969 27.9844 208.25 28.4844C207.542 28.9844 206.615 29.4167 205.469 29.7813C204.323 30.1354 202.917 30.3125 201.25 30.3125C199.802 30.3125 198.479 30.0729 197.281 29.5938C196.083 29.1042 195.052 28.3906 194.188 27.4531C193.323 26.5156 192.656 25.3698 192.188 24.0156C191.719 22.6615 191.484 21.1146 191.484 19.375V17.875C191.484 16.1354 191.703 14.5885 192.141 13.2344C192.589 11.8802 193.224 10.7344 194.047 9.79688C194.88 8.85938 195.875 8.14583 197.031 7.65625C198.198 7.16667 199.5 6.92188 200.938 6.92188C202.865 6.92188 204.448 7.23958 205.688 7.875C206.938 8.51042 207.896 9.38542 208.562 10.5C209.229 11.6042 209.646 12.875 209.812 14.3125H205.625C205.51 13.5208 205.281 12.8281 204.938 12.2344C204.594 11.6302 204.104 11.1615 203.469 10.8281C202.844 10.4844 202.031 10.3125 201.031 10.3125C200.188 10.3125 199.443 10.4792 198.797 10.8125C198.151 11.1458 197.609 11.6302 197.172 12.2656C196.734 12.901 196.401 13.6875 196.172 14.625C195.953 15.5625 195.844 16.6354 195.844 17.8438V19.375C195.844 20.5938 195.969 21.6771 196.219 22.625C196.469 23.5625 196.828 24.3542 197.297 25C197.776 25.6354 198.365 26.1198 199.062 26.4531C199.771 26.776 200.573 26.9375 201.469 26.9375C202.281 26.9375 202.953 26.8698 203.484 26.7344C204.026 26.5885 204.458 26.4167 204.781 26.2188C205.104 26.0208 205.354 25.8281 205.531 25.6406V21.375H201.016V18.2344H209.828ZM221.172 30.3125C219.891 30.3125 218.74 30.1042 217.719 29.6875C216.698 29.2708 215.828 28.6927 215.109 27.9531C214.401 27.2031 213.854 26.3333 213.469 25.3438C213.094 24.3438 212.906 23.2708 212.906 22.125V21.5C212.906 20.1979 213.094 19.0156 213.469 17.9531C213.844 16.8802 214.375 15.9583 215.062 15.1875C215.75 14.4167 216.573 13.8229 217.531 13.4063C218.49 12.9896 219.547 12.7813 220.703 12.7813C221.901 12.7813 222.958 12.9844 223.875 13.3906C224.792 13.7865 225.557 14.349 226.172 15.0781C226.786 15.8073 227.25 16.6823 227.562 17.7031C227.875 18.7135 228.031 19.8333 228.031 21.0625V22.7969L214.781 22.7969V19.9531L223.969 19.9531V19.6406C223.948 18.9844 223.823 18.3854 223.594 17.8438C223.365 17.2917 223.01 16.8542 222.531 16.5313C222.052 16.1979 221.432 16.0313 220.672 16.0313C220.057 16.0313 219.521 16.1667 219.062 16.4375C218.615 16.6979 218.24 17.0729 217.938 17.5625C217.646 18.0417 217.427 18.6146 217.281 19.2813C217.135 19.9479 217.062 20.6875 217.062 21.5V22.125C217.062 22.8333 217.156 23.4896 217.344 24.0938C217.542 24.6979 217.828 25.224 218.203 25.6719C218.589 26.1094 219.047 26.4531 219.578 26.7031C220.12 26.9427 220.734 27.0625 221.422 27.0625C222.286 27.0625 223.068 26.8958 223.766 26.5625C224.474 26.2188 225.089 25.7135 225.609 25.0469L227.688 27.2031C227.333 27.724 226.854 28.224 226.25 28.7031C225.656 29.1823 224.938 29.5729 224.094 29.875C223.25 30.1667 222.276 30.3125 221.172 30.3125ZM234.844 16.7031V30H230.719V13.0938H234.594L234.844 16.7031ZM234.188 20.9375H232.969C232.979 19.7083 233.146 18.5938 233.469 17.5938C233.792 16.5938 234.245 15.7344 234.828 15.0156C235.422 14.2969 236.125 13.7448 236.938 13.3594C237.75 12.974 238.656 12.7813 239.656 12.7813C240.469 12.7813 241.203 12.8958 241.859 13.125C242.516 13.3542 243.078 13.7188 243.547 14.2188C244.026 14.7188 244.391 15.375 244.641 16.1875C244.901 16.9896 245.031 17.9792 245.031 19.1563V30L240.875 30V19.125C240.875 18.3542 240.76 17.7448 240.531 17.2969C240.312 16.849 239.99 16.5313 239.562 16.3438C239.146 16.1563 238.63 16.0625 238.016 16.0625C237.38 16.0625 236.823 16.1927 236.344 16.4531C235.875 16.7031 235.479 17.0521 235.156 17.5C234.844 17.9479 234.604 18.4635 234.438 19.0469C234.271 19.6302 234.188 20.2604 234.188 20.9375ZM256.266 30.3125C254.984 30.3125 253.833 30.1042 252.812 29.6875C251.792 29.2708 250.922 28.6927 250.203 27.9531C249.495 27.2031 248.948 26.3333 248.562 25.3438C248.188 24.3438 248 23.2708 248 22.125V21.5C248 20.1979 248.188 19.0156 248.562 17.9531C248.938 16.8802 249.469 15.9583 250.156 15.1875C250.844 14.4167 251.667 13.8229 252.625 13.4063C253.583 12.9896 254.641 12.7813 255.797 12.7813C256.995 12.7813 258.052 12.9844 258.969 13.3906C259.885 13.7865 260.651 14.349 261.266 15.0781C261.88 15.8073 262.344 16.6823 262.656 17.7031C262.969 18.7135 263.125 19.8333 263.125 21.0625V22.7969H249.875V19.9531H259.062V19.6406C259.042 18.9844 258.917 18.3854 258.688 17.8438C258.458 17.2917 258.104 16.8542 257.625 16.5313C257.146 16.1979 256.526 16.0313 255.766 16.0313C255.151 16.0313 254.615 16.1667 254.156 16.4375C253.708 16.6979 253.333 17.0729 253.031 17.5625C252.74 18.0417 252.521 18.6146 252.375 19.2813C252.229 19.9479 252.156 20.6875 252.156 21.5V22.125C252.156 22.8333 252.25 23.4896 252.438 24.0938C252.635 24.6979 252.922 25.224 253.297 25.6719C253.682 26.1094 254.141 26.4531 254.672 26.7031C255.214 26.9427 255.828 27.0625 256.516 27.0625C257.38 27.0625 258.161 26.8958 258.859 26.5625C259.568 26.2188 260.182 25.7135 260.703 25.0469L262.781 27.2031C262.427 27.724 261.948 28.224 261.344 28.7031C260.75 29.1823 260.031 29.5729 259.188 29.875C258.344 30.1667 257.37 30.3125 256.266 30.3125ZM281.453 30.3125C280.172 30.3125 279.021 30.1042 278 29.6875C276.979 29.2708 276.109 28.6927 275.391 27.9531C274.682 27.2031 274.135 26.3333 273.75 25.3438C273.375 24.3438 273.188 23.2708 273.188 22.125V21.5C273.188 20.1979 273.375 19.0156 273.75 17.9531C274.125 16.8802 274.656 15.9583 275.344 15.1875C276.031 14.4167 276.854 13.8229 277.812 13.4063C278.771 12.9896 279.828 12.7813 280.984 12.7813C282.182 12.7813 283.24 12.9844 284.156 13.3906C285.073 13.7865 285.839 14.349 286.453 15.0781C287.068 15.8073 287.531 16.6823 287.844 17.7031C288.156 18.7135 288.312 19.8333 288.312 21.0625V22.7969H275.062V19.9531H284.25V19.6406C284.229 18.9844 284.104 18.3854 283.875 17.8438C283.646 17.2917 283.292 16.8542 282.812 16.5313C282.333 16.1979 281.714 16.0313 280.953 16.0313C280.339 16.0313 279.802 16.1667 279.344 16.4375C278.896 16.6979 278.521 17.0729 278.219 17.5625C277.927 18.0417 277.708 18.6146 277.562 19.2813C277.417 19.9479 277.344 20.6875 277.344 21.5V22.125C277.344 22.8333 277.438 23.4896 277.625 24.0938C277.823 24.6979 278.109 25.224 278.484 25.6719C278.87 26.1094 279.328 26.4531 279.859 26.7031C280.401 26.9427 281.016 27.0625 281.703 27.0625C282.568 27.0625 283.349 26.8958 284.047 26.5625C284.755 26.2188 285.37 25.7135 285.891 25.0469L287.969 27.2031C287.615 27.724 287.135 28.224 286.531 28.7031C285.938 29.1823 285.219 29.5729 284.375 29.875C283.531 30.1667 282.557 30.3125 281.453 30.3125ZM294.312 13.0938L297.328 18.4688L300.391 13.0938H304.875L299.906 21.375L305.078 30H300.594L297.359 24.3594L294.109 30H289.625L294.781 21.375L289.844 13.0938L294.312 13.0938ZM311.391 16.3438V36.5H307.25V13.0938H311.078L311.391 16.3438ZM322.25 21.375V21.7031C322.25 22.9323 322.104 24.0729 321.812 25.125C321.531 26.1667 321.115 27.0781 320.562 27.8594C320.01 28.6302 319.323 29.2344 318.5 29.6719C317.688 30.099 316.75 30.3125 315.688 30.3125C314.646 30.3125 313.74 30.1146 312.969 29.7188C312.198 29.3125 311.547 28.7396 311.016 28C310.484 27.2604 310.057 26.401 309.734 25.4219C309.422 24.4323 309.188 23.3542 309.031 22.1875V21.1406C309.188 19.901 309.422 18.776 309.734 17.7656C310.057 16.7448 310.484 15.8646 311.016 15.125C311.547 14.375 312.193 13.7969 312.953 13.3906C313.724 12.9844 314.625 12.7813 315.656 12.7813C316.729 12.7813 317.672 12.9844 318.484 13.3906C319.307 13.7969 320 14.3802 320.562 15.1406C321.125 15.901 321.547 16.8073 321.828 17.8594C322.109 18.9115 322.25 20.0833 322.25 21.375ZM318.109 21.7031V21.375C318.109 20.625 318.042 19.9323 317.906 19.2969C317.771 18.651 317.562 18.0885 317.281 17.6094C317 17.1198 316.635 16.7396 316.188 16.4688C315.74 16.1979 315.198 16.0625 314.562 16.0625C313.927 16.0625 313.38 16.1667 312.922 16.375C312.464 16.5833 312.089 16.8802 311.797 17.2656C311.505 17.651 311.276 18.1094 311.109 18.6406C310.953 19.1615 310.849 19.7396 310.797 20.375V22.9688C310.891 23.7396 311.073 24.4323 311.344 25.0469C311.615 25.6615 312.01 26.151 312.531 26.5156C313.062 26.8802 313.75 27.0625 314.594 27.0625C315.229 27.0625 315.771 26.9219 316.219 26.6406C316.667 26.3594 317.031 25.974 317.312 25.4844C317.594 24.9844 317.797 24.4115 317.922 23.7656C318.047 23.1198 318.109 22.4323 318.109 21.7031ZM329.391 16.5469V30H325.266V13.0938L329.172 13.0938L329.391 16.5469ZM334.531 12.9844L334.469 16.8281C334.24 16.7865 333.979 16.7552 333.688 16.7344C333.406 16.7135 333.141 16.7031 332.891 16.7031C332.255 16.7031 331.698 16.7917 331.219 16.9688C330.74 17.1354 330.339 17.3802 330.016 17.7031C329.703 18.026 329.464 18.4219 329.297 18.8906C329.13 19.349 329.036 19.8698 329.016 20.4531L328.125 20.3438C328.125 19.2708 328.234 18.276 328.453 17.3594C328.672 16.4427 328.99 15.6406 329.406 14.9531C329.823 14.2656 330.344 13.7344 330.969 13.3594C331.604 12.974 332.333 12.7813 333.156 12.7813C333.385 12.7813 333.63 12.8021 333.891 12.8438C334.161 12.875 334.375 12.9219 334.531 12.9844ZM344.078 30.3125C342.797 30.3125 341.646 30.1042 340.625 29.6875C339.604 29.2708 338.734 28.6927 338.016 27.9531C337.307 27.2031 336.76 26.3333 336.375 25.3438C336 24.3438 335.812 23.2708 335.812 22.125V21.5C335.812 20.1979 336 19.0156 336.375 17.9531C336.75 16.8802 337.281 15.9583 337.969 15.1875C338.656 14.4167 339.479 13.8229 340.438 13.4063C341.396 12.9896 342.453 12.7813 343.609 12.7813C344.807 12.7813 345.865 12.9844 346.781 13.3906C347.698 13.7865 348.464 14.349 349.078 15.0781C349.693 15.8073 350.156 16.6823 350.469 17.7031C350.781 18.7135 350.938 19.8333 350.938 21.0625V22.7969H337.688V19.9531H346.875V19.6406C346.854 18.9844 346.729 18.3854 346.5 17.8438C346.271 17.2917 345.917 16.8542 345.438 16.5313C344.958 16.1979 344.339 16.0313 343.578 16.0313C342.964 16.0313 342.427 16.1667 341.969 16.4375C341.521 16.6979 341.146 17.0729 340.844 17.5625C340.552 18.0417 340.333 18.6146 340.188 19.2813C340.042 19.9479 339.969 20.6875 339.969 21.5V22.125C339.969 22.8333 340.062 23.4896 340.25 24.0938C340.448 24.6979 340.734 25.224 341.109 25.6719C341.495 26.1094 341.953 26.4531 342.484 26.7031C343.026 26.9427 343.641 27.0625 344.328 27.0625C345.193 27.0625 345.974 26.8958 346.672 26.5625C347.38 26.2188 347.995 25.7135 348.516 25.0469L350.594 27.2031C350.24 27.724 349.76 28.224 349.156 28.7031C348.562 29.1823 347.844 29.5729 347 29.875C346.156 30.1667 345.182 30.3125 344.078 30.3125ZM363 25.375C363 25.0208 362.906 24.7031 362.719 24.4219C362.531 24.1406 362.177 23.8854 361.656 23.6563C361.146 23.4167 360.396 23.1927 359.406 22.9844C358.531 22.7969 357.724 22.5625 356.984 22.2813C356.245 22 355.609 21.6615 355.078 21.2656C354.547 20.8594 354.13 20.3854 353.828 19.8438C353.536 19.2917 353.391 18.6563 353.391 17.9375C353.391 17.2396 353.542 16.5833 353.844 15.9688C354.146 15.3438 354.583 14.7969 355.156 14.3281C355.729 13.849 356.427 13.474 357.25 13.2031C358.073 12.9219 359 12.7813 360.031 12.7813C361.469 12.7813 362.703 13.0156 363.734 13.4844C364.776 13.9531 365.573 14.599 366.125 15.4219C366.677 16.2344 366.953 17.151 366.953 18.1719H362.828C362.828 17.724 362.724 17.3177 362.516 16.9531C362.318 16.5885 362.01 16.2969 361.594 16.0781C361.177 15.849 360.651 15.7344 360.016 15.7344C359.443 15.7344 358.958 15.8281 358.562 16.0156C358.177 16.2031 357.885 16.4479 357.688 16.75C357.49 17.0521 357.391 17.3854 357.391 17.75C357.391 18.0208 357.443 18.2656 357.547 18.4844C357.661 18.6927 357.844 18.8854 358.094 19.0625C358.344 19.2396 358.682 19.401 359.109 19.5469C359.547 19.6927 360.083 19.8333 360.719 19.9688C361.979 20.2188 363.078 20.5521 364.016 20.9688C364.964 21.375 365.703 21.9167 366.234 22.5938C366.766 23.2708 367.031 24.1354 367.031 25.1875C367.031 25.9375 366.87 26.625 366.547 27.25C366.224 27.8646 365.755 28.401 365.141 28.8594C364.526 29.3177 363.792 29.6771 362.938 29.9375C362.083 30.1875 361.12 30.3125 360.047 30.3125C358.495 30.3125 357.182 30.0365 356.109 29.4844C355.036 28.9219 354.224 28.2135 353.672 27.3594C353.12 26.4948 352.844 25.599 352.844 24.6719L356.797 24.6719C356.828 25.3281 357.005 25.8542 357.328 26.25C357.651 26.6458 358.057 26.9323 358.547 27.1094C359.047 27.276 359.573 27.3594 360.125 27.3594C360.75 27.3594 361.276 27.276 361.703 27.1094C362.13 26.9323 362.453 26.6979 362.672 26.4063C362.891 26.1042 363 25.7604 363 25.375ZM379.469 25.375C379.469 25.0208 379.375 24.7031 379.188 24.4219C379 24.1406 378.646 23.8854 378.125 23.6563C377.615 23.4167 376.865 23.1927 375.875 22.9844C375 22.7969 374.193 22.5625 373.453 22.2813C372.714 22 372.078 21.6615 371.547 21.2656C371.016 20.8594 370.599 20.3854 370.297 19.8438C370.005 19.2917 369.859 18.6563 369.859 17.9375C369.859 17.2396 370.01 16.5833 370.312 15.9688C370.615 15.3438 371.052 14.7969 371.625 14.3281C372.198 13.849 372.896 13.474 373.719 13.2031C374.542 12.9219 375.469 12.7813 376.5 12.7813C377.938 12.7813 379.172 13.0156 380.203 13.4844C381.245 13.9531 382.042 14.599 382.594 15.4219C383.146 16.2344 383.422 17.151 383.422 18.1719H379.297C379.297 17.724 379.193 17.3177 378.984 16.9531C378.786 16.5885 378.479 16.2969 378.062 16.0781C377.646 15.849 377.12 15.7344 376.484 15.7344C375.911 15.7344 375.427 15.8281 375.031 16.0156C374.646 16.2031 374.354 16.4479 374.156 16.75C373.958 17.0521 373.859 17.3854 373.859 17.75C373.859 18.0208 373.911 18.2656 374.016 18.4844C374.13 18.6927 374.312 18.8854 374.562 19.0625C374.812 19.2396 375.151 19.401 375.578 19.5469C376.016 19.6927 376.552 19.8333 377.188 19.9688C378.448 20.2188 379.547 20.5521 380.484 20.9688C381.432 21.375 382.172 21.9167 382.703 22.5938C383.234 23.2708 383.5 24.1354 383.5 25.1875C383.5 25.9375 383.339 26.625 383.016 27.25C382.693 27.8646 382.224 28.401 381.609 28.8594C380.995 29.3177 380.26 29.6771 379.406 29.9375C378.552 30.1875 377.589 30.3125 376.516 30.3125C374.964 30.3125 373.651 30.0365 372.578 29.4844C371.505 28.9219 370.693 28.2135 370.141 27.3594C369.589 26.4948 369.312 25.599 369.312 24.6719H373.266C373.297 25.3281 373.474 25.8542 373.797 26.25C374.12 26.6458 374.526 26.9323 375.016 27.1094C375.516 27.276 376.042 27.3594 376.594 27.3594C377.219 27.3594 377.745 27.276 378.172 27.1094C378.599 26.9323 378.922 26.6979 379.141 26.4063C379.359 26.1042 379.469 25.7604 379.469 25.375ZM391.016 13.0938V30H386.875V13.0938H391.016ZM386.594 8.67188C386.594 8.05729 386.802 7.54688 387.219 7.14063C387.646 6.73438 388.219 6.53125 388.938 6.53125C389.656 6.53125 390.224 6.73438 390.641 7.14063C391.068 7.54688 391.281 8.05729 391.281 8.67188C391.281 9.27604 391.068 9.78125 390.641 10.1875C390.224 10.5938 389.656 10.7969 388.938 10.7969C388.219 10.7969 387.646 10.5938 387.219 10.1875C386.802 9.78125 386.594 9.27604 386.594 8.67188ZM394.219 21.7188V21.3906C394.219 20.151 394.396 19.0104 394.75 17.9688C395.104 16.9167 395.62 16.0052 396.297 15.2344C396.974 14.4635 397.802 13.8646 398.781 13.4375C399.76 13 400.875 12.7813 402.125 12.7813C403.396 12.7813 404.521 13 405.5 13.4375C406.49 13.8646 407.323 14.4635 408 15.2344C408.677 16.0052 409.193 16.9167 409.547 17.9688C409.901 19.0104 410.078 20.151 410.078 21.3906V21.7188C410.078 22.9479 409.901 24.0885 409.547 25.1406C409.193 26.1823 408.677 27.0938 408 27.875C407.323 28.6458 406.495 29.2448 405.516 29.6719C404.536 30.099 403.417 30.3125 402.156 30.3125C400.906 30.3125 399.786 30.099 398.797 29.6719C397.807 29.2448 396.974 28.6458 396.297 27.875C395.62 27.0938 395.104 26.1823 394.75 25.1406C394.396 24.0885 394.219 22.9479 394.219 21.7188ZM398.344 21.3906V21.7188C398.344 22.4583 398.417 23.151 398.562 23.7969C398.708 24.4427 398.932 25.0104 399.234 25.5C399.536 25.9896 399.927 26.375 400.406 26.6563C400.896 26.9271 401.479 27.0625 402.156 27.0625C402.823 27.0625 403.396 26.9271 403.875 26.6563C404.354 26.375 404.745 25.9896 405.047 25.5C405.359 25.0104 405.589 24.4427 405.734 23.7969C405.88 23.151 405.953 22.4583 405.953 21.7188V21.3906C405.953 20.6615 405.88 19.9792 405.734 19.3438C405.589 18.6979 405.359 18.1302 405.047 17.6406C404.745 17.1406 404.349 16.75 403.859 16.4688C403.38 16.1771 402.802 16.0313 402.125 16.0313C401.458 16.0313 400.885 16.1771 400.406 16.4688C399.927 16.75 399.536 17.1406 399.234 17.6406C398.932 18.1302 398.708 18.6979 398.562 19.3438C398.417 19.9792 398.344 20.6615 398.344 21.3906ZM417.125 16.7031V30H413V13.0938L416.875 13.0938L417.125 16.7031ZM416.469 20.9375H415.25C415.26 19.7083 415.427 18.5938 415.75 17.5938C416.073 16.5938 416.526 15.7344 417.109 15.0156C417.703 14.2969 418.406 13.7448 419.219 13.3594C420.031 12.974 420.938 12.7813 421.938 12.7813C422.75 12.7813 423.484 12.8958 424.141 13.125C424.797 13.3542 425.359 13.7188 425.828 14.2188C426.307 14.7188 426.672 15.375 426.922 16.1875C427.182 16.9896 427.312 17.9792 427.312 19.1563V30H423.156V19.125C423.156 18.3542 423.042 17.7448 422.812 17.2969C422.594 16.849 422.271 16.5313 421.844 16.3438C421.427 16.1563 420.911 16.0625 420.297 16.0625C419.661 16.0625 419.104 16.1927 418.625 16.4531C418.156 16.7031 417.76 17.0521 417.438 17.5C417.125 17.9479 416.885 18.4635 416.719 19.0469C416.552 19.6302 416.469 20.2604 416.469 20.9375ZM438.188 21.7188V21.3906C438.188 20.151 438.365 19.0104 438.719 17.9688C439.073 16.9167 439.589 16.0052 440.266 15.2344C440.943 14.4635 441.771 13.8646 442.75 13.4375C443.729 13 444.844 12.7813 446.094 12.7813C447.365 12.7813 448.49 13 449.469 13.4375C450.458 13.8646 451.292 14.4635 451.969 15.2344C452.646 16.0052 453.161 16.9167 453.516 17.9688C453.87 19.0104 454.047 20.151 454.047 21.3906V21.7188C454.047 22.9479 453.87 24.0885 453.516 25.1406C453.161 26.1823 452.646 27.0938 451.969 27.875C451.292 28.6458 450.464 29.2448 449.484 29.6719C448.505 30.099 447.385 30.3125 446.125 30.3125C444.875 30.3125 443.755 30.099 442.766 29.6719C441.776 29.2448 440.943 28.6458 440.266 27.875C439.589 27.0938 439.073 26.1823 438.719 25.1406C438.365 24.0885 438.188 22.9479 438.188 21.7188ZM442.312 21.3906V21.7188C442.312 22.4583 442.385 23.151 442.531 23.7969C442.677 24.4427 442.901 25.0104 443.203 25.5C443.505 25.9896 443.896 26.375 444.375 26.6563C444.865 26.9271 445.448 27.0625 446.125 27.0625C446.792 27.0625 447.365 26.9271 447.844 26.6563C448.323 26.375 448.714 25.9896 449.016 25.5C449.328 25.0104 449.557 24.4427 449.703 23.7969C449.849 23.151 449.922 22.4583 449.922 21.7188V21.3906C449.922 20.6615 449.849 19.9792 449.703 19.3438C449.557 18.6979 449.328 18.1302 449.016 17.6406C448.714 17.1406 448.318 16.75 447.828 16.4688C447.349 16.1771 446.771 16.0313 446.094 16.0313C445.427 16.0313 444.854 16.1771 444.375 16.4688C443.896 16.75 443.505 17.1406 443.203 17.6406C442.901 18.1302 442.677 18.6979 442.531 19.3438C442.385 19.9792 442.312 20.6615 442.312 21.3906ZM462.453 30H458.297V11.5313C458.297 10.2604 458.542 9.19271 459.031 8.32813C459.521 7.45313 460.219 6.79167 461.125 6.34375C462.031 5.89583 463.099 5.67188 464.328 5.67188C464.734 5.67188 465.12 5.69792 465.484 5.75C465.859 5.80208 466.229 5.875 466.594 5.96875L466.516 9.10938C466.318 9.05729 466.099 9.02083 465.859 9C465.63 8.97917 465.375 8.96875 465.094 8.96875C464.531 8.96875 464.052 9.06771 463.656 9.26563C463.26 9.46354 462.958 9.75521 462.75 10.1406C462.552 10.5156 462.453 10.9792 462.453 11.5313V30ZM465.875 13.0938V16.0625L455.75 16.0625V13.0938L465.875 13.0938ZM482.297 25.6406L486.828 7.25H489.281L489.438 11.125L484.594 30H482L482.297 25.6406ZM479.438 7.25L483.156 25.5781V30H480.328L475.172 7.25L479.438 7.25ZM494.141 25.5L497.797 7.25L502.078 7.25L496.922 30H494.094L494.141 25.5ZM490.453 7.25L494.984 25.7031L495.25 30H492.656L487.828 11.1094L488.016 7.25L490.453 7.25ZM519.875 26.625V30L507.781 30V26.625L519.875 26.625ZM509.094 7.25V30H504.797V7.25L509.094 7.25ZM518.297 16.6406V19.9375L507.781 19.9375V16.6406L518.297 16.6406ZM519.828 7.25V10.6406L507.781 10.6406V7.25L519.828 7.25ZM537.938 26.625V30L525.844 30V26.625L537.938 26.625ZM527.156 7.25V30H522.859V7.25L527.156 7.25ZM536.359 16.6406V19.9375L525.844 19.9375V16.6406L536.359 16.6406ZM537.891 7.25V10.6406L525.844 10.6406V7.25L537.891 7.25ZM551.016 7.1875V30H546.875V12.0156L541.391 13.8281V10.4844L550.547 7.1875L551.016 7.1875ZM572.469 26.875L576.406 13.0938H580.719L574.922 30H572.297L572.469 26.875ZM569.594 13.0938L573.578 26.9063L573.719 30H571.078L565.266 13.0938H569.594ZM592.188 25.375C592.188 25.0208 592.094 24.7031 591.906 24.4219C591.719 24.1406 591.365 23.8854 590.844 23.6563C590.333 23.4167 589.583 23.1927 588.594 22.9844C587.719 22.7969 586.911 22.5625 586.172 22.2813C585.432 22 584.797 21.6615 584.266 21.2656C583.734 20.8594 583.318 20.3854 583.016 19.8438C582.724 19.2917 582.578 18.6563 582.578 17.9375C582.578 17.2396 582.729 16.5833 583.031 15.9688C583.333 15.3438 583.771 14.7969 584.344 14.3281C584.917 13.849 585.615 13.474 586.438 13.2031C587.26 12.9219 588.188 12.7813 589.219 12.7813C590.656 12.7813 591.891 13.0156 592.922 13.4844C593.964 13.9531 594.76 14.599 595.312 15.4219C595.865 16.2344 596.141 17.151 596.141 18.1719H592.016C592.016 17.724 591.911 17.3177 591.703 16.9531C591.505 16.5885 591.198 16.2969 590.781 16.0781C590.365 15.849 589.839 15.7344 589.203 15.7344C588.63 15.7344 588.146 15.8281 587.75 16.0156C587.365 16.2031 587.073 16.4479 586.875 16.75C586.677 17.0521 586.578 17.3854 586.578 17.75C586.578 18.0208 586.63 18.2656 586.734 18.4844C586.849 18.6927 587.031 18.8854 587.281 19.0625C587.531 19.2396 587.87 19.401 588.297 19.5469C588.734 19.6927 589.271 19.8333 589.906 19.9688C591.167 20.2188 592.266 20.5521 593.203 20.9688C594.151 21.375 594.891 21.9167 595.422 22.5938C595.953 23.2708 596.219 24.1354 596.219 25.1875C596.219 25.9375 596.057 26.625 595.734 27.25C595.411 27.8646 594.943 28.401 594.328 28.8594C593.714 29.3177 592.979 29.6771 592.125 29.9375C591.271 30.1875 590.307 30.3125 589.234 30.3125C587.682 30.3125 586.37 30.0365 585.297 29.4844C584.224 28.9219 583.411 28.2135 582.859 27.3594C582.307 26.4948 582.031 25.599 582.031 24.6719H585.984C586.016 25.3281 586.193 25.8542 586.516 26.25C586.839 26.6458 587.245 26.9323 587.734 27.1094C588.234 27.276 588.76 27.3594 589.312 27.3594C589.938 27.3594 590.464 27.276 590.891 27.1094C591.318 26.9323 591.641 26.6979 591.859 26.4063C592.078 26.1042 592.188 25.7604 592.188 25.375ZM611.938 7.25V30H607.641V7.25L611.938 7.25ZM625.594 7.25L616.469 18.3438L611.25 23.9219L610.484 19.75L614.109 15.0469L620.328 7.25L625.594 7.25ZM620.812 30L613.734 19.3438L616.812 16.5625L625.922 30H620.812ZM627.922 7.25L636.188 7.25C637.917 7.25 639.401 7.51042 640.641 8.03125C641.88 8.55208 642.833 9.32292 643.5 10.3438C644.167 11.3646 644.5 12.6198 644.5 14.1094C644.5 15.2865 644.292 16.3073 643.875 17.1719C643.458 18.0365 642.87 18.7604 642.109 19.3438C641.359 19.9271 640.474 20.3854 639.453 20.7188L638.109 21.4063H630.812L630.781 18.0156H636.234C637.12 18.0156 637.854 17.8594 638.438 17.5469C639.021 17.2344 639.458 16.8021 639.75 16.25C640.052 15.6979 640.203 15.0677 640.203 14.3594C640.203 13.599 640.057 12.9427 639.766 12.3906C639.474 11.8281 639.031 11.3958 638.438 11.0938C637.844 10.7917 637.094 10.6406 636.188 10.6406H632.219V30H627.922V7.25ZM640.766 30L635.5 19.8125L640.047 19.7969L645.375 29.7813V30L640.766 30ZM657.312 10.7031L650.828 30H646.281L654.781 7.25L657.688 7.25L657.312 10.7031ZM662.734 30L656.219 10.7031L655.828 7.25H658.75L667.297 30L662.734 30ZM662.438 21.5469V24.9375H650.234V21.5469H662.438ZM681.547 24.0938C681.547 23.6563 681.479 23.2656 681.344 22.9219C681.219 22.5677 680.984 22.25 680.641 21.9688C680.307 21.6771 679.833 21.3958 679.219 21.125C678.615 20.8438 677.833 20.5521 676.875 20.25C675.812 19.9167 674.823 19.5417 673.906 19.125C672.99 18.7083 672.182 18.224 671.484 17.6719C670.797 17.1198 670.26 16.4844 669.875 15.7656C669.49 15.0365 669.297 14.1927 669.297 13.2344C669.297 12.2969 669.495 11.4427 669.891 10.6719C670.297 9.90104 670.87 9.23958 671.609 8.6875C672.349 8.125 673.219 7.69271 674.219 7.39063C675.229 7.08854 676.344 6.9375 677.562 6.9375C679.25 6.9375 680.708 7.24479 681.938 7.85938C683.177 8.47396 684.135 9.30729 684.812 10.3594C685.49 11.4115 685.828 12.5938 685.828 13.9063H681.547C681.547 13.1979 681.396 12.5729 681.094 12.0313C680.802 11.4896 680.354 11.0625 679.75 10.75C679.156 10.4375 678.406 10.2813 677.5 10.2813C676.625 10.2813 675.896 10.4115 675.312 10.6719C674.74 10.9323 674.307 11.2865 674.016 11.7344C673.734 12.1823 673.594 12.6823 673.594 13.2344C673.594 13.651 673.693 14.026 673.891 14.3594C674.089 14.6823 674.385 14.9896 674.781 15.2813C675.177 15.5625 675.667 15.8281 676.25 16.0781C676.844 16.3177 677.531 16.5573 678.312 16.7969C679.562 17.1719 680.656 17.5885 681.594 18.0469C682.542 18.5052 683.328 19.026 683.953 19.6094C684.589 20.1927 685.062 20.849 685.375 21.5781C685.698 22.3073 685.859 23.1354 685.859 24.0625C685.859 25.0417 685.667 25.9167 685.281 26.6875C684.896 27.4583 684.344 28.1146 683.625 28.6563C682.906 29.1979 682.042 29.6094 681.031 29.8906C680.031 30.1719 678.911 30.3125 677.672 30.3125C676.568 30.3125 675.474 30.1667 674.391 29.875C673.318 29.5729 672.344 29.125 671.469 28.5313C670.594 27.9271 669.896 27.1667 669.375 26.25C668.854 25.3229 668.594 24.2396 668.594 23H672.906C672.906 23.7188 673.021 24.3333 673.25 24.8438C673.49 25.3438 673.823 25.7552 674.25 26.0781C674.688 26.3906 675.198 26.6198 675.781 26.7656C676.365 26.9115 676.995 26.9844 677.672 26.9844C678.547 26.9844 679.266 26.8646 679.828 26.625C680.401 26.375 680.828 26.0313 681.109 25.5938C681.401 25.1563 681.547 24.6563 681.547 24.0938Z" fill="white"/>
<rect x="778.011" y="543.056" width="3" height="720" rx="1.5" transform="rotate(113.552 778.011 543.056)" fill="white"/>
<circle cx="225.194" cy="331.295" r="4" transform="rotate(-10.4752 225.194 331.295)" fill="white" fill-opacity="0.7"/>
<circle cx="244.927" cy="350.019" r="4" transform="rotate(-10.4752 244.927 350.019)" fill="white" fill-opacity="0.7"/>
<circle cx="262.371" cy="350.862" r="4" transform="rotate(-10.4752 262.371 350.862)" fill="white" fill-opacity="0.7"/>
<circle cx="239.407" cy="298.158" r="4" transform="rotate(-10.4752 239.407 298.158)" fill="white" fill-opacity="0.7"/>
<circle cx="243.406" cy="319.792" r="4" transform="rotate(-10.4752 243.406 319.792)" fill="white" fill-opacity="0.7"/>
<circle cx="197.057" cy="283.616" r="4" transform="rotate(-10.4752 197.057 283.616)" fill="white" fill-opacity="0.7"/>
<circle cx="265.511" cy="323.84" r="4" transform="rotate(-10.4752 265.511 323.84)" fill="white" fill-opacity="0.7"/>
<circle cx="282.484" cy="316.635" r="4" transform="rotate(-10.4752 282.484 316.635)" fill="white" fill-opacity="0.7"/>
<circle cx="320.106" cy="305.611" r="4" transform="rotate(-10.4752 320.106 305.611)" fill="white" fill-opacity="0.7"/>
<circle cx="276.799" cy="329.889" r="4" transform="rotate(-10.4752 276.799 329.889)" fill="white" fill-opacity="0.7"/>
<circle cx="267.196" cy="288.953" r="4" transform="rotate(-10.4752 267.196 288.953)" fill="white" fill-opacity="0.7"/>
<circle cx="282.798" cy="362.339" r="4" transform="rotate(-10.4752 282.798 362.339)" fill="white" fill-opacity="0.7"/>
<circle cx="300.895" cy="372.213" r="4" transform="rotate(-10.4752 300.895 372.213)" fill="white" fill-opacity="0.7"/>
<circle cx="322.057" cy="360.165" r="4" transform="rotate(-10.4752 322.057 360.165)" fill="white" fill-opacity="0.7"/>
<circle cx="340.27" cy="348.662" r="4" transform="rotate(-10.4752 340.27 348.662)" fill="white" fill-opacity="0.7"/>
<circle cx="308.009" cy="328.186" r="4" transform="rotate(-10.4752 308.009 328.186)" fill="white" fill-opacity="0.7"/>
<circle cx="299.738" cy="343.953" r="4" transform="rotate(-10.4752 299.738 343.953)" fill="white" fill-opacity="0.7"/>
<circle cx="273.577" cy="389.468" r="4" transform="rotate(-10.4752 273.577 389.468)" fill="white" fill-opacity="0.7"/>
<circle cx="312.283" cy="411.803" r="4" transform="rotate(-10.4752 312.283 411.803)" fill="white" fill-opacity="0.7"/>
<circle cx="334.899" cy="407.621" r="4" transform="rotate(-10.4752 334.899 407.621)" fill="white" fill-opacity="0.7"/>
<circle cx="340.039" cy="391.417" r="4" transform="rotate(-10.4752 340.039 391.417)" fill="white" fill-opacity="0.7"/>
<circle cx="366.523" cy="364.147" r="4" transform="rotate(-10.4752 366.523 364.147)" fill="white" fill-opacity="0.7"/>
<circle cx="378.579" cy="357.851" r="4" transform="rotate(-10.4752 378.579 357.851)" fill="white" fill-opacity="0.7"/>
<circle cx="373.852" cy="332.284" r="4" transform="rotate(-10.4752 373.852 332.284)" fill="white" fill-opacity="0.7"/>
<circle cx="389.114" cy="321.326" r="4" transform="rotate(-10.4752 389.114 321.326)" fill="white" fill-opacity="0.7"/>
<circle cx="359.25" cy="324.814" r="4" transform="rotate(-10.4752 359.25 324.814)" fill="white" fill-opacity="0.7"/>
<circle cx="400.939" cy="357.784" r="4" transform="rotate(-10.4752 400.939 357.784)" fill="white" fill-opacity="0.7"/>
<circle cx="431.051" cy="377.64" r="4" transform="rotate(-10.4752 431.051 377.64)" fill="white" fill-opacity="0.7"/>
<circle cx="481.656" cy="372.425" r="4" transform="rotate(131.391 481.656 372.425)" fill="white" fill-opacity="0.7"/>
<circle cx="455.089" cy="370.145" r="4" transform="rotate(-10.4752 455.089 370.145)" fill="white" fill-opacity="0.7"/>
<circle cx="467.377" cy="393.164" r="4" transform="rotate(131.391 467.377 393.164)" fill="white" fill-opacity="0.7"/>
<circle cx="387.669" cy="407.017" r="4" transform="rotate(-10.4752 387.669 407.017)" fill="white" fill-opacity="0.7"/>
<circle cx="356.269" cy="435.196" r="4" transform="rotate(-10.4752 356.269 435.196)" fill="white" fill-opacity="0.7"/>
<circle cx="399.072" cy="391.689" r="4" transform="rotate(-10.4752 399.072 391.689)" fill="white" fill-opacity="0.7"/>
<circle cx="411.343" cy="397.555" r="4" transform="rotate(-10.4752 411.343 397.555)" fill="white" fill-opacity="0.7"/>
<circle cx="620.578" cy="346.666" r="4" transform="rotate(-10.4752 620.578 346.666)" fill="white" fill-opacity="0.7"/>
<circle cx="525.947" cy="514.567" r="4" transform="rotate(135.536 525.947 514.567)" fill="white" fill-opacity="0.7"/>
<circle cx="351.705" cy="513.821" r="4" transform="rotate(131.391 351.705 513.821)" fill="white" fill-opacity="0.7"/>
<circle cx="636.263" cy="387.495" r="4" transform="rotate(-10.4752 636.263 387.495)" fill="white" fill-opacity="0.7"/>
<circle cx="490.117" cy="489.483" r="4" transform="rotate(135.536 490.117 489.483)" fill="white" fill-opacity="0.7"/>
<circle cx="577.591" cy="268.174" r="4" transform="rotate(-10.4752 577.591 268.174)" fill="white" fill-opacity="0.7"/>
<circle cx="605.469" cy="555.618" r="4" transform="rotate(135.536 605.469 555.618)" fill="white" fill-opacity="0.7"/>
<circle cx="295.781" cy="416.293" r="4" transform="rotate(-170.343 295.781 416.293)" fill="white" fill-opacity="0.7"/>
<circle cx="613.441" cy="462.306" r="4" transform="rotate(-170.343 613.441 462.306)" fill="white" fill-opacity="0.7"/>
<circle cx="314.156" cy="491.391" r="4" transform="rotate(131.391 314.156 491.391)" fill="white" fill-opacity="0.7"/>
<circle cx="655.517" cy="425.63" r="4" transform="rotate(-10.4752 655.517 425.63)" fill="white" fill-opacity="0.7"/>
<circle cx="596.846" cy="306.309" r="4" transform="rotate(-10.4752 596.846 306.309)" fill="white" fill-opacity="0.7"/>
<circle cx="568.186" cy="534.762" r="4" transform="rotate(135.536 568.186 534.762)" fill="white" fill-opacity="0.7"/>
<circle cx="290.829" cy="373.861" r="4" transform="rotate(-170.343 290.829 373.861)" fill="white" fill-opacity="0.7"/>
<circle cx="608.489" cy="419.874" r="4" transform="rotate(-170.343 608.489 419.874)" fill="white" fill-opacity="0.7"/>
<circle cx="275.463" cy="473.285" r="4" transform="rotate(131.391 275.463 473.285)" fill="white" fill-opacity="0.7"/>
<circle cx="693.099" cy="430.885" r="4" transform="rotate(-10.4752 693.099 430.885)" fill="white" fill-opacity="0.7"/>
<circle cx="634.427" cy="311.563" r="4" transform="rotate(-10.4752 634.427 311.563)" fill="white" fill-opacity="0.7"/>
<circle cx="534.088" cy="551.415" r="4" transform="rotate(135.536 534.088 551.415)" fill="white" fill-opacity="0.7"/>
<circle cx="257.353" cy="355.992" r="4" transform="rotate(-170.343 257.353 355.992)" fill="white" fill-opacity="0.7"/>
<circle cx="575.013" cy="402.005" r="4" transform="rotate(-170.343 575.013 402.005)" fill="white" fill-opacity="0.7"/>
<circle cx="532.791" cy="443.21" r="4" transform="rotate(-24.3318 532.791 443.21)" fill="white" fill-opacity="0.7"/>
<circle cx="727.723" cy="464.144" r="4" transform="rotate(-10.4752 727.723 464.144)" fill="white" fill-opacity="0.7"/>
<circle cx="613.961" cy="437.381" r="4" transform="rotate(-10.4752 613.961 437.381)" fill="white" fill-opacity="0.7"/>
<circle cx="555.289" cy="318.06" r="4" transform="rotate(-10.4752 555.289 318.06)" fill="white" fill-opacity="0.7"/>
<circle cx="596.073" cy="501.787" r="4" transform="rotate(135.536 596.073 501.787)" fill="white" fill-opacity="0.7"/>
<circle cx="333.891" cy="377.131" r="4" transform="rotate(-170.343 333.891 377.131)" fill="white" fill-opacity="0.7"/>
<circle cx="651.551" cy="423.145" r="4" transform="rotate(-170.343 651.551 423.145)" fill="white" fill-opacity="0.7"/>
<circle cx="625.257" cy="415.971" r="4" transform="rotate(-10.4752 625.257 415.971)" fill="white" fill-opacity="0.7"/>
<circle cx="566.585" cy="296.649" r="4" transform="rotate(-10.4752 566.585 296.649)" fill="white" fill-opacity="0.7"/>
<circle cx="598.676" cy="525.854" r="4" transform="rotate(135.536 598.676 525.854)" fill="white" fill-opacity="0.7"/>
<circle cx="315.916" cy="393.346" r="4" transform="rotate(-170.343 315.916 393.346)" fill="white" fill-opacity="0.7"/>
<circle cx="633.576" cy="439.359" r="4" transform="rotate(-170.343 633.576 439.359)" fill="white" fill-opacity="0.7"/>
<circle cx="305.23" cy="462.197" r="4" transform="rotate(131.391 305.23 462.197)" fill="white" fill-opacity="0.7"/>
<circle cx="606.573" cy="419.425" r="4" transform="rotate(-10.4752 606.573 419.425)" fill="white" fill-opacity="0.7"/>
<circle cx="547.902" cy="300.104" r="4" transform="rotate(-10.4752 547.902 300.104)" fill="white" fill-opacity="0.7"/>
<circle cx="612.236" cy="512.546" r="4" transform="rotate(135.536 612.236 512.546)" fill="white" fill-opacity="0.7"/>
<circle cx="334.647" cy="396.533" r="4" transform="rotate(-170.343 334.647 396.533)" fill="white" fill-opacity="0.7"/>
<circle cx="652.307" cy="442.546" r="4" transform="rotate(-170.343 652.307 442.546)" fill="white" fill-opacity="0.7"/>
<circle cx="317.793" cy="447.943" r="4" transform="rotate(131.391 317.793 447.943)" fill="white" fill-opacity="0.7"/>
<circle cx="572.858" cy="391.083" r="4" transform="rotate(-10.4752 572.858 391.083)" fill="white" fill-opacity="0.7"/>
<circle cx="540.683" cy="451.063" r="4" transform="rotate(135.536 540.683 451.063)" fill="white" fill-opacity="0.7"/>
<circle cx="514.187" cy="271.761" r="4" transform="rotate(-10.4752 514.187 271.761)" fill="white" fill-opacity="0.7"/>
<circle cx="656.035" cy="517.198" r="4" transform="rotate(135.536 656.035 517.198)" fill="white" fill-opacity="0.7"/>
<circle cx="356.547" cy="434.748" r="4" transform="rotate(-170.343 356.547 434.748)" fill="white" fill-opacity="0.7"/>
<circle cx="674.206" cy="480.762" r="4" transform="rotate(-170.343 674.206 480.762)" fill="white" fill-opacity="0.7"/>
<circle cx="361.814" cy="449.418" r="4" transform="rotate(131.391 361.814 449.418)" fill="white" fill-opacity="0.7"/>
<circle cx="583.568" cy="383.001" r="4" transform="rotate(-10.4752 583.568 383.001)" fill="white" fill-opacity="0.7"/>
<circle cx="536.322" cy="463.75" r="4" transform="rotate(135.536 536.322 463.75)" fill="white" fill-opacity="0.7"/>
<circle cx="524.896" cy="263.679" r="4" transform="rotate(-10.4752 524.896 263.679)" fill="white" fill-opacity="0.7"/>
<circle cx="651.674" cy="529.886" r="4" transform="rotate(135.536 651.674 529.886)" fill="white" fill-opacity="0.7"/>
<circle cx="343.71" cy="438.65" r="4" transform="rotate(-170.343 343.71 438.65)" fill="white" fill-opacity="0.7"/>
<circle cx="661.37" cy="484.664" r="4" transform="rotate(-170.343 661.37 484.664)" fill="white" fill-opacity="0.7"/>
<circle cx="358.38" cy="462.387" r="4" transform="rotate(131.391 358.38 462.387)" fill="white" fill-opacity="0.7"/>
<circle cx="549.266" cy="367.987" r="4" transform="rotate(-10.4752 549.266 367.987)" fill="white" fill-opacity="0.7"/>
<circle cx="573.156" cy="457.023" r="4" transform="rotate(135.536 573.156 457.023)" fill="white" fill-opacity="0.7"/>
<circle cx="394.632" cy="453.016" r="4" transform="rotate(131.391 394.632 453.016)" fill="white" fill-opacity="0.7"/>
<circle cx="568.677" cy="368.466" r="4" transform="rotate(-10.4752 568.677 368.466)" fill="white" fill-opacity="0.7"/>
<circle cx="556.794" cy="467.478" r="4" transform="rotate(135.536 556.794 467.478)" fill="white" fill-opacity="0.7"/>
<circle cx="379.068" cy="464.625" r="4" transform="rotate(131.391 379.068 464.625)" fill="white" fill-opacity="0.7"/>
<circle cx="578.295" cy="354.484" r="4" transform="rotate(-10.4752 578.295 354.484)" fill="white" fill-opacity="0.7"/>
<circle cx="556.635" cy="484.447" r="4" transform="rotate(135.536 556.635 484.447)" fill="white" fill-opacity="0.7"/>
<circle cx="380.137" cy="481.562" r="4" transform="rotate(131.391 380.137 481.562)" fill="white" fill-opacity="0.7"/>
<circle cx="572.446" cy="432.854" r="4" transform="rotate(-10.4752 572.446 432.854)" fill="white" fill-opacity="0.7"/>
<circle cx="513.774" cy="313.532" r="4" transform="rotate(-10.4752 513.774 313.532)" fill="white" fill-opacity="0.7"/>
<circle cx="633.026" cy="482.333" r="4" transform="rotate(135.536 633.026 482.333)" fill="white" fill-opacity="0.7"/>
<circle cx="371.311" cy="395.671" r="4" transform="rotate(-170.343 371.311 395.671)" fill="white" fill-opacity="0.7"/>
<circle cx="688.971" cy="441.685" r="4" transform="rotate(-170.343 688.971 441.685)" fill="white" fill-opacity="0.7"/>
<circle cx="336.344" cy="416.307" r="4" transform="rotate(131.391 336.344 416.307)" fill="white" fill-opacity="0.7"/>
<circle cx="533.287" cy="468.568" r="4" transform="rotate(-10.4752 533.287 468.568)" fill="white" fill-opacity="0.7"/>
<circle cx="497.845" cy="491.392" r="4" transform="rotate(-10.4752 497.845 491.392)" fill="white" fill-opacity="0.7"/>
<circle cx="456.297" cy="475.684" r="4" transform="rotate(-10.4752 456.297 475.684)" fill="white" fill-opacity="0.7"/>
<circle cx="481.103" cy="455.844" r="4" transform="rotate(-10.4752 481.103 455.844)" fill="white" fill-opacity="0.7"/>
<circle cx="532.178" cy="396.57" r="4" transform="rotate(-10.4752 532.178 396.57)" fill="white" fill-opacity="0.7"/>
<circle cx="514.816" cy="363.17" r="4" transform="rotate(-10.4752 514.816 363.17)" fill="white" fill-opacity="0.7"/>
<circle cx="226.086" cy="270.113" r="4" transform="rotate(-10.4752 226.086 270.113)" fill="white" fill-opacity="0.7"/>
<circle cx="192.263" cy="235.688" r="4" transform="rotate(-10.4752 192.263 235.688)" fill="white" fill-opacity="0.7"/>
<circle cx="123.661" cy="205.661" r="4" transform="rotate(-10.4752 123.661 205.661)" fill="white" fill-opacity="0.7"/>
<circle cx="544.656" cy="442.059" r="4" transform="rotate(-10.4752 544.656 442.059)" fill="white" fill-opacity="0.7"/>
<circle cx="485.985" cy="322.738" r="4" transform="rotate(-10.4752 485.985 322.738)" fill="white" fill-opacity="0.7"/>
<circle cx="650.921" cy="459.165" r="4" transform="rotate(135.536 650.921 459.165)" fill="white" fill-opacity="0.7"/>
<circle cx="400.571" cy="396.593" r="4" transform="rotate(-170.343 400.571 396.593)" fill="white" fill-opacity="0.7"/>
<circle cx="718.231" cy="442.606" r="4" transform="rotate(-170.343 718.231 442.606)" fill="white" fill-opacity="0.7"/>
<circle cx="352.518" cy="391.906" r="4" transform="rotate(131.391 352.518 391.906)" fill="white" fill-opacity="0.7"/>
<circle cx="539.384" cy="413.543" r="4" transform="rotate(-10.4752 539.384 413.543)" fill="white" fill-opacity="0.7"/>
<circle cx="555.882" cy="413.727" r="4" transform="rotate(135.536 555.882 413.727)" fill="white" fill-opacity="0.7"/>
<circle cx="480.712" cy="294.221" r="4" transform="rotate(-10.4752 480.712 294.221)" fill="white" fill-opacity="0.7"/>
<circle cx="671.234" cy="479.862" r="4" transform="rotate(135.536 671.234 479.862)" fill="white" fill-opacity="0.7"/>
<circle cx="395.706" cy="425.182" r="4" transform="rotate(-170.343 395.706 425.182)" fill="white" fill-opacity="0.7"/>
<circle cx="713.366" cy="471.195" r="4" transform="rotate(-170.343 713.366 471.195)" fill="white" fill-opacity="0.7"/>
<circle cx="374.275" cy="411.081" r="4" transform="rotate(131.391 374.275 411.081)" fill="white" fill-opacity="0.7"/>
<circle cx="517.602" cy="427.74" r="4" transform="rotate(-10.4752 517.602 427.74)" fill="white" fill-opacity="0.7"/>
<circle cx="382.641" cy="386.463" r="4" transform="rotate(131.391 382.641 386.463)" fill="white" fill-opacity="0.7"/>
<circle cx="463.452" cy="415.378" r="4" transform="rotate(-10.4752 463.452 415.378)" fill="white" fill-opacity="0.7"/>
<circle cx="432.867" cy="362.749" r="4" transform="rotate(131.391 432.867 362.749)" fill="white" fill-opacity="0.7"/>
<circle cx="449.529" cy="455.58" r="4" transform="rotate(-10.4752 449.529 455.58)" fill="white" fill-opacity="0.7"/>
<circle cx="418.994" cy="322.53" r="4" transform="rotate(131.391 418.994 322.53)" fill="white" fill-opacity="0.7"/>
<circle cx="433.714" cy="491.046" r="4" transform="rotate(-10.4752 433.714 491.046)" fill="white" fill-opacity="0.7"/>
<circle cx="453.117" cy="518.984" r="4" transform="rotate(-10.4752 453.117 518.984)" fill="white" fill-opacity="0.7"/>
<circle cx="493.101" cy="399.727" r="4" transform="rotate(-10.4752 493.101 399.727)" fill="white" fill-opacity="0.7"/>
<circle cx="419.211" cy="393.368" r="4" transform="rotate(131.391 419.211 393.368)" fill="white" fill-opacity="0.7"/>
<circle cx="487.846" cy="437.309" r="4" transform="rotate(-10.4752 487.846 437.309)" fill="white" fill-opacity="0.7"/>
<circle cx="400.137" cy="360.562" r="4" transform="rotate(131.391 400.137 360.562)" fill="white" fill-opacity="0.7"/>
<circle cx="509.421" cy="383.49" r="4" transform="rotate(-10.4752 509.421 383.49)" fill="white" fill-opacity="0.7"/>
<circle cx="597.527" cy="421.894" r="4" transform="rotate(135.536 597.527 421.894)" fill="white" fill-opacity="0.7"/>
<circle cx="416.401" cy="416.217" r="4" transform="rotate(131.391 416.401 416.217)" fill="white" fill-opacity="0.7"/>
<circle cx="530.765" cy="372.425" r="4" transform="rotate(-10.4752 530.765 372.425)" fill="white" fill-opacity="0.7"/>
<circle cx="586.015" cy="443.001" r="4" transform="rotate(135.536 586.015 443.001)" fill="white" fill-opacity="0.7"/>
<circle cx="406.445" cy="438.101" r="4" transform="rotate(131.391 406.445 438.101)" fill="white" fill-opacity="0.7"/>
<circle cx="548.424" cy="385.431" r="4" transform="rotate(-10.4752 548.424 385.431)" fill="white" fill-opacity="0.7"/>
<circle cx="564.102" cy="442.089" r="4" transform="rotate(135.536 564.102 442.089)" fill="white" fill-opacity="0.7"/>
<circle cx="384.523" cy="438.775" r="4" transform="rotate(131.391 384.523 438.775)" fill="white" fill-opacity="0.7"/>
<circle cx="540.788" cy="344.131" r="4" transform="rotate(-10.4752 540.788 344.131)" fill="white" fill-opacity="0.7"/>
<circle cx="593.522" cy="472.064" r="4" transform="rotate(135.536 593.522 472.064)" fill="white" fill-opacity="0.7"/>
<circle cx="416.032" cy="466.545" r="4" transform="rotate(131.391 416.032 466.545)" fill="white" fill-opacity="0.7"/>
<circle cx="553.356" cy="329.604" r="4" transform="rotate(-10.4752 553.356 329.604)" fill="white" fill-opacity="0.7"/>
<circle cx="591.222" cy="491.135" r="4" transform="rotate(135.536 591.222 491.135)" fill="white" fill-opacity="0.7"/>
<circle cx="415.117" cy="485.732" r="4" transform="rotate(131.391 415.117 485.732)" fill="white" fill-opacity="0.7"/>
<circle cx="491.944" cy="371.467" r="4" transform="rotate(-10.4752 491.944 371.467)" fill="white" fill-opacity="0.7"/>
<circle cx="437.572" cy="414.882" r="4" transform="rotate(131.391 437.572 414.882)" fill="white" fill-opacity="0.7"/>
<circle cx="474.277" cy="385.92" r="4" transform="rotate(-10.4752 474.277 385.92)" fill="white" fill-opacity="0.7"/>
<circle cx="442.543" cy="392.605" r="4" transform="rotate(131.391 442.543 392.605)" fill="white" fill-opacity="0.7"/>
<circle cx="496.901" cy="354.279" r="4" transform="rotate(-10.4752 496.901 354.279)" fill="white" fill-opacity="0.7"/>
<circle cx="624.237" cy="439.115" r="4" transform="rotate(135.536 624.237 439.115)" fill="white" fill-opacity="0.7"/>
<circle cx="444.286" cy="431.463" r="4" transform="rotate(131.391 444.286 431.463)" fill="white" fill-opacity="0.7"/>
<circle cx="503.718" cy="330.646" r="4" transform="rotate(-10.4752 503.718 330.646)" fill="white" fill-opacity="0.7"/>
<circle cx="631.797" cy="462.522" r="4" transform="rotate(135.536 631.797 462.522)" fill="white" fill-opacity="0.7"/>
<circle cx="453.517" cy="454.262" r="4" transform="rotate(131.391 453.517 454.262)" fill="white" fill-opacity="0.7"/>
<circle cx="485.035" cy="334.1" r="4" transform="rotate(-10.4752 485.035 334.1)" fill="white" fill-opacity="0.7"/>
<circle cx="466.08" cy="440.008" r="4" transform="rotate(131.391 466.08 440.008)" fill="white" fill-opacity="0.7"/>
<circle cx="469.913" cy="362.32" r="4" transform="rotate(-10.4752 469.913 362.32)" fill="white" fill-opacity="0.7"/>
<circle cx="460.549" cy="408.473" r="4" transform="rotate(131.391 460.549 408.473)" fill="white" fill-opacity="0.7"/>
<circle cx="497.173" cy="295.246" r="4" transform="rotate(-10.4752 497.173 295.246)" fill="white" fill-opacity="0.7"/>
<circle cx="657.013" cy="488.214" r="4" transform="rotate(135.536 657.013 488.214)" fill="white" fill-opacity="0.7"/>
<circle cx="480.525" cy="478.065" r="4" transform="rotate(131.391 480.525 478.065)" fill="white" fill-opacity="0.7"/>
<circle cx="468.144" cy="308.748" r="4" transform="rotate(-10.4752 468.144 308.748)" fill="white" fill-opacity="0.7"/>
<circle cx="495.02" cy="449.519" r="4" transform="rotate(131.391 495.02 449.519)" fill="white" fill-opacity="0.7"/>
<circle cx="439.586" cy="330.3" r="4" transform="rotate(-10.4752 439.586 330.3)" fill="white" fill-opacity="0.7"/>
<circle cx="504.175" cy="414.933" r="4" transform="rotate(131.391 504.175 414.933)" fill="white" fill-opacity="0.7"/>
<circle cx="584.298" cy="392.891" r="4" transform="rotate(-82.5979 584.298 392.891)" fill="white" fill-opacity="0.7"/>
<circle cx="423.597" cy="337.324" r="4" transform="rotate(-10.4752 423.597 337.324)" fill="white" fill-opacity="0.7"/>
<circle cx="512.415" cy="399.534" r="4" transform="rotate(131.391 512.415 399.534)" fill="white" fill-opacity="0.7"/>
<circle cx="586.075" cy="410.265" r="4" transform="rotate(-82.5979 586.075 410.265)" fill="white" fill-opacity="0.7"/>
<circle cx="458.229" cy="343.124" r="4" transform="rotate(-10.4752 458.229 343.124)" fill="white" fill-opacity="0.7"/>
<circle cx="481.593" cy="416.357" r="4" transform="rotate(131.391 481.593 416.357)" fill="white" fill-opacity="0.7"/>
<circle cx="435.1" cy="355.536" r="4" transform="rotate(-10.4752 435.1 355.536)" fill="white" fill-opacity="0.7"/>
<circle cx="492.121" cy="392.312" r="4" transform="rotate(131.391 492.121 392.312)" fill="white" fill-opacity="0.7"/>
<circle cx="423.53" cy="314.963" r="4" transform="rotate(-10.4752 423.53 314.963)" fill="white" fill-opacity="0.7"/>
<circle cx="526.274" cy="417.081" r="4" transform="rotate(131.391 526.274 417.081)" fill="white" fill-opacity="0.7"/>
<circle cx="564.773" cy="403.464" r="4" transform="rotate(-82.5979 564.773 403.464)" fill="white" fill-opacity="0.7"/>
<circle cx="451.32" cy="305.757" r="4" transform="rotate(-10.4752 451.32 305.757)" fill="white" fill-opacity="0.7"/>
<circle cx="510.101" cy="441.482" r="4" transform="rotate(131.391 510.101 441.482)" fill="white" fill-opacity="0.7"/>
<circle cx="367.306" cy="296.884" r="4" transform="rotate(-10.4752 367.306 296.884)" fill="white" fill-opacity="0.7"/>
<circle cx="373.422" cy="307.957" r="4" transform="rotate(-10.4752 373.422 307.957)" fill="white" fill-opacity="0.7"/>
<circle cx="403.352" cy="326.83" r="4" transform="rotate(-10.4752 403.352 326.83)" fill="white" fill-opacity="0.7"/>
<circle cx="413.466" cy="359.536" r="4" transform="rotate(-10.4752 413.466 359.536)" fill="white" fill-opacity="0.7"/>
<circle cx="399.715" cy="307.163" r="4" transform="rotate(-10.4752 399.715 307.163)" fill="white" fill-opacity="0.7"/>
<circle cx="391.659" cy="335.093" r="4" transform="rotate(-10.4752 391.659 335.093)" fill="white" fill-opacity="0.7"/>
<circle cx="436.611" cy="292.206" r="4" transform="rotate(-10.4752 436.611 292.206)" fill="white" fill-opacity="0.7"/>
<circle cx="530.038" cy="443.059" r="4" transform="rotate(131.391 530.038 443.059)" fill="white" fill-opacity="0.7"/>
<circle cx="627.646" cy="467.394" r="4" transform="rotate(-10.4752 627.646 467.394)" fill="white" fill-opacity="0.7"/>
<circle cx="568.974" cy="348.072" r="4" transform="rotate(-10.4752 568.974 348.072)" fill="white" fill-opacity="0.7"/>
<circle cx="567.948" cy="484.553" r="4" transform="rotate(135.536 567.948 484.553)" fill="white" fill-opacity="0.7"/>
<circle cx="331.373" cy="344.243" r="4" transform="rotate(-170.343 331.373 344.243)" fill="white" fill-opacity="0.7"/>
<circle cx="649.033" cy="390.256" r="4" transform="rotate(-170.343 649.033 390.256)" fill="white" fill-opacity="0.7"/>
<circle cx="477.986" cy="494.332" r="4" transform="rotate(-24.3318 477.986 494.332)" fill="white" fill-opacity="0.7"/>
<circle cx="599.385" cy="468.551" r="4" transform="rotate(-10.4752 599.385 468.551)" fill="white" fill-opacity="0.7"/>
<circle cx="540.713" cy="349.229" r="4" transform="rotate(-10.4752 540.713 349.229)" fill="white" fill-opacity="0.7"/>
<circle cx="590.733" cy="467.795" r="4" transform="rotate(135.536 590.733 467.795)" fill="white" fill-opacity="0.7"/>
<circle cx="358.305" cy="352.883" r="4" transform="rotate(-170.343 358.305 352.883)" fill="white" fill-opacity="0.7"/>
<circle cx="675.965" cy="398.897" r="4" transform="rotate(-170.343 675.965 398.897)" fill="white" fill-opacity="0.7"/>
<circle cx="661.832" cy="503.785" r="4" transform="rotate(-10.4752 661.832 503.785)" fill="white" fill-opacity="0.7"/>
<circle cx="732.423" cy="539.147" r="4" transform="rotate(-10.4752 732.423 539.147)" fill="white" fill-opacity="0.7"/>
<circle cx="734.905" cy="563.494" r="4" transform="rotate(-10.4752 734.905 563.494)" fill="white" fill-opacity="0.7"/>
<circle cx="719.948" cy="526.599" r="4" transform="rotate(-10.4752 719.948 526.599)" fill="white" fill-opacity="0.7"/>
<circle cx="770.555" cy="577.135" r="4" transform="rotate(-10.4752 770.555 577.135)" fill="white" fill-opacity="0.7"/>
<circle cx="607.269" cy="533.195" r="4" transform="rotate(-10.4752 607.269 533.195)" fill="white" fill-opacity="0.7"/>
<circle cx="637.893" cy="544.821" r="4" transform="rotate(-10.4752 637.893 544.821)" fill="white" fill-opacity="0.7"/>
</svg>
