<svg width="176" height="149" viewBox="0 0 176 149" fill="none" xmlns="http://www.w3.org/2000/svg">
<path d="M163.053 7.82837H162.891H161.938V12.3183C161.38 14.9375 162.563 22.8011 159.741 30.2597C157.633 35.83 156.016 38.175 153.569 45.3144C151.762 50.5835 150.189 53.5973 149.956 62.9283C149.805 68.9501 151.16 74.6709 151.762 77.0796C152.703 80.8433 154.12 86.4135 155.994 90.8929C157.332 94.0913 158.147 99.1358 158.838 104.78C159.483 110.049 159.836 113.211 160.795 119.684C161.397 123.749 161.938 128.384 161.938 132.425V135.793H162.891H163.053H164.006V132.425C164.006 128.384 164.547 123.749 165.149 119.684C166.108 113.211 166.461 110.049 167.106 104.78C167.797 99.1358 168.612 94.0913 169.95 90.8929C171.824 86.4135 173.241 80.8433 174.182 77.0796C174.784 74.6709 176.139 68.9501 175.988 62.9283C175.755 53.5973 174.182 50.5835 172.375 45.3144C169.928 38.175 168.311 35.83 166.203 30.2597C163.381 22.8011 164.564 14.9375 164.006 12.3183V7.82837H163.053Z" fill="#505459" fill-opacity="0.3"/>
<path d="M51.816 27.0981H51.7599H51.3177L50.4144 30.6267C49.7137 32.6851 46.5602 39.2924 45.509 41.8517C44.8152 44.411 44.2476 45.8974 44.2476 50.1317C44.2476 52.1901 45.0044 54.347 46.5602 59.8459C48.0318 67.1434 45.509 73.4109 45.509 78.7038V85.761C45.3922 86.9372 45.0184 89.9071 44.4578 92.3771C43.9906 94.8765 43.0563 100.316 43.0563 102.081C43.1731 104.874 43.8271 111.079 45.509 113.549C47.1441 116.048 49.5298 122.544 50.4144 125.017L51.3177 127.663H51.7599H51.816H52.5593L53.1615 125.017C53.5945 123.749 56.4318 116.048 58.0669 113.549C59.7488 111.079 60.4028 104.874 60.5196 102.081C60.5196 100.316 59.5853 94.8765 59.1181 92.3771C58.5575 89.9071 58.1837 86.9372 58.0669 85.761V78.7038C58.0669 73.4109 55.5441 67.1434 57.0157 59.8459C58.5715 54.347 59.3283 52.1901 59.3283 50.1317C59.3283 45.8974 58.7607 44.411 58.0669 41.8517C57.0157 39.2924 53.8623 32.6851 53.1615 30.6267L52.2582 27.0981H51.816Z" fill="#505459" fill-opacity="0.3"/>
<path d="M126.121 27.3994H125.592H125.148L124.144 30.7419C123.849 31.4742 124.045 35.4215 121.673 37.7984C119.367 39.2839 114.558 43.6664 113.767 49.3115V53.0254C113.602 54.7586 112.809 56.9065 112.284 58.9677C111.79 60.577 110.802 64.3157 110.802 66.3955C110.802 68.8715 111.395 74.4918 113.767 77.1659C116.073 79.518 120.685 85.0394 120.685 88.3076C121.179 92.0215 122.563 100.638 124.144 105.392L125.148 111.705H125.592H126.121H126.565L127.569 105.392C129.15 100.638 130.534 92.0215 131.028 88.3076C131.028 85.0394 135.64 79.518 137.946 77.1659C140.318 74.4918 140.911 68.8715 140.911 66.3955C140.911 64.3157 139.923 60.577 139.429 58.9677C139.055 57.7495 138.111 54.7586 137.946 53.0254V49.3115C137.156 43.6664 132.346 39.2839 130.04 37.7984C127.668 35.4215 127.864 31.4742 127.569 30.7419L126.565 27.3994H126.121Z" fill="#337AB7" fill-opacity="0.3"/>
<path d="M89.7149 32.217H88.8223V146.933H89.7149L90.7021 142.884C90.7021 134.247 95.7149 126.689 98.2213 123.99C103.109 118.052 104.017 109.819 103.861 106.445C103.861 97.2679 99.7878 89.5751 97.7513 86.8759C95.8715 84.1767 94.1484 79.0033 93.5218 76.7539V65.2823C93.5218 59.8839 91.642 48.6372 90.7021 43.6887L89.7149 32.217Z" fill="#337AB7" fill-opacity="0.3"/>
<path d="M87.9297 32.217H88.8223V146.933H87.9297L86.9425 142.884C86.9425 134.247 81.9297 126.689 79.4233 123.99C74.5359 118.052 73.6273 109.819 73.784 106.445C73.784 97.2679 77.8569 89.5751 79.8933 86.8759C81.7731 84.1767 83.4962 79.0033 84.1228 76.7539V65.2823C84.1228 59.8839 86.0026 48.6372 86.9425 43.6887L87.9297 32.217Z" fill="#337AB7" fill-opacity="0.3"/>
<path d="M16.1698 1.80664H15.0546V102.371H16.1698V99.725C16.1698 96.5493 18.7718 90.7565 20.0728 88.2571C21.411 85.7871 21.9314 79.5827 22.0243 76.7892C22.0243 75.0249 21.2809 69.585 20.9092 67.0856C20.4631 64.6156 20.1658 61.6457 20.0728 60.4695V53.4123C20.0728 48.1194 24.9052 40.6211 27.3213 37.5336C29.5517 35.0636 30.1092 30.3294 30.1092 28.2711C30.1092 24.0368 25.2769 18.2734 22.8607 15.921C18.8461 12.3924 16.7274 7.39358 16.1698 5.33523V1.80664Z" fill="#505459" fill-opacity="0.3"/>
<path d="M13.9395 1.80664L15.0546 1.80664V102.371H13.9395V99.725C13.9395 96.5493 11.3374 90.7565 10.0364 88.2571C8.69822 85.7871 8.17782 79.5827 8.08489 76.7892C8.08489 75.0249 8.82832 69.585 9.20004 67.0856C9.64611 64.6156 9.94348 61.6457 10.0364 60.4695V53.4123C10.0364 48.1194 5.20406 40.6211 2.78789 37.5336C0.557579 35.0636 0 30.3294 0 28.2711C0 24.0368 4.83235 18.2734 7.24852 15.921C11.2631 12.3924 13.3819 7.39358 13.9395 5.33523V1.80664Z" fill="#505459" fill-opacity="0.3"/>
<path d="M12.0436 19.7602C12.0436 19.4188 12.3611 19.142 12.7527 19.142H14.8463H16.9399C17.3315 19.142 17.649 19.4188 17.649 19.7602V69.8321C17.649 70.1735 17.3315 70.4503 16.9399 70.4503H12.7527C12.3611 70.4503 12.0436 70.1735 12.0436 69.8321V19.7602Z" fill="#505459" fill-opacity="0.4"/>
<path d="M13.8361 1.83853H15.8565V19.6056H13.8361V1.83853Z" fill="#505459" fill-opacity="0.8"/>
<path d="M15.8565 102.259H13.8361V70.2957H15.8565V102.259Z" fill="#505459" fill-opacity="0.8"/>
<path d="M11.7622 0H17.9304V1.83853H14.8463H11.7622V0Z" fill="#505459" fill-opacity="0.8"/>
<path d="M17.9304 104.098H11.7622L11.7622 102.259H17.9304V104.098Z" fill="#505459" fill-opacity="0.8"/>
<path d="M12.0437 51.4868H14.8288H17.6139" stroke="#505459" stroke-opacity="0.8" stroke-width="2"/>
<path d="M12.0437 49.078H14.8288H17.6139" stroke="#505459" stroke-opacity="0.8" stroke-width="2" stroke-dasharray="4 4"/>
<path d="M49.078 39.9334C49.078 39.592 49.3955 39.3152 49.7871 39.3152H51.8807H53.9743C54.3659 39.3152 54.6834 39.592 54.6834 39.9334V102.049C54.6834 102.39 54.3659 102.667 53.9743 102.667H49.7871C49.3955 102.667 49.078 102.39 49.078 102.049V39.9334Z" fill="#505459" fill-opacity="0.4"/>
<path d="M50.8705 28.0336H52.8909V39.7789H50.8705V28.0336Z" fill="#505459" fill-opacity="0.8"/>
<path d="M52.8909 131.465H50.8705V102.513H52.8909V131.465Z" fill="#505459" fill-opacity="0.8"/>
<path d="M48.7966 26.1951H54.9648V28.0336H51.8807H48.7966V26.1951Z" fill="#505459" fill-opacity="0.8"/>
<path d="M54.9648 133.304H48.7966L48.7966 131.465H54.9648V133.304Z" fill="#505459" fill-opacity="0.8"/>
<path d="M49.078 71.7H51.8631H54.6482" stroke="#505459" stroke-opacity="0.8" stroke-width="2"/>
<path d="M49.078 78.2839H51.8631H54.6482" stroke="#505459" stroke-opacity="0.8" stroke-width="2" stroke-dasharray="4 4"/>
<path d="M86.1124 61.612C86.1124 61.2706 86.4299 60.9938 86.8216 60.9938H88.9151H91.0087C91.4003 60.9938 91.7178 61.2706 91.7178 61.612V105.662C91.7178 106.003 91.4003 106.28 91.0087 106.28H86.8216C86.4299 106.28 86.1124 106.003 86.1124 105.662V61.612Z" fill="#337AB7" fill-opacity="0.4"/>
<path d="M87.9049 31.6466H89.9253V61.4574H87.9049V31.6466Z" fill="#337AB7" fill-opacity="0.9"/>
<path d="M89.9253 147.122H87.9049V106.126H89.9253V147.122Z" fill="#337AB7" fill-opacity="0.9"/>
<path d="M85.8311 29.8081H91.9992V31.6466H88.9151H85.8311V29.8081Z" fill="#337AB7" fill-opacity="0.9"/>
<path d="M91.9992 148.961H85.8311L85.8311 147.122H91.9992V148.961Z" fill="#337AB7" fill-opacity="0.9"/>
<path d="M86.1125 90.3678H88.8977H91.6828" stroke="#337AB7" stroke-opacity="0.9" stroke-width="2"/>
<path d="M86.1125 81.8972H88.8977H91.6828" stroke="#337AB7" stroke-opacity="0.9" stroke-width="2" stroke-dasharray="4 4"/>
<path d="M123.147 60.709C123.147 60.3676 123.464 60.0909 123.856 60.0909H125.949H128.043C128.435 60.0909 128.752 60.3676 128.752 60.709V92.7154C128.752 93.0568 128.435 93.3336 128.043 93.3336H123.856C123.464 93.3336 123.147 93.0568 123.147 92.7154V60.709Z" fill="#337AB7" fill-opacity="0.4"/>
<path d="M124.939 24.7218H126.96V60.5545H124.939V24.7218Z" fill="#337AB7" fill-opacity="0.9"/>
<path d="M126.96 116.11H124.939V93.179H126.96V116.11Z" fill="#337AB7" fill-opacity="0.9"/>
<path d="M122.865 22.8833H129.034V24.7218H125.949H122.865V22.8833Z" fill="#337AB7" fill-opacity="0.9"/>
<path d="M129.034 117.949H122.865L122.865 116.11H129.034V117.949Z" fill="#337AB7" fill-opacity="0.9"/>
<path d="M123.147 69.8934H125.932H128.717" stroke="#337AB7" stroke-opacity="0.9" stroke-width="2"/>
<path d="M123.147 73.7678H125.932H128.717" stroke="#337AB7" stroke-opacity="0.9" stroke-width="2" stroke-dasharray="4 4"/>
<path d="M160.181 40.8368C160.181 40.4954 160.499 40.2186 160.89 40.2186H162.984H165.077C165.469 40.2186 165.786 40.4954 165.786 40.8368V96.9305C165.786 97.2719 165.469 97.5487 165.077 97.5487H160.89C160.499 97.5487 160.181 97.2719 160.181 96.9305V40.8368Z" fill="#505459" fill-opacity="0.4"/>
<path d="M161.974 7.8605H163.994V40.6822H161.974V7.8605Z" fill="#505459" fill-opacity="0.8"/>
<path d="M163.994 135.38H161.974V97.3942H163.994V135.38Z" fill="#505459" fill-opacity="0.8"/>
<path d="M159.9 6.02197H166.068V7.8605H162.984H159.9V6.02197Z" fill="#505459" fill-opacity="0.8"/>
<path d="M166.068 137.218H159.9L159.9 135.38H166.068V137.218Z" fill="#505459" fill-opacity="0.8"/>
<path d="M160.181 74.1088H162.966H165.751" stroke="#505459" stroke-opacity="0.8" stroke-width="2"/>
<path d="M160.181 71.6602H162.966H165.751" stroke="#505459" stroke-opacity="0.8" stroke-width="2" stroke-dasharray="4 4"/>
</svg>
