<svg width="784" height="734" viewBox="0 0 784 734" fill="none" xmlns="http://www.w3.org/2000/svg">
<path d="M670.538 167H670H666.835V181.912C664.983 190.611 668.912 216.728 659.538 241.5C652.538 260 647.168 267.788 639.038 291.5C633.038 309 627.813 319.01 627.038 350C626.538 370 631.038 389 633.038 397C636.163 409.5 640.87 428 647.094 442.877C651.538 453.5 654.243 470.254 656.538 489C658.681 506.5 659.853 517 663.038 538.5C665.038 552 666.835 567.395 666.835 580.816V592H670H670.538H673.704V580.816C673.704 567.395 675.5 552 677.5 538.5C680.685 517 681.857 506.5 684 489C686.295 470.254 689 453.5 693.444 442.877C699.669 428 704.375 409.5 707.5 397C709.5 389 714 370 713.5 350C712.725 319.01 707.5 309 701.5 291.5C693.37 267.788 688 260 681 241.5C671.627 216.728 675.556 190.611 673.704 181.912V167H670.538Z" fill="#505459" fill-opacity="0.3"/>
<path d="M301.093 231H300.907H299.438L296.438 242.719C294.111 249.556 283.637 271.5 280.146 280C277.842 288.5 275.957 293.437 275.957 307.5C275.957 314.336 278.47 321.5 283.637 339.763C288.525 364 280.146 384.816 280.146 402.395V425.833C279.758 429.74 278.517 439.604 276.655 447.807C275.103 456.108 272 474.175 272 480.035C272.388 489.313 274.56 509.919 280.146 518.123C285.577 526.424 293.5 548 296.438 556.211L299.438 565H300.907H301.093H303.562L305.562 556.211C307 552 316.423 526.424 321.854 518.123C327.44 509.919 329.612 489.313 330 480.035C330 474.175 326.897 456.108 325.345 447.807C323.483 439.604 322.242 429.74 321.854 425.833V402.395C321.854 384.816 313.475 364 318.363 339.763C323.53 321.5 326.043 314.336 326.043 307.5C326.043 293.437 324.158 288.5 321.854 280C318.363 271.5 307.889 249.556 305.562 242.719L302.562 231H301.093Z" fill="#505459" fill-opacity="0.3"/>
<path d="M547.877 232H546.123H544.646L541.312 243.101C540.333 245.533 540.984 258.643 533.106 266.537C525.447 271.471 509.473 286.026 506.847 304.775V317.11C506.3 322.866 503.667 330 501.924 336.846C500.282 342.191 497 354.608 497 361.515C497 369.739 498.969 388.405 506.847 397.286C514.506 405.098 529.824 423.436 529.824 434.291C531.465 446.626 536.061 475.242 541.312 491.031L544.646 512H546.123H547.877H549.354L552.688 491.031C557.939 475.242 562.535 446.626 564.176 434.291C564.176 423.436 579.494 405.098 587.153 397.286C595.031 388.405 597 369.739 597 361.515C597 354.608 593.718 342.191 592.076 336.846C590.834 332.8 587.7 322.866 587.153 317.11V304.775C584.527 286.026 568.553 271.471 560.894 266.537C553.016 258.643 553.667 245.533 552.688 243.101L549.354 232H547.877Z" fill="#505459" fill-opacity="0.3"/>
<path d="M426.965 248H424V629H426.965L430.243 615.553C430.243 586.866 446.892 561.765 455.216 552.8C471.449 533.078 474.466 505.735 473.946 494.529C473.946 464.049 460.419 438.5 453.655 429.535C447.412 420.571 441.689 403.388 439.608 395.918V357.818C439.608 339.888 433.365 302.535 430.243 286.1L426.965 248Z" fill="#505459" fill-opacity="0.3"/>
<path d="M421.035 248H424V629H421.035L417.757 615.553C417.757 586.866 401.108 561.765 392.784 552.8C376.551 533.078 373.534 505.735 374.054 494.529C374.054 464.049 387.581 438.5 394.345 429.535C400.588 420.571 406.311 403.388 408.392 395.918V357.818C408.392 339.888 414.635 302.535 417.757 286.1L421.035 248Z" fill="#505459" fill-opacity="0.3"/>
<path d="M182.704 147H179V481H182.704V472.211C182.704 461.663 191.346 442.424 195.667 434.123C200.111 425.919 201.84 405.313 202.148 396.035C202.148 390.175 199.679 372.108 198.444 363.807C196.963 355.604 195.975 345.74 195.667 341.833V318.395C195.667 300.816 211.716 275.912 219.741 265.658C227.148 257.454 229 241.731 229 234.895C229 220.832 212.951 201.69 204.926 193.877C191.593 182.158 184.556 165.556 182.704 158.719V147Z" fill="#505459" fill-opacity="0.3"/>
<path d="M175.296 147L179 147V481H175.296V472.211C175.296 461.663 166.654 442.424 162.333 434.123C157.889 425.919 156.16 405.313 155.852 396.035C155.852 390.175 158.321 372.108 159.556 363.807C161.037 355.604 162.025 345.74 162.333 341.833V318.395C162.333 300.816 146.284 275.912 138.259 265.658C130.852 257.454 129 241.731 129 234.895C129 220.832 145.049 201.69 153.074 193.877C166.407 182.158 173.444 165.556 175.296 158.719V147Z" fill="#505459" fill-opacity="0.3"/>
<rect x="64" y="68" width="5" height="611" rx="2.5" fill="#505459"/>
<rect x="784" y="675" width="5.00004" height="720" rx="2.50002" transform="rotate(90 784 675)" fill="#505459"/>
<path d="M169 206.628C169 205.494 170.054 204.575 171.355 204.575H178.308H185.262C186.562 204.575 187.617 205.494 187.617 206.628V372.929C187.617 374.063 186.562 374.982 185.262 374.982H171.355C170.054 374.982 169 374.063 169 372.929V206.628Z" fill="#505459" fill-opacity="0.5"/>
<path d="M174.953 147.106H181.664V206.115H174.953V147.106Z" fill="#505459"/>
<path d="M181.664 480.628H174.953V374.469H181.664V480.628Z" fill="#505459"/>
<path d="M168.065 141H188.551V147.106H178.308H168.065V141Z" fill="#505459"/>
<path d="M188.551 486.734H168.065L168.065 480.628H188.551V486.734Z" fill="#505459"/>
<path d="M169 312H178.25H187.5" stroke="#505459" stroke-width="2"/>
<path d="M169 304H178.25H187.5" stroke="#505459" stroke-width="2" stroke-dasharray="4 4"/>
<path d="M292 273.628C292 272.494 293.054 271.575 294.355 271.575H301.308H308.262C309.562 271.575 310.617 272.494 310.617 273.628V479.929C310.617 481.063 309.562 481.982 308.262 481.982H294.355C293.054 481.982 292 481.063 292 479.929V273.628Z" fill="#505459" fill-opacity="0.5"/>
<path d="M297.953 234.106H304.664V273.115H297.953V234.106Z" fill="#505459"/>
<path d="M304.664 577.628H297.953V481.469H304.664V577.628Z" fill="#505459"/>
<path d="M291.065 228H311.551V234.106H301.308H291.065V228Z" fill="#505459"/>
<path d="M311.551 583.734H291.065L291.065 577.628H311.551V583.734Z" fill="#505459"/>
<path d="M292 379.133H301.25H310.5" stroke="#505459" stroke-width="2"/>
<path d="M292 401H301.25H310.5" stroke="#505459" stroke-width="2" stroke-dasharray="4 4"/>
<path d="M415 345.628C415 344.494 416.054 343.575 417.355 343.575H424.308H431.262C432.562 343.575 433.617 344.494 433.617 345.628V491.929C433.617 493.063 432.562 493.982 431.262 493.982H417.355C416.054 493.982 415 493.063 415 491.929V345.628Z" fill="#505459" fill-opacity="0.5"/>
<path d="M420.953 246.106H427.664V345.115H420.953V246.106Z" fill="#505459"/>
<path d="M427.664 629.628H420.953V493.469H427.664V629.628Z" fill="#505459"/>
<path d="M414.065 240H434.551V246.106H424.308H414.065V240Z" fill="#505459"/>
<path d="M434.551 635.734H414.065L414.065 629.628H434.551V635.734Z" fill="#505459"/>
<path d="M415 441.133H424.25H433.5" stroke="#505459" stroke-width="2"/>
<path d="M415 413H424.25H433.5" stroke="#505459" stroke-width="2" stroke-dasharray="4 4"/>
<path d="M538 342.628C538 341.494 539.054 340.575 540.355 340.575H547.308H554.262C555.562 340.575 556.617 341.494 556.617 342.628V448.929C556.617 450.063 555.562 450.982 554.262 450.982H540.355C539.054 450.982 538 450.063 538 448.929V342.628Z" fill="#505459" fill-opacity="0.5"/>
<path d="M543.953 223.106H550.664V342.115H543.953V223.106Z" fill="#505459"/>
<path d="M550.664 526.628H543.953V450.469H550.664V526.628Z" fill="#505459"/>
<path d="M537.065 217H557.551V223.106H547.308H537.065V217Z" fill="#505459"/>
<path d="M557.551 532.734H537.065L537.065 526.628H557.551V532.734Z" fill="#505459"/>
<path d="M538 373.133H547.25H556.5" stroke="#505459" stroke-width="2"/>
<path d="M538 386H547.25H556.5" stroke="#505459" stroke-width="2" stroke-dasharray="4 4"/>
<path d="M661 276.628C661 275.494 662.054 274.575 663.355 274.575H670.308H677.262C678.562 274.575 679.617 275.494 679.617 276.628V462.929C679.617 464.063 678.562 464.982 677.262 464.982H663.355C662.054 464.982 661 464.063 661 462.929V276.628Z" fill="#505459" fill-opacity="0.5"/>
<path d="M666.953 167.106H673.664V276.115H666.953V167.106Z" fill="#505459"/>
<path d="M673.664 590.628H666.953V464.469H673.664V590.628Z" fill="#505459"/>
<path d="M660.065 161H680.551V167.106H670.308H660.065V161Z" fill="#505459"/>
<path d="M680.551 596.734H660.065L660.065 590.628H680.551V596.734Z" fill="#505459"/>
<path d="M661 387.133H670.25H679.5" stroke="#505459" stroke-width="2"/>
<path d="M661 379H670.25H679.5" stroke="#505459" stroke-width="2" stroke-dasharray="4 4"/>
<path d="M6 512.328L30 512.328L30 516.469L6 516.469L6 512.328ZM21.7187 509.125L21.3906 509.125C20.151 509.125 19.0104 508.948 17.9687 508.594C16.9167 508.24 16.0052 507.724 15.2344 507.047C14.4635 506.37 13.8646 505.542 13.4375 504.562C13 503.583 12.7812 502.469 12.7812 501.219C12.7812 499.948 13 498.823 13.4375 497.844C13.8646 496.854 14.4635 496.021 15.2344 495.344C16.0052 494.667 16.9167 494.151 17.9687 493.797C19.0104 493.443 20.151 493.266 21.3906 493.266L21.7187 493.266C22.9479 493.266 24.0885 493.443 25.1406 493.797C26.1823 494.151 27.0937 494.667 27.875 495.344C28.6458 496.021 29.2448 496.849 29.6719 497.828C30.099 498.807 30.3125 499.927 30.3125 501.187C30.3125 502.437 30.099 503.557 29.6719 504.547C29.2448 505.536 28.6458 506.37 27.875 507.047C27.0937 507.724 26.1823 508.24 25.1406 508.594C24.0885 508.948 22.9479 509.125 21.7187 509.125ZM21.3906 505L21.7187 505C22.4583 505 23.151 504.927 23.7969 504.781C24.4427 504.635 25.0104 504.411 25.5 504.109C25.9896 503.807 26.375 503.417 26.6562 502.937C26.9271 502.448 27.0625 501.865 27.0625 501.187C27.0625 500.521 26.9271 499.948 26.6562 499.469C26.375 498.99 25.9896 498.599 25.5 498.297C25.0104 497.984 24.4427 497.755 23.7969 497.609C23.151 497.464 22.4583 497.391 21.7187 497.391L21.3906 497.391C20.6615 497.391 19.9792 497.464 19.3437 497.609C18.6979 497.755 18.1302 497.984 17.6406 498.297C17.1406 498.599 16.75 498.995 16.4687 499.484C16.1771 499.964 16.0312 500.542 16.0312 501.219C16.0312 501.885 16.1771 502.458 16.4687 502.937C16.75 503.417 17.1406 503.807 17.6406 504.109C18.1302 504.411 18.6979 504.635 19.3437 504.781C19.9792 504.927 20.6615 505 21.3906 505ZM13.0937 479.516L13.0937 475.766L29.4844 475.766C31.0156 475.766 32.3125 476.099 33.375 476.766C34.4479 477.422 35.2604 478.344 35.8125 479.531C36.375 480.719 36.6562 482.099 36.6562 483.672C36.6562 484.349 36.5625 485.083 36.375 485.875C36.1875 486.656 35.8906 487.411 35.4844 488.141C35.0885 488.859 34.5729 489.458 33.9375 489.937L31.5 488.078C32.1562 487.516 32.651 486.88 32.9844 486.172C33.3281 485.464 33.5 484.698 33.5 483.875C33.5 483.042 33.3437 482.333 33.0312 481.75C32.7292 481.156 32.2812 480.703 31.6875 480.391C31.1042 480.068 30.3854 479.906 29.5312 479.906L16.9531 479.906L13.0937 479.516ZM21.75 490.937L21.4219 490.937C20.1302 490.937 18.9583 490.781 17.9062 490.469C16.8437 490.156 15.9323 489.708 15.1719 489.125C14.4115 488.531 13.8229 487.818 13.4062 486.984C12.9896 486.141 12.7812 485.193 12.7812 484.141C12.7812 483.026 12.9844 482.089 13.3906 481.328C13.7969 480.557 14.375 479.922 15.125 479.422C15.875 478.911 16.7656 478.516 17.7969 478.234C18.8177 477.943 19.9427 477.719 21.1719 477.562L22.0625 477.562C23.2604 477.708 24.3594 477.943 25.3594 478.266C26.3594 478.578 27.2344 478.995 27.9844 479.516C28.724 480.036 29.2969 480.682 29.7031 481.453C30.1094 482.224 30.3125 483.13 30.3125 484.172C30.3125 485.214 30.099 486.151 29.6719 486.984C29.2448 487.818 28.6458 488.531 27.875 489.125C27.1042 489.708 26.1979 490.156 25.1562 490.469C24.1146 490.781 22.9792 490.937 21.75 490.937ZM21.4219 486.812L21.75 486.812C22.4792 486.812 23.1615 486.74 23.7969 486.594C24.4323 486.448 24.9948 486.224 25.4844 485.922C25.9635 485.62 26.3385 485.24 26.6094 484.781C26.8802 484.323 27.0156 483.776 27.0156 483.141C27.0156 482.286 26.8385 481.589 26.4844 481.047C26.1198 480.495 25.625 480.078 25 479.797C24.3646 479.505 23.651 479.318 22.8594 479.234L20.4062 479.234C19.7812 479.286 19.2031 479.401 18.6719 479.578C18.1406 479.745 17.6823 479.979 17.2969 480.281C16.9115 480.583 16.6094 480.969 16.3906 481.437C16.1719 481.906 16.0625 482.464 16.0625 483.109C16.0625 483.734 16.2031 484.281 16.4844 484.75C16.7552 485.219 17.1354 485.604 17.625 485.906C18.1146 486.208 18.6823 486.437 19.3281 486.594C19.974 486.74 20.6719 486.812 21.4219 486.812ZM26.75 456.859L30 456.859L30 472.266L27.2187 472.266L19.2344 464.875C18.3594 464.104 17.599 463.495 16.9531 463.047C16.3073 462.599 15.724 462.281 15.2031 462.094C14.6719 461.896 14.1667 461.797 13.6875 461.797C12.9896 461.797 12.3802 461.922 11.8594 462.172C11.3281 462.422 10.9167 462.786 10.625 463.266C10.3333 463.734 10.1875 464.312 10.1875 465C10.1875 465.76 10.3646 466.411 10.7187 466.953C11.0625 467.484 11.5417 467.891 12.1562 468.172C12.7708 468.443 13.474 468.578 14.2656 468.578L14.2656 472.719C12.9219 472.719 11.6979 472.406 10.5937 471.781C9.47916 471.156 8.58854 470.26 7.92187 469.094C7.25521 467.927 6.92187 466.542 6.92187 464.937C6.92187 463.375 7.18229 462.052 7.70312 460.969C8.21354 459.885 8.94271 459.062 9.89062 458.5C10.8385 457.937 11.9687 457.656 13.2812 457.656C14.0104 457.656 14.7292 457.776 15.4375 458.016C16.1458 458.255 16.849 458.594 17.5469 459.031C18.2344 459.458 18.9323 459.969 19.6406 460.562C20.349 461.156 21.0729 461.818 21.8125 462.547L26.75 466.984L26.75 456.859ZM21.0469 453.641L20.75 453.641C18.5417 453.641 16.5365 453.406 14.7344 452.937C12.9219 452.458 11.3333 451.833 9.96875 451.062C8.60416 450.292 7.47396 449.458 6.57812 448.562C5.67187 447.656 5.02083 446.776 4.625 445.922L6.89062 445.109C7.33854 445.703 7.95312 446.297 8.73437 446.891C9.50521 447.474 10.4583 448.005 11.5937 448.484C12.7292 448.964 14.0521 449.349 15.5625 449.641C17.0729 449.922 18.7917 450.062 20.7187 450.062L21.0781 450.062C23.0052 450.062 24.7292 449.922 26.25 449.641C27.7604 449.349 29.0833 448.964 30.2187 448.484C31.3542 448.005 32.3177 447.474 33.1094 446.891C33.901 446.297 34.526 445.703 34.9844 445.109L37.1875 445.922C36.7812 446.776 36.1302 447.656 35.2344 448.562C34.3385 449.458 33.2083 450.292 31.8437 451.062C30.4792 451.833 28.8958 452.458 27.0937 452.937C25.2812 453.406 23.2656 453.641 21.0469 453.641ZM7.25 432.562L30 432.562L30 436.844L7.25 436.844L7.25 432.562ZM7.25 425.5L10.6406 425.5L10.6406 443.828L7.25 443.828L7.25 425.5ZM21.7031 413.891L21.7031 419.75L18.3281 419.75L18.3281 413.891C18.3281 412.932 18.1719 412.156 17.8594 411.562C17.5365 410.958 17.099 410.516 16.5469 410.234C15.9844 409.953 15.3437 409.812 14.625 409.812C13.9271 409.812 13.276 409.953 12.6719 410.234C12.0677 410.516 11.5781 410.958 11.2031 411.562C10.8281 412.156 10.6406 412.932 10.6406 413.891L10.6406 418.344L30 418.344L30 422.641L7.25 422.641L7.25 413.891C7.25 412.12 7.5677 410.609 8.20312 409.359C8.82812 408.099 9.69791 407.141 10.8125 406.484C11.9167 405.818 13.1771 405.484 14.5937 405.484C16.0625 405.484 17.3281 405.818 18.3906 406.484C19.4531 407.141 20.2708 408.099 20.8437 409.359C21.4167 410.609 21.7031 412.12 21.7031 413.891ZM7.24999 400.234L7.24999 396.516L24.375 390.297L7.24999 384.094L7.24999 380.359L30 388.812L30 391.797L7.24999 400.234ZM7.24999 402.109L7.24999 398.469L22.9844 397.812L30 397.812L30 402.109L7.24999 402.109ZM7.24999 382.141L7.24999 378.484L30 378.484L30 382.781L22.9844 382.781L7.24999 382.141ZM17.4219 359.734L21.0937 359.734L21.0937 375.328L17.4219 375.328L17.4219 359.734ZM11.1562 365.547L27.7187 365.547L27.7187 369.5L11.1562 369.5L11.1562 365.547ZM7.18749 346.422L30 346.422L30 350.562L12.0156 350.562L13.8281 356.047L10.4844 356.047L7.18749 346.891L7.18749 346.422ZM20.75 331.062L21.0469 331.062C23.2135 331.062 25.1979 331.307 27 331.797C28.8021 332.276 30.3906 332.911 31.7656 333.703C33.1406 334.484 34.2865 335.339 35.2031 336.266C36.1198 337.182 36.7812 338.083 37.1875 338.969L34.9844 339.781C34.5365 339.187 33.9219 338.599 33.1406 338.016C32.3594 337.432 31.3958 336.901 30.25 336.422C29.1042 335.932 27.7708 335.547 26.25 335.266C24.7292 334.974 23.0052 334.828 21.0781 334.828L20.7187 334.828C18.7917 334.828 17.0677 334.979 15.5469 335.281C14.026 335.573 12.6979 335.964 11.5625 336.453C10.4167 336.943 9.45312 337.479 8.67187 338.062C7.8802 338.646 7.26562 339.219 6.82812 339.781L4.62499 338.969C5.02083 338.083 5.68228 337.182 6.60937 336.266C7.52603 335.339 8.67708 334.484 10.0625 333.703C11.4375 332.911 13.026 332.276 14.8281 331.797C16.6198 331.307 18.5937 331.062 20.75 331.062ZM27.9844 327.234C27.3594 327.234 26.8333 327.021 26.4062 326.594C25.9792 326.167 25.7656 325.589 25.7656 324.859C25.7656 324.13 25.9792 323.552 26.4062 323.125C26.8333 322.698 27.3594 322.484 27.9844 322.484C28.5989 322.484 29.1198 322.698 29.5469 323.125C29.9635 323.552 30.1719 324.13 30.1719 324.859C30.1719 325.589 29.9635 326.167 29.5469 326.594C29.1198 327.021 28.5989 327.234 27.9844 327.234ZM14.875 327.219C14.25 327.219 13.7239 327.005 13.2969 326.578C12.8698 326.151 12.6562 325.573 12.6562 324.844C12.6562 324.115 12.8698 323.536 13.2969 323.109C13.7239 322.682 14.25 322.469 14.875 322.469C15.4896 322.469 16.0104 322.682 16.4375 323.109C16.8542 323.536 17.0625 324.115 17.0625 324.844C17.0625 325.573 16.8542 326.151 16.4375 326.578C16.0104 327.005 15.4896 327.219 14.875 327.219ZM25.6406 304.734L7.24999 300.203L7.24999 297.75L11.125 297.594L30 302.437L30 305.031L25.6406 304.734ZM7.24999 307.594L25.5781 303.875L30 303.875L30 306.703L7.24999 311.859L7.24999 307.594ZM25.5 292.891L7.24999 289.234L7.24999 284.953L30 290.109L30 292.937L25.5 292.891ZM7.24999 296.578L25.7031 292.047L30 291.781L30 294.375L11.1094 299.203L7.24999 299.016L7.24999 296.578ZM26.625 267.156L30 267.156L30 279.25L26.625 279.25L26.625 267.156ZM7.24999 277.937L30 277.937L30 282.234L7.24999 282.234L7.24999 277.937ZM16.6406 268.734L19.9375 268.734L19.9375 279.25L16.6406 279.25L16.6406 268.734ZM7.24999 267.203L10.6406 267.203L10.6406 279.25L7.24999 279.25L7.24999 267.203ZM26.625 249.094L30 249.094L30 261.187L26.625 261.187L26.625 249.094ZM7.24999 259.875L30 259.875L30 264.172L7.24999 264.172L7.24999 259.875ZM16.6406 250.672L19.9375 250.672L19.9375 261.187L16.6406 261.187L16.6406 250.672ZM7.24999 249.141L10.6406 249.141L10.6406 261.187L7.24999 261.187L7.24999 249.141ZM7.18749 236.016L30 236.016L30 240.156L12.0156 240.156L13.8281 245.641L10.4844 245.641L7.18749 236.484L7.18749 236.016Z" fill="#505459"/>
<path d="M159.422 722.625V726H147.984V722.625H159.422ZM149.281 703.25V726H144.984V703.25H149.281ZM166.359 709.094V726H162.219V709.094H166.359ZM161.938 704.672C161.938 704.057 162.146 703.547 162.562 703.141C162.99 702.734 163.562 702.531 164.281 702.531C165 702.531 165.568 702.734 165.984 703.141C166.411 703.547 166.625 704.057 166.625 704.672C166.625 705.276 166.411 705.781 165.984 706.188C165.568 706.594 165 706.797 164.281 706.797C163.562 706.797 162.99 706.594 162.562 706.188C162.146 705.781 161.938 705.276 161.938 704.672ZM175.906 722.875L179.844 709.094H184.156L178.359 726H175.734L175.906 722.875ZM173.031 709.094L177.016 722.906L177.156 726H174.516L168.703 709.094H173.031ZM193.703 726.312C192.422 726.312 191.271 726.104 190.25 725.688C189.229 725.271 188.359 724.693 187.641 723.953C186.932 723.203 186.385 722.333 186 721.344C185.625 720.344 185.438 719.271 185.438 718.125V717.5C185.438 716.198 185.625 715.016 186 713.953C186.375 712.88 186.906 711.958 187.594 711.188C188.281 710.417 189.104 709.823 190.062 709.406C191.021 708.99 192.078 708.781 193.234 708.781C194.432 708.781 195.49 708.984 196.406 709.391C197.323 709.786 198.089 710.349 198.703 711.078C199.318 711.807 199.781 712.682 200.094 713.703C200.406 714.714 200.562 715.833 200.562 717.062V718.797H187.312V715.953H196.5V715.641C196.479 714.984 196.354 714.385 196.125 713.844C195.896 713.292 195.542 712.854 195.062 712.531C194.583 712.198 193.964 712.031 193.203 712.031C192.589 712.031 192.052 712.167 191.594 712.438C191.146 712.698 190.771 713.073 190.469 713.562C190.177 714.042 189.958 714.615 189.812 715.281C189.667 715.948 189.594 716.688 189.594 717.5V718.125C189.594 718.833 189.688 719.49 189.875 720.094C190.073 720.698 190.359 721.224 190.734 721.672C191.12 722.109 191.578 722.453 192.109 722.703C192.651 722.943 193.266 723.062 193.953 723.062C194.818 723.062 195.599 722.896 196.297 722.562C197.005 722.219 197.62 721.714 198.141 721.047L200.219 723.203C199.865 723.724 199.385 724.224 198.781 724.703C198.188 725.182 197.469 725.573 196.625 725.875C195.781 726.167 194.807 726.312 193.703 726.312ZM207.453 712.547V726H203.328V709.094H207.234L207.453 712.547ZM212.594 708.984L212.531 712.828C212.302 712.786 212.042 712.755 211.75 712.734C211.469 712.714 211.203 712.703 210.953 712.703C210.318 712.703 209.76 712.792 209.281 712.969C208.802 713.135 208.401 713.38 208.078 713.703C207.766 714.026 207.526 714.422 207.359 714.891C207.193 715.349 207.099 715.87 207.078 716.453L206.188 716.344C206.188 715.271 206.297 714.276 206.516 713.359C206.734 712.443 207.052 711.641 207.469 710.953C207.885 710.266 208.406 709.734 209.031 709.359C209.667 708.974 210.396 708.781 211.219 708.781C211.448 708.781 211.693 708.802 211.953 708.844C212.224 708.875 212.438 708.922 212.594 708.984Z" fill="#505459"/>
<path d="M259.062 703.25V726H254.766V703.25H259.062ZM272.719 703.25L263.594 714.344L258.375 719.922L257.609 715.75L261.234 711.047L267.453 703.25H272.719ZM267.938 726L260.859 715.344L263.938 712.562L273.047 726H267.938ZM279.109 709.094V726H274.969V709.094H279.109ZM274.688 704.672C274.688 704.057 274.896 703.547 275.312 703.141C275.74 702.734 276.312 702.531 277.031 702.531C277.75 702.531 278.318 702.734 278.734 703.141C279.161 703.547 279.375 704.057 279.375 704.672C279.375 705.276 279.161 705.781 278.734 706.188C278.318 706.594 277.75 706.797 277.031 706.797C276.312 706.797 275.74 706.594 275.312 706.188C274.896 705.781 274.688 705.276 274.688 704.672ZM293.188 722.406V702H297.344V726H293.594L293.188 722.406ZM282.328 717.75V717.422C282.328 716.13 282.474 714.958 282.766 713.906C283.068 712.844 283.505 711.932 284.078 711.172C284.651 710.411 285.344 709.823 286.156 709.406C286.979 708.99 287.911 708.781 288.953 708.781C289.964 708.781 290.844 708.984 291.594 709.391C292.354 709.797 293 710.375 293.531 711.125C294.073 711.875 294.505 712.766 294.828 713.797C295.151 714.818 295.385 715.943 295.531 717.172V718.062C295.385 719.26 295.151 720.359 294.828 721.359C294.505 722.359 294.073 723.234 293.531 723.984C293 724.724 292.354 725.297 291.594 725.703C290.833 726.109 289.943 726.312 288.922 726.312C287.891 726.312 286.964 726.099 286.141 725.672C285.328 725.245 284.635 724.646 284.062 723.875C283.5 723.104 283.068 722.198 282.766 721.156C282.474 720.115 282.328 718.979 282.328 717.75ZM286.469 717.422V717.75C286.469 718.479 286.531 719.161 286.656 719.797C286.781 720.432 286.984 720.995 287.266 721.484C287.547 721.964 287.906 722.339 288.344 722.609C288.792 722.88 289.333 723.016 289.969 723.016C290.781 723.016 291.448 722.839 291.969 722.484C292.5 722.12 292.911 721.625 293.203 721C293.495 720.365 293.682 719.651 293.766 718.859V716.406C293.724 715.781 293.615 715.203 293.438 714.672C293.271 714.141 293.031 713.682 292.719 713.297C292.417 712.911 292.042 712.609 291.594 712.391C291.146 712.172 290.615 712.062 290 712.062C289.365 712.062 288.823 712.203 288.375 712.484C287.927 712.755 287.562 713.135 287.281 713.625C287 714.115 286.792 714.682 286.656 715.328C286.531 715.974 286.469 716.672 286.469 717.422ZM305.125 712.703V726H301V709.094H304.875L305.125 712.703ZM304.469 716.938H303.25C303.26 715.708 303.427 714.594 303.75 713.594C304.073 712.594 304.526 711.734 305.109 711.016C305.703 710.297 306.406 709.745 307.219 709.359C308.031 708.974 308.938 708.781 309.938 708.781C310.75 708.781 311.484 708.896 312.141 709.125C312.797 709.354 313.359 709.719 313.828 710.219C314.307 710.719 314.672 711.375 314.922 712.188C315.182 712.99 315.312 713.979 315.312 715.156V726H311.156V715.125C311.156 714.354 311.042 713.745 310.812 713.297C310.594 712.849 310.271 712.531 309.844 712.344C309.427 712.156 308.911 712.062 308.297 712.062C307.661 712.062 307.104 712.193 306.625 712.453C306.156 712.703 305.76 713.052 305.438 713.5C305.125 713.948 304.885 714.464 304.719 715.047C304.552 715.63 304.469 716.26 304.469 716.938ZM326.547 726.312C325.266 726.312 324.115 726.104 323.094 725.688C322.073 725.271 321.203 724.693 320.484 723.953C319.776 723.203 319.229 722.333 318.844 721.344C318.469 720.344 318.281 719.271 318.281 718.125V717.5C318.281 716.198 318.469 715.016 318.844 713.953C319.219 712.88 319.75 711.958 320.438 711.188C321.125 710.417 321.948 709.823 322.906 709.406C323.865 708.99 324.922 708.781 326.078 708.781C327.276 708.781 328.333 708.984 329.25 709.391C330.167 709.786 330.932 710.349 331.547 711.078C332.161 711.807 332.625 712.682 332.938 713.703C333.25 714.714 333.406 715.833 333.406 717.062V718.797H320.156V715.953H329.344V715.641C329.323 714.984 329.198 714.385 328.969 713.844C328.74 713.292 328.385 712.854 327.906 712.531C327.427 712.198 326.807 712.031 326.047 712.031C325.432 712.031 324.896 712.167 324.438 712.438C323.99 712.698 323.615 713.073 323.312 713.562C323.021 714.042 322.802 714.615 322.656 715.281C322.51 715.948 322.438 716.688 322.438 717.5V718.125C322.438 718.833 322.531 719.49 322.719 720.094C322.917 720.698 323.203 721.224 323.578 721.672C323.964 722.109 324.422 722.453 324.953 722.703C325.495 722.943 326.109 723.062 326.797 723.062C327.661 723.062 328.443 722.896 329.141 722.562C329.849 722.219 330.464 721.714 330.984 721.047L333.062 723.203C332.708 723.724 332.229 724.224 331.625 724.703C331.031 725.182 330.312 725.573 329.469 725.875C328.625 726.167 327.651 726.312 326.547 726.312ZM340.906 724.125L345.438 709.094H349.859L343.078 728.562C342.922 728.979 342.719 729.432 342.469 729.922C342.229 730.411 341.906 730.875 341.5 731.312C341.094 731.76 340.583 732.125 339.969 732.406C339.365 732.688 338.63 732.828 337.766 732.828C337.391 732.828 337.057 732.802 336.766 732.75C336.474 732.698 336.167 732.63 335.844 732.547V729.453C335.948 729.464 336.068 729.469 336.203 729.469C336.349 729.479 336.474 729.484 336.578 729.484C337.182 729.484 337.682 729.411 338.078 729.266C338.474 729.13 338.792 728.906 339.031 728.594C339.281 728.292 339.49 727.896 339.656 727.406L340.906 724.125ZM338.672 709.094L342.5 721.547L343.172 725.906L340.328 726.422L334.219 709.094H338.672Z" fill="#505459"/>
<path d="M398.359 715.859H392.547L392.516 712.828H397.5C398.354 712.828 399.068 712.708 399.641 712.469C400.214 712.229 400.646 711.88 400.938 711.422C401.24 710.964 401.391 710.406 401.391 709.75C401.391 709.021 401.25 708.427 400.969 707.969C400.698 707.51 400.271 707.177 399.688 706.969C399.104 706.75 398.365 706.641 397.469 706.641H393.938V726H389.641V703.25H397.469C398.76 703.25 399.911 703.375 400.922 703.625C401.943 703.865 402.807 704.24 403.516 704.75C404.224 705.26 404.76 705.901 405.125 706.672C405.5 707.443 405.688 708.359 405.688 709.422C405.688 710.359 405.469 711.224 405.031 712.016C404.604 712.797 403.943 713.432 403.047 713.922C402.161 714.411 401.036 714.693 399.672 714.766L398.359 715.859ZM398.172 726H391.281L393.078 722.625H398.172C399.026 722.625 399.729 722.484 400.281 722.203C400.844 721.922 401.26 721.536 401.531 721.047C401.812 720.547 401.953 719.974 401.953 719.328C401.953 718.62 401.828 718.005 401.578 717.484C401.339 716.964 400.953 716.562 400.422 716.281C399.901 716 399.214 715.859 398.359 715.859H393.891L393.922 712.828H399.609L400.594 714C401.906 714.01 402.974 714.271 403.797 714.781C404.63 715.292 405.245 715.948 405.641 716.75C406.036 717.552 406.234 718.417 406.234 719.344C406.234 720.802 405.917 722.026 405.281 723.016C404.656 724.005 403.74 724.75 402.531 725.25C401.333 725.75 399.88 726 398.172 726ZM408.906 717.719V717.391C408.906 716.151 409.083 715.01 409.438 713.969C409.792 712.917 410.307 712.005 410.984 711.234C411.661 710.464 412.49 709.865 413.469 709.438C414.448 709 415.562 708.781 416.812 708.781C418.083 708.781 419.208 709 420.188 709.438C421.177 709.865 422.01 710.464 422.688 711.234C423.365 712.005 423.88 712.917 424.234 713.969C424.589 715.01 424.766 716.151 424.766 717.391V717.719C424.766 718.948 424.589 720.089 424.234 721.141C423.88 722.182 423.365 723.094 422.688 723.875C422.01 724.646 421.182 725.245 420.203 725.672C419.224 726.099 418.104 726.312 416.844 726.312C415.594 726.312 414.474 726.099 413.484 725.672C412.495 725.245 411.661 724.646 410.984 723.875C410.307 723.094 409.792 722.182 409.438 721.141C409.083 720.089 408.906 718.948 408.906 717.719ZM413.031 717.391V717.719C413.031 718.458 413.104 719.151 413.25 719.797C413.396 720.443 413.62 721.01 413.922 721.5C414.224 721.99 414.615 722.375 415.094 722.656C415.583 722.927 416.167 723.062 416.844 723.062C417.51 723.062 418.083 722.927 418.562 722.656C419.042 722.375 419.432 721.99 419.734 721.5C420.047 721.01 420.276 720.443 420.422 719.797C420.568 719.151 420.641 718.458 420.641 717.719V717.391C420.641 716.661 420.568 715.979 420.422 715.344C420.276 714.698 420.047 714.13 419.734 713.641C419.432 713.141 419.036 712.75 418.547 712.469C418.068 712.177 417.49 712.031 416.812 712.031C416.146 712.031 415.573 712.177 415.094 712.469C414.615 712.75 414.224 713.141 413.922 713.641C413.62 714.13 413.396 714.698 413.25 715.344C413.104 715.979 413.031 716.661 413.031 717.391ZM431.812 712.703V726H427.688V709.094H431.562L431.812 712.703ZM431.156 716.938H429.938C429.948 715.708 430.115 714.594 430.438 713.594C430.76 712.594 431.214 711.734 431.797 711.016C432.391 710.297 433.094 709.745 433.906 709.359C434.719 708.974 435.625 708.781 436.625 708.781C437.438 708.781 438.172 708.896 438.828 709.125C439.484 709.354 440.047 709.719 440.516 710.219C440.995 710.719 441.359 711.375 441.609 712.188C441.87 712.99 442 713.979 442 715.156V726H437.844V715.125C437.844 714.354 437.729 713.745 437.5 713.297C437.281 712.849 436.958 712.531 436.531 712.344C436.115 712.156 435.599 712.062 434.984 712.062C434.349 712.062 433.792 712.193 433.312 712.453C432.844 712.703 432.448 713.052 432.125 713.5C431.812 713.948 431.573 714.464 431.406 715.047C431.24 715.63 431.156 716.26 431.156 716.938ZM453.234 726.312C451.953 726.312 450.802 726.104 449.781 725.688C448.76 725.271 447.891 724.693 447.172 723.953C446.464 723.203 445.917 722.333 445.531 721.344C445.156 720.344 444.969 719.271 444.969 718.125V717.5C444.969 716.198 445.156 715.016 445.531 713.953C445.906 712.88 446.438 711.958 447.125 711.188C447.812 710.417 448.635 709.823 449.594 709.406C450.552 708.99 451.609 708.781 452.766 708.781C453.964 708.781 455.021 708.984 455.938 709.391C456.854 709.786 457.62 710.349 458.234 711.078C458.849 711.807 459.312 712.682 459.625 713.703C459.938 714.714 460.094 715.833 460.094 717.062V718.797H446.844V715.953H456.031V715.641C456.01 714.984 455.885 714.385 455.656 713.844C455.427 713.292 455.073 712.854 454.594 712.531C454.115 712.198 453.495 712.031 452.734 712.031C452.12 712.031 451.583 712.167 451.125 712.438C450.677 712.698 450.302 713.073 450 713.562C449.708 714.042 449.49 714.615 449.344 715.281C449.198 715.948 449.125 716.688 449.125 717.5V718.125C449.125 718.833 449.219 719.49 449.406 720.094C449.604 720.698 449.891 721.224 450.266 721.672C450.651 722.109 451.109 722.453 451.641 722.703C452.182 722.943 452.797 723.062 453.484 723.062C454.349 723.062 455.13 722.896 455.828 722.562C456.536 722.219 457.151 721.714 457.672 721.047L459.75 723.203C459.396 723.724 458.917 724.224 458.312 724.703C457.719 725.182 457 725.573 456.156 725.875C455.312 726.167 454.339 726.312 453.234 726.312Z" fill="#505459"/>
<path d="M529.453 720.094C529.453 719.656 529.385 719.266 529.25 718.922C529.125 718.568 528.891 718.25 528.547 717.969C528.214 717.677 527.74 717.396 527.125 717.125C526.521 716.844 525.74 716.552 524.781 716.25C523.719 715.917 522.729 715.542 521.812 715.125C520.896 714.708 520.089 714.224 519.391 713.672C518.703 713.12 518.167 712.484 517.781 711.766C517.396 711.036 517.203 710.193 517.203 709.234C517.203 708.297 517.401 707.443 517.797 706.672C518.203 705.901 518.776 705.24 519.516 704.688C520.255 704.125 521.125 703.693 522.125 703.391C523.135 703.089 524.25 702.938 525.469 702.938C527.156 702.938 528.615 703.245 529.844 703.859C531.083 704.474 532.042 705.307 532.719 706.359C533.396 707.411 533.734 708.594 533.734 709.906H529.453C529.453 709.198 529.302 708.573 529 708.031C528.708 707.49 528.26 707.062 527.656 706.75C527.062 706.438 526.312 706.281 525.406 706.281C524.531 706.281 523.802 706.411 523.219 706.672C522.646 706.932 522.214 707.286 521.922 707.734C521.641 708.182 521.5 708.682 521.5 709.234C521.5 709.651 521.599 710.026 521.797 710.359C521.995 710.682 522.292 710.99 522.688 711.281C523.083 711.562 523.573 711.828 524.156 712.078C524.75 712.318 525.438 712.557 526.219 712.797C527.469 713.172 528.562 713.589 529.5 714.047C530.448 714.505 531.234 715.026 531.859 715.609C532.495 716.193 532.969 716.849 533.281 717.578C533.604 718.307 533.766 719.135 533.766 720.062C533.766 721.042 533.573 721.917 533.188 722.688C532.802 723.458 532.25 724.115 531.531 724.656C530.812 725.198 529.948 725.609 528.938 725.891C527.938 726.172 526.818 726.312 525.578 726.312C524.474 726.312 523.38 726.167 522.297 725.875C521.224 725.573 520.25 725.125 519.375 724.531C518.5 723.927 517.802 723.167 517.281 722.25C516.76 721.323 516.5 720.24 516.5 719H520.812C520.812 719.719 520.927 720.333 521.156 720.844C521.396 721.344 521.729 721.755 522.156 722.078C522.594 722.391 523.104 722.62 523.688 722.766C524.271 722.911 524.901 722.984 525.578 722.984C526.453 722.984 527.172 722.865 527.734 722.625C528.307 722.375 528.734 722.031 529.016 721.594C529.307 721.156 529.453 720.656 529.453 720.094ZM540.891 701.984V726H536.766V701.984H540.891ZM551.484 709.094L544.125 717.359L540.141 721.406L538.828 718.203L541.906 714.328L546.5 709.094H551.484ZM547.266 726L542.031 718.125L544.781 715.453L552.047 726H547.266ZM558.047 709.094V726H553.906V709.094H558.047ZM553.625 704.672C553.625 704.057 553.833 703.547 554.25 703.141C554.677 702.734 555.25 702.531 555.969 702.531C556.688 702.531 557.255 702.734 557.672 703.141C558.099 703.547 558.312 704.057 558.312 704.672C558.312 705.276 558.099 705.781 557.672 706.188C557.255 706.594 556.688 706.797 555.969 706.797C555.25 706.797 554.677 706.594 554.25 706.188C553.833 705.781 553.625 705.276 553.625 704.672ZM566.031 712.703V726H561.906V709.094H565.781L566.031 712.703ZM565.375 716.938H564.156C564.167 715.708 564.333 714.594 564.656 713.594C564.979 712.594 565.432 711.734 566.016 711.016C566.609 710.297 567.312 709.745 568.125 709.359C568.938 708.974 569.844 708.781 570.844 708.781C571.656 708.781 572.391 708.896 573.047 709.125C573.703 709.354 574.266 709.719 574.734 710.219C575.214 710.719 575.578 711.375 575.828 712.188C576.089 712.99 576.219 713.979 576.219 715.156V726H572.062V715.125C572.062 714.354 571.948 713.745 571.719 713.297C571.5 712.849 571.177 712.531 570.75 712.344C570.333 712.156 569.818 712.062 569.203 712.062C568.568 712.062 568.01 712.193 567.531 712.453C567.062 712.703 566.667 713.052 566.344 713.5C566.031 713.948 565.792 714.464 565.625 715.047C565.458 715.63 565.375 716.26 565.375 716.938Z" fill="#505459"/>
<path d="M636.953 703.25H641.25V718.359C641.25 720.099 640.875 721.562 640.125 722.75C639.375 723.927 638.354 724.818 637.062 725.422C635.771 726.016 634.302 726.312 632.656 726.312C630.99 726.312 629.505 726.016 628.203 725.422C626.901 724.818 625.88 723.927 625.141 722.75C624.401 721.562 624.031 720.099 624.031 718.359V703.25H628.328V718.359C628.328 719.422 628.505 720.292 628.859 720.969C629.214 721.635 629.714 722.13 630.359 722.453C631.005 722.776 631.771 722.938 632.656 722.938C633.552 722.938 634.318 722.776 634.953 722.453C635.599 722.13 636.094 721.635 636.438 720.969C636.781 720.292 636.953 719.422 636.953 718.359V703.25ZM653.016 709.094V712.062H643.328V709.094H653.016ZM645.922 704.938H650.062V721.125C650.062 721.625 650.13 722.01 650.266 722.281C650.401 722.552 650.604 722.734 650.875 722.828C651.146 722.922 651.469 722.969 651.844 722.969C652.115 722.969 652.365 722.953 652.594 722.922C652.823 722.891 653.016 722.859 653.172 722.828L653.188 725.922C652.844 726.036 652.453 726.13 652.016 726.203C651.589 726.276 651.104 726.312 650.562 726.312C649.635 726.312 648.823 726.156 648.125 725.844C647.427 725.521 646.885 725.005 646.5 724.297C646.115 723.578 645.922 722.63 645.922 721.453V704.938ZM663.359 726.312C662.078 726.312 660.927 726.104 659.906 725.688C658.885 725.271 658.016 724.693 657.297 723.953C656.589 723.203 656.042 722.333 655.656 721.344C655.281 720.344 655.094 719.271 655.094 718.125V717.5C655.094 716.198 655.281 715.016 655.656 713.953C656.031 712.88 656.562 711.958 657.25 711.188C657.938 710.417 658.76 709.823 659.719 709.406C660.677 708.99 661.734 708.781 662.891 708.781C664.089 708.781 665.146 708.984 666.062 709.391C666.979 709.786 667.745 710.349 668.359 711.078C668.974 711.807 669.438 712.682 669.75 713.703C670.062 714.714 670.219 715.833 670.219 717.062V718.797H656.969V715.953H666.156V715.641C666.135 714.984 666.01 714.385 665.781 713.844C665.552 713.292 665.198 712.854 664.719 712.531C664.24 712.198 663.62 712.031 662.859 712.031C662.245 712.031 661.708 712.167 661.25 712.438C660.802 712.698 660.427 713.073 660.125 713.562C659.833 714.042 659.615 714.615 659.469 715.281C659.323 715.948 659.25 716.688 659.25 717.5V718.125C659.25 718.833 659.344 719.49 659.531 720.094C659.729 720.698 660.016 721.224 660.391 721.672C660.776 722.109 661.234 722.453 661.766 722.703C662.307 722.943 662.922 723.062 663.609 723.062C664.474 723.062 665.255 722.896 665.953 722.562C666.661 722.219 667.276 721.714 667.797 721.047L669.875 723.203C669.521 723.724 669.042 724.224 668.438 724.703C667.844 725.182 667.125 725.573 666.281 725.875C665.438 726.167 664.464 726.312 663.359 726.312ZM677.109 712.547V726H672.984V709.094H676.891L677.109 712.547ZM682.25 708.984L682.188 712.828C681.958 712.786 681.698 712.755 681.406 712.734C681.125 712.714 680.859 712.703 680.609 712.703C679.974 712.703 679.417 712.792 678.938 712.969C678.458 713.135 678.057 713.38 677.734 713.703C677.422 714.026 677.182 714.422 677.016 714.891C676.849 715.349 676.755 715.87 676.734 716.453L675.844 716.344C675.844 715.271 675.953 714.276 676.172 713.359C676.391 712.443 676.708 711.641 677.125 710.953C677.542 710.266 678.062 709.734 678.688 709.359C679.323 708.974 680.052 708.781 680.875 708.781C681.104 708.781 681.349 708.802 681.609 708.844C681.88 708.875 682.094 708.922 682.25 708.984ZM694.578 721.984V709.094H698.734V726H694.828L694.578 721.984ZM695.109 718.484L696.391 718.453C696.391 719.589 696.266 720.635 696.016 721.594C695.766 722.552 695.375 723.385 694.844 724.094C694.323 724.792 693.661 725.339 692.859 725.734C692.057 726.12 691.109 726.312 690.016 726.312C689.182 726.312 688.422 726.198 687.734 725.969C687.047 725.729 686.453 725.359 685.953 724.859C685.464 724.349 685.083 723.698 684.812 722.906C684.542 722.104 684.406 721.141 684.406 720.016V709.094H688.531V720.047C688.531 720.609 688.594 721.078 688.719 721.453C688.854 721.828 689.036 722.135 689.266 722.375C689.505 722.604 689.781 722.771 690.094 722.875C690.417 722.969 690.76 723.016 691.125 723.016C692.125 723.016 692.911 722.818 693.484 722.422C694.068 722.016 694.484 721.474 694.734 720.797C694.984 720.109 695.109 719.339 695.109 718.484ZM711.688 721.375C711.688 721.021 711.594 720.703 711.406 720.422C711.219 720.141 710.865 719.885 710.344 719.656C709.833 719.417 709.083 719.193 708.094 718.984C707.219 718.797 706.411 718.562 705.672 718.281C704.932 718 704.297 717.661 703.766 717.266C703.234 716.859 702.818 716.385 702.516 715.844C702.224 715.292 702.078 714.656 702.078 713.938C702.078 713.24 702.229 712.583 702.531 711.969C702.833 711.344 703.271 710.797 703.844 710.328C704.417 709.849 705.115 709.474 705.938 709.203C706.76 708.922 707.688 708.781 708.719 708.781C710.156 708.781 711.391 709.016 712.422 709.484C713.464 709.953 714.26 710.599 714.812 711.422C715.365 712.234 715.641 713.151 715.641 714.172H711.516C711.516 713.724 711.411 713.318 711.203 712.953C711.005 712.589 710.698 712.297 710.281 712.078C709.865 711.849 709.339 711.734 708.703 711.734C708.13 711.734 707.646 711.828 707.25 712.016C706.865 712.203 706.573 712.448 706.375 712.75C706.177 713.052 706.078 713.385 706.078 713.75C706.078 714.021 706.13 714.266 706.234 714.484C706.349 714.693 706.531 714.885 706.781 715.062C707.031 715.24 707.37 715.401 707.797 715.547C708.234 715.693 708.771 715.833 709.406 715.969C710.667 716.219 711.766 716.552 712.703 716.969C713.651 717.375 714.391 717.917 714.922 718.594C715.453 719.271 715.719 720.135 715.719 721.188C715.719 721.938 715.557 722.625 715.234 723.25C714.911 723.865 714.443 724.401 713.828 724.859C713.214 725.318 712.479 725.677 711.625 725.938C710.771 726.188 709.807 726.312 708.734 726.312C707.182 726.312 705.87 726.036 704.797 725.484C703.724 724.922 702.911 724.214 702.359 723.359C701.807 722.495 701.531 721.599 701.531 720.672H705.484C705.516 721.328 705.693 721.854 706.016 722.25C706.339 722.646 706.745 722.932 707.234 723.109C707.734 723.276 708.26 723.359 708.812 723.359C709.438 723.359 709.964 723.276 710.391 723.109C710.818 722.932 711.141 722.698 711.359 722.406C711.578 722.104 711.688 721.76 711.688 721.375Z" fill="#505459"/>
<g filter="url(#filter0_d_15_4)">
<path d="M211.85 19.7637V29.7305C211.475 30.2109 210.883 30.7324 210.074 31.2949C209.277 31.8574 208.234 32.3438 206.945 32.7539C205.656 33.1523 204.074 33.3516 202.199 33.3516C200.57 33.3516 199.082 33.082 197.734 32.543C196.387 31.9922 195.227 31.1895 194.254 30.1348C193.281 29.0801 192.531 27.791 192.004 26.2676C191.477 24.7441 191.213 23.0039 191.213 21.0469V19.3594C191.213 17.4023 191.459 15.6621 191.951 14.1387C192.455 12.6152 193.17 11.3262 194.096 10.2715C195.033 9.2168 196.152 8.41406 197.453 7.86328C198.766 7.3125 200.23 7.03711 201.848 7.03711C204.016 7.03711 205.797 7.39453 207.191 8.10938C208.598 8.82422 209.676 9.80859 210.426 11.0625C211.176 12.3047 211.645 13.7344 211.832 15.3516H207.121C206.992 14.4609 206.734 13.6816 206.348 13.0137C205.961 12.334 205.41 11.8066 204.695 11.4316C203.992 11.0449 203.078 10.8516 201.953 10.8516C201.004 10.8516 200.166 11.0391 199.439 11.4141C198.713 11.7891 198.104 12.334 197.611 13.0488C197.119 13.7637 196.744 14.6484 196.486 15.7031C196.24 16.7578 196.117 17.9648 196.117 19.3242V21.0469C196.117 22.418 196.258 23.6367 196.539 24.7031C196.82 25.7578 197.225 26.6484 197.752 27.375C198.291 28.0898 198.953 28.6348 199.738 29.0098C200.535 29.373 201.438 29.5547 202.445 29.5547C203.359 29.5547 204.115 29.4785 204.713 29.3262C205.322 29.1621 205.809 28.9688 206.172 28.7461C206.535 28.5234 206.816 28.3066 207.016 28.0957V23.2969H201.936V19.7637H211.85ZM224.611 33.3516C223.17 33.3516 221.875 33.1172 220.727 32.6484C219.578 32.1797 218.6 31.5293 217.791 30.6973C216.994 29.8535 216.379 28.875 215.945 27.7617C215.523 26.6367 215.312 25.4297 215.312 24.1406V23.4375C215.312 21.9727 215.523 20.6426 215.945 19.4473C216.367 18.2402 216.965 17.2031 217.738 16.3359C218.512 15.4688 219.438 14.8008 220.516 14.332C221.594 13.8633 222.783 13.6289 224.084 13.6289C225.432 13.6289 226.621 13.8574 227.652 14.3145C228.684 14.7598 229.545 15.3926 230.236 16.2129C230.928 17.0332 231.449 18.0176 231.801 19.166C232.152 20.3027 232.328 21.5625 232.328 22.9453V24.8965L217.422 24.8965V21.6973L227.758 21.6973V21.3457C227.734 20.6074 227.594 19.9336 227.336 19.3242C227.078 18.7031 226.68 18.2109 226.141 17.8477C225.602 17.4727 224.904 17.2852 224.049 17.2852C223.357 17.2852 222.754 17.4375 222.238 17.7422C221.734 18.0352 221.312 18.457 220.973 19.0078C220.645 19.5469 220.398 20.1914 220.234 20.9414C220.07 21.6914 219.988 22.5234 219.988 23.4375V24.1406C219.988 24.9375 220.094 25.6758 220.305 26.3555C220.527 27.0352 220.85 27.627 221.271 28.1309C221.705 28.623 222.221 29.0098 222.818 29.291C223.428 29.5605 224.119 29.6953 224.893 29.6953C225.865 29.6953 226.744 29.5078 227.529 29.1328C228.326 28.7461 229.018 28.1777 229.604 27.4277L231.941 29.8535C231.543 30.4395 231.004 31.002 230.324 31.541C229.656 32.0801 228.848 32.5195 227.898 32.8594C226.949 33.1875 225.854 33.3516 224.611 33.3516ZM239.992 18.041V33H235.352V13.9805L239.711 13.9805L239.992 18.041ZM239.254 22.8047H237.883C237.895 21.4219 238.082 20.168 238.445 19.043C238.809 17.918 239.318 16.9512 239.975 16.1426C240.643 15.334 241.434 14.7129 242.348 14.2793C243.262 13.8457 244.281 13.6289 245.406 13.6289C246.32 13.6289 247.146 13.7578 247.885 14.0156C248.623 14.2734 249.256 14.6836 249.783 15.2461C250.322 15.8086 250.732 16.5469 251.014 17.4609C251.307 18.3633 251.453 19.4766 251.453 20.8008V33H246.777V20.7656C246.777 19.8984 246.648 19.2129 246.391 18.709C246.145 18.2051 245.781 17.8477 245.301 17.6367C244.832 17.4258 244.252 17.3203 243.561 17.3203C242.846 17.3203 242.219 17.4668 241.68 17.7598C241.152 18.041 240.707 18.4336 240.344 18.9375C239.992 19.4414 239.723 20.0215 239.535 20.6777C239.348 21.334 239.254 22.043 239.254 22.8047ZM264.092 33.3516C262.65 33.3516 261.355 33.1172 260.207 32.6484C259.059 32.1797 258.08 31.5293 257.271 30.6973C256.475 29.8535 255.859 28.875 255.426 27.7617C255.004 26.6367 254.793 25.4297 254.793 24.1406V23.4375C254.793 21.9727 255.004 20.6426 255.426 19.4473C255.848 18.2402 256.445 17.2031 257.219 16.3359C257.992 15.4688 258.918 14.8008 259.996 14.332C261.074 13.8633 262.264 13.6289 263.564 13.6289C264.912 13.6289 266.102 13.8574 267.133 14.3145C268.164 14.7598 269.025 15.3926 269.717 16.2129C270.408 17.0332 270.93 18.0176 271.281 19.166C271.633 20.3027 271.809 21.5625 271.809 22.9453V24.8965L256.902 24.8965V21.6973L267.238 21.6973V21.3457C267.215 20.6074 267.074 19.9336 266.816 19.3242C266.559 18.7031 266.16 18.2109 265.621 17.8477C265.082 17.4727 264.385 17.2852 263.529 17.2852C262.838 17.2852 262.234 17.4375 261.719 17.7422C261.215 18.0352 260.793 18.457 260.453 19.0078C260.125 19.5469 259.879 20.1914 259.715 20.9414C259.551 21.6914 259.469 22.5234 259.469 23.4375V24.1406C259.469 24.9375 259.574 25.6758 259.785 26.3555C260.008 27.0352 260.33 27.627 260.752 28.1309C261.186 28.623 261.701 29.0098 262.299 29.291C262.908 29.5605 263.6 29.6953 264.373 29.6953C265.346 29.6953 266.225 29.5078 267.01 29.1328C267.807 28.7461 268.498 28.1777 269.084 27.4277L271.422 29.8535C271.023 30.4395 270.484 31.002 269.805 31.541C269.137 32.0801 268.328 32.5195 267.379 32.8594C266.43 33.1875 265.334 33.3516 264.092 33.3516ZM292.428 33.3516C290.986 33.3516 289.691 33.1172 288.543 32.6484C287.395 32.1797 286.416 31.5293 285.607 30.6973C284.811 29.8535 284.195 28.875 283.762 27.7617C283.34 26.6367 283.129 25.4297 283.129 24.1406V23.4375C283.129 21.9727 283.34 20.6426 283.762 19.4473C284.184 18.2402 284.781 17.2031 285.555 16.3359C286.328 15.4688 287.254 14.8008 288.332 14.332C289.41 13.8633 290.6 13.6289 291.9 13.6289C293.248 13.6289 294.438 13.8574 295.469 14.3145C296.5 14.7598 297.361 15.3926 298.053 16.2129C298.744 17.0332 299.266 18.0176 299.617 19.166C299.969 20.3027 300.145 21.5625 300.145 22.9453V24.8965L285.238 24.8965V21.6973L295.574 21.6973V21.3457C295.551 20.6074 295.41 19.9336 295.152 19.3242C294.895 18.7031 294.496 18.2109 293.957 17.8477C293.418 17.4727 292.721 17.2852 291.865 17.2852C291.174 17.2852 290.57 17.4375 290.055 17.7422C289.551 18.0352 289.129 18.457 288.789 19.0078C288.461 19.5469 288.215 20.1914 288.051 20.9414C287.887 21.6914 287.805 22.5234 287.805 23.4375V24.1406C287.805 24.9375 287.91 25.6758 288.121 26.3555C288.344 27.0352 288.666 27.627 289.088 28.1309C289.521 28.623 290.037 29.0098 290.635 29.291C291.244 29.5605 291.936 29.6953 292.709 29.6953C293.682 29.6953 294.561 29.5078 295.346 29.1328C296.143 28.7461 296.834 28.1777 297.42 27.4277L299.758 29.8535C299.359 30.4395 298.82 31.002 298.141 31.541C297.473 32.0801 296.664 32.5195 295.715 32.8594C294.766 33.1875 293.67 33.3516 292.428 33.3516ZM306.895 13.9805L310.287 20.0273L313.732 13.9805L318.777 13.9805L313.188 23.2969L319.006 33H313.961L310.322 26.6543L306.666 33H301.621L307.422 23.2969L301.867 13.9805L306.895 13.9805ZM326.107 17.6367V40.3125H321.449V13.9805H325.756L326.107 17.6367ZM338.324 23.2969V23.666C338.324 25.0488 338.16 26.332 337.832 27.5156C337.516 28.6875 337.047 29.7129 336.426 30.5918C335.805 31.459 335.031 32.1387 334.105 32.6309C333.191 33.1113 332.137 33.3516 330.941 33.3516C329.77 33.3516 328.75 33.1289 327.883 32.6836C327.016 32.2266 326.283 31.582 325.686 30.75C325.088 29.918 324.607 28.9512 324.244 27.8496C323.893 26.7363 323.629 25.5234 323.453 24.2109V23.0332C323.629 21.6387 323.893 20.373 324.244 19.2363C324.607 18.0879 325.088 17.0977 325.686 16.2656C326.283 15.4219 327.01 14.7715 327.865 14.3145C328.732 13.8574 329.746 13.6289 330.906 13.6289C332.113 13.6289 333.174 13.8574 334.088 14.3145C335.014 14.7715 335.793 15.4277 336.426 16.2832C337.059 17.1387 337.533 18.1582 337.85 19.3418C338.166 20.5254 338.324 21.8438 338.324 23.2969ZM333.666 23.666V23.2969C333.666 22.4531 333.59 21.6738 333.438 20.959C333.285 20.2324 333.051 19.5996 332.734 19.0605C332.418 18.5098 332.008 18.082 331.504 17.7773C331 17.4727 330.391 17.3203 329.676 17.3203C328.961 17.3203 328.346 17.4375 327.83 17.6719C327.314 17.9063 326.893 18.2402 326.564 18.6738C326.236 19.1074 325.979 19.623 325.791 20.2207C325.615 20.8066 325.498 21.457 325.439 22.1719V25.0898C325.545 25.957 325.75 26.7363 326.055 27.4277C326.359 28.1191 326.805 28.6699 327.391 29.0801C327.988 29.4902 328.762 29.6953 329.711 29.6953C330.426 29.6953 331.035 29.5371 331.539 29.2207C332.043 28.9043 332.453 28.4707 332.77 27.9199C333.086 27.3574 333.314 26.7129 333.455 25.9863C333.596 25.2598 333.666 24.4863 333.666 23.666ZM346.357 17.8652V33L341.717 33V13.9805H346.111L346.357 17.8652ZM352.141 13.8574L352.07 18.1816C351.812 18.1348 351.52 18.0996 351.191 18.0762C350.875 18.0527 350.576 18.041 350.295 18.041C349.58 18.041 348.953 18.1406 348.414 18.3398C347.875 18.5273 347.424 18.8027 347.061 19.166C346.709 19.5293 346.439 19.9746 346.252 20.502C346.064 21.0176 345.959 21.6035 345.936 22.2598L344.934 22.1367C344.934 20.9297 345.057 19.8105 345.303 18.7793C345.549 17.748 345.906 16.8457 346.375 16.0723C346.844 15.2988 347.43 14.7012 348.133 14.2793C348.848 13.8457 349.668 13.6289 350.594 13.6289C350.852 13.6289 351.127 13.6523 351.42 13.6992C351.725 13.7344 351.965 13.7871 352.141 13.8574ZM362.881 33.3516C361.439 33.3516 360.145 33.1172 358.996 32.6484C357.848 32.1797 356.869 31.5293 356.061 30.6973C355.264 29.8535 354.648 28.875 354.215 27.7617C353.793 26.6367 353.582 25.4297 353.582 24.1406V23.4375C353.582 21.9727 353.793 20.6426 354.215 19.4473C354.637 18.2402 355.234 17.2031 356.008 16.3359C356.781 15.4688 357.707 14.8008 358.785 14.332C359.863 13.8633 361.053 13.6289 362.354 13.6289C363.701 13.6289 364.891 13.8574 365.922 14.3145C366.953 14.7598 367.814 15.3926 368.506 16.2129C369.197 17.0332 369.719 18.0176 370.07 19.166C370.422 20.3027 370.598 21.5625 370.598 22.9453V24.8965H355.691V21.6973H366.027V21.3457C366.004 20.6074 365.863 19.9336 365.605 19.3242C365.348 18.7031 364.949 18.2109 364.41 17.8477C363.871 17.4727 363.174 17.2852 362.318 17.2852C361.627 17.2852 361.023 17.4375 360.508 17.7422C360.004 18.0352 359.582 18.457 359.242 19.0078C358.914 19.5469 358.668 20.1914 358.504 20.9414C358.34 21.6914 358.258 22.5234 358.258 23.4375V24.1406C358.258 24.9375 358.363 25.6758 358.574 26.3555C358.797 27.0352 359.119 27.627 359.541 28.1309C359.975 28.623 360.49 29.0098 361.088 29.291C361.697 29.5605 362.389 29.6953 363.162 29.6953C364.135 29.6953 365.014 29.5078 365.799 29.1328C366.596 28.7461 367.287 28.1777 367.873 27.4277L370.211 29.8535C369.812 30.4395 369.273 31.002 368.594 31.541C367.926 32.0801 367.117 32.5195 366.168 32.8594C365.219 33.1875 364.123 33.3516 362.881 33.3516ZM384.168 27.7969C384.168 27.3984 384.062 27.041 383.852 26.7246C383.641 26.4082 383.242 26.1211 382.656 25.8633C382.082 25.5938 381.238 25.3418 380.125 25.1074C379.141 24.8965 378.232 24.6328 377.4 24.3164C376.568 24 375.854 23.6191 375.256 23.1738C374.658 22.7168 374.189 22.1836 373.85 21.5742C373.521 20.9531 373.357 20.2383 373.357 19.4297C373.357 18.6445 373.527 17.9063 373.867 17.2148C374.207 16.5117 374.699 15.8965 375.344 15.3691C375.988 14.8301 376.773 14.4082 377.699 14.1035C378.625 13.7871 379.668 13.6289 380.828 13.6289C382.445 13.6289 383.834 13.8926 384.994 14.4199C386.166 14.9473 387.062 15.6738 387.684 16.5996C388.305 17.5137 388.615 18.5449 388.615 19.6934H383.975C383.975 19.1895 383.857 18.7324 383.623 18.3223C383.4 17.9121 383.055 17.584 382.586 17.3379C382.117 17.0801 381.525 16.9512 380.811 16.9512C380.166 16.9512 379.621 17.0566 379.176 17.2676C378.742 17.4785 378.414 17.7539 378.191 18.0938C377.969 18.4336 377.857 18.8086 377.857 19.2188C377.857 19.5234 377.916 19.7988 378.033 20.0449C378.162 20.2793 378.367 20.4961 378.648 20.6953C378.93 20.8945 379.311 21.0762 379.791 21.2402C380.283 21.4043 380.887 21.5625 381.602 21.7148C383.02 21.9961 384.256 22.3711 385.311 22.8398C386.377 23.2969 387.209 23.9063 387.807 24.668C388.404 25.4297 388.703 26.4023 388.703 27.5859C388.703 28.4297 388.521 29.2031 388.158 29.9063C387.795 30.5977 387.268 31.2012 386.576 31.7168C385.885 32.2324 385.059 32.6367 384.098 32.9297C383.137 33.2109 382.053 33.3516 380.846 33.3516C379.1 33.3516 377.623 33.041 376.416 32.4199C375.209 31.7871 374.295 30.9902 373.674 30.0293C373.053 29.0566 372.742 28.0488 372.742 27.0059L377.189 27.0059C377.225 27.7441 377.424 28.3359 377.787 28.7813C378.15 29.2266 378.607 29.5488 379.158 29.748C379.721 29.9355 380.312 30.0293 380.934 30.0293C381.637 30.0293 382.229 29.9355 382.709 29.748C383.189 29.5488 383.553 29.2852 383.799 28.957C384.045 28.6172 384.168 28.2305 384.168 27.7969ZM402.695 27.7969C402.695 27.3984 402.59 27.041 402.379 26.7246C402.168 26.4082 401.77 26.1211 401.184 25.8633C400.609 25.5938 399.766 25.3418 398.652 25.1074C397.668 24.8965 396.76 24.6328 395.928 24.3164C395.096 24 394.381 23.6191 393.783 23.1738C393.186 22.7168 392.717 22.1836 392.377 21.5742C392.049 20.9531 391.885 20.2383 391.885 19.4297C391.885 18.6445 392.055 17.9063 392.395 17.2148C392.734 16.5117 393.227 15.8965 393.871 15.3691C394.516 14.8301 395.301 14.4082 396.227 14.1035C397.152 13.7871 398.195 13.6289 399.355 13.6289C400.973 13.6289 402.361 13.8926 403.521 14.4199C404.693 14.9473 405.59 15.6738 406.211 16.5996C406.832 17.5137 407.143 18.5449 407.143 19.6934H402.502C402.502 19.1895 402.385 18.7324 402.15 18.3223C401.928 17.9121 401.582 17.584 401.113 17.3379C400.645 17.0801 400.053 16.9512 399.338 16.9512C398.693 16.9512 398.148 17.0566 397.703 17.2676C397.27 17.4785 396.941 17.7539 396.719 18.0938C396.496 18.4336 396.385 18.8086 396.385 19.2188C396.385 19.5234 396.443 19.7988 396.561 20.0449C396.689 20.2793 396.895 20.4961 397.176 20.6953C397.457 20.8945 397.838 21.0762 398.318 21.2402C398.811 21.4043 399.414 21.5625 400.129 21.7148C401.547 21.9961 402.783 22.3711 403.838 22.8398C404.904 23.2969 405.736 23.9063 406.334 24.668C406.932 25.4297 407.23 26.4023 407.23 27.5859C407.23 28.4297 407.049 29.2031 406.686 29.9063C406.322 30.5977 405.795 31.2012 405.104 31.7168C404.412 32.2324 403.586 32.6367 402.625 32.9297C401.664 33.2109 400.58 33.3516 399.373 33.3516C397.627 33.3516 396.15 33.041 394.943 32.4199C393.736 31.7871 392.822 30.9902 392.201 30.0293C391.58 29.0566 391.27 28.0488 391.27 27.0059H395.717C395.752 27.7441 395.951 28.3359 396.314 28.7813C396.678 29.2266 397.135 29.5488 397.686 29.748C398.248 29.9355 398.84 30.0293 399.461 30.0293C400.164 30.0293 400.756 29.9355 401.236 29.748C401.717 29.5488 402.08 29.2852 402.326 28.957C402.572 28.6172 402.695 28.2305 402.695 27.7969ZM415.686 13.9805V33H411.027V13.9805L415.686 13.9805ZM410.711 9.00586C410.711 8.31445 410.945 7.74023 411.414 7.2832C411.895 6.82617 412.539 6.59766 413.348 6.59766C414.156 6.59766 414.795 6.82617 415.264 7.2832C415.744 7.74023 415.984 8.31445 415.984 9.00586C415.984 9.68555 415.744 10.2539 415.264 10.7109C414.795 11.168 414.156 11.3965 413.348 11.3965C412.539 11.3965 411.895 11.168 411.414 10.7109C410.945 10.2539 410.711 9.68555 410.711 9.00586ZM419.289 23.6836V23.3145C419.289 21.9199 419.488 20.6367 419.887 19.4648C420.285 18.2813 420.865 17.2559 421.627 16.3887C422.389 15.5215 423.32 14.8477 424.422 14.3672C425.523 13.875 426.777 13.6289 428.184 13.6289C429.613 13.6289 430.879 13.875 431.98 14.3672C433.094 14.8477 434.031 15.5215 434.793 16.3887C435.555 17.2559 436.135 18.2813 436.533 19.4648C436.932 20.6367 437.131 21.9199 437.131 23.3145V23.6836C437.131 25.0664 436.932 26.3496 436.533 27.5332C436.135 28.7051 435.555 29.7305 434.793 30.6094C434.031 31.4766 433.1 32.1504 431.998 32.6309C430.896 33.1113 429.637 33.3516 428.219 33.3516C426.812 33.3516 425.553 33.1113 424.439 32.6309C423.326 32.1504 422.389 31.4766 421.627 30.6094C420.865 29.7305 420.285 28.7051 419.887 27.5332C419.488 26.3496 419.289 25.0664 419.289 23.6836ZM423.93 23.3145V23.6836C423.93 24.5156 424.012 25.2949 424.176 26.0215C424.34 26.748 424.592 27.3867 424.932 27.9375C425.271 28.4883 425.711 28.9219 426.25 29.2383C426.801 29.543 427.457 29.6953 428.219 29.6953C428.969 29.6953 429.613 29.543 430.152 29.2383C430.691 28.9219 431.131 28.4883 431.471 27.9375C431.822 27.3867 432.08 26.748 432.244 26.0215C432.408 25.2949 432.49 24.5156 432.49 23.6836V23.3145C432.49 22.4941 432.408 21.7266 432.244 21.0117C432.08 20.2852 431.822 19.6465 431.471 19.0957C431.131 18.5332 430.686 18.0938 430.135 17.7773C429.596 17.4492 428.945 17.2852 428.184 17.2852C427.434 17.2852 426.789 17.4492 426.25 17.7773C425.711 18.0938 425.271 18.5332 424.932 19.0957C424.592 19.6465 424.34 20.2852 424.176 21.0117C424.012 21.7266 423.93 22.4941 423.93 23.3145ZM445.059 18.041V33H440.418V13.9805H444.777L445.059 18.041ZM444.32 22.8047L442.949 22.8047C442.961 21.4219 443.148 20.168 443.512 19.043C443.875 17.918 444.385 16.9512 445.041 16.1426C445.709 15.334 446.5 14.7129 447.414 14.2793C448.328 13.8457 449.348 13.6289 450.473 13.6289C451.387 13.6289 452.213 13.7578 452.951 14.0156C453.689 14.2734 454.322 14.6836 454.85 15.2461C455.389 15.8086 455.799 16.5469 456.08 17.4609C456.373 18.3633 456.52 19.4766 456.52 20.8008V33H451.844V20.7656C451.844 19.8984 451.715 19.2129 451.457 18.709C451.211 18.2051 450.848 17.8477 450.367 17.6367C449.898 17.4258 449.318 17.3203 448.627 17.3203C447.912 17.3203 447.285 17.4668 446.746 17.7598C446.219 18.041 445.773 18.4336 445.41 18.9375C445.059 19.4414 444.789 20.0215 444.602 20.6777C444.414 21.334 444.32 22.043 444.32 22.8047ZM474.221 17.6367V40.3125H469.562V13.9805L473.869 13.9805L474.221 17.6367ZM486.438 23.2969V23.666C486.438 25.0488 486.273 26.332 485.945 27.5156C485.629 28.6875 485.16 29.7129 484.539 30.5918C483.918 31.459 483.145 32.1387 482.219 32.6309C481.305 33.1113 480.25 33.3516 479.055 33.3516C477.883 33.3516 476.863 33.1289 475.996 32.6836C475.129 32.2266 474.396 31.582 473.799 30.75C473.201 29.918 472.721 28.9512 472.357 27.8496C472.006 26.7363 471.742 25.5234 471.566 24.2109V23.0332C471.742 21.6387 472.006 20.373 472.357 19.2363C472.721 18.0879 473.201 17.0977 473.799 16.2656C474.396 15.4219 475.123 14.7715 475.979 14.3145C476.846 13.8574 477.859 13.6289 479.02 13.6289C480.227 13.6289 481.287 13.8574 482.201 14.3145C483.127 14.7715 483.906 15.4277 484.539 16.2832C485.172 17.1387 485.646 18.1582 485.963 19.3418C486.279 20.5254 486.438 21.8438 486.438 23.2969ZM481.779 23.666V23.2969C481.779 22.4531 481.703 21.6738 481.551 20.959C481.398 20.2324 481.164 19.5996 480.848 19.0605C480.531 18.5098 480.121 18.082 479.617 17.7773C479.113 17.4727 478.504 17.3203 477.789 17.3203C477.074 17.3203 476.459 17.4375 475.943 17.6719C475.428 17.9063 475.006 18.2402 474.678 18.6738C474.35 19.1074 474.092 19.623 473.904 20.2207C473.729 20.8066 473.611 21.457 473.553 22.1719V25.0898C473.658 25.957 473.863 26.7363 474.168 27.4277C474.473 28.1191 474.918 28.6699 475.504 29.0801C476.102 29.4902 476.875 29.6953 477.824 29.6953C478.539 29.6953 479.148 29.5371 479.652 29.2207C480.156 28.9043 480.566 28.4707 480.883 27.9199C481.199 27.3574 481.428 26.7129 481.568 25.9863C481.709 25.2598 481.779 24.4863 481.779 23.666ZM498.373 33.3516C496.932 33.3516 495.637 33.1172 494.488 32.6484C493.34 32.1797 492.361 31.5293 491.553 30.6973C490.756 29.8535 490.141 28.875 489.707 27.7617C489.285 26.6367 489.074 25.4297 489.074 24.1406V23.4375C489.074 21.9727 489.285 20.6426 489.707 19.4473C490.129 18.2402 490.727 17.2031 491.5 16.3359C492.273 15.4688 493.199 14.8008 494.277 14.332C495.355 13.8633 496.545 13.6289 497.846 13.6289C499.193 13.6289 500.383 13.8574 501.414 14.3145C502.445 14.7598 503.307 15.3926 503.998 16.2129C504.689 17.0332 505.211 18.0176 505.562 19.166C505.914 20.3027 506.09 21.5625 506.09 22.9453V24.8965H491.184V21.6973H501.52V21.3457C501.496 20.6074 501.355 19.9336 501.098 19.3242C500.84 18.7031 500.441 18.2109 499.902 17.8477C499.363 17.4727 498.666 17.2852 497.811 17.2852C497.119 17.2852 496.516 17.4375 496 17.7422C495.496 18.0352 495.074 18.457 494.734 19.0078C494.406 19.5469 494.16 20.1914 493.996 20.9414C493.832 21.6914 493.75 22.5234 493.75 23.4375V24.1406C493.75 24.9375 493.855 25.6758 494.066 26.3555C494.289 27.0352 494.611 27.627 495.033 28.1309C495.467 28.623 495.982 29.0098 496.58 29.291C497.189 29.5605 497.881 29.6953 498.654 29.6953C499.627 29.6953 500.506 29.5078 501.291 29.1328C502.088 28.7461 502.779 28.1777 503.365 27.4277L505.703 29.8535C505.305 30.4395 504.766 31.002 504.086 31.541C503.418 32.0801 502.609 32.5195 501.66 32.8594C500.711 33.1875 499.615 33.3516 498.373 33.3516ZM513.842 17.8652V33H509.201V13.9805H513.596L513.842 17.8652ZM519.625 13.8574L519.555 18.1816C519.297 18.1348 519.004 18.0996 518.676 18.0762C518.359 18.0527 518.061 18.041 517.779 18.041C517.064 18.041 516.438 18.1406 515.898 18.3398C515.359 18.5273 514.908 18.8027 514.545 19.166C514.193 19.5293 513.924 19.9746 513.736 20.502C513.549 21.0176 513.443 21.6035 513.42 22.2598L512.418 22.1367C512.418 20.9297 512.541 19.8105 512.787 18.7793C513.033 17.748 513.391 16.8457 513.859 16.0723C514.328 15.2988 514.914 14.7012 515.617 14.2793C516.332 13.8457 517.152 13.6289 518.078 13.6289C518.336 13.6289 518.611 13.6523 518.904 13.6992C519.209 13.7344 519.449 13.7871 519.625 13.8574ZM530.312 23.6836V23.3145C530.312 21.9199 530.512 20.6367 530.91 19.4648C531.309 18.2813 531.889 17.2559 532.65 16.3887C533.412 15.5215 534.344 14.8477 535.445 14.3672C536.547 13.875 537.801 13.6289 539.207 13.6289C540.637 13.6289 541.902 13.875 543.004 14.3672C544.117 14.8477 545.055 15.5215 545.816 16.3887C546.578 17.2559 547.158 18.2813 547.557 19.4648C547.955 20.6367 548.154 21.9199 548.154 23.3145V23.6836C548.154 25.0664 547.955 26.3496 547.557 27.5332C547.158 28.7051 546.578 29.7305 545.816 30.6094C545.055 31.4766 544.123 32.1504 543.021 32.6309C541.92 33.1113 540.66 33.3516 539.242 33.3516C537.836 33.3516 536.576 33.1113 535.463 32.6309C534.35 32.1504 533.412 31.4766 532.65 30.6094C531.889 29.7305 531.309 28.7051 530.91 27.5332C530.512 26.3496 530.312 25.0664 530.312 23.6836ZM534.953 23.3145V23.6836C534.953 24.5156 535.035 25.2949 535.199 26.0215C535.363 26.748 535.615 27.3867 535.955 27.9375C536.295 28.4883 536.734 28.9219 537.273 29.2383C537.824 29.543 538.48 29.6953 539.242 29.6953C539.992 29.6953 540.637 29.543 541.176 29.2383C541.715 28.9219 542.154 28.4883 542.494 27.9375C542.846 27.3867 543.104 26.748 543.268 26.0215C543.432 25.2949 543.514 24.5156 543.514 23.6836V23.3145C543.514 22.4941 543.432 21.7266 543.268 21.0117C543.104 20.2852 542.846 19.6465 542.494 19.0957C542.154 18.5332 541.709 18.0938 541.158 17.7773C540.619 17.4492 539.969 17.2852 539.207 17.2852C538.457 17.2852 537.812 17.4492 537.273 17.7773C536.734 18.0938 536.295 18.5332 535.955 19.0957C535.615 19.6465 535.363 20.2852 535.199 21.0117C535.035 21.7266 534.953 22.4941 534.953 23.3145ZM556.17 17.8652V33H551.529V13.9805H555.924L556.17 17.8652ZM561.953 13.8574L561.883 18.1816C561.625 18.1348 561.332 18.0996 561.004 18.0762C560.688 18.0527 560.389 18.041 560.107 18.041C559.393 18.041 558.766 18.1406 558.227 18.3398C557.688 18.5273 557.236 18.8027 556.873 19.166C556.521 19.5293 556.252 19.9746 556.064 20.502C555.877 21.0176 555.771 21.6035 555.748 22.2598L554.746 22.1367C554.746 20.9297 554.869 19.8105 555.115 18.7793C555.361 17.748 555.719 16.8457 556.188 16.0723C556.656 15.2988 557.242 14.7012 557.945 14.2793C558.66 13.8457 559.48 13.6289 560.406 13.6289C560.664 13.6289 560.939 13.6523 561.232 13.6992C561.537 13.7344 561.777 13.7871 561.953 13.8574ZM576.244 13.9805H580.463V32.4199C580.463 34.1426 580.088 35.6016 579.338 36.7969C578.6 38.0039 577.562 38.918 576.227 39.5391C574.891 40.1719 573.338 40.4883 571.568 40.4883C570.807 40.4883 569.98 40.3828 569.09 40.1719C568.211 39.9609 567.361 39.627 566.541 39.1699C565.732 38.7246 565.059 38.1445 564.52 37.4297L566.611 34.6875C567.244 35.4258 567.959 35.9824 568.756 36.3574C569.553 36.7441 570.414 36.9375 571.34 36.9375C572.277 36.9375 573.074 36.7617 573.73 36.4102C574.398 36.0703 574.908 35.5664 575.26 34.8984C575.623 34.2422 575.805 33.4336 575.805 32.4727V18.3223L576.244 13.9805ZM563.395 23.7188V23.3496C563.395 21.8965 563.57 20.5781 563.922 19.3945C564.273 18.1992 564.777 17.1738 565.434 16.3184C566.102 15.4629 566.904 14.8008 567.842 14.332C568.791 13.8633 569.857 13.6289 571.041 13.6289C572.295 13.6289 573.35 13.8574 574.205 14.3145C575.072 14.7715 575.787 15.4219 576.35 16.2656C576.924 17.1094 577.369 18.1113 577.686 19.2715C578.014 20.4199 578.266 21.6855 578.441 23.0684V24.0703C578.277 25.418 578.014 26.6543 577.65 27.7793C577.299 28.9043 576.83 29.8887 576.244 30.7324C575.658 31.5645 574.932 32.209 574.064 32.666C573.197 33.123 572.178 33.3516 571.006 33.3516C569.834 33.3516 568.779 33.1113 567.842 32.6309C566.904 32.1504 566.102 31.4766 565.434 30.6094C564.777 29.7422 564.273 28.7227 563.922 27.5508C563.57 26.3789 563.395 25.1016 563.395 23.7188ZM568.035 23.3496V23.7188C568.035 24.5391 568.117 25.3066 568.281 26.0215C568.445 26.7363 568.697 27.3691 569.037 27.9199C569.377 28.459 569.805 28.8809 570.32 29.1855C570.836 29.4902 571.451 29.6426 572.166 29.6426C573.127 29.6426 573.912 29.4434 574.521 29.0449C575.143 28.6348 575.611 28.0781 575.928 27.375C576.256 26.6602 576.467 25.8574 576.561 24.9668V22.207C576.502 21.5039 576.373 20.8535 576.174 20.2559C575.986 19.6582 575.723 19.1426 575.383 18.709C575.043 18.2754 574.609 17.9355 574.082 17.6895C573.555 17.4434 572.928 17.3203 572.201 17.3203C571.498 17.3203 570.883 17.4785 570.355 17.7949C569.828 18.0996 569.395 18.5273 569.055 19.0781C568.715 19.6289 568.457 20.2676 568.281 20.9941C568.117 21.7207 568.035 22.5059 568.035 23.3496ZM595.123 28.957V20.1855C595.123 19.541 595.012 18.9844 594.789 18.5156C594.566 18.0469 594.227 17.6836 593.77 17.4258C593.312 17.168 592.732 17.0391 592.029 17.0391C591.408 17.0391 590.863 17.1445 590.395 17.3555C589.938 17.5664 589.586 17.8652 589.34 18.252C589.094 18.627 588.971 19.0605 588.971 19.5527H584.312C584.312 18.7676 584.5 18.0234 584.875 17.3203C585.25 16.6055 585.783 15.9727 586.475 15.4219C587.178 14.8594 588.016 14.4199 588.988 14.1035C589.973 13.7871 591.074 13.6289 592.293 13.6289C593.734 13.6289 595.018 13.875 596.143 14.3672C597.279 14.8477 598.17 15.5742 598.814 16.5469C599.471 17.5195 599.799 18.7441 599.799 20.2207V28.5176C599.799 29.4668 599.857 30.2813 599.975 30.9609C600.104 31.6289 600.291 32.209 600.537 32.7012V33H595.809C595.586 32.5195 595.416 31.9102 595.299 31.1719C595.182 30.4219 595.123 29.6836 595.123 28.957ZM595.773 21.416L595.809 24.1758H592.873C592.146 24.1758 591.508 24.252 590.957 24.4043C590.406 24.5449 589.955 24.7559 589.604 25.0371C589.252 25.3066 588.988 25.6348 588.812 26.0215C588.637 26.3965 588.549 26.8242 588.549 27.3047C588.549 27.7734 588.654 28.1953 588.865 28.5703C589.088 28.9453 589.404 29.2441 589.814 29.4668C590.236 29.6777 590.729 29.7832 591.291 29.7832C592.111 29.7832 592.826 29.6191 593.436 29.291C594.045 28.9512 594.52 28.541 594.859 28.0605C595.199 27.5801 595.381 27.123 595.404 26.6895L596.74 28.6934C596.576 29.1738 596.33 29.6836 596.002 30.2227C595.674 30.7617 595.252 31.2656 594.736 31.7344C594.221 32.2031 593.6 32.5898 592.873 32.8945C592.146 33.1992 591.303 33.3516 590.342 33.3516C589.111 33.3516 588.01 33.1055 587.037 32.6133C586.064 32.1211 585.297 31.4473 584.734 30.5918C584.172 29.7363 583.891 28.7637 583.891 27.6738C583.891 26.666 584.078 25.7754 584.453 25.002C584.828 24.2285 585.385 23.5781 586.123 23.0508C586.861 22.5117 587.775 22.1074 588.865 21.8379C589.967 21.5566 591.227 21.416 592.645 21.416H595.773ZM608.535 18.041V33H603.895V13.9805H608.254L608.535 18.041ZM607.797 22.8047H606.426C606.438 21.4219 606.625 20.168 606.988 19.043C607.352 17.918 607.861 16.9512 608.518 16.1426C609.186 15.334 609.977 14.7129 610.891 14.2793C611.805 13.8457 612.824 13.6289 613.949 13.6289C614.863 13.6289 615.689 13.7578 616.428 14.0156C617.166 14.2734 617.799 14.6836 618.326 15.2461C618.865 15.8086 619.275 16.5469 619.557 17.4609C619.85 18.3633 619.996 19.4766 619.996 20.8008V33H615.32V20.7656C615.32 19.8984 615.191 19.2129 614.934 18.709C614.688 18.2051 614.324 17.8477 613.844 17.6367C613.375 17.4258 612.795 17.3203 612.104 17.3203C611.389 17.3203 610.762 17.4668 610.223 17.7598C609.695 18.041 609.25 18.4336 608.887 18.9375C608.535 19.4414 608.266 20.0215 608.078 20.6777C607.891 21.334 607.797 22.043 607.797 22.8047Z" fill="#505459"/>
</g>
<defs>
<filter id="filter0_d_15_4" x="187.213" y="6.59766" width="436.783" height="41.8906" filterUnits="userSpaceOnUse" color-interpolation-filters="sRGB">
<feFlood flood-opacity="0" result="BackgroundImageFix"/>
<feColorMatrix in="SourceAlpha" type="matrix" values="0 0 0 0 0 0 0 0 0 0 0 0 0 0 0 0 0 0 127 0" result="hardAlpha"/>
<feOffset dy="4"/>
<feGaussianBlur stdDeviation="2"/>
<feComposite in2="hardAlpha" operator="out"/>
<feColorMatrix type="matrix" values="0 0 0 0 0 0 0 0 0 0 0 0 0 0 0 0 0 0 0.25 0"/>
<feBlend mode="normal" in2="BackgroundImageFix" result="effect1_dropShadow_15_4"/>
<feBlend mode="normal" in="SourceGraphic" in2="effect1_dropShadow_15_4" result="shape"/>
</filter>
</defs>
</svg>
